<svg width="78" height="246" viewBox="0 0 78 246" fill="none" xmlns="http://www.w3.org/2000/svg">
<path d="M67.0654 26C67.0654 26 70.8854 31.86 69.4254 40.78C67.9654 49.7 57.7354 51.23 64.1654 65.75C70.5954 80.27 76.4554 90.21 74.6954 108.55C72.9354 126.89 65.9254 147.74 65.9254 147.74C65.9254 147.74 78.7954 153.6 77.3354 165.83C75.8754 178.06 74.9954 201.75 67.3954 207.87C67.3954 207.87 74.1255 215.15 74.9955 219.28C75.8755 223.41 64.4654 228 64.4654 228C64.4654 228 63.8754 229.69 66.5154 232.23C69.1454 234.78 72.0754 242.93 59.2054 245.48C46.3354 248.03 41.0754 239.88 41.6554 235.03C42.2454 230.19 42.6754 220.86 42.6754 220.86L38.7254 220.6L34.7754 220.86C34.7754 220.86 35.2154 230.19 35.7954 235.03C36.3854 239.87 31.1155 248.02 18.2455 245.48C5.37545 242.93 8.3054 234.78 10.9354 232.23C13.5654 229.68 12.9854 228 12.9854 228C12.9854 228 1.57541 223.41 2.45541 219.28C3.33541 215.15 10.0554 207.87 10.0554 207.87C2.45539 201.76 1.57545 178.06 0.115449 165.83C-1.34455 153.6 11.5254 147.74 11.5254 147.74C11.5254 147.74 4.50546 126.9 2.75546 108.55C1.00546 90.21 6.85537 80.27 13.2854 65.75C19.7154 51.23 9.49536 49.7 8.02536 40.78C6.56536 31.86 10.3855 26 10.3855 26C10.3855 26 3.9054 3.58 10.3154 0L25.6954 11.73C25.6954 11.73 33.4454 10.2 38.7054 10.2C43.9654 10.2 51.7154 11.73 51.7154 11.73L67.6854 0C70.1454 2.39 71.8954 5.88 67.0354 26H67.0654Z" fill="url(#paint0_radial_420_6384)"/>
<mask id="mask0_420_6384" style="mask-type:luminance" maskUnits="userSpaceOnUse" x="0" y="0" width="78" height="246">
<path d="M67.0654 26C67.0654 26 70.8854 31.86 69.4254 40.78C67.9654 49.7 57.7354 51.23 64.1654 65.75C70.5954 80.27 76.4554 90.21 74.6954 108.55C72.9354 126.89 65.9254 147.74 65.9254 147.74C65.9254 147.74 78.7954 153.6 77.3354 165.83C75.8754 178.06 74.9954 201.75 67.3954 207.87C67.3954 207.87 74.1255 215.15 74.9955 219.28C75.8755 223.41 64.4654 228 64.4654 228C64.4654 228 63.8754 229.69 66.5154 232.23C69.1454 234.78 72.0754 242.93 59.2054 245.48C46.3354 248.03 41.0754 239.88 41.6554 235.03C42.2454 230.19 42.6754 220.86 42.6754 220.86L38.7254 220.6L34.7754 220.86C34.7754 220.86 35.2154 230.19 35.7954 235.03C36.3854 239.87 31.1155 248.02 18.2455 245.48C5.37545 242.93 8.3054 234.78 10.9354 232.23C13.5654 229.68 12.9854 228 12.9854 228C12.9854 228 1.57541 223.41 2.45541 219.28C3.33541 215.15 10.0554 207.87 10.0554 207.87C2.45539 201.76 1.57545 178.06 0.115449 165.83C-1.34455 153.6 11.5254 147.74 11.5254 147.74C11.5254 147.74 4.50546 126.9 2.75546 108.55C1.00546 90.21 6.85537 80.27 13.2854 65.75C19.7154 51.23 9.49536 49.7 8.02536 40.78C6.56536 31.86 10.3855 26 10.3855 26C10.3855 26 3.9054 3.58 10.3154 0L25.6954 11.73C25.6954 11.73 33.4454 10.2 38.7054 10.2C43.9654 10.2 51.7154 11.73 51.7154 11.73L67.6854 0C70.1454 2.39 71.8954 5.88 67.0354 26H67.0654Z" fill="white"/>
</mask>
<g mask="url(#mask0_420_6384)">
<path d="M102.785 34.3198C102.785 60.9298 74.1055 82.5098 38.7355 82.5098C3.36547 82.5098 -25.3146 60.9398 -25.3146 34.3198" stroke="url(#paint1_linear_420_6384)" stroke-width="3.12" stroke-miterlimit="10"/>
<path d="M102.785 25.1099C102.785 51.7199 74.1055 73.2998 38.7355 73.2998C3.36547 73.2998 -25.3146 51.7299 -25.3146 25.1099" stroke="url(#paint2_linear_420_6384)" stroke-width="7.01" stroke-miterlimit="10"/>
<path d="M10.0254 139.88C13.2954 153.08 17.3955 211.17 13.0055 227.98C10.6455 237.033 10.6455 237.033 13.0055 227.98L-2.49451 228.74L-7.17456 187.72L-4.83459 141.35L10.0254 139.87" fill="url(#paint3_radial_420_6384)"/>
<path d="M67.4555 139.88C64.1855 153.08 60.0855 211.17 64.4755 227.98C66.8355 237.033 66.8355 237.033 64.4755 227.98L79.9755 228.74L84.6554 187.72L82.3155 141.35L67.4555 139.87" fill="url(#paint4_radial_420_6384)"/>
<path d="M38.7254 121.28C32.5654 121.28 26.8854 128.96 27.0254 133.08C27.1654 137.21 32.5654 209.22 35.4254 226.13L38.7154 227.99L42.0055 226.13C44.8655 209.21 50.2654 137.2 50.4054 133.08C50.5454 128.96 44.8654 121.28 38.7154 121.28H38.7254Z" fill="url(#paint5_radial_420_6384)"/>
</g>
<path d="M45.6255 43.1598C45.6255 43.1598 46.0955 36.5598 51.6055 35.5398C57.1155 34.5198 58.9655 34.7497 58.9655 34.7497C58.9655 34.7497 56.5854 40.9098 52.7054 41.7198C48.8254 42.5298 45.6255 43.1698 45.6255 43.1698V43.1598Z" fill="white"/>
<path d="M21.9755 15.6897L11.3055 6.69971C9.07546 7.87971 11.0554 20.1897 13.7854 23.7397C13.7854 23.7397 19.9855 16.6397 21.9755 15.6897Z" fill="url(#paint6_linear_420_6384)"/>
<path d="M55.1954 16.3597L66.0055 6.69971C68.2155 7.82971 65.9854 20.6597 63.2854 24.0497C63.2854 24.0497 57.1554 17.2697 55.1854 16.3597H55.1954Z" fill="url(#paint7_linear_420_6384)"/>
<path d="M30.8655 56.6597C31.5755 56.9197 32.2855 56.9497 32.9855 56.9797C33.6955 56.9897 34.3954 56.9797 35.0854 56.8797C35.7754 56.7997 36.4554 56.6697 37.0854 56.4197C37.7054 56.1697 38.2955 55.8097 38.7355 55.1797C38.6955 55.9597 38.1254 56.6897 37.4454 57.1097C36.7654 57.5597 35.9754 57.7597 35.2054 57.8697C34.4254 57.9497 33.6455 57.9197 32.8855 57.7497C32.1455 57.5697 31.3555 57.2697 30.8655 56.6597Z" fill="url(#paint8_linear_420_6384)"/>
<path d="M46.6155 56.6595C46.1255 57.2795 45.3355 57.5795 44.5955 57.7495C43.8355 57.9295 43.0554 57.9595 42.2754 57.8795C41.5054 57.7795 40.7154 57.5694 40.0354 57.1194C39.3554 56.6994 38.7855 55.9695 38.7455 55.1895C39.1955 55.8195 39.7754 56.1794 40.3954 56.4294C41.0254 56.6694 41.7054 56.8095 42.3954 56.8895C43.0854 56.9795 43.7855 56.9994 44.4955 56.9894C45.2055 56.9594 45.9055 56.9295 46.6155 56.6695V56.6595Z" fill="url(#paint9_linear_420_6384)"/>
<path d="M38.7355 50.9097C37.2955 50.9097 34.7854 51.2496 35.6854 52.6196C36.5854 53.9896 37.4755 55.1896 38.7355 55.1896C40.3555 55.1896 40.8854 53.9896 41.7854 52.6196C42.6854 51.2496 40.3455 50.9097 38.7355 50.9097Z" fill="url(#paint10_linear_420_6384)"/>
<path d="M31.6854 43.1598C31.6854 43.1598 31.2154 36.5598 25.7054 35.5398C20.1954 34.5198 18.3455 34.7497 18.3455 34.7497C18.3455 34.7497 20.7255 40.9098 24.6055 41.7198C28.4855 42.5298 31.6854 43.1698 31.6854 43.1698V43.1598Z" fill="white"/>
<path d="M28.4254 17.2096C28.8154 19.3096 30.1855 20.9996 31.4755 22.6296C32.7855 24.2896 34.2554 26.1797 34.0454 28.4097C33.9654 29.2897 35.3354 29.2797 35.4154 28.4097C35.8554 23.6597 30.5455 21.1797 29.7555 16.8397C29.5955 15.9797 28.2754 16.3396 28.4354 17.1996L28.4254 17.2096Z" fill="url(#paint11_linear_420_6384)"/>
<path d="M47.7355 16.8501C46.9355 21.1901 41.6255 23.6601 42.0755 28.4201C42.1555 29.2901 43.5255 29.3001 43.4455 28.4201C43.2355 26.1901 44.7054 24.2901 46.0154 22.6401C47.3054 21.0101 48.6755 19.3201 49.0655 17.2201C49.2255 16.3601 47.9055 15.9901 47.7455 16.8601L47.7355 16.8501Z" fill="url(#paint12_linear_420_6384)"/>
<defs>
<radialGradient id="paint0_radial_420_6384" cx="0" cy="0" r="1" gradientUnits="userSpaceOnUse" gradientTransform="translate(38.7354 121.807) scale(95.43 90.6585)">
<stop stop-color="#070603"/>
<stop offset="1" stop-color="#544629"/>
</radialGradient>
<linearGradient id="paint1_linear_420_6384" x1="-26.8646" y1="59.1898" x2="104.345" y2="59.1898" gradientUnits="userSpaceOnUse">
<stop offset="0.39" stop-color="#8B6E00"/>
<stop offset="0.55" stop-color="#C49B00"/>
<stop offset="0.74" stop-color="#7A6000"/>
</linearGradient>
<linearGradient id="paint2_linear_420_6384" x1="-28.8146" y1="50.9598" x2="106.295" y2="50.9598" gradientUnits="userSpaceOnUse">
<stop stop-color="#ECA200"/>
<stop offset="0.13" stop-color="#E89E00"/>
<stop offset="0.26" stop-color="#DE9200"/>
<stop offset="0.38" stop-color="#CC7E00"/>
<stop offset="0.51" stop-color="#B46300"/>
<stop offset="0.54" stop-color="#AE5C00"/>
<stop offset="0.6" stop-color="#C47500"/>
<stop offset="0.67" stop-color="#D68900"/>
<stop offset="0.74" stop-color="#E29700"/>
<stop offset="0.84" stop-color="#E99F00"/>
<stop offset="1" stop-color="#ECA200"/>
</linearGradient>
<radialGradient id="paint3_radial_420_6384" cx="0" cy="0" r="1" gradientUnits="userSpaceOnUse" gradientTransform="translate(3.86545 187.774) scale(37.36 35.492)">
<stop/>
<stop offset="1" stop-color="#544629"/>
</radialGradient>
<radialGradient id="paint4_radial_420_6384" cx="0" cy="0" r="1" gradientUnits="userSpaceOnUse" gradientTransform="translate(73.6055 187.774) scale(37.3599 35.492)">
<stop/>
<stop offset="1" stop-color="#544629"/>
</radialGradient>
<radialGradient id="paint5_radial_420_6384" cx="0" cy="0" r="1" gradientUnits="userSpaceOnUse" gradientTransform="translate(39.6754 135.895) scale(64.6 61.37)">
<stop/>
<stop offset="0.2" stop-color="#050402"/>
<stop offset="0.43" stop-color="#131009"/>
<stop offset="0.69" stop-color="#2B2415"/>
<stop offset="0.95" stop-color="#4D4025"/>
<stop offset="1" stop-color="#544629"/>
</radialGradient>
<linearGradient id="paint6_linear_420_6384" x1="10.6755" y1="11.2697" x2="18.8754" y2="20.8797" gradientUnits="userSpaceOnUse">
<stop stop-color="#FFCA00"/>
<stop offset="1" stop-color="#896D15"/>
</linearGradient>
<linearGradient id="paint7_linear_420_6384" x1="66.0355" y1="12.2297" x2="58.6655" y2="20.8997" gradientUnits="userSpaceOnUse">
<stop stop-color="#FFCA00"/>
<stop offset="1" stop-color="#896D15"/>
</linearGradient>
<linearGradient id="paint8_linear_420_6384" x1="30.5455" y1="56.5597" x2="39.2055" y2="56.5597" gradientUnits="userSpaceOnUse">
<stop stop-color="#FFCA00"/>
<stop offset="1" stop-color="#896D15"/>
</linearGradient>
<linearGradient id="paint9_linear_420_6384" x1="38.2655" y1="56.5595" x2="46.9355" y2="56.5595" gradientUnits="userSpaceOnUse">
<stop stop-color="#896D15"/>
<stop offset="1" stop-color="#FFCA00"/>
</linearGradient>
<linearGradient id="paint10_linear_420_6384" x1="38.7354" y1="55.4296" x2="38.7354" y2="50.5197" gradientUnits="userSpaceOnUse">
<stop stop-color="#896D15"/>
<stop offset="1" stop-color="#FFCA00"/>
</linearGradient>
<linearGradient id="paint11_linear_420_6384" x1="28.8554" y1="22.7097" x2="34.9754" y2="22.7097" gradientUnits="userSpaceOnUse">
<stop stop-color="#FFCA00"/>
<stop offset="1" stop-color="#896D15"/>
</linearGradient>
<linearGradient id="paint12_linear_420_6384" x1="42.4955" y1="22.7101" x2="48.6255" y2="22.7101" gradientUnits="userSpaceOnUse">
<stop stop-color="#896D15"/>
<stop offset="1" stop-color="#FFCA00"/>
</linearGradient>
</defs>
</svg>
