<svg width="78" height="246" viewBox="0 0 78 246" fill="none" xmlns="http://www.w3.org/2000/svg">
<path d="M67.0655 26C67.0655 26 70.8854 31.86 69.4254 40.78C67.9654 49.7 57.7354 51.23 64.1654 65.75C70.5954 80.27 76.4555 90.21 74.6955 108.55C72.9355 126.89 65.9254 147.74 65.9254 147.74C65.9254 147.74 78.7955 153.6 77.3355 165.83C75.8755 178.06 74.9955 201.75 67.3955 207.87C67.3955 207.87 74.1255 215.15 74.9955 219.28C75.8755 223.41 64.4654 228 64.4654 228C64.4654 228 63.8755 229.69 66.5155 232.23C69.1455 234.78 72.0755 242.93 59.2055 245.48C46.3355 248.03 41.0754 239.88 41.6554 235.03C42.2454 230.19 42.6754 220.86 42.6754 220.86L38.7254 220.6L34.7754 220.86C34.7754 220.86 35.2154 230.19 35.7954 235.03C36.3854 239.87 31.1155 248.02 18.2455 245.48C5.37545 242.93 8.30546 234.78 10.9355 232.23C13.5655 229.68 12.9854 228 12.9854 228C12.9854 228 1.57548 223.41 2.45548 219.28C3.33548 215.15 10.0555 207.87 10.0555 207.87C2.45545 201.76 1.57545 178.06 0.115448 165.83C-1.34455 153.6 11.5254 147.74 11.5254 147.74C11.5254 147.74 4.50546 126.9 2.75546 108.55C1.00546 90.21 6.85543 80.27 13.2854 65.75C19.7154 51.23 9.49542 49.7 8.02542 40.78C6.56542 31.86 10.3855 26 10.3855 26C10.3855 26 3.90546 3.58 10.3155 0L25.6955 11.73C25.6955 11.73 33.4455 10.2 38.7055 10.2C43.9655 10.2 51.7154 11.73 51.7154 11.73L67.6855 0C70.1455 2.39 71.8954 5.88 67.0354 26H67.0655Z" fill="url(#paint0_radial_420_6361)"/>
<mask id="mask0_420_6361" style="mask-type:luminance" maskUnits="userSpaceOnUse" x="0" y="0" width="78" height="246">
<path d="M67.0655 26C67.0655 26 70.8854 31.86 69.4254 40.78C67.9654 49.7 57.7354 51.23 64.1654 65.75C70.5954 80.27 76.4555 90.21 74.6955 108.55C72.9355 126.89 65.9254 147.74 65.9254 147.74C65.9254 147.74 78.7955 153.6 77.3355 165.83C75.8755 178.06 74.9955 201.75 67.3955 207.87C67.3955 207.87 74.1255 215.15 74.9955 219.28C75.8755 223.41 64.4654 228 64.4654 228C64.4654 228 63.8755 229.69 66.5155 232.23C69.1455 234.78 72.0755 242.93 59.2055 245.48C46.3355 248.03 41.0754 239.88 41.6554 235.03C42.2454 230.19 42.6754 220.86 42.6754 220.86L38.7254 220.6L34.7754 220.86C34.7754 220.86 35.2154 230.19 35.7954 235.03C36.3854 239.87 31.1155 248.02 18.2455 245.48C5.37545 242.93 8.30546 234.78 10.9355 232.23C13.5655 229.68 12.9854 228 12.9854 228C12.9854 228 1.57548 223.41 2.45548 219.28C3.33548 215.15 10.0555 207.87 10.0555 207.87C2.45545 201.76 1.57545 178.06 0.115448 165.83C-1.34455 153.6 11.5254 147.74 11.5254 147.74C11.5254 147.74 4.50546 126.9 2.75546 108.55C1.00546 90.21 6.85543 80.27 13.2854 65.75C19.7154 51.23 9.49542 49.7 8.02542 40.78C6.56542 31.86 10.3855 26 10.3855 26C10.3855 26 3.90546 3.58 10.3155 0L25.6955 11.73C25.6955 11.73 33.4455 10.2 38.7055 10.2C43.9655 10.2 51.7154 11.73 51.7154 11.73L67.6855 0C70.1455 2.39 71.8954 5.88 67.0354 26H67.0655Z" fill="white"/>
</mask>
<g mask="url(#mask0_420_6361)">
<path d="M102.786 34.3301C102.786 60.9401 74.1055 82.5201 38.7355 82.5201C3.36554 82.5201 -25.3145 60.9501 -25.3145 34.3301" stroke="url(#paint1_linear_420_6361)" stroke-width="3.12" stroke-miterlimit="10"/>
<path d="M102.786 25.1201C102.786 51.7301 74.1055 73.3101 38.7355 73.3101C3.36554 73.3101 -25.3145 51.7401 -25.3145 25.1201" stroke="url(#paint2_linear_420_6361)" stroke-width="7.01" stroke-miterlimit="10"/>
<path d="M10.0255 139.89C13.2955 153.09 17.3956 211.18 13.0056 227.99C10.6456 237.043 10.6456 237.043 13.0056 227.99L-2.49445 228.75L-7.17444 187.73L-4.83447 141.36L10.0255 139.88" fill="url(#paint3_radial_420_6361)"/>
<path d="M67.4555 139.89C64.1855 153.09 60.0855 211.18 64.4755 227.99C66.8355 237.043 66.8355 237.043 64.4755 227.99L79.9755 228.75L84.6555 187.73L82.3155 141.36L67.4555 139.88" fill="url(#paint4_radial_420_6361)"/>
<path d="M38.7255 121.28C32.5655 121.28 26.8855 128.96 27.0255 133.08C27.1655 137.21 32.5655 209.22 35.4255 226.13L38.7155 227.99L42.0055 226.13C44.8655 209.21 50.2655 137.2 50.4055 133.08C50.5455 128.96 44.8655 121.28 38.7155 121.28H38.7255Z" fill="url(#paint5_radial_420_6361)"/>
</g>
<path d="M45.6255 43.17C45.6255 43.17 46.0955 36.57 51.6055 35.55C57.1155 34.53 58.9655 34.76 58.9655 34.76C58.9655 34.76 56.5855 40.92 52.7055 41.73C48.8255 42.54 45.6255 43.18 45.6255 43.18V43.17Z" fill="white"/>
<path d="M21.9754 15.7L11.3055 6.70996C9.07546 7.88996 11.0554 20.2 13.7854 23.75C13.7854 23.75 19.9854 16.65 21.9754 15.7Z" fill="url(#paint6_linear_420_6361)"/>
<path d="M55.1956 16.37L66.0056 6.70996C68.2156 7.83996 65.9855 20.67 63.2855 24.06C63.2855 24.06 57.1555 17.28 55.1855 16.37H55.1956Z" fill="url(#paint7_linear_420_6361)"/>
<path d="M30.8655 56.6699C31.5755 56.9299 32.2855 56.9599 32.9855 56.9899C33.6955 56.9999 34.3955 56.9899 35.0855 56.8899C35.7755 56.8099 36.4555 56.6799 37.0855 56.4299C37.7055 56.1799 38.2955 55.8199 38.7355 55.1899C38.6955 55.9699 38.1255 56.6999 37.4455 57.1199C36.7655 57.5699 35.9755 57.7699 35.2055 57.8799C34.4255 57.9599 33.6455 57.9299 32.8855 57.7599C32.1455 57.5799 31.3555 57.2799 30.8655 56.6699Z" fill="url(#paint8_linear_420_6361)"/>
<path d="M46.6055 56.6697C46.1155 57.2897 45.3255 57.5897 44.5855 57.7597C43.8255 57.9397 43.0455 57.9697 42.2655 57.8897C41.4955 57.7897 40.7055 57.5797 40.0255 57.1297C39.3455 56.7097 38.7755 55.9797 38.7355 55.1997C39.1855 55.8297 39.7655 56.1898 40.3855 56.4398C41.0155 56.6798 41.6955 56.8197 42.3855 56.8997C43.0755 56.9897 43.7755 57.0098 44.4855 56.9998C45.1955 56.9698 45.8955 56.9397 46.6055 56.6797V56.6697Z" fill="url(#paint9_linear_420_6361)"/>
<path d="M38.7354 50.9199C37.2954 50.9199 34.7854 51.2599 35.6854 52.6299C36.5854 53.9999 37.4754 55.1999 38.7354 55.1999C40.3554 55.1999 40.8854 53.9999 41.7854 52.6299C42.6854 51.2599 40.3454 50.9199 38.7354 50.9199Z" fill="url(#paint10_linear_420_6361)"/>
<path d="M31.6855 43.17C31.6855 43.17 31.2155 36.57 25.7055 35.55C20.1955 34.53 18.3455 34.76 18.3455 34.76C18.3455 34.76 20.7255 40.92 24.6055 41.73C28.4855 42.54 31.6855 43.18 31.6855 43.18V43.17Z" fill="white"/>
<path d="M28.4255 17.2199C28.8155 19.3199 30.1855 21.0099 31.4755 22.6399C32.7655 24.2699 34.2555 26.1899 34.0455 28.4199C33.9655 29.2999 35.3355 29.2899 35.4155 28.4199C35.8555 23.6699 30.5455 21.1899 29.7555 16.8499C29.5955 15.9899 28.2755 16.3499 28.4355 17.2099L28.4255 17.2199Z" fill="url(#paint11_linear_420_6361)"/>
<path d="M47.7354 16.8501C46.9354 21.1901 41.6255 23.6601 42.0755 28.4201C42.1555 29.2901 43.5255 29.3001 43.4455 28.4201C43.2355 26.1901 44.7055 24.2901 46.0155 22.6401C47.3255 20.9901 48.6755 19.3201 49.0655 17.2201C49.2255 16.3601 47.9055 15.9901 47.7455 16.8601L47.7354 16.8501Z" fill="url(#paint12_linear_420_6361)"/>
<defs>
<radialGradient id="paint0_radial_420_6361" cx="0" cy="0" r="1" gradientUnits="userSpaceOnUse" gradientTransform="translate(38.7355 121.807) scale(95.43 90.6585)">
<stop stop-color="#070603"/>
<stop offset="1" stop-color="#544629"/>
</radialGradient>
<linearGradient id="paint1_linear_420_6361" x1="-26.8645" y1="59.2001" x2="104.346" y2="59.2001" gradientUnits="userSpaceOnUse">
<stop offset="0.39" stop-color="#8B6E00"/>
<stop offset="0.55" stop-color="#C49B00"/>
<stop offset="0.74" stop-color="#7A6000"/>
</linearGradient>
<linearGradient id="paint2_linear_420_6361" x1="-28.8145" y1="50.9601" x2="106.296" y2="50.9601" gradientUnits="userSpaceOnUse">
<stop stop-color="#ECA200"/>
<stop offset="0.13" stop-color="#E89E00"/>
<stop offset="0.26" stop-color="#DE9200"/>
<stop offset="0.38" stop-color="#CC7E00"/>
<stop offset="0.51" stop-color="#B46300"/>
<stop offset="0.54" stop-color="#AE5C00"/>
<stop offset="0.6" stop-color="#C47500"/>
<stop offset="0.67" stop-color="#D68900"/>
<stop offset="0.74" stop-color="#E29700"/>
<stop offset="0.84" stop-color="#E99F00"/>
<stop offset="1" stop-color="#ECA200"/>
</linearGradient>
<radialGradient id="paint3_radial_420_6361" cx="0" cy="0" r="1" gradientUnits="userSpaceOnUse" gradientTransform="translate(3.86555 187.784) scale(37.36 35.492)">
<stop/>
<stop offset="1" stop-color="#544629"/>
</radialGradient>
<radialGradient id="paint4_radial_420_6361" cx="0" cy="0" r="1" gradientUnits="userSpaceOnUse" gradientTransform="translate(73.6055 -838.795) scale(37.36 35.492)">
<stop/>
<stop offset="1" stop-color="#544629"/>
</radialGradient>
<radialGradient id="paint5_radial_420_6361" cx="0" cy="0" r="1" gradientUnits="userSpaceOnUse" gradientTransform="translate(39.6755 135.905) scale(64.6 61.37)">
<stop/>
<stop offset="0.2" stop-color="#050402"/>
<stop offset="0.43" stop-color="#131009"/>
<stop offset="0.69" stop-color="#2B2415"/>
<stop offset="0.95" stop-color="#4D4025"/>
<stop offset="1" stop-color="#544629"/>
</radialGradient>
<linearGradient id="paint6_linear_420_6361" x1="10.6655" y1="11.28" x2="18.8755" y2="20.89" gradientUnits="userSpaceOnUse">
<stop stop-color="#FFCA00"/>
<stop offset="1" stop-color="#896D15"/>
</linearGradient>
<linearGradient id="paint7_linear_420_6361" x1="66.0355" y1="12.23" x2="58.6555" y2="20.9" gradientUnits="userSpaceOnUse">
<stop stop-color="#FFCA00"/>
<stop offset="1" stop-color="#896D15"/>
</linearGradient>
<linearGradient id="paint8_linear_420_6361" x1="30.5455" y1="56.5599" x2="39.2055" y2="56.5599" gradientUnits="userSpaceOnUse">
<stop stop-color="#FFCA00"/>
<stop offset="1" stop-color="#896D15"/>
</linearGradient>
<linearGradient id="paint9_linear_420_6361" x1="38.2655" y1="56.5597" x2="46.9255" y2="56.5597" gradientUnits="userSpaceOnUse">
<stop stop-color="#896D15"/>
<stop offset="1" stop-color="#FFCA00"/>
</linearGradient>
<linearGradient id="paint10_linear_420_6361" x1="38.7354" y1="55.4399" x2="38.7354" y2="50.5299" gradientUnits="userSpaceOnUse">
<stop stop-color="#896D15"/>
<stop offset="1" stop-color="#FFCA00"/>
</linearGradient>
<linearGradient id="paint11_linear_420_6361" x1="28.4055" y1="22.7199" x2="35.4255" y2="22.7199" gradientUnits="userSpaceOnUse">
<stop stop-color="#FFCA00"/>
<stop offset="1" stop-color="#896D15"/>
</linearGradient>
<linearGradient id="paint12_linear_420_6361" x1="42.0455" y1="22.7201" x2="49.0655" y2="22.7201" gradientUnits="userSpaceOnUse">
<stop stop-color="#896D15"/>
<stop offset="1" stop-color="#FFCA00"/>
</linearGradient>
</defs>
</svg>
