<svg width="66" height="54" viewBox="0 0 66 54" fill="none" xmlns="http://www.w3.org/2000/svg">
<path d="M6.13367 41.84C5.68367 35.23 11.3437 28.84 17.8037 24.72L18.2837 26.22C19.4137 22.53 24.5036 20.35 28.3436 18.35C28.6836 19.35 28.3137 20.38 28.3937 21.4C28.4137 21.7 28.4637 22.7799 29.0337 22.7999C28.1937 16.6799 34.8137 14.3599 39.7537 10.8599C40.9137 10.0399 41.8136 9.34995 42.8136 8.56995C45.8636 6.16995 48.7337 3.61996 50.9237 0.709961C50.6137 2.86996 50.3836 5.05996 49.8636 7.20996C49.3336 9.42996 48.1937 13.9599 47.0137 15.8699C46.3437 16.9599 44.5437 17.61 43.0037 17.83C43.2037 18.7 45.6336 17.9099 45.7136 17.9999C44.1836 21.9999 42.3337 27.02 35.7637 27.35C35.6337 27.86 36.6237 27.69 37.0137 27.65C38.2437 27.52 39.3536 27.0999 40.4736 26.7599C40.7036 26.9699 37.4837 30.7299 37.0337 31.0499C35.3837 32.1999 30.3737 32.5199 28.0337 32.4299C28.1737 32.8699 30.0337 33.1199 30.5237 33.1699C31.7537 33.2999 33.0636 33.4699 34.2236 33.1199C34.6236 33.5699 32.9637 34.83 32.5237 35.21C27.9437 39.18 21.3437 42.35 15.0437 44.58C13.4437 45.15 10.6237 45.6 9.40369 46.22L5.4436 48.4999L4.58362 48.29L4.63367 48.21C5.81367 46.23 6.29368 44.0599 6.14368 41.8599L6.13367 41.84Z" fill="url(#paint0_radial_420_6415)"/>
<path d="M39.5736 17.1899C40.9336 15.9399 42.1337 14.5199 42.9137 13.1099L38.5137 17.4499L32.0636 22.9699C32.0636 22.9699 16.0737 34.0199 12.0337 39.9699C12.0337 39.9699 1.34372 51.8899 0.293716 53.0199C-0.766284 54.1499 1.38368 53.0399 1.38368 53.0399L6.47365 47.3399C6.47365 47.3399 10.5836 42.9399 12.7036 40.3799C14.8236 37.8199 22.9537 30.4299 26.8737 27.6699C30.7737 24.9199 32.5137 23.4599 32.5137 23.4599L38.9736 17.7399C39.1736 17.5699 39.3637 17.3999 39.5537 17.2199L39.5836 17.1899H39.5736Z" fill="url(#paint1_linear_420_6415)"/>
<path d="M10.7036 0L11.5337 3.87L15.3937 4.70001L11.5337 5.53003L10.7036 9.40002L9.86365 5.53003L6.00366 4.70001L9.86365 3.87L10.7036 0Z" fill="url(#paint2_radial_420_6415)"/>
<path d="M55.0237 32.6602L56.0537 37.4401L60.8236 38.4601L56.0537 39.4901L55.0237 44.2601L53.9937 39.4901L49.2236 38.4601L53.9937 37.4401L55.0237 32.6602Z" fill="url(#paint3_radial_420_6415)"/>
<path d="M62.4137 27.5L62.9937 29.89L65.6936 30.41L62.9937 30.93L62.4137 33.32L61.8236 30.93L59.1237 30.41L61.8236 29.89L62.4137 27.5Z" fill="url(#paint4_radial_420_6415)"/>
<defs>
<radialGradient id="paint0_radial_420_6415" cx="0" cy="0" r="1" gradientUnits="userSpaceOnUse" gradientTransform="translate(43.9737 10.87) scale(70.8701 70.87)">
<stop stop-color="#F2BF3E"/>
<stop offset="0.08" stop-color="#F2C249"/>
<stop offset="0.21" stop-color="#F4CC67"/>
<stop offset="0.39" stop-color="#F8DD98"/>
<stop offset="0.6" stop-color="#FCF3DB"/>
<stop offset="0.7" stop-color="white"/>
</radialGradient>
<linearGradient id="paint1_linear_420_6415" x1="34.6337" y1="19.9099" x2="2.11368" y2="50.6999" gradientUnits="userSpaceOnUse">
<stop stop-color="#FFBB20"/>
<stop offset="0.25" stop-color="#F7BD32"/>
<stop offset="0.47" stop-color="#F2BF3E"/>
<stop offset="0.75" stop-color="#EE9E21"/>
<stop offset="0.94" stop-color="#EC8E12"/>
</linearGradient>
<radialGradient id="paint2_radial_420_6415" cx="0" cy="0" r="1" gradientUnits="userSpaceOnUse" gradientTransform="translate(10.7037 4.70001) scale(4.70001 4.70001)">
<stop stop-color="#F2BF3E"/>
<stop offset="0.11" stop-color="#F2C249"/>
<stop offset="0.3" stop-color="#F4CC67"/>
<stop offset="0.55" stop-color="#F8DD98"/>
<stop offset="0.85" stop-color="#FCF3DB"/>
<stop offset="1" stop-color="white"/>
</radialGradient>
<radialGradient id="paint3_radial_420_6415" cx="0" cy="0" r="1" gradientUnits="userSpaceOnUse" gradientTransform="translate(55.0236 38.4601) scale(5.79999)">
<stop stop-color="#F2BF3E"/>
<stop offset="0.11" stop-color="#F2C249"/>
<stop offset="0.3" stop-color="#F4CC67"/>
<stop offset="0.55" stop-color="#F8DD98"/>
<stop offset="0.85" stop-color="#FCF3DB"/>
<stop offset="1" stop-color="white"/>
</radialGradient>
<radialGradient id="paint4_radial_420_6415" cx="0" cy="0" r="1" gradientUnits="userSpaceOnUse" gradientTransform="translate(63.9913 30.41) scale(3.28827 2.91)">
<stop stop-color="#F2BF3E"/>
<stop offset="0.11" stop-color="#F2C249"/>
<stop offset="0.3" stop-color="#F4CC67"/>
<stop offset="0.55" stop-color="#F8DD98"/>
<stop offset="0.85" stop-color="#FCF3DB"/>
<stop offset="1" stop-color="white"/>
</radialGradient>
</defs>
</svg>
