<svg width="65" height="17" viewBox="0 0 65 17" fill="none" xmlns="http://www.w3.org/2000/svg">
<path d="M64.86 4.92004C64.86 4.92004 64.86 5.00999 64.85 5.04999V5.08002C64.58 11.46 50.17 16.59 32.43 16.59C14.69 16.59 0.28001 11.46 0.0100098 5.08002V5.04999C0.0100098 5.04999 0 4.97004 0 4.92004C0 4.88004 9.76585e-06 4.84004 0.0100098 4.79004C0.45001 2.13004 14.8 0 32.43 0C50.06 0 64.41 2.13004 64.85 4.79004C64.86 4.84004 64.86 4.88004 64.86 4.92004Z" fill="url(#paint0_linear_420_6412)"/>
<path d="M64.86 4.92004C64.86 4.92004 64.86 5.00999 64.85 5.04999C64.41 7.70999 50.06 9.84003 32.43 9.84003C14.8 9.84003 0.45001 7.70999 0.0100098 5.04999C9.76585e-06 5.00999 0 4.97004 0 4.92004C0 4.88004 9.76585e-06 4.84004 0.0100098 4.79004C0.45001 2.13004 14.8 0 32.43 0C50.06 0 64.41 2.13004 64.85 4.79004C64.86 4.84004 64.86 4.88004 64.86 4.92004Z" fill="url(#paint1_linear_420_6412)"/>
<defs>
<linearGradient id="paint0_linear_420_6412" x1="0" y1="8.29001" x2="64.86" y2="8.29001" gradientUnits="userSpaceOnUse">
<stop stop-color="#FEBB21"/>
<stop offset="0.22" stop-color="#F6C454"/>
<stop offset="0.38" stop-color="#F0C973"/>
<stop offset="0.47" stop-color="#EFCC7F"/>
<stop offset="0.66" stop-color="#EDB04E"/>
<stop offset="0.85" stop-color="#EC9722"/>
<stop offset="0.94" stop-color="#EC8E12"/>
</linearGradient>
<linearGradient id="paint1_linear_420_6412" x1="32.43" y1="0.810002" x2="32.43" y2="15.29" gradientUnits="userSpaceOnUse">
<stop offset="0.25" stop-color="#F2BF3E"/>
<stop offset="0.66" stop-color="#EE9E21"/>
<stop offset="0.94" stop-color="#EC8E12"/>
</linearGradient>
</defs>
</svg>
