<?xml version="1.0" encoding="UTF-8"?>
<svg id="Layer_2" data-name="Layer 2" xmlns="http://www.w3.org/2000/svg" width="261.15" height="57.98" xmlns:xlink="http://www.w3.org/1999/xlink" viewBox="0 0 261.15 57.98">
  <defs>
    <linearGradient id="linear-gradient" x1="-7354.46" y1="28.99" x2="-7093.31" y2="28.99" gradientTransform="translate(-7101.31) rotate(-180) scale(1 -1)" gradientUnits="userSpaceOnUse">
      <stop offset=".01" stop-color="#ec8e12"/>
      <stop offset=".25" stop-color="#ffbb20"/>
      <stop offset=".4" stop-color="#f7bd32"/>
      <stop offset=".53" stop-color="#f2bf3e"/>
      <stop offset=".78" stop-color="#ee9e21"/>
      <stop offset=".94" stop-color="#ec8e12"/>
    </linearGradient>
  </defs>
  <g id="s-4-2">
    <path id="heart-scale" d="M20.98,43.06c7.2,5.09,15.59,8.67,24.18,11.01,8.25,2.25,16.75,3.57,25.3,3.85,13.24.44,26.35-1.63,39.13-4.94,2.97-.77,5.93-1.6,8.88-2.43,34.29-9.66,51.22-29.69,86.89-30.04,23.77-.23,43.24,8.4,55.78,15.56V15.56C248.61,8.4,229.14-.23,205.37,0c-20.15.2-37.42,8.23-55.07,17.05-9.15,4.57-18.44,8.86-28.22,11.92-23.83,7.46-49.68,9.35-74.39,5.88-9.2-1.29-18.56-4.4-26.14-10.03C13.96,19.17,6.25,13.4,1.61,4.92.96,3.74,0,1.22,0,1.22c0,0,.44,3.87.59,5.79.37,4.65,1.02,9.39,2.55,13.82.52,1.5,1.14,2.96,1.88,4.36,3.79,7.19,9.35,13.2,15.97,17.87Z" fill="url(#linear-gradient)"/>
  </g>
</svg>