<svg width="310" height="344" viewBox="0 0 310 344" fill="none" xmlns="http://www.w3.org/2000/svg">
<path d="M135.5 24.46L154.55 35.79L173.6 24.46L162.26 43.51L173.6 62.56L154.55 51.22L135.5 62.56L146.84 43.51L135.5 24.46Z" fill="url(#paint0_radial_420_6421)"/>
<path d="M154.55 0L160.77 37.28L198.05 43.51L160.77 49.73L154.55 87.01L148.33 49.73L111.05 43.51L148.33 37.28L154.55 0Z" fill="url(#paint1_radial_420_6421)"/>
<path d="M153.67 36.44L154.55 0L149.12 32.56L153.67 36.44Z" fill="url(#paint2_linear_420_6421)"/>
<path d="M155.43 36.44L154.55 0L159.98 32.56L155.43 36.44Z" fill="url(#paint3_linear_420_6421)"/>
<path d="M161.62 42.6298L198.05 43.5098L165.5 38.0698L161.62 42.6298Z" fill="url(#paint4_linear_420_6421)"/>
<path d="M161.62 44.3798L198.05 43.5098L165.5 48.9398L161.62 44.3798Z" fill="url(#paint5_linear_420_6421)"/>
<path d="M155.43 50.5298L154.55 86.9598L159.98 54.3998L155.43 50.5298Z" fill="url(#paint6_linear_420_6421)"/>
<path d="M153.67 50.5298L154.55 86.9598L149.12 54.3998L153.67 50.5298Z" fill="url(#paint7_linear_420_6421)"/>
<path d="M147.48 44.3798L111.05 43.5098L143.6 48.9398L147.48 44.3798Z" fill="url(#paint8_linear_420_6421)"/>
<path d="M147.48 42.6298L111.05 43.5098L143.6 38.0698L147.48 42.6298Z" fill="url(#paint9_linear_420_6421)"/>
<path d="M158.96 45.6998L172.08 43.5098L158.96 41.3098L162.23 35.8297L156.74 39.0897L154.55 25.9697L152.36 39.0897L146.87 35.8297L150.14 41.3098L137.02 43.5098L150.14 45.6998L146.87 51.1797L152.36 47.9197L154.55 61.0397L156.74 47.9197L162.23 51.1797L158.96 45.6998Z" fill="url(#paint10_radial_420_6421)"/>
<path d="M309.1 320.26H0V343.37H309.1V320.26Z" fill="url(#paint11_linear_420_6421)"/>
<path d="M264.87 297.46H44.22V320.57H264.87V297.46Z" fill="url(#paint12_linear_420_6421)"/>
<path d="M166.7 87.5601H142.39V111.87H166.7V87.5601Z" fill="url(#paint13_linear_420_6421)"/>
<path d="M162.11 111.88H146.76V287.06H162.11V111.88Z" fill="url(#paint14_linear_420_6421)"/>
<path d="M168.09 270.62V269.77C168.09 267.61 166.32 265.84 164.16 265.84H143.66C141.5 265.84 139.73 267.61 139.73 269.77V270.62C139.73 272.07 140.54 273.33 141.72 274.01C141.53 274.45 141.42 274.94 141.42 275.45V276.79C141.42 277.5 141.63 278.16 141.99 278.73C140.66 279.36 139.73 280.71 139.73 282.27V283.12C139.73 285.28 141.5 287.05 143.66 287.05H164.16C166.32 287.05 168.09 285.28 168.09 283.12V282.27C168.09 280.71 167.16 279.36 165.83 278.73C166.18 278.16 166.4 277.5 166.4 276.79V275.45C166.4 274.94 166.29 274.45 166.1 274.01C167.28 273.33 168.09 272.07 168.09 270.62Z" fill="url(#paint15_linear_420_6421)"/>
<path d="M141.72 274.01C145.78 273.62 149.85 273.53 153.91 273.51C157.97 273.52 162.04 273.61 166.1 274.01C162.04 274.41 157.97 274.5 153.91 274.51C149.85 274.49 145.78 274.4 141.72 274.01Z" fill="url(#paint16_radial_420_6421)"/>
<path d="M141.99 278.73C145.97 278.33 149.95 278.24 153.93 278.22C157.91 278.23 161.89 278.32 165.87 278.71C161.89 279.11 157.91 279.2 153.93 279.22C149.95 279.21 145.97 279.12 141.99 278.73Z" fill="url(#paint17_radial_420_6421)"/>
<path d="M203.16 285.94H105.8V297.46H203.16V285.94Z" fill="url(#paint18_linear_420_6421)"/>
<defs>
<radialGradient id="paint0_radial_420_6421" cx="0" cy="0" r="1" gradientTransform="matrix(19.0494 -19.0495 19.0494 19.0495 154.545 43.5063)" gradientUnits="userSpaceOnUse">
<stop stop-color="#FFBB20"/>
<stop offset="0.25" stop-color="#F7BD32"/>
<stop offset="0.47" stop-color="#F2BF3E"/>
<stop offset="0.75" stop-color="#EE9E21"/>
<stop offset="0.94" stop-color="#EC8E12"/>
</radialGradient>
<radialGradient id="paint1_radial_420_6421" cx="0" cy="0" r="1" gradientUnits="userSpaceOnUse" gradientTransform="translate(154.55 43.51) scale(43.5 43.5)">
<stop stop-color="#FFBB20"/>
<stop offset="0.25" stop-color="#F7BD32"/>
<stop offset="0.47" stop-color="#F2BF3E"/>
<stop offset="0.75" stop-color="#EE9E21"/>
<stop offset="0.94" stop-color="#EC8E12"/>
</radialGradient>
<linearGradient id="paint2_linear_420_6421" x1="151.83" y1="1.15" x2="151.83" y2="36.37" gradientUnits="userSpaceOnUse">
<stop stop-color="#FFBB20"/>
<stop offset="0.25" stop-color="#F7BD32"/>
<stop offset="0.47" stop-color="#F2BF3E"/>
<stop offset="0.75" stop-color="#EE9E21"/>
<stop offset="0.94" stop-color="#EC8E12"/>
</linearGradient>
<linearGradient id="paint3_linear_420_6421" x1="157.27" y1="1.15" x2="157.27" y2="36.37" gradientUnits="userSpaceOnUse">
<stop stop-color="#FFBB20"/>
<stop offset="0.25" stop-color="#F7BD32"/>
<stop offset="0.47" stop-color="#F2BF3E"/>
<stop offset="0.75" stop-color="#EE9E21"/>
<stop offset="0.94" stop-color="#EC8E12"/>
</linearGradient>
<linearGradient id="paint4_linear_420_6421" x1="196.9" y1="40.7798" x2="161.68" y2="40.7798" gradientUnits="userSpaceOnUse">
<stop stop-color="#FFBB20"/>
<stop offset="0.25" stop-color="#F7BD32"/>
<stop offset="0.47" stop-color="#F2BF3E"/>
<stop offset="0.75" stop-color="#EE9E21"/>
<stop offset="0.94" stop-color="#EC8E12"/>
</linearGradient>
<linearGradient id="paint5_linear_420_6421" x1="196.9" y1="46.2198" x2="161.68" y2="46.2198" gradientUnits="userSpaceOnUse">
<stop stop-color="#FFBB20"/>
<stop offset="0.25" stop-color="#F7BD32"/>
<stop offset="0.47" stop-color="#F2BF3E"/>
<stop offset="0.75" stop-color="#EE9E21"/>
<stop offset="0.94" stop-color="#EC8E12"/>
</linearGradient>
<linearGradient id="paint6_linear_420_6421" x1="157.27" y1="85.8098" x2="157.27" y2="50.5798" gradientUnits="userSpaceOnUse">
<stop stop-color="#FFBB20"/>
<stop offset="0.25" stop-color="#F7BD32"/>
<stop offset="0.47" stop-color="#F2BF3E"/>
<stop offset="0.75" stop-color="#EE9E21"/>
<stop offset="0.94" stop-color="#EC8E12"/>
</linearGradient>
<linearGradient id="paint7_linear_420_6421" x1="151.84" y1="85.8098" x2="151.84" y2="50.5798" gradientUnits="userSpaceOnUse">
<stop stop-color="#FFBB20"/>
<stop offset="0.25" stop-color="#F7BD32"/>
<stop offset="0.47" stop-color="#F2BF3E"/>
<stop offset="0.75" stop-color="#EE9E21"/>
<stop offset="0.94" stop-color="#EC8E12"/>
</linearGradient>
<linearGradient id="paint8_linear_420_6421" x1="112.2" y1="46.2198" x2="147.42" y2="46.2198" gradientUnits="userSpaceOnUse">
<stop stop-color="#FFBB20"/>
<stop offset="0.25" stop-color="#F7BD32"/>
<stop offset="0.47" stop-color="#F2BF3E"/>
<stop offset="0.75" stop-color="#EE9E21"/>
<stop offset="0.94" stop-color="#EC8E12"/>
</linearGradient>
<linearGradient id="paint9_linear_420_6421" x1="112.2" y1="40.7898" x2="147.42" y2="40.7898" gradientUnits="userSpaceOnUse">
<stop stop-color="#FFBB20"/>
<stop offset="0.25" stop-color="#F7BD32"/>
<stop offset="0.47" stop-color="#F2BF3E"/>
<stop offset="0.75" stop-color="#EE9E21"/>
<stop offset="0.94" stop-color="#EC8E12"/>
</linearGradient>
<radialGradient id="paint10_radial_420_6421" cx="0" cy="0" r="1" gradientUnits="userSpaceOnUse" gradientTransform="translate(154.55 43.5097) scale(17.53 17.53)">
<stop stop-color="#F2BF3E"/>
<stop offset="0.09" stop-color="#F4CB64"/>
<stop offset="0.28" stop-color="#FAE7B6"/>
<stop offset="0.42" stop-color="#FDF8EA"/>
<stop offset="0.49" stop-color="white"/>
<stop offset="0.84" stop-color="#F2BF3E"/>
</radialGradient>
<linearGradient id="paint11_linear_420_6421" x1="154.55" y1="320.43" x2="154.55" y2="342.85" gradientUnits="userSpaceOnUse">
<stop stop-color="#F2BF3E"/>
<stop offset="0.27" stop-color="#F1BA3A"/>
<stop offset="0.54" stop-color="#EFAE2F"/>
<stop offset="0.82" stop-color="#ED991C"/>
<stop offset="0.94" stop-color="#EC8E12"/>
</linearGradient>
<linearGradient id="paint12_linear_420_6421" x1="154.55" y1="297.35" x2="154.55" y2="318.77" gradientUnits="userSpaceOnUse">
<stop stop-color="#F2BF3E"/>
<stop offset="0.27" stop-color="#F1BA3A"/>
<stop offset="0.54" stop-color="#EFAE2F"/>
<stop offset="0.82" stop-color="#ED991C"/>
<stop offset="0.94" stop-color="#EC8E12"/>
</linearGradient>
<linearGradient id="paint13_linear_420_6421" x1="142.94" y1="99.7201" x2="166.02" y2="99.7201" gradientUnits="userSpaceOnUse">
<stop stop-color="#FEBB20"/>
<stop offset="0.22" stop-color="#FAC853"/>
<stop offset="0.38" stop-color="#F7D072"/>
<stop offset="0.47" stop-color="#F6D47E"/>
<stop offset="0.65" stop-color="#F1B54E"/>
<stop offset="0.84" stop-color="#ED9822"/>
<stop offset="0.94" stop-color="#EC8E12"/>
</linearGradient>
<linearGradient id="paint14_linear_420_6421" x1="146.76" y1="199.47" x2="162.11" y2="199.47" gradientUnits="userSpaceOnUse">
<stop stop-color="#FFBB20"/>
<stop offset="0.25" stop-color="#F7BD32"/>
<stop offset="0.47" stop-color="#F2BF3E"/>
<stop offset="0.75" stop-color="#EE9E21"/>
<stop offset="0.94" stop-color="#EC8E12"/>
</linearGradient>
<linearGradient id="paint15_linear_420_6421" x1="139.73" y1="276.44" x2="168.09" y2="276.44" gradientUnits="userSpaceOnUse">
<stop stop-color="#FFBB20"/>
<stop offset="0.25" stop-color="#F7BD32"/>
<stop offset="0.47" stop-color="#F2BF3E"/>
<stop offset="0.75" stop-color="#EE9E21"/>
<stop offset="0.94" stop-color="#EC8E12"/>
</linearGradient>
<radialGradient id="paint16_radial_420_6421" cx="0" cy="0" r="1" gradientUnits="userSpaceOnUse" gradientTransform="translate(153.91 274.01) scale(8.63 8.63)">
<stop stop-color="#FFBB20"/>
<stop offset="0.22" stop-color="#F5AD22"/>
<stop offset="0.48" stop-color="#EEA224"/>
<stop offset="0.54" stop-color="#ED9E21"/>
<stop offset="0.9" stop-color="#EC8E12"/>
</radialGradient>
<radialGradient id="paint17_radial_420_6421" cx="0" cy="0" r="1" gradientUnits="userSpaceOnUse" gradientTransform="translate(153.94 278.214) scale(8.45 8.619)">
<stop stop-color="#FFBB20"/>
<stop offset="0.22" stop-color="#F5AD22"/>
<stop offset="0.48" stop-color="#EEA224"/>
<stop offset="0.54" stop-color="#ED9E21"/>
<stop offset="0.9" stop-color="#EC8E12"/>
</radialGradient>
<linearGradient id="paint18_linear_420_6421" x1="154.48" y1="286.02" x2="154.48" y2="301.09" gradientUnits="userSpaceOnUse">
<stop stop-color="#F2BF3E"/>
<stop offset="0.27" stop-color="#F1BA3A"/>
<stop offset="0.54" stop-color="#EFAE2F"/>
<stop offset="0.82" stop-color="#ED991C"/>
<stop offset="0.94" stop-color="#EC8E12"/>
</linearGradient>
</defs>
</svg>
