<?xml version="1.0" encoding="UTF-8"?>
<svg id="Layer_2" data-name="Layer 2" xmlns="http://www.w3.org/2000/svg" width="246.92" height="24.87" xmlns:xlink="http://www.w3.org/1999/xlink" viewBox="0 0 246.92 24.87">
  <defs>
    <linearGradient id="linear-gradient" x1="0" y1="12.43" x2="246.92" y2="12.43" gradientUnits="userSpaceOnUse">
      <stop offset=".01" stop-color="#ec8e12"/>
      <stop offset=".25" stop-color="#ffbb20"/>
      <stop offset=".41" stop-color="#f5be37"/>
      <stop offset=".42" stop-color="#f3b530"/>
      <stop offset=".44" stop-color="#efa424"/>
      <stop offset=".47" stop-color="#ed9a1c"/>
      <stop offset=".5" stop-color="#ed971a"/>
      <stop offset=".53" stop-color="#ed9a1c"/>
      <stop offset=".55" stop-color="#eea426"/>
      <stop offset=".57" stop-color="#f0b635"/>
      <stop offset=".58" stop-color="#f2bf3e"/>
      <stop offset=".8" stop-color="#ee9e21"/>
      <stop offset=".94" stop-color="#ec8e12"/>
    </linearGradient>
  </defs>
  <g id="s-4-1">
    <g id="scale-2">
      <path d="M246.92.52s-.19,1.66-.25,2.48c-.16,2-.44,4.03-1.09,5.93-.23.64-.49,1.27-.81,1.87-1.63,3.08-4.01,5.66-6.85,7.67-3.09,2.18-6.68,3.71-10.37,4.72-3.53.96-7.18,1.53-10.85,1.65-5.68.19-11.3-.7-16.78-2.12-1.28-.33-2.55-.69-3.81-1.04-14.71-4.14-21.97-12.74-37.27-12.89-10.2-.1-18.55,3.61-23.93,6.68,0,0-9.7,4.74-22.89,0-5.38-3.07-13.73-6.78-23.93-6.68-15.3.15-22.56,8.75-37.27,12.89-1.27.35-2.54.71-3.81,1.04-5.49,1.42-11.11,2.31-16.79,2.12-3.66-.12-7.31-.69-10.85-1.65-3.68-1.01-7.28-2.54-10.37-4.72-2.83-2.01-5.22-4.59-6.84-7.67-.32-.6-.59-1.23-.81-1.87C.69,7.03.41,5,.26,3c-.07-.82-.26-2.48-.26-2.48,0,0,.41,1.08.69,1.59,1.99,3.63,5.3,6.11,8.56,8.53,3.25,2.42,7.26,3.75,11.21,4.3,10.6,1.49,21.68.68,31.91-2.52,4.19-1.31,8.18-3.15,12.1-5.11C72.04,3.53,79.45.08,88.09,0c10.2-.1,18.55,3.6,23.93,6.67,0,0,10.62,4.48,22.89,0C140.29,3.6,148.64-.1,158.84,0c8.64.08,16.05,3.53,23.62,7.31,3.92,1.96,7.91,3.8,12.1,5.11,10.22,3.2,21.31,4.01,31.91,2.52,3.94-.55,7.96-1.88,11.21-4.3s6.56-4.9,8.56-8.53c.27-.51.68-1.59.68-1.59Z" fill="url(#linear-gradient)"/>
    </g>
  </g>
</svg>