<svg width="1935" height="911" viewBox="0 0 1935 911" fill="none" xmlns="http://www.w3.org/2000/svg">
<g opacity="0.5">
<g style="mix-blend-mode:screen" opacity="0.4">
<path d="M0 254.906C0 254.906 227.72 560.016 857.89 565.676C857.89 565.676 252.02 504.046 0 167.166V254.906Z" fill="#3473C3"/>
</g>
<g style="mix-blend-mode:screen" opacity="0.4">
<path d="M1480.12 482.657C1480.12 482.657 1783.09 406.227 1921.7 304.727C1921.7 304.727 1865.38 322.727 1802.3 340.537C1739.22 358.347 1735.3 322.907 1683.54 365.057C1631.78 407.207 1601.84 427.287 1480.12 482.657Z" fill="#3473C3"/>
</g>
<g style="mix-blend-mode:screen" opacity="0.4">
<path d="M969.8 515.936C969.8 515.936 1113.05 533.096 1259.31 478.066C1259.31 478.066 1180.74 473.176 1137.84 470.896C1094.94 468.616 1091.08 490.316 1051.47 498.666C1011.85 507.026 969.8 515.936 969.8 515.936Z" fill="#3473C3"/>
</g>
<g style="mix-blend-mode:screen" opacity="0.4">
<path d="M1114.85 672.906C1097.54 675.316 1824.5 609.686 1934.2 404.436V316.236C1934.2 316.236 1634.98 600.586 1114.85 672.916V672.906Z" fill="#3473C3"/>
</g>
<g style="mix-blend-mode:screen" opacity="0.4">
<path d="M1920 410.916C1920 410.916 1850.69 493.676 1741.62 603.796C1632.55 713.916 1651.59 796.656 1510.21 820.226C1384.97 841.096 1363.89 910.776 1363.89 910.776H1920V410.916Z" fill="#3473C3"/>
</g>
<g style="mix-blend-mode:screen" opacity="0.4">
<path d="M0 410.916C0 410.916 69.31 493.676 178.38 603.796C287.45 713.916 268.41 796.656 409.79 820.226C535.03 841.096 556.11 910.776 556.11 910.776H0V410.916Z" fill="#3473C3"/>
</g>
<g style="mix-blend-mode:screen" opacity="0.4">
<path d="M504.24 627.686C504.24 627.686 509.87 615.966 563.34 627.686C616.81 639.406 703.81 664.446 754.74 667.346C754.74 667.346 495.67 638.126 472.05 633.156L504.25 627.696L504.24 627.686Z" fill="#3473C3"/>
</g>
<g style="mix-blend-mode:screen" opacity="0.4">
<path d="M1444.82 319.486C1470.04 308.276 1493.92 293.686 1519.17 282.536C1550.38 268.746 1537.46 268.366 1529.85 268.916C1528.65 269.006 1528.06 267.486 1529 266.736C1536.33 260.966 1555.55 246.476 1580.46 232.556C1612.52 214.636 1687.96 182.576 1698.33 176.916C1708.7 171.256 1731.33 161.826 1736.99 142.966C1742.17 125.716 1773.38 112.406 1778.66 110.266C1779.12 110.076 1779.42 109.636 1779.42 109.136V7.50616C1779.42 6.50616 1778.29 5.95616 1777.48 6.53616C1768.97 12.6362 1756.56 14.5262 1746.65 16.7062C1732.93 19.7262 1719.29 23.1962 1705.97 27.6862C1696.2 30.9762 1678.46 34.8062 1673.41 44.9162C1671.2 49.3262 1670.76 54.3862 1670.29 59.2962C1669.82 64.2062 1669.23 69.2762 1666.78 73.5562C1657.33 90.1462 1626.64 87.5962 1610.68 88.4062C1588.16 89.5362 1567.46 95.6062 1548.57 108.276C1538.35 115.136 1529.14 123.616 1521.89 133.596C1514.13 144.256 1510.38 156.926 1503.15 167.866C1489.92 187.876 1475.51 207.486 1457.02 223.006C1449.98 228.916 1442.42 234.166 1434.8 239.316C1430.91 241.946 1426.99 244.546 1423.06 247.126C1389.35 269.206 1355.11 284.016 1316.18 294.576C1290.93 301.426 1265.28 307.086 1239.5 311.546C1238.7 311.686 1238.27 312.536 1238.6 313.276C1243.51 324.186 1279.23 319.866 1294.01 317.576C1295.31 317.376 1295.98 319.096 1294.87 319.806C1287.22 324.746 1276.2 333.476 1293.78 333.476C1301.61 333.476 1309.77 330.426 1317.12 328.076C1336.73 321.806 1355.9 314.116 1374.95 306.326C1384.91 302.256 1394.83 298.096 1404.73 293.876C1407.96 292.496 1425.95 281.696 1426.51 288.626C1426.77 291.776 1425.24 294.826 1423.3 297.316C1409.22 315.406 1389.03 327.806 1371.13 341.656C1361.1 349.416 1351.27 358.126 1340.55 364.936C1324.85 374.896 1399.31 339.716 1444.81 319.506L1444.82 319.486Z" fill="#3473C3"/>
</g>
<g style="mix-blend-mode:screen" opacity="0.4">
<path d="M461.26 302.096C445.82 296.016 430.03 291.046 414.88 284.106C414.64 283.996 414.41 283.886 414.17 283.776C413.58 283.506 413 283.236 412.41 282.956C410.77 282.186 409.13 281.406 407.5 280.606C389.79 271.906 374.82 260.436 358.83 249.156C347.14 240.906 335.04 233.236 322.55 226.256C290.49 208.336 215.05 176.276 204.68 170.616C194.31 164.956 171.68 155.526 166.02 136.666C160.84 119.416 129.63 106.106 124.35 103.966C123.89 103.776 123.59 103.336 123.59 102.836V1.20635C123.59 0.206351 124.72 -0.343648 125.53 0.236352C135.31 7.24635 146.24 7.62635 157.49 7.87635C168.74 8.12635 180.89 14.1664 190.35 20.7164C201.53 28.4564 211.29 38.0864 222.24 46.1664C230.98 52.6164 238.84 61.2564 248.84 65.2464C261.53 70.3064 274.39 75.0563 287.02 80.2863C334.98 100.126 376.13 134.596 407.9 175.646C417.02 187.426 425.46 199.846 436.07 210.386C440.53 214.816 445.16 216.696 450.18 220.086C456.3 224.226 462.1 228.876 468.23 233.016C472.12 235.646 476.04 238.246 479.97 240.826C513.68 262.906 547.92 277.716 586.85 288.276C612.1 295.126 637.75 300.786 663.53 305.246C664.33 305.386 664.76 306.236 664.43 306.976C659.52 317.886 623.8 313.566 609.02 311.276C607.72 311.076 607.05 312.786 608.15 313.506C610.92 315.316 620.48 320.666 618.3 325.036C616.63 328.376 611.45 327.736 608.46 327.286C603.62 326.556 598.84 325.106 594.08 324.136C581.75 321.616 569.78 318.156 557.83 314.146C547.86 310.806 537.86 307.296 528.24 303.046C523.6 300.726 518.45 297.906 513.24 297.916C512.9 297.916 512.52 297.936 512.29 298.186C512.06 298.436 512.07 298.816 512.11 299.146C512.65 303.406 516.32 306.476 519.73 309.086C524.49 312.716 529.35 316.356 534.88 318.656C526.3 318.106 517.75 317.086 509.28 315.616C492.99 312.796 476.98 308.306 461.6 302.236C461.49 302.196 461.39 302.156 461.28 302.106L461.26 302.096Z" fill="#3473C3"/>
</g>
</g>
</svg>
