<svg width="385" height="593" viewBox="0 0 385 593" fill="none" xmlns="http://www.w3.org/2000/svg">
<g style="mix-blend-mode:hard-light" opacity="0.5">
<path d="M185.75 201.05C185.75 201.05 169.1 555.03 180.9 592.69H140.17C140.17 592.69 168.19 237.64 182.4 200.87L185.75 201.05Z" fill="#9A612F"/>
<path d="M183.82 212.19C183.82 212.19 265.93 236.05 279.05 342.78C279.05 342.78 286.75 232.74 217.64 196.87C217.64 196.87 287.94 193.88 384.89 254.44C384.89 254.44 314.85 174.54 229.12 167.54C229.12 167.54 286.04 109.23 368.27 119.72C368.27 119.72 277.29 78.61 211.69 147.71C211.69 147.71 248.43 24.37 260.68 96.1C260.68 96.1 281.67 47.99 242.31 51.49C202.95 54.99 183.96 109.4 178.71 149.64C178.71 149.64 173.2 42.99 98.85 0C98.85 0 141.41 115.61 151.91 154.1C151.91 154.1 86.49 102.48 59.37 99.85C32.25 97.23 0 119.71 0 119.71C0 119.71 49.8 99.88 149.36 174.2C149.36 174.2 41.99 181.82 14.87 249.18C14.87 249.18 107.85 193.29 151.59 199.41C151.59 199.41 76.98 308.66 73.48 337.53L183.82 212.17V212.19Z" fill="#0E381F"/>
</g>
</svg>
