<svg preserveAspectRatio="none" width="100%" height="100%" overflow="visible" style="display: block;" viewBox="0 0 190 44" fill="none" xmlns="http://www.w3.org/2000/svg">
<g id="Catface">
<path id="Vector" d="M74.76 8.43332C70.94 5.56332 61.25 0.253289 54.93 0.713289V0.803316C52.25 1.21332 50.22 3.21328 50.22 5.64328C50.22 8.07328 52.25 10.0633 54.93 10.4833V10.5733C54.93 10.5733 58.77 11.8133 63.62 11.9433C66.84 12.0233 70.62 11.8333 74.01 11.3133C76.37 10.9533 75.78 9.22327 74.75 8.44327L74.76 8.43332Z" fill="var(--fill-0, white)"/>
<path id="Vector_2" d="M121.45 8.64328C125.02 5.59328 134.25 -0.15673 140.6 0.0032704V0.0932973C143.32 0.373297 145.52 2.28327 145.73 4.69327C145.94 7.11327 144.08 9.20332 141.44 9.74332V9.83329C141.44 9.83329 137.71 11.2533 132.88 11.6133C129.67 11.8533 125.88 11.8333 122.44 11.4733C120.05 11.2233 120.49 9.47329 121.45 8.65329V8.64328Z" fill="var(--fill-0, white)"/>
<path id="Vector_3" d="M45.39 25.1333C38.18 22.1633 30.68 19.9433 23.05 18.4133C15.36 17.0233 7.72 16.1233 0 14.7533V14.5534C7.87 13.7434 15.8 14.8034 23.4 16.8534C31.02 18.7534 38.45 21.4433 45.47 24.9533L45.39 25.1333Z" fill="var(--fill-0, #F8D99A)"/>
<path id="Vector_4" d="M45.97 34.5233C36.97 35.1833 28.05 36.6333 19.37 39.1033C14.13 40.4833 8.86998 41.4933 3.66998 43.0333L3.58997 42.8533C9.77997 38.8333 17.13 37.4333 24.28 36.1733C31.44 34.8833 38.7 34.2833 45.96 34.3233V34.5233H45.97Z" fill="var(--fill-0, #F8D99A)"/>
<path id="Vector_5" d="M153.51 28.6333C158.95 25.4633 165.07 23.5834 171.24 22.4334C177.41 21.1134 183.68 20.6733 189.97 21.2633L189.99 21.4633C183.89 23.0633 177.7 23.3633 171.48 24.0133C165.35 24.7933 159.23 26.1833 153.6 28.8133L153.51 28.6333Z" fill="var(--fill-0, #F8D99A)"/>
<path id="Vector_6" d="M153.56 36.7033C159.53 36.5033 165.52 36.8633 171.43 37.8133C177.34 38.7433 183.44 39.6833 188.53 43.0733L188.45 43.2533C182.63 41.9333 176.86 40.9633 171.13 39.3833C165.36 38.0933 159.47 37.2733 153.56 36.9033V36.7033Z" fill="var(--fill-0, #F8D99A)"/>
</g>
</svg>
