<svg preserveAspectRatio="none" width="100%" height="100%" overflow="visible" style="display: block;" viewBox="0 0 7 7" fill="none" xmlns="http://www.w3.org/2000/svg">
<g id="New Symbol" clip-path="url(#clip0_253_4098)">
<path id="Vector" d="M3.50598 0.14912L3.82974 2.1428C3.88512 2.49638 4.16628 2.77328 4.51986 2.83292L6.51354 3.15668C6.71376 3.19076 6.71376 3.47618 6.51354 3.51026L4.51986 3.83402C4.16628 3.8894 3.88938 4.17056 3.82974 4.52414L3.50598 6.51782C3.4719 6.71804 3.18648 6.71804 3.1524 6.51782L2.82864 4.52414C2.77326 4.17056 2.4921 3.89366 2.13852 3.83402L0.144836 3.51026C-0.0553837 3.47618 -0.0553837 3.19076 0.144836 3.15668L2.13852 2.83292C2.4921 2.77754 2.769 2.49638 2.82864 2.1428L3.15666 0.14912C3.19074 -0.0511005 3.47616 -0.0511005 3.51024 0.14912H3.50598Z" fill="var(--fill-0, white)"/>
</g>
<defs>
<clipPath id="clip0_253_4098">
<rect width="6.66264" height="6.66264" fill="white"/>
</clipPath>
</defs>
</svg>
