<svg preserveAspectRatio="none" width="100%" height="100%" overflow="visible" style="display: block;" viewBox="0 0 7 7" fill="none" xmlns="http://www.w3.org/2000/svg">
<g id="New Symbol" clip-path="url(#clip0_253_4123)">
<path id="Vector" d="M3.50599 0.149096L3.82975 2.14278C3.88513 2.49636 4.16629 2.77326 4.51987 2.8329L6.51355 3.15666C6.71377 3.19074 6.71377 3.47616 6.51355 3.51024L4.51987 3.834C4.16629 3.88938 3.88939 4.17054 3.82975 4.52412L3.50599 6.5178C3.47191 6.71802 3.18649 6.71802 3.15241 6.5178L2.82865 4.52412C2.77327 4.17054 2.49211 3.89364 2.13853 3.834L0.14485 3.51024C-0.0553702 3.47616 -0.0553702 3.19074 0.14485 3.15666L2.13853 2.8329C2.49211 2.77752 2.76901 2.49636 2.82865 2.14278L3.15667 0.149096C3.19075 -0.0511237 3.47617 -0.0511237 3.51025 0.149096H3.50599Z" fill="var(--fill-0, white)"/>
</g>
<defs>
<clipPath id="clip0_253_4123">
<rect width="6.66264" height="6.66264" fill="white"/>
</clipPath>
</defs>
</svg>
