<svg preserveAspectRatio="none" width="100%" height="100%" overflow="visible" style="display: block;" viewBox="0 0 7 7" fill="none" xmlns="http://www.w3.org/2000/svg">
<g id="New Symbol" clip-path="url(#clip0_253_4279)">
<path id="Vector" d="M3.50599 0.149113L3.82975 2.14279C3.88513 2.49637 4.16629 2.77327 4.51987 2.83291L6.51355 3.15667C6.71377 3.19075 6.71377 3.47617 6.51355 3.51025L4.51987 3.83401C4.16629 3.88939 3.88939 4.17055 3.82975 4.52413L3.50599 6.51781C3.47191 6.71803 3.18649 6.71803 3.15241 6.51781L2.82865 4.52413C2.77327 4.17055 2.49211 3.89365 2.13853 3.83401L0.144851 3.51025C-0.055369 3.47617 -0.055369 3.19075 0.144851 3.15667L2.13853 2.83291C2.49211 2.77753 2.76901 2.49637 2.82865 2.14279L3.15667 0.149113C3.19075 -0.0511066 3.47617 -0.0511066 3.51025 0.149113H3.50599Z" fill="var(--fill-0, white)"/>
</g>
<defs>
<clipPath id="clip0_253_4279">
<rect width="6.66264" height="6.66264" fill="white"/>
</clipPath>
</defs>
</svg>
