<svg preserveAspectRatio="none" width="100%" height="100%" overflow="visible" style="display: block;" viewBox="0 0 7 7" fill="none" xmlns="http://www.w3.org/2000/svg">
<g id="New Symbol" clip-path="url(#clip0_253_4093)">
<path id="Vector" d="M3.50597 0.14908L3.82973 2.14276C3.88511 2.49634 4.16627 2.77324 4.51985 2.83288L6.51353 3.15664C6.71375 3.19072 6.71375 3.47614 6.51353 3.51022L4.51985 3.83398C4.16627 3.88936 3.88937 4.17052 3.82973 4.5241L3.50597 6.51778C3.47189 6.718 3.18647 6.718 3.15239 6.51778L2.82863 4.5241C2.77325 4.17052 2.49209 3.89362 2.13851 3.83398L0.144833 3.51022C-0.0553873 3.47614 -0.0553873 3.19072 0.144833 3.15664L2.13851 2.83288C2.49209 2.7775 2.76899 2.49634 2.82863 2.14276L3.15665 0.14908C3.19073 -0.0511395 3.47615 -0.0511395 3.51023 0.14908H3.50597Z" fill="var(--fill-0, white)"/>
</g>
<defs>
<clipPath id="clip0_253_4093">
<rect width="6.66264" height="6.66264" fill="white"/>
</clipPath>
</defs>
</svg>
