<svg preserveAspectRatio="none" width="100%" height="100%" overflow="visible" style="display: block;" viewBox="0 0 7 7" fill="none" xmlns="http://www.w3.org/2000/svg">
<g id="New Symbol" clip-path="url(#clip0_253_4163)">
<path id="Vector" d="M3.50598 0.14909L3.82974 2.14277C3.88512 2.49635 4.16628 2.77325 4.51986 2.83289L6.51355 3.15665C6.71377 3.19073 6.71377 3.47615 6.51355 3.51023L4.51986 3.83399C4.16628 3.88937 3.88938 4.17053 3.82974 4.52411L3.50598 6.51779C3.4719 6.71801 3.18649 6.71801 3.15241 6.51779L2.82864 4.52411C2.77326 4.17053 2.4921 3.89363 2.13852 3.83399L0.144845 3.51023C-0.0553751 3.47615 -0.0553751 3.19073 0.144845 3.15665L2.13852 2.83289C2.4921 2.77751 2.769 2.49635 2.82864 2.14277L3.15666 0.14909C3.19074 -0.0511298 3.47616 -0.0511298 3.51024 0.14909H3.50598Z" fill="var(--fill-0, white)"/>
</g>
<defs>
<clipPath id="clip0_253_4163">
<rect width="6.66264" height="6.66264" fill="white"/>
</clipPath>
</defs>
</svg>
