<svg preserveAspectRatio="none" width="100%" height="100%" overflow="visible" style="display: block;" viewBox="0 0 35 35" fill="none" xmlns="http://www.w3.org/2000/svg">
<path id="Vector" d="M17.6225 0.3825L19.8625 12.7725C20.0225 13.6325 20.6925 14.3025 21.5525 14.4625L33.9425 16.7025C34.4525 16.7925 34.4525 17.5325 33.9425 17.6225L21.5525 19.8625C20.6925 20.0225 20.0225 20.6925 19.8625 21.5525L17.6225 33.9425C17.5325 34.4525 16.7925 34.4525 16.7025 33.9425L14.4625 21.5525C14.3025 20.6925 13.6325 20.0225 12.7725 19.8625L0.3825 17.6225C-0.1275 17.5325 -0.1275 16.7925 0.3825 16.7025L12.7725 14.4625C13.6325 14.3025 14.3025 13.6325 14.4625 12.7725L16.7025 0.3825C16.7925 -0.1275 17.5325 -0.1275 17.6225 0.3825Z" fill="var(--fill-0, white)"/>
</svg>
