<svg preserveAspectRatio="none" width="100%" height="100%" overflow="visible" style="display: block;" viewBox="0 0 257 145" fill="none" xmlns="http://www.w3.org/2000/svg">
<g id="Little Star 1">
<path id="Vector" opacity="0.7" d="M16.88 0L18.94 8.7C19.66 11.73 22.02 14.1 25.06 14.82L33.76 16.88L25.06 18.94C22.03 19.66 19.66 22.02 18.94 25.06L16.88 33.76L14.82 25.06C14.1 22.03 11.74 19.66 8.7 18.94L0 16.88L8.7 14.82C11.73 14.1 14.1 11.74 14.82 8.7L16.88 0Z" fill="var(--fill-0, #FFE1AB)"/>
<path id="Vector_2" opacity="0.7" d="M53.79 57.24C56.1096 57.24 57.99 55.3596 57.99 53.04C57.99 50.7204 56.1096 48.84 53.79 48.84C51.4704 48.84 49.59 50.7204 49.59 53.04C49.59 55.3596 51.4704 57.24 53.79 57.24Z" fill="var(--fill-0, #FFE1AB)"/>
<path id="Vector_3" opacity="0.7" d="M252.3 144.67C254.62 144.67 256.5 142.79 256.5 140.47C256.5 138.15 254.62 136.27 252.3 136.27C249.98 136.27 248.1 138.15 248.1 140.47C248.1 142.79 249.98 144.67 252.3 144.67Z" fill="var(--fill-0, white)"/>
</g>
</svg>
