<svg preserveAspectRatio="none" width="100%" height="100%" overflow="visible" style="display: block;" viewBox="0 0 7 7" fill="none" xmlns="http://www.w3.org/2000/svg">
<g id="New Symbol" clip-path="url(#clip0_253_4084)">
<path id="Vector" d="M3.50597 0.149091L3.82973 2.14277C3.88511 2.49635 4.16627 2.77325 4.51985 2.83289L6.51353 3.15665C6.71375 3.19073 6.71375 3.47615 6.51353 3.51023L4.51985 3.83399C4.16627 3.88937 3.88937 4.17053 3.82973 4.52411L3.50597 6.51779C3.47189 6.71801 3.18647 6.71801 3.15239 6.51779L2.82863 4.52411C2.77325 4.17053 2.49209 3.89363 2.13851 3.83399L0.144827 3.51023C-0.0553934 3.47615 -0.0553934 3.19073 0.144827 3.15665L2.13851 2.83289C2.49209 2.77751 2.76899 2.49635 2.82863 2.14277L3.15665 0.149091C3.19073 -0.0511286 3.47615 -0.0511286 3.51023 0.149091H3.50597Z" fill="var(--fill-0, white)"/>
</g>
<defs>
<clipPath id="clip0_253_4084">
<rect width="6.66264" height="6.66264" fill="white"/>
</clipPath>
</defs>
</svg>
