<svg preserveAspectRatio="none" width="100%" height="100%" overflow="visible" style="display: block;" viewBox="0 0 7 7" fill="none" xmlns="http://www.w3.org/2000/svg">
<g id="New Symbol" clip-path="url(#clip0_253_4072)">
<path id="Vector" d="M3.50598 0.149106L3.82974 2.14279C3.88512 2.49637 4.16628 2.77327 4.51986 2.83291L6.51354 3.15667C6.71376 3.19075 6.71376 3.47617 6.51354 3.51025L4.51986 3.83401C4.16628 3.88939 3.88938 4.17055 3.82974 4.52413L3.50598 6.51781C3.4719 6.71803 3.18648 6.71803 3.1524 6.51781L2.82864 4.52413C2.77326 4.17055 2.4921 3.89365 2.13852 3.83401L0.144842 3.51025C-0.0553776 3.47617 -0.0553776 3.19075 0.144842 3.15667L2.13852 2.83291C2.4921 2.77753 2.769 2.49637 2.82864 2.14279L3.15666 0.149106C3.19074 -0.0511139 3.47616 -0.0511139 3.51024 0.149106H3.50598Z" fill="var(--fill-0, white)"/>
</g>
<defs>
<clipPath id="clip0_253_4072">
<rect width="6.66264" height="6.66264" fill="white"/>
</clipPath>
</defs>
</svg>
