<svg preserveAspectRatio="none" width="100%" height="100%" overflow="visible" style="display: block;" viewBox="0 0 378 435" fill="none" xmlns="http://www.w3.org/2000/svg">
<g id="clippath-18">
<path id="Vector" d="M377.196 244.978C377.196 244.978 371.466 271.308 360.386 300.188C357.276 308.278 353.736 316.588 349.796 324.558C341.186 341.958 330.606 357.828 318.146 366.688C316.886 367.578 315.616 368.388 314.336 369.138C314.336 369.138 318.216 381.688 318.706 395.768C319.286 412.848 314.896 432.208 292.596 434.298C262.886 437.068 235.066 407.308 217.876 377.528C214.366 371.438 211.296 365.348 208.736 359.528C208.736 359.528 206.816 358.638 203.496 356.928L203.476 356.908C190.786 350.458 157.726 332.408 133.226 308.618C128.946 304.448 124.916 300.118 121.316 295.648C120.956 295.198 120.596 294.758 120.246 294.308C121.166 298.398 121.996 302.738 122.586 307.198C123.096 310.878 123.456 314.628 123.566 318.338C124.226 338.108 118.456 356.678 94.7663 357.768C93.5063 357.828 92.1863 357.828 90.8263 357.768H90.4463C69.9563 356.958 50.7663 338.148 35.3863 311.058C29.1863 300.128 23.5863 287.838 18.7963 274.848C15.7263 266.538 12.9563 257.938 10.5763 249.198C5.65627 231.198 2.24629 212.648 0.776286 195.028C0.686286 194.028 0.606275 193.048 0.546275 192.068C-0.0737249 183.568 -2.05373 149.938 8.85627 108.468C17.1863 76.8579 24.3163 49.6979 49.4363 27.7379C76.3563 4.19787 107.396 1.10789 115.676 0.407887C118.276 0.197887 120.826 0.0678822 123.346 0.0278822C125.006 -0.0121178 126.646 -0.0121288 128.266 0.0478712C158.296 0.837871 180.966 13.4879 196.806 22.3479C221.746 36.3179 239.276 53.9179 250.926 68.5479C252.926 71.0379 254.756 73.4679 256.426 75.7679L376.266 243.658L377.206 244.978H377.196Z" fill="var(--fill-0, black)"/>
</g>
</svg>
