<svg preserveAspectRatio="none" width="100%" height="100%" overflow="visible" style="display: block;" viewBox="0 0 7 7" fill="none" xmlns="http://www.w3.org/2000/svg">
<g id="New Symbol" clip-path="url(#clip0_253_4126)">
<path id="Vector" d="M3.50597 0.149105L3.82973 2.14279C3.88511 2.49637 4.16627 2.77327 4.51985 2.83291L6.51353 3.15667C6.71375 3.19075 6.71375 3.47616 6.51353 3.51024L4.51985 3.834C4.16627 3.88938 3.88937 4.17054 3.82973 4.52412L3.50597 6.51781C3.47189 6.71803 3.18647 6.71803 3.15239 6.51781L2.82863 4.52412C2.77325 4.17054 2.49209 3.89364 2.13851 3.834L0.144827 3.51024C-0.0553934 3.47616 -0.0553934 3.19075 0.144827 3.15667L2.13851 2.83291C2.49209 2.77753 2.76899 2.49637 2.82863 2.14279L3.15665 0.149105C3.19073 -0.0511151 3.47615 -0.0511151 3.51023 0.149105H3.50597Z" fill="var(--fill-0, white)"/>
</g>
<defs>
<clipPath id="clip0_253_4126">
<rect width="6.66264" height="6.66264" fill="white"/>
</clipPath>
</defs>
</svg>
