<svg preserveAspectRatio="none" width="100%" height="100%" overflow="visible" style="display: block;" viewBox="0 0 7 7" fill="none" xmlns="http://www.w3.org/2000/svg">
<g id="New Symbol" clip-path="url(#clip0_253_4243)">
<path id="Vector" d="M3.50597 0.149101L3.82973 2.14278C3.88511 2.49636 4.16627 2.77326 4.51985 2.8329L6.51353 3.15666C6.71375 3.19074 6.71375 3.47616 6.51353 3.51024L4.51985 3.834C4.16627 3.88938 3.88937 4.17054 3.82973 4.52412L3.50597 6.5178C3.47189 6.71802 3.18647 6.71802 3.15239 6.5178L2.82863 4.52412C2.77325 4.17054 2.49209 3.89364 2.13851 3.834L0.144825 3.51024C-0.0553947 3.47616 -0.0553947 3.19074 0.144825 3.15666L2.13851 2.8329C2.49209 2.77752 2.76899 2.49636 2.82863 2.14278L3.15665 0.149101C3.19073 -0.0511194 3.47615 -0.0511194 3.51023 0.149101H3.50597Z" fill="var(--fill-0, white)"/>
</g>
<defs>
<clipPath id="clip0_253_4243">
<rect width="6.66264" height="6.66264" fill="white"/>
</clipPath>
</defs>
</svg>
