<svg preserveAspectRatio="none" width="100%" height="100%" overflow="visible" style="display: block;" viewBox="0 0 152 284" fill="none" xmlns="http://www.w3.org/2000/svg">
<g id="clippath-21">
<path id="Vector" d="M127.969 226.822C124.449 229.802 118.949 235.032 114.089 242.742C101.289 263.062 106.999 278.422 100.089 282.402C87.9591 289.382 47.5991 255.262 23.6591 210.652C14.4991 193.592 -4.32094 157.342 0.89906 109.132C2.57906 93.6123 8.26905 41.0423 48.7391 15.1923C71.1891 0.852264 106.359 -6.55773 118.759 7.60227C118.759 7.60227 133.569 15.9923 112.299 69.7223C91.0291 123.452 90.6591 134.652 96.6291 153.302C96.8391 153.972 97.0691 154.612 97.3091 155.232C101.599 166.482 112.969 173.402 124.999 172.892C133.109 172.552 146.519 173.322 149.989 181.652C157.449 199.562 127.969 226.802 127.969 226.802V226.822Z" fill="var(--fill-0, black)"/>
</g>
</svg>
