<svg preserveAspectRatio="none" width="100%" height="100%" overflow="visible" style="display: block;" viewBox="0 0 126 268" fill="none" xmlns="http://www.w3.org/2000/svg">
<g id="Little Star 3">
<path id="Vector" d="M66.93 8.39996C69.2496 8.39996 71.13 6.51961 71.13 4.20001C71.13 1.88042 69.2496 0 66.93 0C64.6104 0 62.73 1.88042 62.73 4.20001C62.73 6.51961 64.6104 8.39996 66.93 8.39996Z" fill="var(--fill-0, #0D5875)"/>
<path id="Vector_2" d="M120.85 149.78C123.17 149.78 125.05 147.9 125.05 145.58C125.05 143.26 123.17 141.38 120.85 141.38C118.53 141.38 116.65 143.26 116.65 145.58C116.65 147.9 118.53 149.78 120.85 149.78Z" fill="var(--fill-0, #0D5875)"/>
<path id="Vector_3" opacity="0.7" d="M4.20001 125.4C6.51961 125.4 8.40002 123.52 8.40002 121.2C8.40002 118.88 6.51961 117 4.20001 117C1.88042 117 0 118.88 0 121.2C0 123.52 1.88042 125.4 4.20001 125.4Z" fill="var(--fill-0, white)"/>
<path id="Vector_4" opacity="0.2" d="M66.93 218.82L70.39 233.46C71.11 236.49 73.47 238.86 76.51 239.58L91.15 243.04L76.51 246.5C73.48 247.22 71.11 249.58 70.39 252.62L66.93 267.26L63.47 252.62C62.75 249.59 60.39 247.22 57.35 246.5L42.71 243.04L57.35 239.58C60.38 238.86 62.75 236.5 63.47 233.46L66.93 218.82Z" fill="var(--fill-0, #0D5875)"/>
</g>
</svg>
