<svg preserveAspectRatio="none" width="100%" height="100%" overflow="visible" style="display: block;" viewBox="0 0 7 7" fill="none" xmlns="http://www.w3.org/2000/svg">
<g id="New Symbol" clip-path="url(#clip0_253_4171)">
<path id="Vector" d="M3.50598 0.14908L3.82974 2.14276C3.88512 2.49634 4.16628 2.77324 4.51986 2.83288L6.51354 3.15664C6.71376 3.19072 6.71376 3.47614 6.51354 3.51022L4.51986 3.83398C4.16628 3.88936 3.88938 4.17052 3.82974 4.5241L3.50598 6.51778C3.4719 6.718 3.18648 6.718 3.1524 6.51778L2.82864 4.5241C2.77326 4.17052 2.4921 3.89362 2.13852 3.83398L0.144842 3.51022C-0.0553776 3.47614 -0.0553776 3.19072 0.144842 3.15664L2.13852 2.83288C2.4921 2.7775 2.769 2.49634 2.82864 2.14276L3.15666 0.14908C3.19074 -0.0511395 3.47616 -0.0511395 3.51024 0.14908H3.50598Z" fill="var(--fill-0, white)"/>
</g>
<defs>
<clipPath id="clip0_253_4171">
<rect width="6.66264" height="6.66264" fill="white"/>
</clipPath>
</defs>
</svg>
