<?xml version="1.0" encoding="UTF-8"?>
<svg id="Layer_2" data-name="Layer 2" xmlns="http://www.w3.org/2000/svg" xmlns:xlink="http://www.w3.org/1999/xlink" viewBox="0 0 567.24 315.04">
  <defs>
    <style>
      .cls-1 {
        fill: #21050e;
      }

      .cls-2 {
        fill: url(#linear-gradient-2);
      }

      .cls-3 {
        fill: url(#linear-gradient-4);
      }

      .cls-4 {
        fill: url(#linear-gradient-3);
      }

      .cls-5 {
        fill: url(#linear-gradient-5);
      }

      .cls-6 {
        fill: url(#linear-gradient-6);
      }

      .cls-7 {
        fill: url(#linear-gradient);
      }
    </style>
    <linearGradient id="linear-gradient" x1="225.07" y1="113.78" x2="225.07" y2="265.56" gradientUnits="userSpaceOnUse">
      <stop offset="0" stop-color="#752d45"/>
      <stop offset=".58" stop-color="#51182a"/>
      <stop offset="1" stop-color="#340815"/>
    </linearGradient>
    <linearGradient id="linear-gradient-2" x1="174.7" y1="130.61" x2="174.7" y2="259.08" xlink:href="#linear-gradient"/>
    <linearGradient id="linear-gradient-3" x1="172.48" y1="41.76" x2="172.48" y2="229.09" xlink:href="#linear-gradient"/>
    <linearGradient id="linear-gradient-4" x1="507.11" y1="47.21" x2="507.11" y2="229.78" xlink:href="#linear-gradient"/>
    <linearGradient id="linear-gradient-5" x1="442.82" y1="68.7" x2="442.82" y2="220.61" xlink:href="#linear-gradient"/>
    <linearGradient id="linear-gradient-6" x1="440" y1="-74.39" x2="440" y2="226.59" xlink:href="#linear-gradient"/>
  </defs>
  <g id="Layer_1-2" data-name="Layer 1">
    <g id="animal">
      <g>
        <path class="cls-1" d="M238.55,261.3l-.58.22c-1.82.69-3.3,1.61-4.17,2.59l-7.56,8.45c-2.74,3.07-7.92,5.92-13.86,7.62l-8.44,2.42c-9.58,7.89-23.22,12.69-35.76,16.54-19.63,6.03-27.74,12.43-38.29,12.43-10.01,0,.41-7.09-11.79-7.02-10.74.07-16.74,9.38-26.33,7.48-8.06-1.6,2.05-17.7-1.1-25.02-.81-1.89-3.41-5.03-10.43-5.03h-1.68c-6.99,0-15.59,3.28-19.21,7.32l-18.25,20.41,2.87,2.43c.43.36-.11,1.03-1.18,1.42-2.14.78-5.8,1.8-9.5,1.38h-11.92c-2.52,0-4.42-.58-5.28-1.61l-1.71-2.05-10.1-1.07c-4.18-.44-5.49-2.73-3.09-5.42l.75-.84c.9-1.01,3.05-1.83,4.8-1.83h25.06l14.19-15.87h0c9.14-10.23,35.43-19.76,62.18-19.77,0,0,.01,0,.02,0,.14,0,.28,0,.42-.02.03,0,.07,0,.11,0,1.14-.1,2.36-.48,3.29-1.02,0,0,.01,0,.02,0,.41-.24.77-.5,1.02-.79l31.99-35.78h-1.77c-2.72,0-4.24-1.01-3.77-2.5l.22-.7c.36-1.13,2.85-2.29,4.9-2.29h12.02c1.58,0,2.26.71,1.55,1.62l-27.38,35.53c21.29-14.3,42.71-31.65,42.71-31.65h-1.77c-2.72,0-4.24-1.01-3.77-2.5l.49-1.55c.22-.71,1.79-1.44,3.07-1.44h14.33c1.1,0,1.48.54.82,1.18l-21.9,21.13-24.56,17.93s.04,0,.06,0c1.5.08,3.02.18,4.57.3.06,0,.11,0,.17.01.7.05,1.39.11,2.09.17.12.01.24.02.36.03.69.06,1.38.12,2.07.19.08,0,.15.01.23.02,2.36.24,4.74.52,7.1.85.06,0,.13.02.19.03.75.11,1.51.22,2.25.33.02,0,.05,0,.07.01,2.38.37,4.73.8,7.01,1.28,0,0,.02,0,.03,0,3.8.81,7.4,1.79,10.62,2.96,0,0,.01,0,.02,0,8.43-5.19,25.17-15.83,29.05-20.83,7.1-9.13,8.51-20.14,8.51-20.14h-1.77c-2.72,0-4.24-1.01-3.77-2.5l.49-1.55c.22-.71,1.79-1.44,3.07-1.44h11.95c.76,0,1.21.27,1.14.67l-3.71,21.3-9.52,10.35,19.01-10.35,14.74-16.48h-1.77c-2.72,0-4.24-1.01-3.77-2.5l.22-.7c.36-1.13,2.85-2.29,4.9-2.29h12c1.58,0,2.26.71,1.55,1.62l-19.19,24.63c-.61.78-1.66,1.56-3,2.21l-5.4,2.64c-2.46,1.2-4.47,2.62-5.76,4.06l-17.33,19.38,2.83-.81c3.56-1.02,6.67-2.73,8.32-4.57l7.56-8.45c1.75-1.96,4.71-3.79,8.34-5.18l.58-.22c.94-.36,1.91-.54,2.72-.54s1.46.18,1.76.54c.6.72-.44,1.87-2.32,2.59Z"/>
        <g>
          <path class="cls-7" d="M229.68,149.03l-1.67-7.5c-.54.38-1.09.74-1.64,1.11-.16.1-.32.21-.48.31-.44.28-.89.56-1.34.84-.23.14-.45.28-.68.41-.4.24-.79.47-1.2.7-.3.17-.61.35-.92.52-.2.11-.41.22-.61.33-1.2.65-2.43,1.27-3.67,1.86,0,0-.02,0-.03.01,3.79,8.97,11.01,27.37,10.42,36.01-1.07,15.79-9.49,34.82-9.49,34.82h-1.77c-2.72,0-5.14,1.74-6.01,4.33l-.89,2.68c-.41,1.22.5,2.48,1.79,2.48h11.95c.76,0,1.45-.46,1.74-1.16l15.34-36.82-.26-17.89-6.23-11.43c-1.99-3.65-3.46-7.55-4.36-11.61Z"/>
          <path class="cls-2" d="M170.74,158.7c-.19.01-.38.03-.56.04-.3.02-.6.03-.89.05-.28.02-.55.03-.82.04-.24.01-.48.02-.73.03-.34.02-.67.03-1,.04-.18,0-.36.01-.54.02-.43.02-.85.03-1.27.04-.08,0-.16,0-.24,0-.52.01-1.03.02-1.53.03l-.34,4.73c8.5,24.72,14.41,54.71,14.41,54.71h-1.77c-2.72,0-5.14,1.74-6,4.33l-.89,2.68c-.41,1.22.5,2.48,1.79,2.48h14.33c1.1,0,1.97-.94,1.88-2.04l-3-36.53-8.53-31c-.1,0-.2.02-.31.03-1.36.12-2.69.23-3.98.31Z"/>
          <path class="cls-4" d="M271.25,162.39l-.38-.38c-1.2-1.2-1.85-2.79-1.85-4.48v-14.61c0-5.31-2.63-10.23-7.05-13.17l-6.27-4.18c-2.52-13.64-11.87-21.94-20.97-28.59-14.24-10.42-16.62-21.5-27.17-21.5-10.01,0-5.93,12.26-18.07,12.13-10.68-.12-8.35-16.22-19.65-12.92-9.49,2.77-13.78,30.6-23.47,43.26-2.5,3.27-7.91,8.7-14.93,8.7h-1.68c-6.99,0-12.66-5.67-12.66-12.66v-35.28l5.04-4.2c.76-.63.81-1.78.09-2.45-1.44-1.35-4.19-3.11-8.27-2.38h-11.92c-2.52,0-4.93,1-6.71,2.78l-3.55,3.55-11.06,1.84c-4.58.76-7.93,4.72-7.93,9.37v1.45c0,1.75,1.42,3.17,3.17,3.17h25.06v27.43h0c0,17.68,17.76,34.16,44.5,34.17,0,0,.01,0,.02,0,.14,0,.27.01.41.03.03,0,.07,0,.1.01,1.05.17,1.93.84,2.38,1.76,0,0,.01,0,.02,0,.2.41.32.87.32,1.36v61.84h-1.77c-2.72,0-5.14,1.74-6.01,4.33l-.4,1.21c-.65,1.95.8,3.96,2.85,3.96h12.02c1.58,0,2.89-1.22,3-2.79l4.39-61.41.34-4.73c.5,0,1.01-.02,1.53-.03.08,0,.16,0,.24,0,.42-.01.84-.02,1.27-.04.18,0,.36-.01.54-.02.33-.01.66-.03,1-.04.24-.01.48-.02.73-.03.27-.01.55-.03.82-.04.3-.02.59-.03.89-.05.19-.01.37-.02.56-.04,1.29-.08,2.62-.19,3.98-.31.1,0,.2-.02.31-.03.02,0,.04,0,.07,0,1.57-.15,3.19-.32,4.84-.52.06,0,.12-.02.18-.02.74-.09,1.49-.19,2.25-.3.13-.02.26-.04.39-.05.74-.11,1.49-.22,2.24-.33.08-.01.17-.03.25-.04,2.57-.41,5.2-.89,7.86-1.46.07-.02.14-.03.22-.05.85-.18,1.7-.38,2.55-.58.03,0,.06-.01.08-.02,2.72-.64,5.45-1.38,8.16-2.22h.03c4.53-1.41,9-3.1,13.27-5.13,0,0,.02,0,.02-.01,0,0,.02,0,.03-.01,1.24-.59,2.47-1.21,3.67-1.86.2-.11.41-.22.61-.33.31-.17.61-.34.92-.52.4-.23.8-.46,1.2-.7.23-.14.46-.27.68-.41.45-.27.89-.55,1.34-.84.16-.1.32-.21.48-.31.55-.36,1.1-.73,1.64-1.11l1.67,7.5c.9,4.06,2.37,7.96,4.36,11.61l6.23,11.43,9.76,17.89v28.48h-1.77c-2.72,0-5.14,1.74-6.01,4.33l-.4,1.21c-.65,1.95.8,3.96,2.85,3.96h12c1.58,0,2.9-1.23,3-2.81l2.84-42.58c.09-1.36-.27-2.7-1.02-3.83l-3.04-4.57c-1.39-2.08-2.13-4.52-2.13-7.02v-33.51l2.1,1.4c2.65,1.76,4.23,4.72,4.23,7.9v14.61c0,3.38,1.32,6.56,3.71,8.95l.38.38c.62.62,1.43.93,2.24.93s1.62-.31,2.24-.93c1.24-1.24,1.24-3.24,0-4.48Z"/>
        </g>
      </g>
      <g>
        <path class="cls-1" d="M524.32,244.78l-.74.28c-2.32.88-4.21,2.06-5.32,3.31l-9.65,10.79c-3.5,3.92-10.11,7.55-17.69,9.72l-10.77,3.09c-12.22,10.07-29.64,16.2-45.64,21.11-25.06,7.69-35.4,15.87-48.86,15.87-12.77,0,.52-9.05-15.05-8.96-13.71.09-21.36,11.98-33.61,9.54-10.29-2.04,2.61-22.59-1.4-31.94-1.04-2.41-4.35-6.43-13.32-6.43h-2.14c-8.92,0-19.9,4.19-24.52,9.35l-23.29,26.05,3.66,3.1c.55.47-.14,1.31-1.5,1.81-2.73,1-7.4,2.3-12.13,1.76h-15.21c-3.22,0-5.64-.74-6.73-2.05l-2.19-2.62-12.89-1.36c-5.34-.56-7.01-3.49-3.94-6.91l.96-1.07c1.15-1.29,3.9-2.34,6.13-2.34h31.98l18.11-20.25h0c11.67-13.05,45.22-25.22,79.36-25.23,0,0,.01,0,.02,0,.18,0,.36,0,.54-.02.05,0,.09,0,.14-.01,1.45-.13,3.02-.62,4.2-1.3,0,0,.01,0,.02,0,.53-.3.98-.64,1.3-1.01l40.83-45.66h-2.26c-3.48,0-5.41-1.29-4.81-3.2l.28-.89c.46-1.44,3.64-2.92,6.26-2.92h15.34c2.01,0,2.88.9,1.98,2.06l-34.95,45.34c27.17-18.25,54.5-40.39,54.5-40.39h-2.26c-3.48,0-5.41-1.29-4.81-3.2l.63-1.98c.29-.9,2.28-1.83,3.92-1.83h18.28c1.41,0,1.89.7,1.05,1.51l-27.95,26.97-31.35,22.89s.05,0,.08,0c1.91.11,3.86.24,5.83.39.07,0,.14.01.21.02.89.07,1.78.14,2.67.22.15.01.31.03.46.04.88.08,1.76.16,2.64.25.1,0,.2.02.3.03,3.02.3,6.05.66,9.07,1.08.08.01.16.02.25.03.96.14,1.92.28,2.88.43.03,0,.06,0,.09.01,3.04.47,6.04,1.02,8.95,1.64.01,0,.02,0,.03,0,4.85,1.04,9.45,2.28,13.55,3.78,0,0,.02,0,.02,0,10.76-6.62,32.12-20.21,37.08-26.59,9.06-11.66,10.87-25.7,10.87-25.7h-2.26c-3.48,0-5.41-1.29-4.81-3.2l.63-1.98c.29-.9,2.28-1.83,3.92-1.83h15.25c.97,0,1.55.34,1.46.86l-4.73,27.18-12.15,13.21,24.26-13.21,18.81-21.03h-2.26c-3.48,0-5.41-1.29-4.81-3.2l.28-.89c.46-1.44,3.64-2.92,6.26-2.92h15.32c2.02,0,2.89.91,1.98,2.07l-24.49,31.44c-.78,1-2.12,1.99-3.83,2.83l-6.9,3.37c-3.14,1.54-5.7,3.34-7.35,5.19l-22.12,24.74,3.61-1.03c4.55-1.3,8.51-3.48,10.61-5.83l9.65-10.79c2.23-2.5,6.01-4.84,10.65-6.61l.74-.28c1.2-.46,2.43-.68,3.47-.68s1.86.23,2.24.68c.76.91-.56,2.39-2.95,3.3Z"/>
        <g>
          <path class="cls-3" d="M512.99,101.48l-2.13-9.57c-.69.48-1.39.95-2.09,1.41-.2.13-.41.27-.61.4-.56.36-1.13.72-1.71,1.07-.29.18-.58.35-.87.52-.5.3-1.01.6-1.53.89-.39.22-.78.44-1.17.66-.26.14-.52.28-.78.42-1.54.83-3.1,1.62-4.69,2.38-.01,0-.02.01-.04.02,4.84,11.45,14.05,34.93,13.3,45.96-1.37,20.15-12.12,44.43-12.12,44.43h-2.26c-3.48,0-6.57,2.23-7.66,5.52l-1.14,3.43c-.52,1.56.64,3.17,2.28,3.17h15.25c.97,0,1.85-.58,2.22-1.48l19.58-46.99-.34-22.83-7.96-14.59c-2.54-4.65-4.41-9.64-5.56-14.82Z"/>
          <path class="cls-5" d="M437.77,113.83c-.24.02-.48.03-.72.05-.38.02-.76.04-1.14.07-.35.02-.7.04-1.05.06-.31.02-.62.03-.93.04-.43.02-.85.04-1.27.05-.23,0-.46.02-.68.03-.55.02-1.09.03-1.62.05-.1,0-.21,0-.31,0-.67.02-1.32.03-1.96.04l-.43,6.04c10.85,31.55,18.38,69.82,18.38,69.82h-2.26c-3.48,0-6.56,2.23-7.66,5.52l-1.14,3.43c-.52,1.56.64,3.17,2.28,3.17h18.28c1.41,0,2.51-1.2,2.4-2.6l-3.83-46.63-10.89-39.56c-.13.01-.26.02-.39.03-1.74.16-3.44.29-5.09.4Z"/>
          <path class="cls-6" d="M566.06,118.55l-.49-.49c-1.53-1.53-2.37-3.56-2.37-5.71v-18.65c0-6.77-3.36-13.05-8.99-16.8l-8.01-5.34c-3.22-17.41-15.15-28-26.76-36.49-18.18-13.3-21.21-27.43-34.67-27.43-12.77,0-7.57,15.65-23.06,15.48-13.63-.15-10.65-20.7-25.08-16.49-12.12,3.53-17.59,39.05-29.96,55.21-3.19,4.17-10.1,11.11-19.06,11.11h-2.15c-8.92,0-16.16-7.23-16.16-16.16V11.75l6.43-5.36c.97-.8,1.03-2.27.12-3.13-1.84-1.73-5.35-3.97-10.55-3.04h-15.21c-3.21,0-6.3,1.28-8.57,3.55l-4.53,4.53-14.11,2.35c-5.84.97-10.13,6.03-10.13,11.95v1.85c0,2.23,1.81,4.04,4.04,4.04h31.98v35.01h0c0,22.56,22.67,43.6,56.79,43.61,0,0,.01,0,.02,0,.18,0,.35.02.52.04.04,0,.08.01.13.02,1.34.22,2.46,1.07,3.04,2.24,0,0,.02,0,.02,0,.26.52.4,1.11.4,1.74v78.93h-2.26c-3.48,0-6.56,2.23-7.66,5.52l-.51,1.54c-.83,2.49,1.02,5.05,3.64,5.05h15.34c2.01,0,3.69-1.56,3.83-3.57l5.6-78.37.43-6.04c.64,0,1.29-.02,1.96-.04.1,0,.21,0,.31,0,.53-.01,1.07-.03,1.62-.05.23,0,.45-.02.68-.03.42-.02.84-.03,1.27-.05.31-.01.61-.03.93-.04.35-.02.7-.04,1.05-.06.38-.02.76-.04,1.14-.07.24-.01.48-.03.72-.05,1.65-.11,3.34-.24,5.09-.4.13-.01.26-.02.39-.03.03,0,.06,0,.08,0,2.01-.19,4.07-.41,6.18-.67.08,0,.15-.02.23-.03.95-.12,1.91-.24,2.87-.38.17-.02.33-.05.5-.07.95-.13,1.9-.28,2.86-.43.11-.02.21-.03.32-.05,3.29-.52,6.64-1.14,10.03-1.87l.28-.06c1.08-.23,2.17-.48,3.26-.74.04,0,.07-.02.11-.03,3.47-.82,6.95-1.76,10.41-2.83.01,0,.03,0,.04-.01,5.78-1.79,11.49-3.95,16.94-6.54,0,0,.02,0,.03-.01.01,0,.02-.01.04-.02,1.59-.76,3.15-1.55,4.69-2.38.26-.14.52-.28.78-.42.39-.22.78-.43,1.17-.66.51-.29,1.02-.59,1.53-.89.29-.17.58-.35.87-.52.57-.35,1.14-.71,1.71-1.07.2-.13.41-.26.61-.4.7-.46,1.4-.93,2.09-1.41l2.13,9.57c1.15,5.18,3.02,10.16,5.56,14.82l7.96,14.59,12.45,22.83v36.35h-2.26c-3.48,0-6.56,2.23-7.66,5.52l-.51,1.54c-.83,2.49,1.02,5.05,3.64,5.05h15.32c2.02,0,3.7-1.57,3.83-3.58l3.62-54.34c.12-1.73-.34-3.45-1.3-4.89l-3.88-5.83c-1.77-2.65-2.71-5.77-2.71-8.96v-42.76l2.68,1.79c3.38,2.25,5.4,6.02,5.4,10.08v18.65c0,4.31,1.68,8.37,4.73,11.43l.49.49c.79.79,1.82,1.18,2.86,1.18s2.07-.39,2.86-1.18c1.58-1.58,1.58-4.13,0-5.71Z"/>
        </g>
      </g>
    </g>
  </g>
</svg>