<svg preserveAspectRatio="none" width="100%" height="100%" overflow="visible" style="display: block;" viewBox="0 0 499 315" fill="none" xmlns="http://www.w3.org/2000/svg">
<g id="Little Star 2">
<path id="Vector" d="M478.8 8.39999C481.12 8.39999 483 6.51961 483 4.20001C483 1.88042 481.12 0 478.8 0C476.48 0 474.6 1.88042 474.6 4.20001C474.6 6.51961 476.48 8.39999 478.8 8.39999Z" fill="var(--fill-0, #FFE1AB)"/>
<path id="Vector_2" opacity="0.7" d="M4.2 121.82C6.51959 121.82 8.39999 119.94 8.39999 117.62C8.39999 115.3 6.51959 113.42 4.2 113.42C1.8804 113.42 0 115.3 0 117.62C0 119.94 1.8804 121.82 4.2 121.82Z" fill="var(--fill-0, #FFE1AB)"/>
<path id="Vector_3" d="M100.1 275.15C102.42 275.15 104.3 273.27 104.3 270.95C104.3 268.63 102.42 266.75 100.1 266.75C97.7804 266.75 95.9 268.63 95.9 270.95C95.9 273.27 97.7804 275.15 100.1 275.15Z" fill="var(--fill-0, #0D5875)"/>
<path id="Vector_4" opacity="0.7" d="M8.39999 314.79C10.7196 314.79 12.6 312.91 12.6 310.59C12.6 308.27 10.7196 306.39 8.39999 306.39C6.0804 306.39 4.2 308.27 4.2 310.59C4.2 312.91 6.0804 314.79 8.39999 314.79Z" fill="var(--fill-0, white)"/>
<path id="Vector_5" opacity="0.7" d="M494.29 104.43C496.61 104.43 498.49 102.55 498.49 100.23C498.49 97.9104 496.61 96.03 494.29 96.03C491.97 96.03 490.09 97.9104 490.09 100.23C490.09 102.55 491.97 104.43 494.29 104.43Z" fill="var(--fill-0, white)"/>
</g>
</svg>
