<svg preserveAspectRatio="none" width="100%" height="100%" overflow="visible" style="display: block;" viewBox="0 0 7 7" fill="none" xmlns="http://www.w3.org/2000/svg">
<g id="New Symbol" clip-path="url(#clip0_253_4143)">
<path id="Vector" d="M3.50599 0.149093L3.82975 2.14277C3.88513 2.49635 4.16629 2.77325 4.51987 2.83289L6.51355 3.15665C6.71377 3.19073 6.71377 3.47615 6.51355 3.51023L4.51987 3.83399C4.16629 3.88937 3.88939 4.17053 3.82975 4.52411L3.50599 6.51779C3.47191 6.71801 3.18649 6.71801 3.15241 6.51779L2.82865 4.52411C2.77327 4.17053 2.49211 3.89363 2.13853 3.83399L0.144849 3.51023C-0.0553715 3.47615 -0.0553715 3.19073 0.144849 3.15665L2.13853 2.83289C2.49211 2.77751 2.76901 2.49635 2.82865 2.14277L3.15667 0.149093C3.19075 -0.0511273 3.47617 -0.0511273 3.51025 0.149093H3.50599Z" fill="var(--fill-0, white)"/>
</g>
<defs>
<clipPath id="clip0_253_4143">
<rect width="6.66264" height="6.66264" fill="white"/>
</clipPath>
</defs>
</svg>
