<svg preserveAspectRatio="none" width="100%" height="100%" overflow="visible" style="display: block;" viewBox="0 0 197 186" fill="none" xmlns="http://www.w3.org/2000/svg">
<g id="clippath-24">
<path id="Vector" d="M196.388 111.321C195.868 119.121 190.298 137.331 179.418 154.261C173.538 163.391 165.338 170.681 156.718 176.661C153.968 178.571 151.138 180.361 148.238 181.991C141.248 185.911 133.288 185.111 125.688 185.481C119.338 185.791 112.978 185.871 106.628 185.711C95.8584 185.431 85.0985 184.431 74.4685 182.521C66.2085 181.041 58.0184 179.011 50.0184 176.301C49.8784 176.251 49.7484 176.211 49.6084 176.161C29.5884 169.321 20.1784 161.361 20.1784 161.361C3.62841 146.711 0.558457 129.151 0.0384575 121.361C-0.141543 118.931 0.318418 116.501 1.24842 114.271L16.2284 78.9107L20.1684 68.8807C20.1684 68.8807 18.8185 22.5307 31.4685 5.02067C32.3985 3.72067 33.4084 2.59066 34.4984 1.63066C45.2784 -7.71935 88.3884 26.1907 88.3884 26.1907C88.3884 26.1907 117.998 23.3707 130.238 26.2507C130.238 26.2507 148.058 12.7807 160.658 9.15067C180.758 3.36067 175.998 61.5707 175.998 61.5707L179.328 69.0307L195.148 104.241C196.098 106.461 196.538 108.881 196.378 111.331L196.388 111.321Z" fill="var(--fill-0, black)"/>
</g>
</svg>
