<svg preserveAspectRatio="none" width="100%" height="100%" overflow="visible" style="display: block;" viewBox="0 0 7 7" fill="none" xmlns="http://www.w3.org/2000/svg">
<g id="New Symbol" clip-path="url(#clip0_253_4261)">
<path id="Vector" d="M3.50597 0.149109L3.82973 2.14279C3.88511 2.49637 4.16627 2.77327 4.51985 2.83291L6.51353 3.15667C6.71375 3.19075 6.71375 3.47617 6.51353 3.51025L4.51985 3.83401C4.16627 3.88939 3.88937 4.17055 3.82973 4.52413L3.50597 6.51781C3.47189 6.71803 3.18647 6.71803 3.15239 6.51781L2.82863 4.52413C2.77325 4.17055 2.49209 3.89365 2.13851 3.83401L0.144829 3.51025C-0.055391 3.47617 -0.055391 3.19075 0.144829 3.15667L2.13851 2.83291C2.49209 2.77753 2.76899 2.49637 2.82863 2.14279L3.15665 0.149109C3.19073 -0.0511115 3.47615 -0.0511115 3.51023 0.149109H3.50597Z" fill="var(--fill-0, white)"/>
</g>
<defs>
<clipPath id="clip0_253_4261">
<rect width="6.66264" height="6.66264" fill="white"/>
</clipPath>
</defs>
</svg>
