<?xml version="1.0" encoding="UTF-8"?>
<svg id="Layer_2" data-name="Layer 2" xmlns="http://www.w3.org/2000/svg" xmlns:xlink="http://www.w3.org/1999/xlink" viewBox="0 0 1290.73 440.27">
  <defs>
    <style>
      .cls-1 {
        fill: url(#linear-gradient-2);
      }

      .cls-2 {
        fill: url(#linear-gradient-4);
      }

      .cls-3 {
        fill: url(#linear-gradient-3);
      }

      .cls-4 {
        fill: url(#linear-gradient-5);
      }

      .cls-5 {
        fill: #894238;
      }

      .cls-6 {
        fill: url(#linear-gradient-6);
      }

      .cls-7 {
        fill: url(#linear-gradient);
      }
    </style>
    <linearGradient id="linear-gradient" x1="650.17" y1="377.19" x2="443.05" y2="584.3" gradientTransform="translate(-3.69 14.26) rotate(-1.06)" gradientUnits="userSpaceOnUse">
      <stop offset=".02" stop-color="#e79f66"/>
      <stop offset="1" stop-color="#da6854"/>
    </linearGradient>
    <linearGradient id="linear-gradient-2" x1="338.85" y1="405.61" x2="742.65" y2="73.6" gradientTransform="translate(-3.69 14.26) rotate(-1.06)" gradientUnits="userSpaceOnUse">
      <stop offset=".02" stop-color="#a8695b"/>
      <stop offset="1" stop-color="#da6854"/>
    </linearGradient>
    <linearGradient id="linear-gradient-3" x1="930.06" y1="510.43" x2="714.15" y2="726.34" xlink:href="#linear-gradient"/>
    <linearGradient id="linear-gradient-4" x1="512.85" y1="516.31" x2="955.39" y2="152.45" xlink:href="#linear-gradient"/>
    <linearGradient id="linear-gradient-5" x1="350.83" y1="463.09" x2="150.03" y2="663.88" xlink:href="#linear-gradient"/>
    <linearGradient id="linear-gradient-6" x1="49" y1="490.69" x2="439.97" y2="169.23" gradientTransform="translate(-3.69 14.26) rotate(-1.06)" gradientUnits="userSpaceOnUse">
      <stop offset=".02" stop-color="#90422d"/>
      <stop offset="1" stop-color="#c66d4a"/>
    </linearGradient>
  </defs>
  <g id="Layer_1-2" data-name="Layer 1">
    <g id="desert2">
      <g>
        <polygon class="cls-7" points="1037.37 334.28 575.76 342.81 677.61 .81 1037.37 334.28"/>
        <polygon class="cls-1" points="677.61 .81 575.76 342.81 286.78 348.15 676.73 0 677.61 .81"/>
        <polygon class="cls-5" points="646.6 105.13 680.44 106.37 644.22 113.11 646.6 105.13"/>
        <polygon class="cls-5" points="596.09 274.62 660.2 281.9 592.28 287.41 596.09 274.62"/>
        <polyline class="cls-5" points="971.53 273.25 985.87 286.56 893.29 285.2"/>
        <polyline class="cls-5" points="827.7 140.19 838.64 150.34 789.14 147.91"/>
      </g>
      <g>
        <polygon class="cls-3" points="1290.73 416.83 809.54 425.72 982.03 181.45 1290.73 416.83"/>
        <polygon class="cls-2" points="982.03 181.45 809.54 425.72 443.04 432.49 981.28 180.88 982.03 181.45"/>
        <polygon class="cls-5" points="948.67 228.85 971.41 231.73 943.63 235.54 948.67 228.85"/>
        <polygon class="cls-5" points="844.09 377.1 895.44 382.18 836.97 386.86 844.09 377.1"/>
        <polyline class="cls-5" points="1204.52 351.12 1216.84 360.51 1137.16 359.81"/>
        <polyline class="cls-5" points="1127.06 292.03 1135.44 298.44 1084.4 296.39"/>
        <polyline class="cls-5" points="937.86 243.9 999.83 243.9 933.21 250.44"/>
      </g>
      <g>
        <polygon class="cls-4" points="727.67 426.83 280.16 435.1 378.92 104.56 727.67 426.83"/>
        <polygon class="cls-6" points="378.92 104.56 280.16 435.1 0 440.27 378.06 103.77 378.92 104.56"/>
        <polygon class="cls-5" points="359.22 170.47 376.89 176.81 355.7 182.28 359.22 170.47"/>
        <polygon class="cls-5" points="309.13 338.14 371.28 345.18 305.43 350.51 309.13 338.14"/>
        <polyline class="cls-5" points="663.85 367.85 677.76 380.7 588 379.4"/>
        <polyline class="cls-5" points="520.04 235.04 533.95 247.89 482.66 242.5"/>
      </g>
      <polyline class="cls-5" points="731.88 51.34 697.1 53.14 725.38 45"/>
      <polygon class="cls-5" points="625.73 234.18 698.5 241.39 622.06 247.05 625.73 234.18"/>
    </g>
  </g>
</svg>