<?xml version="1.0" encoding="UTF-8"?>
<svg id="Layer_2" data-name="Layer 2" xmlns="http://www.w3.org/2000/svg" xmlns:xlink="http://www.w3.org/1999/xlink" viewBox="0 0 1920 349.86">
  <defs>
    <style>
      .cls-1 {
        fill: #340815;
      }

      .cls-2 {
        fill: url(#linear-gradient-2);
      }

      .cls-3 {
        fill: url(#linear-gradient);
      }
    </style>
    <linearGradient id="linear-gradient" x1="960.08" y1="294.03" x2="960.08" y2="26.25" gradientUnits="userSpaceOnUse">
      <stop offset=".02" stop-color="#90422d"/>
      <stop offset="1" stop-color="#c66d4a"/>
    </linearGradient>
    <linearGradient id="linear-gradient-2" x1="960.23" y1="315.69" x2="960.23" y2="134.1" xlink:href="#linear-gradient"/>
  </defs>
  <g id="Layer_1-2" data-name="Layer 1">
    <g id="desert3">
      <path class="cls-3" d="M1606.5,11.09c105.17,7.83,209.64,19.28,313.35,32.54v261.55L.31,304.2V71.58c33.91,2.01,67.88,3.89,101.92,5,101.74,3.34,202.35.38,302.34-5.97,167.64-10.65,333.62-30.84,500.44-46.92,28.59-2.76,57.2-5.41,85.87-7.83,21.06-1.81,42.13-3.49,63.22-5.04,71.02-5.28,142.33-9.06,214.12-10.34,16.28-.29,32.58-.46,48.83-.47,96.9-.24,193.46,3.93,289.47,11.09Z"/>
      <path class="cls-2" d="M1818.06,186.06c34.04-1.08,68.03-2.92,101.94-4.89v134.01L.46,314.19v-162.92c214.32-27.17,432.2-46.62,651.8-42.5,2.43.05,4.89.09,7.32.16,35.6.73,71.07,2.1,106.44,3.94,352.25,18.37,695.08,84.54,1052.04,73.18Z"/>
      <g id="desert4">
        <g id="desert4-2" data-name="desert4">
          <path class="cls-1" d="M331.07,197.98c-55.71-4.34-111.05-11.67-165.94-20.88-54.79-9.2-109.16-22.34-165.13-24.98v197.74l1920-.8v-183.29c-214.37-22.05-433.92,31.98-653.57,35.33-2.43.04-4.89.07-7.32.13-35.61.59-71.09,1.7-106.47,3.2-230.94,9.77-463.49,13.04-694.4,1.29-42-2.14-84.59-4.41-127.17-7.73Z"/>
        </g>
        <polygon id="tree" class="cls-1" points="530.52 220.45 515.81 194.83 533.2 202.43 533.2 169.47 542.26 199.39 551.89 155.27 553.92 199.9 566.89 187.86 563.44 204.97 580.35 199.39 565.06 222.3 530.52 220.45"/>
        <polygon id="tree-2" data-name="tree" class="cls-1" points="1013.84 219.24 999.31 204.16 1012.57 206.39 1006.88 183.73 1018.27 202.74 1017.28 170.75 1026.38 201.07 1033.22 190.56 1033.8 202.91 1044.46 196.16 1037.9 214.55 1013.84 219.24"/>
      </g>
    </g>
  </g>
</svg>