<?xml version="1.0" encoding="UTF-8"?>
<svg id="Layer_2" data-name="Layer 2" xmlns="http://www.w3.org/2000/svg" xmlns:xlink="http://www.w3.org/1999/xlink" viewBox="0 0 1919.69 505.06">
  <defs>
    <style>
      .cls-1 {
        fill: url(#linear-gradient-2);
      }

      .cls-2 {
        fill: url(#linear-gradient-3);
      }

      .cls-3 {
        fill: url(#linear-gradient);
      }
    </style>
    <linearGradient id="linear-gradient" x1="959.85" y1="252.01" x2="959.85" y2="43.82" gradientUnits="userSpaceOnUse">
      <stop offset=".01" stop-color="#d77054"/>
      <stop offset=".65" stop-color="#f1b26f"/>
      <stop offset="1" stop-color="#fcc878"/>
    </linearGradient>
    <linearGradient id="linear-gradient-2" x1="500.61" y1="7.69" x2="470.03" y2="121.28" gradientUnits="userSpaceOnUse">
      <stop offset="0" stop-color="#da6854"/>
      <stop offset=".98" stop-color="#e79f66"/>
    </linearGradient>
    <linearGradient id="linear-gradient-3" x1="1233.69" y1="98.48" x2="1495.86" y2="-96.27" gradientUnits="userSpaceOnUse">
      <stop offset=".02" stop-color="#e79f66"/>
      <stop offset="1" stop-color="#da6854"/>
    </linearGradient>
  </defs>
  <g id="Layer_1-2" data-name="Layer 1">
    <g id="desert1">
      <path class="cls-3" d="M1919.69,71.44v433.62L0,504.2V68.01c13.87,1.43,28.08,2.88,41.82,3.91,59.54,4.43,120.22,7.5,180.58,7.05h.05c77.3-.54,154.16-6.8,227.47-23.2,40.24-8.99,79.48-21.01,119.33-30.92,4.71-1.18,9.39-2.32,14.13-3.42,36.14-8.47,72.97-14.76,111.6-15.08,43.62-.38,85.7,6.91,127.54,15.19,22.01,4.35,43.95,8.96,66.01,12.87,35.58,6.29,71.98,10.76,108.71,13.35,5.71.41,11.44.78,17.17,1.1,22.73,1.27,45.54,1.83,68.37,1.67,24.88-.14,49.76-1.13,74.46-2.96,28.41-2.1,56.62-5.32,84.39-9.64,29.56-4.59,58.84-10.44,88.15-16.16C1389.4,10.14,1449.04-.95,1511.03.06c23.19.38,45.89,2.46,68.26,5.64,28.08,4,55.62,9.77,83.01,16.22,43.9,10.31,87.31,22.32,131.67,31.48,40.98,8.47,82.9,14.49,125.73,18.03Z"/>
      <g>
        <path class="cls-1" d="M707.65,113.38c-44.93,11.52-101.6,9.77-148.49,5.4-110.61-10.33-221.23-20.98-328.27-38.44-2.79-.46-5.6-.91-8.42-1.37,77.3-.54,154.15-6.81,227.47-23.21,40.22-8.99,79.47-21,119.31-30.91-11.58,32.52,45.29,37.18,90.3,44.67,35.37,5.89,118.4,25.82,48.1,43.86Z"/>
        <path class="cls-2" d="M1579.28,5.71c-.86,16.27-8.13,33.2-22.58,50.47-44.57,53.32-102.81,107.08-207.28,111.86-65.25,2.99-90.7-33.87-133.85-56.89-38.17-20.39-87.67-38.19-134.24-49.25-18.81-4.46-43.99-7.73-66.92-13.04,76.01,4.23,153.19.61,227.23-10.93C1331.34,23.98,1418.58-1.46,1511.03.07c23.19.38,45.89,2.45,68.26,5.64Z"/>
      </g>
    </g>
  </g>
</svg>