<svg preserveAspectRatio="none" width="100%" height="100%" overflow="visible" style="display: block;" viewBox="0 0 45 45" fill="none" xmlns="http://www.w3.org/2000/svg">
<path id="Vector" d="M22.4725 0.3825L25.4525 16.8825C25.6125 17.7425 26.2825 18.4125 27.1425 18.5725L43.6425 21.5525C44.1525 21.6425 44.1525 22.3825 43.6425 22.4725L27.1425 25.4525C26.2825 25.6125 25.6125 26.2825 25.4525 27.1425L22.4725 43.6425C22.3825 44.1525 21.6425 44.1525 21.5525 43.6425L18.5725 27.1425C18.4125 26.2825 17.7425 25.6125 16.8825 25.4525L0.3825 22.4725C-0.1275 22.3825 -0.1275 21.6425 0.3825 21.5525L16.8825 18.5725C17.7425 18.4125 18.4125 17.7425 18.5725 16.8825L21.5525 0.3825C21.6425 -0.1275 22.3825 -0.1275 22.4725 0.3825Z" fill="var(--fill-0, white)"/>
</svg>
