<svg preserveAspectRatio="none" width="100%" height="100%" overflow="visible" style="display: block;" viewBox="0 0 7 7" fill="none" xmlns="http://www.w3.org/2000/svg">
<g id="New Symbol" clip-path="url(#clip0_253_4177)">
<path id="Vector" d="M3.50598 0.149096L3.82974 2.14278C3.88512 2.49636 4.16628 2.77326 4.51986 2.8329L6.51354 3.15666C6.71376 3.19074 6.71376 3.47616 6.51354 3.51024L4.51986 3.834C4.16628 3.88938 3.88938 4.17054 3.82974 4.52412L3.50598 6.5178C3.4719 6.71802 3.18648 6.71802 3.1524 6.5178L2.82864 4.52412C2.77326 4.17054 2.4921 3.89364 2.13852 3.834L0.144838 3.51024C-0.0553824 3.47616 -0.0553824 3.19074 0.144838 3.15666L2.13852 2.8329C2.4921 2.77752 2.769 2.49636 2.82864 2.14278L3.15666 0.149096C3.19074 -0.0511243 3.47616 -0.0511243 3.51024 0.149096H3.50598Z" fill="var(--fill-0, white)"/>
</g>
<defs>
<clipPath id="clip0_253_4177">
<rect width="6.66264" height="6.66264" fill="white"/>
</clipPath>
</defs>
</svg>
