<?xml version="1.0" encoding="UTF-8"?>
<svg id="Layer_2" data-name="Layer 2" xmlns="http://www.w3.org/2000/svg" viewBox="0 0 1928.07 308.23">
  <defs>
    <style>
      .cls-1 {
        fill: #fff;
        opacity: .3;
      }

      .cls-2 {
        opacity: .5;
      }
    </style>
  </defs>
  <g id="Layer_1-2" data-name="Layer 1">
    <g id="sky" class="cls-2">
      <path class="cls-1" d="M566.29,109.81c45.71.9,92.94.51,138.65-.69,44.86-1.18,88.74-1.73,134.06-1.24,8.29.09,32.11.31,35.42-10.59,1.94-6.42-16.28-11.79-20.43-12.8-10.46-2.56-18.1-3-27.19-9.94-8.04-6.13-15.56-13.55-25.23-16.49-13.27-4.04-28.57,1.02-40.97-5.2-7.63-3.83-11.39-10.72-16.42-17.15-4.23-5.4-10.38-10.55-16.01-14.41-2.42-1.66-4.93-3.2-7.63-4.34-17.16-7.23-38.63,2.82-54.8-6.42-5.49-3.14-10.04-8.64-16.46-9.97s-13.87-.05-20.04,1.05c-13.54,2.41-26.49,8.12-37.4,16.51-4.1,3.15-7.32,7.14-11.23,10.42-3.37,2.83-7.73,3.98-11.55,6.46-8.77,5.68-15.64,13.88-24.69,19.19-9.16,5.37-20.59,8.56-31.05,7.84-10.03-.69-21.82,2.33-29.69,8.71-1.77,1.44-3.42,3.1-5.51,4-1.8.78-3.81.95-5.76,1.2-7.82,1.01-15.44,3.61-22.24,7.59-3.49,2.04-6.89,4.58-8.75,8.17s-1.79,8.45,1.11,11.27c2.26,2.21,5.63,2.75,8.77,3.14,38.55,4.78,76.3,2.94,115.04,3.7Z"/>
      <path class="cls-1" d="M111.27,308.18c71.85.18,143.7.23,215.31-5.32,10.13-.78,17.55-7.78,8.31-16.49-2.91-2.75-6.62-4.46-10.11-6.41-6.43-3.59-12.58-8.36-16.31-14.83-3.19-5.53-5.14-10.98-9.79-15.63-9.03-9.05-22.3-13.8-35.01-13.07-18.47,1.06-36.91,11.74-54.54,6.15-15.28-4.84-24.85-20.6-39.72-26.57-10.72-4.31-23.12-2.91-33.73,1.66-10.61,4.58-19.69,12.08-28.05,20.06-10.13,9.66-20.49,19.21-35.32,19.56-7.05.17-14.14-.96-21.13-.03-8.71,1.16-16.94,5.64-22.65,12.32-1.75,2.05-3.28,4.3-5.31,6.08-3.7,3.24-8.65,4.55-13.15,6.53-4.5,1.99-9.04,5.25-9.95,10.09-1.42,7.51,10.75,11.91,16.36,13.47,8.26,2.3,17,2.45,25.51,2.41,23.09-.1,46.18-.03,69.28.03Z"/>
      <path class="cls-1" d="M1228.64,240.04c19.61.34,39.23.31,58.84-.1,23.24-.49,46.47-1.5,69.66-3.05,3.86-.26,5.94-.7,6.74-4.53.79-3.79-.14-7.27-2.2-10.52-2.31-3.65-5.98-5.94-8.67-9.22-2.47-3.02-3.47-6.96-4.91-10.57-3.04-7.56-6.55-15.37-13.14-20.52-8.53-6.65-20.63-7.28-30.91-3.92-6.82,2.23-12.99,6.02-18.64,10.38-1.87,1.45-3.71,3.96-5.89,4.84-2.72,1.1-7.19.24-10.03-.03-13.63-1.27-27.86-6.49-41.42-2-7.38,2.44-13.5,7.56-19.86,12.02-3.09,2.17-6.32,4.2-9.79,5.71-3.35,1.46-6.05.95-9.5,1.63-7.89,1.55-15.06,5.82-21.8,10.01-3,1.86-6.23,4.1-7.03,7.55-2.84,12.27,14.98,10.47,21.77,10.79,11.73.56,23.46.99,35.19,1.29,3.86.1,7.73.18,11.59.25Z"/>
      <path class="cls-1" d="M1619.74,138.51c45.7.3,92.93-.22,138.64-1.26,44.86-1.02,88.74-1.63,134.06-1.58,8.29,0,32.11,0,35.48-6.97,1.98-4.11-16.21-7.42-20.36-8.05-10.45-1.57-18.08-1.81-27.13-6.18-8-3.87-15.48-8.55-25.13-10.37-13.24-2.5-28.57.82-40.93-3.08-7.61-2.4-11.32-6.77-16.32-10.85-4.19-3.42-10.31-6.67-15.92-9.1-2.41-1.04-4.91-2.01-7.6-2.72-17.11-4.51-38.65,2.03-54.75-3.77-5.48-1.97-9.99-5.46-16.4-6.27s-13.87.05-20.04.79c-13.56,1.62-26.54,5.34-37.49,10.75-4.12,2.03-7.36,4.6-11.29,6.71-3.38,1.82-7.75,2.59-11.59,4.19-8.81,3.68-15.72,8.95-24.8,12.39-9.19,3.48-20.64,5.58-31.09,5.19s-21.83,1.61-29.74,5.73c-1.78.93-3.44,2-5.54,2.59-1.81.51-3.81.63-5.76.8-7.83.69-15.45,2.39-22.28,4.97-3.5,1.32-6.92,2.96-8.8,5.26-1.89,2.3-1.84,5.4,1.04,7.19,2.25,1.4,5.61,1.72,8.75,1.95,38.52,2.82,76.28,1.43,115.01,1.68Z"/>
    </g>
  </g>
</svg>