<svg width="237" height="145" viewBox="0 0 237 145" fill="none" xmlns="http://www.w3.org/2000/svg">
<path opacity="0.2" d="M9.64331 123.33L131.963 144.83L236.873 87.11L145.863 59.5599L9.64331 123.33Z" fill="black"/>
<path d="M217.453 81.6401C214.443 83.2201 146.243 127.38 126.453 133.59C126.453 133.59 126.464 133.48 126.474 133.27C126.614 130.56 127.584 111.31 125.634 108.81C123.524 106.12 121.714 106.57 119.604 105.89C117.504 105.22 3.57349 90.23 3.57349 90.23C3.57349 90.23 104.854 53.35 107.864 52.68C110.874 52.01 211.434 64.13 213.534 64.81C213.844 64.91 214.144 65.0201 214.414 65.1501C215.034 65.4501 215.564 65.84 216.004 66.35C216.674 67.11 217.143 68.1401 217.453 69.5201C218.053 72.2101 220.463 80.0701 217.453 81.6401Z" fill="#721E19"/>
<path d="M217.454 81.64C214.444 83.22 146.244 127.38 126.454 133.59C126.454 133.59 126.464 133.48 126.474 133.27C127.594 131.27 129.794 126.71 130.174 121.14C130.684 113.59 129.654 110.41 129.654 110.41C128.714 107.47 127.504 106.3 127.504 106.3L214.414 65.15C215.034 65.45 215.564 65.84 216.004 66.35C216.674 67.11 217.144 68.14 217.454 69.52C218.054 72.21 220.464 80.07 217.454 81.64Z" fill="#6B1B1B"/>
<path d="M0.643311 119.61L53.7133 96.1799C53.7133 96.1799 128.033 102.57 128.033 108.22C128.033 113.87 125.863 131.9 125.863 131.9C125.863 131.9 13.0533 123.6 0.643311 119.61Z" fill="#BE1F11"/>
<path d="M8.5437 117.55C8.5437 117.55 15.7637 105.61 7.56372 92.66C7.56372 92.66 106.924 103.72 110.834 104.16C114.734 104.6 123.364 105.91 124.494 107.36C125.624 108.81 126.444 122.06 126.444 122.06L124.684 128.76C124.684 128.76 11.6537 119.44 8.53369 117.55H8.5437Z" fill="#FFEEE8"/>
<path d="M163.124 89.46L152.174 94.41C154.754 95.85 157.123 104.04 156.693 111.09C156.453 115.06 155.254 118.07 154.254 119.94C158.014 117.82 161.914 115.57 165.844 113.27C166.274 110.73 166.944 106 166.794 101.79C166.574 95.69 163.124 89.46 163.124 89.46ZM199.714 85.26C199.284 80.77 195.624 74.1899 195.624 74.1899L186.594 78.6799C186.594 78.6799 189.603 80.93 191.323 86.86C192.553 91.12 191.353 95.96 190.583 98.35C193.613 96.48 196.513 94.69 199.203 93.01C199.553 91.23 200.004 88.18 199.724 85.26H199.714Z" fill="#FF8500"/>
<path d="M5.61365 89.96C5.61365 89.96 118.804 102.51 122.244 103.36C125.684 104.22 128.744 106.21 129.894 111.34C131.044 116.47 129.894 132.73 126.454 133.58C123.014 134.44 95.2136 131.39 82.2136 130.54C69.2136 129.68 2.9437 123.03 1.7937 122.18C0.643704 121.33 -0.88632 120.47 0.643679 119.61C2.17368 118.75 41.9437 123.6 46.9137 124.17C51.8837 124.74 116.894 131.01 119.564 130.16C122.244 129.3 124.154 127.31 124.534 124.17C124.914 121.03 126.064 110.77 122.244 108.2C118.424 105.63 5.99362 93.66 4.08362 92.52C2.17362 91.38 2.17365 89.95 5.61365 89.95V89.96Z" fill="#A00400"/>
<path d="M114.823 123.83C101.973 122.6 89.1033 121.53 76.2433 120.4C63.3833 119.27 50.5334 118.1 37.6634 117.03C30.3634 116.42 23.0733 115.84 15.7533 115.39C15.5433 115.38 15.4933 115.64 15.7033 115.67C28.5433 117.12 41.4433 118.22 54.3333 119.34C67.1933 120.46 80.0534 121.57 92.9134 122.69C100.213 123.32 107.513 123.98 114.823 124.56C115.443 124.61 115.423 123.9 114.823 123.84V123.83Z" fill="#FFD7CB"/>
<path d="M119.034 120.78C92.8436 118.44 66.6536 116.14 40.4636 113.83L29.4736 112.86C25.7536 112.53 21.9936 112.12 18.2536 112.1C18.0736 112.1 18.0336 112.3 18.2136 112.33C21.3536 112.88 24.6036 113.13 27.8036 113.41C31.0636 113.7 34.3336 113.99 37.5936 114.28C44.2036 114.87 50.8036 115.45 57.4136 116.05C70.4636 117.22 83.5235 118.39 96.5735 119.54C104.054 120.2 111.544 120.86 119.024 121.52C119.654 121.58 119.654 120.84 119.024 120.78H119.034Z" fill="#FFD7CB"/>
<path d="M112.334 111.75C87.5536 109.25 62.7637 106.76 37.9837 104.27C34.4837 103.92 30.9937 103.57 27.4937 103.22C24.1237 102.88 20.7337 102.45 17.3437 102.33C16.9437 102.32 16.8637 102.78 17.2537 102.85C20.3637 103.37 23.5737 103.62 26.7337 103.94C29.7537 104.24 32.7737 104.55 35.7937 104.85C41.9937 105.47 48.1837 106.1 54.3837 106.72C66.6137 107.95 78.8536 109.18 91.0836 110.41L112.054 112.52C112.724 112.59 113.014 111.82 112.334 111.75Z" fill="#FFD7CB"/>
<path d="M98.0837 106.48C78.6637 104.97 59.4037 102.62 40.0837 100.61C39.9437 100.6 39.8737 100.75 40.0237 100.77C59.1337 103.89 78.6337 105.6 98.0837 107.05C98.5737 107.09 98.5737 106.52 98.0837 106.48Z" fill="#FFD7CB"/>
<path d="M118.554 116.78C108.374 115.95 98.2136 114.93 88.0336 114.05C77.8636 113.17 67.6836 112.29 57.5136 111.42C54.7336 111.18 51.9537 110.95 49.1637 110.71C46.2637 110.46 43.2636 110.04 40.3436 110.12C40.0736 110.12 40.0136 110.42 40.2836 110.47C42.6236 110.95 45.1036 111.05 47.5036 111.26C50.0436 111.48 52.5936 111.7 55.1336 111.92C60.3036 112.37 65.4636 112.81 70.6336 113.25C80.8036 114.12 90.9836 115 101.154 115.87C106.954 116.37 112.764 116.74 118.564 117.27C118.984 117.31 118.984 116.81 118.564 116.78H118.554Z" fill="#FFD7CB"/>
<path d="M88.7633 117.85L100.353 119.06C96.9732 121.4 86.4632 129.79 91.8232 140.8L84.7733 136.79L79.6132 142.07C79.6132 142.07 73.0633 126.75 88.7633 117.85Z" fill="#FFAB00"/>
<path opacity="0.2" d="M214.413 65.15L213.533 64.8099L210.393 64.3199L160.453 51.29L32.2434 79.11L113.443 102.19L124.163 111.01L130.323 118.58L217.923 71.46L217.553 69.98C217.153 67.77 216.263 66.09 214.413 65.14V65.15Z" fill="black"/>
<path d="M115.763 100.06C115.763 100.06 210.003 65.21 211.663 63.7C213.323 62.19 211.793 61.4399 211.163 61.0599C210.543 60.6799 129.963 40.53 129.963 40.53L27.1634 55.22C27.1634 55.22 21.5634 55.57 20.0934 60.49C18.6234 65.42 23.0434 70.47 23.8234 72.73C24.6034 74.99 36.7634 79.51 36.7634 79.51L115.763 100.05V100.06Z" fill="#008383"/>
<path d="M115.263 99.9299L115.763 100.06C115.763 100.06 210.003 65.21 211.663 63.7C212.553 62.89 212.523 62.3 212.203 61.86C197.533 68.74 116.263 98.38 116.263 98.38L115.263 99.9299Z" fill="#006161"/>
<path d="M117.413 96.95C118.543 96.6 208.443 61.79 208.443 61.79C208.443 61.79 203.063 56.06 208.253 49.9L115.283 77.83L107.403 88.86L117.413 96.95Z" fill="#FFACA0"/>
<path d="M28.5932 55.54C28.5932 55.54 22.5433 58.73 22.8933 63.5C23.2533 68.28 26.6333 73.46 30.3733 74.92C34.1133 76.38 117.403 96.95 117.403 96.95C117.403 96.95 109.213 88.32 118.113 79.16L28.5832 55.53L28.5932 55.54Z" fill="#FFEEE8"/>
<path d="M23.8232 55C23.8232 55 134.263 26.59 135.723 26.59C137.183 26.59 209.583 46.59 210.313 47.13C211.043 47.67 211.533 48.94 210.803 49.67C210.073 50.4 119.763 79.92 119.763 79.92L23.8232 54.99V55Z" fill="#05726F"/>
<path d="M119.073 79.74L119.763 79.92C119.763 79.92 210.073 50.39 210.803 49.67C211.383 49.1 211.193 48.1899 210.733 47.5599C194.503 53.4599 120.263 78.0599 120.263 78.0599L119.073 79.75V79.74Z" fill="#006161"/>
<path d="M115.763 100.06C115.763 100.06 34.5233 80.67 29.7733 78.25C25.0233 75.83 18.7733 71.54 18.5233 64.27C18.2733 57 22.0233 55.14 26.2733 54.39C30.5233 53.64 119.513 77.13 120.263 78.07C121.013 79 121.013 80.1199 119.763 79.9299C118.513 79.7399 29.7733 56.81 27.5233 56.63C25.2733 56.44 20.5233 58.49 21.0233 63.9C21.5233 69.31 25.5233 74.15 30.7733 76.39C36.0233 78.63 115.263 97.83 116.263 98.39C117.263 98.95 117.513 99.88 115.763 100.07V100.06Z" fill="#00A2A2"/>
<path d="M205.003 60.84C182.833 68.52 160.903 76.6001 139.223 85.0201C133.063 87.4101 126.653 89.6701 120.853 92.5201C120.673 92.6101 120.833 92.79 121.013 92.73C126.693 90.92 132.103 88.57 137.573 86.44C142.923 84.36 148.283 82.29 153.653 80.25C164.543 76.11 175.503 72.07 186.513 68.11C192.803 65.85 199.113 63.6201 205.443 61.4101C205.953 61.2301 205.513 60.67 205.003 60.85V60.84Z" fill="#FFD7CB"/>
<path d="M196.883 60.53C194.493 60.94 192.283 61.92 190.093 62.71L183.283 65.17L169.443 70.1799C160.213 73.5199 150.993 76.8499 141.763 80.1899C136.493 82.0999 131.293 84.09 126.133 86.14C126.043 86.18 126.123 86.27 126.213 86.24C145.003 80.11 163.323 73.15 181.783 66.49C184.423 65.54 187.053 64.59 189.693 63.64C192.153 62.75 194.893 61.99 197.033 60.71C197.153 60.64 197.023 60.51 196.893 60.53H196.883Z" fill="#FFD7CB"/>
<path d="M167.133 67.38C165.273 67.73 163.453 68.5899 161.713 69.1999C159.953 69.8199 158.183 70.43 156.423 71.05C152.753 72.34 149.083 73.62 145.403 74.91C138.073 77.48 130.623 79.9199 123.463 82.7399C123.213 82.8399 123.393 83.1699 123.653 83.0799C131.023 80.8099 138.193 78.15 145.403 75.63L156.423 71.78C158.183 71.16 159.953 70.5499 161.713 69.9299C163.553 69.2899 165.753 68.76 167.393 67.87C167.713 67.7 167.533 67.3 167.113 67.38H167.133Z" fill="#FFD7CB"/>
<path d="M190.773 59.48C190.313 59.49 190.313 59.4301 189.913 59.5401C189.603 59.6201 189.323 59.73 189.033 59.83C188.353 60.08 187.683 60.34 187.003 60.59C185.723 61.05 184.433 61.4901 183.133 61.9201C181.553 62.4401 179.953 62.93 178.333 63.38C177.643 63.57 176.953 63.76 176.283 64.01C176.023 64.1 175.793 64.2201 175.633 64.4101C175.613 64.4401 175.633 64.47 175.673 64.48C176.273 64.64 176.933 64.4101 177.503 64.2901C177.683 64.2501 177.873 64.2201 178.053 64.1701C179.883 63.6901 181.703 63.16 183.493 62.6C184.843 62.17 186.173 61.71 187.493 61.23C188.173 60.98 188.853 60.73 189.523 60.46C189.833 60.34 190.243 60.2 190.483 60.01C190.663 59.87 190.693 59.75 190.853 59.59C190.893 59.55 190.843 59.49 190.783 59.5L190.773 59.48Z" fill="#FFD7CB"/>
<path d="M107.393 88.69C102.463 87.2 97.3631 85.96 92.3431 84.66C87.3131 83.35 82.2731 82.0699 77.2131 80.8099C67.2531 78.3299 57.2531 75.94 47.1931 73.73C41.4231 72.46 35.6131 70.98 29.6931 70.2C29.5231 70.18 29.4731 70.34 29.6231 70.39C34.5631 71.86 39.7831 72.83 44.8731 74C49.9631 75.17 55.0631 76.33 60.1431 77.53C70.1531 79.89 80.1332 82.32 90.0532 84.87C95.7632 86.33 101.413 87.96 107.163 89.33C107.713 89.46 107.903 88.86 107.393 88.7V88.69Z" fill="#FFD7CB"/>
<path d="M109.393 84.21C106.913 83.44 104.133 83.04 101.543 82.49C98.9233 81.93 96.2933 81.3801 93.6833 80.8001C88.4533 79.6501 83.2433 78.45 78.0533 77.2C67.7533 74.72 57.5333 72.0299 47.3933 69.1799C41.6433 67.5599 35.9133 65.91 30.1633 64.29C29.9533 64.23 29.8032 64.4899 30.0132 64.5599C49.8832 71.2699 70.7432 76.5 91.6332 81.12C94.6232 81.78 97.6132 82.4301 100.613 83.0501C103.443 83.6401 106.393 84.4199 109.313 84.6899C109.713 84.7299 109.703 84.3 109.403 84.21H109.393Z" fill="#FFD7CB"/>
<path d="M109.053 80.09C105.093 79.19 101.053 78.51 97.0633 77.7C92.9933 76.87 88.9532 75.98 84.9432 75.01C81.0032 74.06 77.1032 73.04 73.2232 71.95C69.2932 70.85 65.4033 69.63 61.3833 68.72C61.3133 68.7 61.2732 68.7801 61.3332 68.8001C64.9432 70.3401 68.8632 71.48 72.7432 72.58C76.6132 73.68 80.5232 74.69 84.4632 75.64C92.4132 77.56 100.633 79.5301 108.923 80.4201C109.203 80.4501 109.333 80.16 109.043 80.09H109.053Z" fill="#FFD7CB"/>
<path opacity="0.2" d="M115.794 82L129.154 92.45L157.924 81.33L167.084 73.0599L199.354 43.91L183.684 39.53L115.794 82Z" fill="black"/>
<path d="M5.50366 66.08L33.8336 50.4299C33.8336 50.4299 145.724 63.21 146.994 64.22C148.264 65.23 143.194 76.8299 141.674 78.1799C140.154 79.5299 135.854 82.72 133.064 82.89C130.284 83.06 124.454 82.55 124.454 82.55L5.49365 66.08H5.50366Z" fill="#724A1E"/>
<path d="M9.02368 57.99C9.02368 57.99 12.3137 60.68 10.5437 65.22C10.5437 65.22 136.864 82.04 138.384 81.2C139.904 80.36 142.434 77.67 142.684 76.15C142.934 74.64 139.694 71.33 138.154 71.22C136.614 71.11 9.02368 57.99 9.02368 57.99Z" fill="#FFEEE8"/>
<path d="M142.214 80.36C142.214 80.36 202.204 21.73 202.534 20.21C202.864 18.69 203.184 16.2999 199.594 14.5599C195.994 12.8199 124.674 1.52 101.114 0L7.26367 56.97C7.26367 56.97 137.094 71.94 138.734 72.37C140.374 72.8 145.034 75.53 142.214 80.36Z" fill="#D38E16"/>
<path d="M140.103 72.96C141.933 71.19 190.793 23.9099 200.293 14.9299C203.143 16.6199 202.843 18.79 202.533 20.2C202.203 21.72 142.213 80.35 142.213 80.35C144.433 76.55 142.023 74.06 140.103 72.96Z" fill="#A56F34"/>
<path d="M7.26373 56.96C7.26373 56.96 135.344 70.28 138.154 71.22C140.964 72.15 145.894 74.49 143.084 79.17C140.274 83.84 134.284 83.61 129.714 83.61C125.144 83.61 5.8637 67.25 5.8637 67.25C5.8637 67.25 4.45373 66.55 5.51373 66.08C6.57373 65.61 127.964 82.21 130.424 82.21C132.884 82.21 139.224 80.81 140.624 77.77C142.034 74.73 138.164 73.1 135.694 72.86C133.234 72.63 7.26373 58.37 7.26373 58.37V56.97V56.96Z" fill="#A56F34"/>
<path d="M14.2836 63.48C45.4436 67.38 76.6035 71.3001 107.754 75.2501C116.564 76.3701 125.364 77.4801 134.154 78.6701C134.394 78.7001 134.294 78.9401 134.054 78.9101C118.424 77.1201 102.844 75.12 87.2535 73.18C71.6635 71.24 56.0835 69.31 40.4935 67.35C31.6835 66.24 22.8636 65.1401 14.0536 64.0301C13.5036 63.9601 13.7336 63.4 14.2836 63.47V63.48Z" fill="#FFD7CB"/>
<path d="M63.8038 67.85C82.4938 70.55 101.314 72.89 120.224 74.83C122.804 75.09 125.384 75.34 127.964 75.61C130.664 75.9 133.484 76.04 136.114 76.54C136.244 76.56 136.214 76.7 136.084 76.7C133.734 76.71 131.364 76.41 129.034 76.21C126.724 76.01 124.424 75.7899 122.124 75.5599C117.354 75.0799 112.594 74.5801 107.834 74.0501C98.3937 73.0001 88.9837 71.87 79.6037 70.62C74.2537 69.91 68.9137 69.16 63.5837 68.39C63.0537 68.31 63.2738 67.77 63.8038 67.85Z" fill="#FFD7CB"/>
<path d="M16.6337 61.98C18.2337 62.02 19.8736 62.31 21.4536 62.49C23.1136 62.68 24.7637 62.88 26.4237 63.08C29.8137 63.48 33.2036 63.8801 36.5936 64.2801C39.9036 64.6701 43.2237 65.06 46.5337 65.45C48.2637 65.65 50.0036 65.87 51.7336 66.08C53.2036 66.26 55.1537 66.2701 56.4337 66.7901C56.5137 66.8201 56.5137 66.92 56.4037 66.94C55.0237 67.11 53.3937 66.73 52.0237 66.57C50.3637 66.38 48.7037 66.19 47.0537 65.99C43.6637 65.59 40.2737 65.1801 36.8837 64.7701L26.9536 63.58C25.2236 63.37 23.4837 63.17 21.7537 62.96C20.0537 62.75 18.2136 62.6401 16.5736 62.2801C16.3336 62.2301 16.3637 61.97 16.6337 61.98Z" fill="#FFD7CB"/>
<path d="M50.5236 64.63C53.0436 64.53 55.7436 65.1001 58.2136 65.4101C60.8836 65.7401 63.5636 66.0701 66.2336 66.4101C71.5736 67.0801 76.9236 67.75 82.2736 68.4C92.9036 69.69 103.564 70.8901 114.194 72.1601C120.234 72.8801 126.374 73.5 132.314 74.51C132.494 74.54 132.464 74.74 132.274 74.73C127.014 74.36 121.764 73.65 116.564 73.03L100.504 71.09C89.7136 69.79 78.9436 68.42 68.1436 67.19C65.1436 66.85 62.1436 66.5101 59.1436 66.1601C57.6436 65.9801 56.1436 65.81 54.6536 65.63C53.2136 65.46 51.7436 65.35 50.3936 64.96C50.1336 64.88 50.2936 64.64 50.5236 64.63Z" fill="#FFD7CB"/>
<path d="M67.7036 34.13L45.8037 49.42L126.974 60.88L142.704 45.99L67.7036 34.13Z" fill="#FFEEE8"/>
</svg>
