<svg width="188" height="940" viewBox="0 0 188 940" fill="none" xmlns="http://www.w3.org/2000/svg">
<path d="M6.59009 0.77002V927.53L41.7102 939.02L81.29 929.22L113.25 927.53C113.25 927.53 92.4101 659.12 53.8601 599.55C102.98 503.81 129.62 491.02 154.48 386.02C170 320.49 173.13 255.47 176.8 188.65C177.51 175.82 185.54 0.77002 187.14 0.77002H6.58008H6.59009Z" fill="#33529E"/>
<path d="M63.4829 590.951L0.892578 588.218L0.000124512 608.659L62.5904 611.392L63.4829 590.951Z" fill="#183384"/>
<path d="M41.7803 939.03V788.91L51.2803 936.68L41.7803 939.03Z" fill="#2A4891"/>
<path d="M81.3601 929.23L71.3 746.79L89.0601 928.83L81.3601 929.23Z" fill="#2A4891"/>
<path d="M24.8601 589.04C24.8601 589.04 69.8301 500.43 86.6501 329.62C86.6501 329.62 86.3601 509.73 24.8601 589.04Z" fill="#2A4891"/>
<path d="M34.3501 589.35C34.3501 589.35 83.9302 531.53 127.48 407.4C127.48 407.4 94.5501 541.46 34.3501 589.35Z" fill="#2A4891"/>
<path d="M14.4702 588.88C14.4702 588.88 40.7901 514.78 34.8401 379.65C34.8401 379.65 55.2802 520.21 14.4702 588.88Z" fill="#2A4891"/>
<path d="M94.7502 0C94.7502 0 99.7302 211.08 94.7502 263.83C94.7502 263.83 116.74 100.31 94.7502 0Z" fill="#2A4891"/>
<path d="M159.03 0C159.03 0 151.73 216.36 142.23 256.38C142.23 256.38 168.53 134.59 159.03 0Z" fill="#2A4891"/>
</svg>
