<svg width="479" height="733" viewBox="0 0 479 733" fill="none" xmlns="http://www.w3.org/2000/svg">
<path opacity="0.2" d="M164.18 732.756C213.841 732.756 254.1 718.635 254.1 701.216C254.1 683.797 213.841 669.676 164.18 669.676C114.518 669.676 74.2598 683.797 74.2598 701.216C74.2598 718.635 114.518 732.756 164.18 732.756Z" fill="black"/>
<path d="M158.71 647.046L151.32 649.536L118.38 551.716L25.54 275.976L27.87 275.196L32.93 273.486L158.71 647.046Z" fill="#4D4D4D"/>
<path d="M184.97 647.046L179.76 648.806L177.58 649.536L55.8898 288.116L51.7998 275.976L59.1898 273.486L184.97 647.046Z" fill="#4D4D4D"/>
<path d="M179.76 648.806L177.58 649.536L55.8901 288.116L58.0701 287.386L179.76 648.806Z" fill="#3C3E3F"/>
<path d="M146.9 626.826L143.93 627.816L25.54 276.196L28.51 275.196L146.9 626.826Z" fill="#3C3E3F"/>
<path d="M100.25 659.586V700.786H100.33C102.07 713.666 135.8 723.936 177.18 723.936C218.56 723.936 252.29 713.666 254.03 700.786H254.11V659.586H100.25Z" fill="#262626"/>
<path d="M158.71 603.936C118.66 611.946 100.84 656.826 100.84 656.826L100.58 657.716C100.36 658.656 100.24 659.606 100.24 660.566C100.24 677.566 134.68 691.346 177.17 691.346C219.66 691.346 254.1 677.566 254.1 660.566C254.1 634.786 198.76 595.916 158.71 603.926V603.936Z" fill="#333333"/>
<path d="M41.52 246.186L0 311.706L82.65 330.726L93.82 305.786L41.52 246.186Z" fill="#333333"/>
<path d="M72.4599 303.556C72.4599 307.396 69.3399 310.516 65.4999 310.516C65.2299 310.516 64.9499 310.496 64.6899 310.456C68.1499 310.056 70.8299 307.116 70.8299 303.556C70.8299 299.996 68.1499 297.046 64.6899 296.656C64.9499 296.616 65.2299 296.596 65.4999 296.596C69.3399 296.596 72.4599 299.706 72.4599 303.556Z" fill="#2A2B2B"/>
<path d="M70.83 303.556C70.83 307.116 68.15 310.056 64.69 310.456C61.23 310.066 58.54 307.126 58.54 303.556C58.54 299.986 61.23 297.046 64.69 296.656C68.15 297.046 70.83 299.986 70.83 303.556Z" fill="#1A1A1A"/>
<path d="M39.1602 295.445C43.0041 295.445 46.1202 292.329 46.1202 288.485C46.1202 284.642 43.0041 281.525 39.1602 281.525C35.3163 281.525 32.2002 284.642 32.2002 288.485C32.2002 292.329 35.3163 295.445 39.1602 295.445Z" fill="#1A1A1A"/>
<path d="M93.8199 305.786L103.6 299.966L90.8799 326.556L82.6499 330.726L93.8199 305.786Z" fill="#535659"/>
<path d="M41.52 246.186L61.15 250.916L103.6 299.966L93.82 305.786L41.52 246.186Z" fill="#2C2C2D"/>
<path d="M46.1201 288.456C46.1201 292.296 43.0001 295.416 39.1601 295.416C38.8901 295.416 38.6101 295.396 38.3501 295.356C41.8101 294.956 44.4901 292.016 44.4901 288.456C44.4901 284.896 41.8101 281.946 38.3501 281.556C38.6101 281.516 38.8901 281.496 39.1601 281.496C43.0001 281.496 46.1201 284.606 46.1201 288.456Z" fill="#2A2B2B"/>
<path d="M85.6798 285.086C85.5798 285.286 85.4398 285.466 85.2698 285.616C85.0698 285.786 84.8398 285.906 84.5898 285.966C83.4598 286.296 81.8598 285.646 80.6598 284.256C80.4398 283.996 80.2498 283.726 80.0798 283.456C79.3498 282.266 79.1498 280.996 79.5298 280.126C79.5498 280.076 79.5798 280.036 79.5998 279.986C79.6998 279.806 79.8298 279.646 79.9898 279.506C80.1798 279.346 80.3898 279.236 80.6198 279.166C80.6698 279.146 80.7198 279.126 80.7798 279.126C81.7298 278.906 82.9698 279.346 84.0198 280.286C84.2198 280.466 84.4098 280.656 84.5898 280.866C85.8198 282.286 86.2298 284.016 85.6798 285.086Z" fill="#3C3E3F"/>
<path d="M283.06 101.726L85.6798 285.096L84.5898 285.976C83.4598 286.306 81.8598 285.656 80.6598 284.266C80.4398 284.006 80.2498 283.736 80.0798 283.466C79.3498 282.276 79.1498 281.006 79.5298 280.136C79.5498 280.086 79.5798 280.046 79.5998 279.996L80.6198 279.176L278.17 95.6558L281.21 99.4358L283.06 101.726Z" fill="#4D4D4D"/>
<path d="M280.02 98.0358L84.0198 280.296L80.0798 283.466C79.3498 282.276 79.1498 281.006 79.5298 280.136L80.7798 279.136L278.17 95.7458L280.02 98.0358Z" fill="#3C3E3F"/>
<path d="M70.1999 268.016C70.0999 268.216 69.9599 268.396 69.7899 268.546C69.5899 268.716 69.3598 268.836 69.1098 268.896C67.9798 269.226 66.3799 268.576 65.1799 267.186C64.9599 266.926 64.7699 266.656 64.5999 266.386C63.8699 265.196 63.6698 263.926 64.0498 263.056C64.0698 263.006 64.0999 262.966 64.1199 262.916C64.2199 262.736 64.3499 262.576 64.5099 262.436C64.6999 262.276 64.9098 262.166 65.1398 262.096C65.1898 262.076 65.2398 262.056 65.2998 262.056C66.2498 261.836 67.4899 262.276 68.5399 263.216C68.7399 263.396 68.9298 263.586 69.1098 263.796C70.3398 265.216 70.7499 266.946 70.1999 268.016Z" fill="#3C3E3F"/>
<path d="M267.58 84.6459L70.1999 268.016L69.1098 268.896C67.9798 269.226 66.3799 268.576 65.1799 267.186C64.9599 266.926 64.7699 266.656 64.5999 266.386C63.8699 265.196 63.6698 263.926 64.0498 263.056C64.0698 263.006 64.0999 262.966 64.1199 262.916L65.1398 262.096L262.69 78.5759L265.73 82.356L267.58 84.6459Z" fill="#4D4D4D"/>
<path d="M264.54 80.9561L68.5399 263.216L64.5999 266.386C63.8699 265.196 63.6698 263.926 64.0498 263.056L65.2998 262.056L262.69 78.666L264.54 80.9561Z" fill="#3C3E3F"/>
<path d="M357.64 58.0158L339.4 72.6859L288.18 113.906L286.86 114.966L286.71 114.776L252.85 72.7059C240.45 57.2959 240.64 35.8259 252.08 20.7459C254.11 18.0459 256.52 15.5559 259.27 13.3359L264.26 9.3259C268.55 5.8759 273.31 3.39595 278.27 1.87595C294.31 -3.08405 312.46 1.87583 323.62 15.7558L333.83 28.4359L357.64 58.0158Z" fill="#4D4D4D"/>
<path d="M357.64 58.0158L339.4 72.6859L305.29 27.9259C303.11 25.0159 300.76 22.8659 298.48 21.2359C284.24 11.1159 264.43 15.9759 252.08 20.7459C254.11 18.0459 256.52 15.5559 259.27 13.3359L264.26 9.3259C268.55 5.8759 273.31 3.39595 278.27 1.87595C294.31 -3.08405 312.46 1.87583 323.62 15.7558L333.83 28.4359L357.64 58.0158Z" fill="#444647"/>
<path d="M361.546 54.8939L282.87 118.196L288.75 125.504L367.426 62.202L361.546 54.8939Z" fill="#333333"/>
<path d="M478.48 116.586C478.48 116.586 462.75 135.736 437.04 160.136H437.03C408.87 186.846 368.73 219.816 324.13 240.786L320.65 227.666L292.74 122.286L346.95 78.6759L363.52 65.3359L414.88 88.236L478.48 116.586Z" fill="#4D4D4D"/>
<path d="M478.48 116.586C478.48 116.586 462.75 135.736 437.04 160.136H437.03L346.95 78.6759L363.52 65.3359L414.88 88.236L478.48 116.586Z" fill="#444647"/>
</svg>
