<svg width="275" height="103" viewBox="0 0 275 103" fill="none" xmlns="http://www.w3.org/2000/svg">
<path d="M161.73 0L9.33984 74.16L165.8 102.65L274.32 32.5601L161.73 0Z" fill="#9287A0"/>
<path d="M146.56 22.63C141.29 25.4 136.02 28.1701 130.75 30.9501C129.47 31.6201 130.6 33.57 131.89 32.89C137.16 30.12 142.43 27.3501 147.7 24.5701C148.98 23.9001 147.85 21.95 146.56 22.63Z" fill="#776993"/>
<path d="M130.53 33.63C137.07 34.44 142.96 37.43 149.34 38.84C150.75 39.15 151.35 36.98 149.94 36.67C146.76 35.97 143.72 34.85 140.64 33.8C137.34 32.67 134 31.81 130.53 31.38C129.1 31.2 129.11 33.45 130.53 33.63Z" fill="#776993"/>
<path d="M151.81 38.6601C158.06 35.1701 164.3 31.6701 170.55 28.1801C171.81 27.4701 170.68 25.53 169.41 26.24C163.16 29.73 156.92 33.23 150.67 36.72C149.41 37.43 150.54 39.3701 151.81 38.6601Z" fill="#776993"/>
<path d="M148.759 23.9699C155.329 25.0899 161.859 26.4399 168.309 28.0999C169.709 28.4599 170.309 26.29 168.909 25.93C162.459 24.26 155.929 22.92 149.359 21.8C147.939 21.56 147.339 23.7299 148.759 23.9699Z" fill="#776993"/>
<path d="M93.2399 50.9301C86.0799 54.9401 78.6498 58.4501 71.0898 61.6501C69.7598 62.2101 70.9098 64.15 72.2298 63.59C79.7898 60.4 87.2199 56.88 94.3799 52.87C95.6399 52.16 94.5099 50.2201 93.2399 50.9301Z" fill="#776993"/>
<path d="M95.1497 52.31C98.5397 53.02 101.95 53.72 105.28 54.7C108.09 55.53 110.7 56.77 113.65 57.03C115.09 57.16 115.08 54.91 113.65 54.78C110.84 54.53 108.26 53.22 105.57 52.44C102.34 51.51 99.0396 50.83 95.7496 50.14C94.3396 49.84 93.7297 52.01 95.1497 52.31Z" fill="#776993"/>
<path d="M113.28 55.36C108.1 58.78 102.76 61.94 97.3096 64.91C96.0396 65.6 97.1696 67.55 98.4496 66.85C103.89 63.87 109.24 60.71 114.42 57.3C115.62 56.51 114.5 54.56 113.28 55.36Z" fill="#776993"/>
<path d="M71.2698 64.17C78.1898 65.73 85.1298 67.2 92.0898 68.6C93.4998 68.88 94.1098 66.7201 92.6898 66.4301C85.7298 65.0401 78.7898 63.56 71.8698 62C70.4598 61.68 69.8598 63.85 71.2698 64.17Z" fill="#776993"/>
<path d="M184.13 34.73C196.78 36.91 209.36 39.59 221.75 42.97C223.15 43.35 223.75 41.1801 222.35 40.8001C209.96 37.4201 197.39 34.7501 184.73 32.5601C183.31 32.3201 182.71 34.48 184.13 34.73Z" fill="#776993"/>
<path d="M171.73 40.13C185.85 43.31 199.97 46.5301 214.07 49.8101C215.48 50.1401 216.08 47.97 214.67 47.64C200.57 44.36 186.46 41.1401 172.33 37.9601C170.92 37.6401 170.32 39.81 171.73 40.13Z" fill="#776993"/>
<path d="M129.14 64.87C140.51 67.12 151.88 69.36 163.24 71.61C164.65 71.89 165.26 69.72 163.84 69.44C152.47 67.19 141.1 64.9501 129.74 62.7001C128.33 62.4201 127.72 64.59 129.14 64.87Z" fill="#776993"/>
<path d="M116.01 71.9C131.57 74.63 147.07 77.7001 162.47 81.2101C163.88 81.5301 164.48 79.36 163.07 79.04C147.67 75.52 132.17 72.45 116.61 69.73C115.19 69.48 114.59 71.65 116.01 71.9Z" fill="#776993"/>
<path opacity="0.2" d="M9.34 74.16L0 69.8101L161.73 0" fill="black"/>
</svg>
