<svg width="88" height="87" viewBox="0 0 88 87" fill="none" xmlns="http://www.w3.org/2000/svg">
<path opacity="0.2" d="M83.6901 66.5399L64.2802 83.99L61.1801 86.77L43.2901 82.36L31.1801 76.5599L6.26013 77.47L0.890137 62.91L9.54013 50.63L74.6801 64.61L83.6901 66.5399Z" fill="black"/>
<path d="M87.59 56.28L83.69 66.5399L62.13 81L45.86 76.5599L33.69 70.1799L16.4 69.86L9.54001 50.63L9.18002 49.62L0 42.6899L0.25 42.2999C0.32 42.1999 0.390001 42.09 0.470001 41.96C0.560001 41.83 0.65 41.68 0.75 41.52C0.85 41.36 0.960017 41.19 1.08002 41C1.59002 40.21 2.23002 39.1999 2.96002 38.0399L3.53003 37.13C5.58003 33.85 8.09002 29.76 9.80002 26.65C10.33 25.68 10.78 24.82 11.12 24.11C13.58 18.93 28.17 0.58 28.63 0H28.64C28.64 0 45.09 13.1 59.78 11.64C62.56 11.36 69.51 11.36 69.51 11.36L63.78 22.7999L76.74 27.8099V42.6899L87.59 56.28Z" fill="#F9DA9B"/>
<path d="M87.59 56.2799L83.6899 66.5398L62.1299 80.9999L45.86 76.5598L33.6899 70.1798L47.2299 75.1898L48.27 75.5698L60.27 65.3198L66.3799 57.2599L65.56 41.6998L64.45 29.8799L63.78 22.7998L76.74 27.8098V42.6898L87.59 56.2799Z" fill="#F7DEB2"/>
<path style="mix-blend-mode:soft-light" opacity="0.8" d="M76.7401 27.8098L66.3 29.1998L64.45 29.8799L54.58 33.5199L46.5601 32.4298L56.5601 29.0898L63.7801 22.7998L76.7401 27.8098Z" fill="url(#paint0_linear_290_639)"/>
<path style="mix-blend-mode:soft-light" opacity="0.8" d="M9.18002 49.62L19.39 48.6699L7.16 44.13L3.53003 37.13L0 42.6899L9.18002 49.62Z" fill="url(#paint1_linear_290_639)"/>
<path style="mix-blend-mode:soft-light" opacity="0.8" d="M76.74 42.6899L70.71 46.9299L76.83 48.14L87.59 56.28L76.74 42.6899Z" fill="url(#paint2_linear_290_639)"/>
<path style="mix-blend-mode:soft-light" opacity="0.8" d="M28.6298 0L26.2698 6.91003L22.1398 12.65L21.2298 17.0499L9.7998 26.65C10.3298 25.68 10.7798 24.82 11.1198 24.11C13.5798 18.93 28.1698 0.58 28.6298 0Z" fill="url(#paint3_linear_290_639)"/>
<path style="mix-blend-mode:soft-light" opacity="0.8" d="M10.9199 54.49L17.8599 64.73L33.6899 70.1799L16.3999 69.86L10.9199 54.49Z" fill="url(#paint4_linear_290_639)"/>
<path style="mix-blend-mode:soft-light" opacity="0.8" d="M33.6899 70.1799L55.71 66.72L45.86 76.5599L33.6899 70.1799Z" fill="url(#paint5_linear_290_639)"/>
<defs>
<linearGradient id="paint0_linear_290_639" x1="45.3901" y1="30.8999" x2="75.4001" y2="24.9399" gradientUnits="userSpaceOnUse">
<stop/>
<stop offset="0.03" stop-color="#080705"/>
<stop offset="0.21" stop-color="#3E3424"/>
<stop offset="0.4" stop-color="#6B593D"/>
<stop offset="0.57" stop-color="#8E7651"/>
<stop offset="0.73" stop-color="#A78B60"/>
<stop offset="0.88" stop-color="#B69768"/>
<stop offset="1" stop-color="#BC9C6C"/>
</linearGradient>
<linearGradient id="paint1_linear_290_639" x1="0" y1="43.38" x2="19.39" y2="43.38" gradientUnits="userSpaceOnUse">
<stop/>
<stop offset="0.39" stop-color="#4D402C"/>
<stop offset="0.81" stop-color="#9C8159"/>
<stop offset="1" stop-color="#BC9C6C"/>
</linearGradient>
<linearGradient id="paint2_linear_290_639" x1="74.85" y1="55.37" x2="84.84" y2="46.61" gradientUnits="userSpaceOnUse">
<stop/>
<stop offset="0.02" stop-color="#050403"/>
<stop offset="0.38" stop-color="#52442F"/>
<stop offset="0.67" stop-color="#8B7350"/>
<stop offset="0.88" stop-color="#AE9064"/>
<stop offset="1" stop-color="#BC9C6C"/>
</linearGradient>
<linearGradient id="paint3_linear_290_639" x1="9.7998" y1="13.32" x2="28.6298" y2="13.32" gradientUnits="userSpaceOnUse">
<stop/>
<stop offset="0.37" stop-color="#010101"/>
<stop offset="0.52" stop-color="#080705"/>
<stop offset="0.62" stop-color="#15110C"/>
<stop offset="0.71" stop-color="#261F15"/>
<stop offset="0.78" stop-color="#3C3222"/>
<stop offset="0.85" stop-color="#584932"/>
<stop offset="0.91" stop-color="#796445"/>
<stop offset="0.96" stop-color="#9E835B"/>
<stop offset="1" stop-color="#BC9C6C"/>
</linearGradient>
<linearGradient id="paint4_linear_290_639" x1="10.9199" y1="62.33" x2="33.6899" y2="62.33" gradientUnits="userSpaceOnUse">
<stop/>
<stop offset="0.39" stop-color="#4D402C"/>
<stop offset="0.81" stop-color="#9C8159"/>
<stop offset="1" stop-color="#BC9C6C"/>
</linearGradient>
<linearGradient id="paint5_linear_290_639" x1="33.6899" y1="71.64" x2="55.71" y2="71.64" gradientUnits="userSpaceOnUse">
<stop/>
<stop offset="0.52" stop-color="#635239"/>
<stop offset="1" stop-color="#BC9C6C"/>
</linearGradient>
</defs>
</svg>
