<svg width="123" height="22" viewBox="0 0 123 22" fill="none" xmlns="http://www.w3.org/2000/svg">
<path opacity="0.2" d="M18.0696 11.7399L111.93 21.8099L122.95 15.58L121.76 10.1099L18.0696 11.7399Z" fill="black"/>
<path d="M112.59 6.09L5.91968 0.0099261C2.84968 -0.170074 0.18965 2.12 0.00964994 5.09C-0.17035 8.06 2.18965 10.63 5.25965 10.81L111.93 16.8899L112.59 6.09Z" fill="#223147"/>
<g style="mix-blend-mode:overlay" opacity="0.2">
<path d="M0.349609 7.27991C1.09961 9.22991 2.98964 10.6799 5.25964 10.8099L111.93 16.8899L112.13 13.6599L0.349609 7.28992V7.27991Z" fill="#202F66"/>
</g>
<path d="M18.7496 0.649902L18.0696 11.7399L15.1096 11.5699L15.7897 0.47998L18.7496 0.649902Z" fill="#FEB847"/>
<path d="M67.2096 3.41992L66.5397 14.5099L63.5796 14.34L64.2496 3.24988L67.2096 3.41992Z" fill="#FEB847"/>
<path d="M47.4293 5.15991L47.3392 6.58997L13.2993 4.6499L13.3893 3.21997L47.4293 5.15991Z" fill="#FEB847"/>
<path d="M111.93 16.8899L121.54 13.6899L121.76 10.1099L112.59 6.08997L111.93 16.8899Z" fill="#FEB847"/>
</svg>
