<svg width="330" height="314" viewBox="0 0 330 314" fill="none" xmlns="http://www.w3.org/2000/svg">
<path d="M329.03 0H0V313.61H329.03V0Z" fill="#675FAA"/>
<path d="M117.77 236.59C136.72 229.84 150.28 211.75 150.28 190.49C150.28 189.38 150.23 188.29 150.16 187.2C152.28 185.21 154.59 182.78 157.14 179.82C192.52 138.61 187.65 125.87 187.65 125.87C181.77 103.71 148.82 139.34 135.27 155.24C129.45 149.64 122.26 145.47 114.24 143.29C117.35 121.79 121.76 76.41 101.75 86.25C101.75 86.25 88.9398 90.94 81.0898 144.69C81.0198 145.16 80.9698 145.6 80.8998 146.05C64.0898 153.8 52.4198 170.78 52.4198 190.5C52.4198 196.21 53.4098 201.69 55.2098 206.79C55.2098 206.79 13.3098 156.21 9.04977 176.69C4.77977 197.16 23.5498 232.57 23.5498 232.57L0.00976562 262.85V313.62H105.02L106.83 268.33C106.83 268.33 165.31 267.11 164.73 250.91C164.45 243.06 136.46 238.67 117.78 236.61L117.77 236.59Z" fill="#505099"/>
<path d="M290.29 45.8604H229.46V167.05H290.29V45.8604Z" fill="#5A5AA0"/>
<path d="M193.47 218.29C216.88 217.25 240.31 216.8 263.74 216.96C270.39 217.01 277.03 217.1 283.68 217.24C285.61 217.28 285.61 214.28 283.68 214.24C260.25 213.74 236.82 213.84 213.4 214.55C206.76 214.75 200.11 215 193.47 215.3C191.55 215.39 191.54 218.39 193.47 218.3V218.29Z" fill="#5D5A9B"/>
<path d="M294.08 215.97C294.38 217.08 295.33 217.71 296.43 217.85C297.44 217.98 298.41 217.72 299.4 217.6C301.74 217.32 304.14 217.32 306.47 217.66C307.27 217.78 308.08 217.46 308.32 216.61C308.51 215.9 308.08 214.88 307.27 214.76C305.09 214.44 302.91 214.31 300.72 214.47C299.63 214.55 298.55 214.69 297.48 214.87C297.31 214.9 297.31 214.9 297.48 214.87C297.39 214.87 297.29 214.88 297.2 214.89C297.06 214.89 296.92 214.89 296.78 214.89C296.95 214.92 296.95 214.91 296.78 214.89C296.61 214.84 296.62 214.84 296.78 214.91C296.64 214.82 296.64 214.83 296.81 214.94C296.89 215.01 296.94 215.09 296.98 215.18C296.47 213.32 293.58 214.11 294.09 215.98L294.08 215.97Z" fill="#5D5A9B"/>
<path d="M194.37 236.91C223.44 236.86 252.51 236.81 281.59 236.76C289.73 236.75 297.87 236.73 306.01 236.72C307.94 236.72 307.94 233.72 306.01 233.72C276.94 233.77 247.87 233.82 218.79 233.87L194.37 233.91C192.44 233.91 192.44 236.91 194.37 236.91Z" fill="#5D5A9B"/>
<path d="M194.37 256.97L213.57 256.66C215.5 256.63 215.5 253.63 213.57 253.66L194.37 253.97C192.44 254 192.44 257 194.37 256.97Z" fill="#5D5A9B"/>
<path d="M225.19 255.53H233.23C234.01 255.53 234.77 254.84 234.73 254.03C234.69 253.22 234.07 252.53 233.23 252.53H225.19C224.41 252.53 223.65 253.22 223.69 254.03C223.73 254.84 224.35 255.53 225.19 255.53Z" fill="#5D5A9B"/>
<path d="M247.51 256.01C267 255.31 286.51 255.28 306.01 255.9C307.94 255.96 307.94 252.96 306.01 252.9C286.52 252.28 267 252.32 247.51 253.01C245.59 253.08 245.58 256.08 247.51 256.01Z" fill="#5D5A9B"/>
</svg>
