<svg width="246" height="191" viewBox="0 0 246 191" fill="none" xmlns="http://www.w3.org/2000/svg">
<path d="M245.99 0H0V190.41H245.99V0Z" fill="#445EA0"/>
<path d="M67.5902 97.89L72.68 110.95C73.31 112.56 74.8201 113.66 76.5401 113.76L90.5301 114.57C94.0701 114.77 95.5201 119.22 92.7701 121.47L81.93 130.35C80.59 131.45 80.02 133.22 80.45 134.89L84.0001 148.45C84.9001 151.88 81.12 154.63 78.13 152.71L66.3302 145.14C64.8702 144.21 63.0101 144.21 61.5501 145.14L49.7501 152.71C46.7601 154.63 42.98 151.88 43.88 148.45L47.43 134.89C47.87 133.22 47.29 131.44 45.95 130.35L35.1099 121.47C32.3699 119.22 33.8102 114.78 37.3502 114.57L51.3402 113.76C53.0702 113.66 54.58 112.56 55.2 110.95L60.2901 97.89C61.5801 94.59 66.2601 94.59 67.5401 97.89H67.5902Z" fill="#344F91"/>
<path d="M119.39 112.43L122.27 108.99L123.71 107.27C123.83 107.12 124.26 106.43 124.43 106.43C124.21 106.43 124.85 107 124.86 107.01C126.51 108.68 128.7 109.3 130.99 109.44C133.63 109.6 136.31 109.25 138.94 109.14C141.94 109.01 144.95 108.95 147.96 108.93C160.07 108.84 172.19 109.42 184.3 108.97C191.07 108.72 197.83 108.12 204.5 106.96C206.4 106.63 205.59 103.74 203.7 104.07C191.51 106.18 179.09 106.24 166.76 106.09C160.57 106.02 154.39 105.89 148.2 105.93C145.11 105.95 142.02 106.01 138.94 106.14C136.25 106.25 133.5 106.64 130.8 106.43C129.53 106.33 128.21 106.02 127.24 105.15C126.33 104.34 125.63 103.28 124.26 103.35C122.67 103.43 121.72 105.02 120.8 106.11C119.62 107.51 118.45 108.91 117.27 110.31C116.04 111.78 118.15 113.91 119.39 112.43Z" fill="#6377B7"/>
<path d="M213.97 108.09H217.47C217.85 108.09 218.26 107.92 218.53 107.65C218.8 107.38 218.99 106.96 218.97 106.59C218.93 105.78 218.31 105.09 217.47 105.09H213.97C213.59 105.09 213.18 105.26 212.91 105.53C212.64 105.8 212.45 106.22 212.47 106.59C212.51 107.4 213.13 108.09 213.97 108.09Z" fill="#6377B7"/>
<path d="M123.11 127.84C147.3 128.75 171.52 128.64 195.69 127.48C202.48 127.15 209.26 126.74 216.04 126.26C217.95 126.12 217.97 123.12 216.04 123.26C191.9 125 167.69 125.71 143.49 125.37C136.69 125.28 129.9 125.1 123.11 124.84C121.18 124.77 121.18 127.77 123.11 127.84Z" fill="#6377B7"/>
<path d="M119.21 149.53C120.26 148.71 121.48 147.78 122.88 148.12C124.35 148.48 125.69 149.45 127.16 149.89C130.04 150.75 133.12 150.79 136.09 150.59C139.24 150.38 142.36 149.97 145.51 149.78C148.89 149.57 152.27 149.49 155.66 149.46C169.4 149.35 183.15 149.58 196.89 149.66C204.68 149.7 212.47 149.75 220.25 149.79C222.18 149.8 222.18 146.8 220.25 146.79C206.08 146.71 191.91 146.63 177.75 146.55C170.72 146.51 163.68 146.42 156.65 146.46C153.1 146.48 149.55 146.55 146.01 146.76C142.7 146.95 139.4 147.38 136.09 147.6C132.78 147.82 129.12 147.74 125.94 146.22C124.49 145.52 123.13 144.86 121.47 145.1C119.81 145.34 118.4 146.39 117.08 147.42C115.56 148.6 117.69 150.71 119.2 149.54L119.21 149.53Z" fill="#6377B7"/>
<path d="M94.21 30.64V72.94H221.8L220.09 28.61L94.21 30.64Z" fill="#395599"/>
<path d="M15.47 44.33L24.5 44.07C25.28 44.05 26.04 43.4 26 42.57C25.96 41.74 25.34 41.05 24.5 41.07L15.47 41.33C14.69 41.35 13.93 42 13.97 42.83C14.01 43.66 14.63 44.35 15.47 44.33Z" fill="#6377B7"/>
<path d="M34.7001 43.49C35.0601 42.78 37.7702 43.73 38.3502 43.83C40.1602 44.14 41.9902 44.31 43.8302 44.37C47.6502 44.51 51.4802 44.32 55.3002 44.24C63.1702 44.06 71.04 43.86 78.91 43.51C80.83 43.42 80.84 40.42 78.91 40.51C70.39 40.89 61.8602 41.1 53.3402 41.29C49.2502 41.38 45.1302 41.6 41.0502 41.2C39.2402 41.02 37.48 40.42 35.67 40.3C34.24 40.21 32.81 40.64 32.12 41.98C31.24 43.69 33.8301 45.21 34.7101 43.49H34.7001Z" fill="#6377B7"/>
<path d="M16.71 62.16C33.1 62.36 49.4999 62.16 65.8799 61.54C67.7999 61.47 67.8099 58.47 65.8799 58.54C49.4999 59.16 33.11 59.37 16.71 59.16C14.78 59.14 14.78 62.14 16.71 62.16Z" fill="#6377B7"/>
<path d="M76.8501 61.01C78.7801 61.01 78.7801 58.01 76.8501 58.01C74.9201 58.01 74.9201 61.01 76.8501 61.01Z" fill="#6377B7"/>
</svg>
