<svg width="279" height="273" viewBox="0 0 279 273" fill="none" xmlns="http://www.w3.org/2000/svg">
<path d="M278.51 0H0V272.44H278.51V0Z" fill="#676EC6"/>
<path d="M150.51 111.44C150.51 111.44 118.6 47.21 97.3501 75.07C76.1001 102.94 150.51 111.44 150.51 111.44Z" fill="#4E59AF"/>
<path d="M60.74 147.19C49.64 195.29 146.1 168.13 146.1 168.13C146.1 168.13 71.84 99.08 60.74 147.19Z" fill="#4E59AF"/>
<path d="M150.51 106.99L140.49 219.83H150.51V106.99Z" fill="#4E59AF"/>
<path d="M150.51 111.44C150.51 111.44 182.42 47.21 203.67 75.07C224.92 102.94 150.51 111.44 150.51 111.44Z" fill="#4E59AF"/>
<path d="M236.48 147.19C247.58 195.29 151.12 168.13 151.12 168.13C151.12 168.13 225.38 99.08 236.48 147.19Z" fill="#4E59AF"/>
</svg>
