<svg width="235" height="90" viewBox="0 0 235 90" fill="none" xmlns="http://www.w3.org/2000/svg">
<path d="M234.34 -89.97H0V89.96H234.34V-89.97Z" fill="#506491"/>
<path d="M26.1402 21.8498C34.3602 23.3598 42.7701 23.0498 51.0901 23.0098C59.5601 22.9698 68.0402 22.9098 76.5102 22.8398C93.5402 22.6898 110.57 22.4798 127.6 22.2098C137.24 22.0498 146.87 21.8798 156.51 21.6798C158.44 21.6398 158.44 18.6398 156.51 18.6798C139.56 19.0298 122.62 19.3098 105.67 19.5298C88.8102 19.7498 71.9402 19.8998 55.0802 19.9898C45.7602 20.0398 36.1602 20.6498 26.9402 18.9498C25.0502 18.5998 24.2402 21.4898 26.1402 21.8398V21.8498Z" fill="#39517A"/>
<path d="M168.39 22.1999C170.89 19.8199 173.7 20.1499 176.85 20.7699C180.24 21.4299 183.66 21.9099 187.1 22.1799C193.93 22.7199 200.78 22.3899 207.54 21.3299C209.44 21.0299 208.63 18.1399 206.74 18.4399C199.61 19.5599 192.34 19.7399 185.17 19.0099C181.63 18.6499 178.19 17.7999 174.68 17.3599C171.48 16.9599 168.61 17.8499 166.27 20.0799C164.87 21.4099 166.99 23.5299 168.39 22.1999Z" fill="#39517A"/>
<path d="M25.5701 48.6699C49.9401 49.1199 74.31 49.0099 98.67 48.3299C104.66 48.1599 110.64 47.8699 116.63 47.8299C119.55 47.8099 122.47 47.8799 125.38 48.0999C128.29 48.3199 131.23 48.9599 134.14 48.6799C136.9 48.4099 139.18 47.1699 141.66 46.0599C144.14 44.9499 146.86 44.3399 149.58 44.1599C155.12 43.7899 160.63 44.7699 166.15 45.0499C179.37 45.7299 192.51 42.5699 205.73 43.9999C207.65 44.2099 207.63 41.2099 205.73 40.9999C194.04 39.7399 182.4 42.0499 170.71 42.1399C164.99 42.1799 159.35 41.2799 153.64 41.0999C150.96 41.0199 148.27 41.1399 145.63 41.6599C142.91 42.1999 140.49 43.3199 137.99 44.4799C135.25 45.7499 132.64 45.8499 129.67 45.5299C126.78 45.2199 123.9 44.9499 121 44.8599C115.05 44.6899 109.1 44.9999 103.15 45.1799C91.01 45.5599 78.87 45.7899 66.73 45.8799C53.01 45.9799 39.28 45.9099 25.56 45.6499C23.63 45.6099 23.63 48.6099 25.56 48.6499L25.5701 48.6699Z" fill="#39517A"/>
<path d="M26.73 68.9299C28.66 68.9299 28.66 65.9299 26.73 65.9299C24.8 65.9299 24.8 68.9299 26.73 68.9299Z" fill="#39517A"/>
<path d="M27.3002 68.6099C28.3602 68.7299 29.4201 68.8499 30.4901 68.9599C30.8501 68.9999 31.3102 68.7599 31.5502 68.5199C31.8102 68.2599 32.0101 67.8299 31.9901 67.4599C31.9701 67.0899 31.8502 66.6699 31.5502 66.3999L31.2502 66.1699C31.0202 66.0299 30.7601 65.9699 30.4901 65.9699C29.4301 65.8499 28.3702 65.7299 27.3002 65.6199C26.9402 65.5799 26.4801 65.8199 26.2401 66.0599C25.9801 66.3199 25.7802 66.7499 25.8002 67.1199C25.8202 67.4899 25.9401 67.9099 26.2401 68.1799L26.5402 68.4099C26.7702 68.5499 27.0302 68.6099 27.3002 68.6099Z" fill="#39517A"/>
<path d="M39.47 69.6798L108.13 68.9398C114.6 68.8698 121.07 68.7998 127.53 68.7298C129.46 68.7098 129.46 65.7098 127.53 65.7298C104.64 65.9798 81.76 66.2298 58.87 66.4698C52.4 66.5398 45.93 66.6098 39.47 66.6798C37.54 66.6998 37.54 69.6998 39.47 69.6798Z" fill="#39517A"/>
<path d="M143.17 68.5698C146.03 66.2098 150.59 67.3798 153.94 67.6398C158.45 67.9898 162.97 68.1498 167.49 68.1098C176.44 68.0398 185.38 67.2198 194.19 65.6998C199.23 64.8298 204.22 63.7098 209.16 62.3798C211.02 61.8798 210.23 58.9798 208.36 59.4898C190.5 64.3098 171.91 66.0798 153.46 64.5998C149.13 64.2498 144.66 63.4598 141.04 66.4398C139.55 67.6698 141.68 69.7798 143.16 68.5598L143.17 68.5698Z" fill="#39517A"/>
<path d="M195.09 -56.3H67.8396V1.43995H195.09V-56.3Z" fill="#4F688E"/>
</svg>
