<svg width="279" height="273" viewBox="0 0 279 273" fill="none" xmlns="http://www.w3.org/2000/svg">
<path d="M278.51 0H0V272.44H278.51V0Z" fill="#8080BC"/>
<path d="M85.6801 199.29C89.0601 186.96 102.34 179.9 114.29 184.47C119.11 186.32 125.08 189.32 127.64 196.35C136.24 219.91 70.75 237.73 70.75 237.73C70.75 237.73 79.1 229.39 81.88 215.19C82.96 209.68 84.3601 204.08 85.6801 199.29Z" fill="#6464AF"/>
<path d="M107.43 178.75C107.43 178.75 116.63 177.58 124.09 183.52C130.87 188.92 133.09 196.78 133.09 196.78L232.5 76.65C233.54 69.81 227.87 64.03 221.73 65.67L221.08 65.84L107.43 178.74V178.75Z" fill="#6464AF"/>
<path d="M76.5 112.48C93.5877 112.48 107.44 98.6278 107.44 81.5401C107.44 64.4524 93.5877 50.6001 76.5 50.6001C59.4123 50.6001 45.5601 64.4524 45.5601 81.5401C45.5601 98.6278 59.4123 112.48 76.5 112.48Z" fill="#555299"/>
</svg>
