<svg width="447" height="314" viewBox="0 0 447 314" fill="none" xmlns="http://www.w3.org/2000/svg">
<path d="M446.75 0H0V313.61H446.75V0Z" fill="#7387D8"/>
<path d="M147.81 91.27L112.79 140.16V292.56H182.83V140.16L147.81 91.27Z" fill="#667ABC"/>
<path d="M259.51 91.27H147.81L179.65 141.72H293.83L259.51 91.27Z" fill="#536BAD"/>
<path d="M292.47 141.72H179.65V292.55H292.47V141.72Z" fill="#8091C4"/>
<path d="M295.33 91.27L249.73 206.01H319.25L356.62 91.27H295.33Z" fill="#506491"/>
<path d="M356.62 91.27L400.72 206.01V292.56H319.25V206.01L356.62 91.27Z" fill="#8091C4"/>
<path d="M319.25 206.01H249.73V292.56H319.25V206.01Z" fill="#667ABC"/>
<path d="M75.2795 88.2599C89.9371 88.2599 101.82 76.3776 101.82 61.72C101.82 47.0623 89.9371 35.1799 75.2795 35.1799C60.6218 35.1799 48.7395 47.0623 48.7395 61.72C48.7395 76.3776 60.6218 88.2599 75.2795 88.2599Z" fill="#667ABC"/>
</svg>
