<svg width="279" height="246" viewBox="0 0 279 246" fill="none" xmlns="http://www.w3.org/2000/svg">
<path d="M278.51 -27.4299H0V245.01H278.51V-27.4299Z" fill="#7387D8"/>
<path d="M209.14 54.0501C186.34 0.420118 143.87 60.6701 142.29 61.9901C137.36 59.1601 77.13 9.66012 66.32 63.8801C55.74 116.95 136.67 151.65 147.48 156.03L147.52 156.38C147.52 156.38 147.65 156.31 147.86 156.18C148.39 156.39 148.68 156.5 148.68 156.5L148.6 155.74C158.33 149.98 230.78 104.93 209.14 54.0301V54.0501Z" fill="#596FB5"/>
<path d="M49.3098 191.78C80.9398 191.89 112.58 192 144.21 192.11C153.2 192.14 162.19 192.17 171.18 192.21C173.11 192.21 173.11 189.22 171.18 189.21C139.55 189.1 107.91 188.99 76.2798 188.88C67.2898 188.85 58.2998 188.82 49.3098 188.78C47.3798 188.78 47.3798 191.77 49.3098 191.78Z" fill="#596FB5"/>
<path d="M190.52 191.68C202.98 191.22 215.45 190.96 227.93 190.91C229.86 190.91 229.86 187.9 227.93 187.91C215.46 187.97 202.99 188.22 190.52 188.68C188.6 188.75 188.59 191.75 190.52 191.68Z" fill="#596FB5"/>
<path d="M49.31 211.5C56.41 211.18 63.52 211.4 70.59 212.15C71.4 212.24 72.08 211.4 72.09 210.65C72.09 209.77 71.39 209.24 70.59 209.15C63.52 208.4 56.41 208.18 49.31 208.5C47.39 208.59 47.38 211.59 49.31 211.5Z" fill="#596FB5"/>
<path d="M78.6499 212.19C81.7699 212.19 84.8799 212.19 87.9999 212.19C88.7799 212.19 89.5399 211.5 89.4999 210.69C89.4599 209.88 88.8399 209.19 87.9999 209.19C84.8799 209.19 81.7699 209.19 78.6499 209.19C77.8699 209.19 77.1099 209.88 77.1499 210.69C77.1899 211.5 77.8099 212.19 78.6499 212.19Z" fill="#596FB5"/>
<path d="M96.3799 212.39C113.61 212.29 130.84 212.13 148.07 211.91C165.3 211.69 182.69 211.42 200 211.09C209.74 210.9 219.47 210.7 229.21 210.48C231.14 210.44 231.14 207.44 229.21 207.48C211.98 207.87 194.76 208.21 177.53 208.49C160.3 208.77 142.91 209 125.6 209.16C115.86 209.25 106.12 209.33 96.3899 209.39C94.4599 209.4 94.4599 212.4 96.3899 212.39H96.3799Z" fill="#596FB5"/>
</svg>
