<svg width="1551" height="2070" viewBox="0 0 1551 2070" fill="none" xmlns="http://www.w3.org/2000/svg">
<path style="mix-blend-mode:screen" d="M647.97 2069.88C1005.47 2069.88 1295.28 1780.07 1295.28 1422.57C1295.28 1065.07 1005.47 775.26 647.97 775.26C290.471 775.26 0.660156 1065.07 0.660156 1422.57C0.660156 1780.07 290.471 2069.88 647.97 2069.88Z" fill="url(#paint0_radial_274_391)"/>
<path style="mix-blend-mode:screen" d="M775.25 1550.5C1203.41 1550.5 1550.5 1203.41 1550.5 775.25C1550.5 347.091 1203.41 0 775.25 0C347.091 0 0 347.091 0 775.25C0 1203.41 347.091 1550.5 775.25 1550.5Z" fill="url(#paint1_radial_274_391)"/>
<defs>
<radialGradient id="paint0_radial_274_391" cx="0" cy="0" r="1" gradientUnits="userSpaceOnUse" gradientTransform="translate(647.97 1422.57) scale(647.31)">
<stop stop-color="#0C2025"/>
<stop offset="1"/>
</radialGradient>
<radialGradient id="paint1_radial_274_391" cx="0" cy="0" r="1" gradientUnits="userSpaceOnUse" gradientTransform="translate(775.25 775.25) scale(775.25 775.25)">
<stop stop-color="#3B90C7"/>
<stop offset="0.15" stop-color="#155079"/>
<stop offset="0.23" stop-color="#023051"/>
<stop offset="0.36" stop-color="#01243E"/>
<stop offset="0.63" stop-color="#00101C"/>
<stop offset="0.85" stop-color="#000407"/>
<stop offset="1"/>
</radialGradient>
</defs>
</svg>
