<svg width="190" height="44" viewBox="0 0 190 44" fill="none" xmlns="http://www.w3.org/2000/svg">
<path d="M74.7597 8.43387C70.9397 5.56387 61.2497 0.253839 54.9297 0.713839V0.803866C52.2497 1.21387 50.2197 3.21383 50.2197 5.64383C50.2197 8.07383 52.2497 10.0639 54.9297 10.4839V10.5738C54.9297 10.5738 58.7698 11.8138 63.6198 11.9438C66.8398 12.0238 70.6197 11.8338 74.0097 11.3138C76.3697 10.9538 75.7797 9.22382 74.7497 8.44382L74.7597 8.43387Z" fill="white"/>
<path d="M121.45 8.64328C125.02 5.59328 134.25 -0.15673 140.6 0.0032704V0.0932973C143.32 0.373297 145.52 2.28327 145.73 4.69327C145.94 7.11327 144.08 9.20332 141.44 9.74332V9.83329C141.44 9.83329 137.71 11.2533 132.88 11.6133C129.67 11.8533 125.88 11.8333 122.44 11.4733C120.05 11.2233 120.49 9.47329 121.45 8.65329V8.64328Z" fill="white"/>
<path d="M45.39 25.1338C38.18 22.1638 30.68 19.9438 23.05 18.4138C15.36 17.0238 7.72 16.1238 0 14.7538V14.5539C7.87 13.7439 15.8 14.8038 23.4 16.8538C31.02 18.7538 38.45 21.4438 45.47 24.9538L45.39 25.1338Z" fill="#F8D99A"/>
<path d="M45.9698 34.5239C36.9698 35.1839 28.0499 36.6339 19.3699 39.1039C14.1299 40.4839 8.86986 41.4939 3.66986 43.0339L3.58984 42.8539C9.77984 38.8339 17.1298 37.4339 24.2798 36.1739C31.4398 34.8839 38.6998 34.2839 45.9598 34.3239V34.5239H45.9698Z" fill="#F8D99A"/>
<path d="M153.51 28.6332C158.95 25.4632 165.07 23.5832 171.24 22.4332C177.41 21.1132 183.68 20.6732 189.97 21.2632L189.99 21.4632C183.89 23.0632 177.7 23.3632 171.48 24.0132C165.35 24.7932 159.23 26.1832 153.6 28.8132L153.51 28.6332Z" fill="#F8D99A"/>
<path d="M153.56 36.7035C159.53 36.5035 165.52 36.8635 171.43 37.8135C177.34 38.7435 183.44 39.6835 188.53 43.0735L188.45 43.2535C182.63 41.9335 176.86 40.9635 171.13 39.3835C165.36 38.0935 159.47 37.2736 153.56 36.9036V36.7035Z" fill="#F8D99A"/>
</svg>
