<svg width="1139" height="1002" viewBox="0 0 1139 1002" fill="none" xmlns="http://www.w3.org/2000/svg">
<g opacity="0.3">
<g clip-path="url(#clip0_262_2484)">
<path d="M326.849 931.23C328.086 931.23 329.089 930.227 329.089 928.99C329.089 927.753 328.086 926.75 326.849 926.75C325.612 926.75 324.609 927.753 324.609 928.99C324.609 930.227 325.612 931.23 326.849 931.23Z" fill="white"/>
</g>
<g clip-path="url(#clip1_262_2484)">
<path d="M394.75 944.68C395.987 944.68 396.99 943.677 396.99 942.44C396.99 941.203 395.987 940.2 394.75 940.2C393.513 940.2 392.51 941.203 392.51 942.44C392.51 943.677 393.513 944.68 394.75 944.68Z" fill="white"/>
</g>
<g clip-path="url(#clip2_262_2484)">
<path d="M334.09 970.14C335.327 970.14 336.33 969.137 336.33 967.9C336.33 966.663 335.327 965.66 334.09 965.66C332.852 965.66 331.85 966.663 331.85 967.9C331.85 969.137 332.852 970.14 334.09 970.14Z" fill="white"/>
</g>
<g clip-path="url(#clip3_262_2484)">
<path d="M614.66 854.98C615.897 854.98 616.9 853.977 616.9 852.74C616.9 851.502 615.897 850.5 614.66 850.5C613.423 850.5 612.42 851.502 612.42 852.74C612.42 853.977 613.423 854.98 614.66 854.98Z" fill="white"/>
</g>
<g clip-path="url(#clip4_262_2484)">
<path d="M676.32 804.61C677.557 804.61 678.56 803.607 678.56 802.37C678.56 801.133 677.557 800.13 676.32 800.13C675.083 800.13 674.08 801.133 674.08 802.37C674.08 803.607 675.083 804.61 676.32 804.61Z" fill="white"/>
</g>
<g clip-path="url(#clip5_262_2484)">
<path d="M702.109 832.6C703.346 832.6 704.349 831.597 704.349 830.36C704.349 829.123 703.346 828.12 702.109 828.12C700.872 828.12 699.869 829.123 699.869 830.36C699.869 831.597 700.872 832.6 702.109 832.6Z" fill="white"/>
</g>
<g clip-path="url(#clip6_262_2484)">
<path d="M673.07 869.8C674.307 869.8 675.31 868.797 675.31 867.56C675.31 866.322 674.307 865.32 673.07 865.32C671.833 865.32 670.83 866.322 670.83 867.56C670.83 868.797 671.833 869.8 673.07 869.8Z" fill="white"/>
</g>
<g clip-path="url(#clip7_262_2484)">
<path d="M745.499 919.32C746.736 919.32 747.739 918.317 747.739 917.08C747.739 915.843 746.736 914.84 745.499 914.84C744.262 914.84 743.259 915.843 743.259 917.08C743.259 918.317 744.262 919.32 745.499 919.32Z" fill="white"/>
</g>
<g clip-path="url(#clip8_262_2484)">
<path d="M883.03 773.98C884.267 773.98 885.27 772.977 885.27 771.74C885.27 770.503 884.267 769.5 883.03 769.5C881.793 769.5 880.79 770.503 880.79 771.74C880.79 772.977 881.793 773.98 883.03 773.98Z" fill="white"/>
</g>
<g clip-path="url(#clip9_262_2484)">
<path d="M954.71 872.76C955.947 872.76 956.95 871.757 956.95 870.52C956.95 869.283 955.947 868.28 954.71 868.28C953.473 868.28 952.47 869.283 952.47 870.52C952.47 871.757 953.473 872.76 954.71 872.76Z" fill="white"/>
</g>
<g clip-path="url(#clip10_262_2484)">
<path d="M180.51 668.38C181.747 668.38 182.75 667.377 182.75 666.14C182.75 664.903 181.747 663.9 180.51 663.9C179.272 663.9 178.27 664.903 178.27 666.14C178.27 667.377 179.272 668.38 180.51 668.38Z" fill="white"/>
</g>
<g clip-path="url(#clip11_262_2484)">
<path d="M239.609 657.53C240.846 657.53 241.849 656.527 241.849 655.29C241.849 654.053 240.846 653.05 239.609 653.05C238.372 653.05 237.369 654.053 237.369 655.29C237.369 656.527 238.372 657.53 239.609 657.53Z" fill="white"/>
</g>
<g clip-path="url(#clip12_262_2484)">
<path d="M231.51 701.91C232.747 701.91 233.75 700.907 233.75 699.67C233.75 698.433 232.747 697.43 231.51 697.43C230.272 697.43 229.27 698.433 229.27 699.67C229.27 700.907 230.272 701.91 231.51 701.91Z" fill="white"/>
</g>
<g clip-path="url(#clip13_262_2484)">
<path d="M212.42 734.68C213.657 734.68 214.66 733.677 214.66 732.44C214.66 731.203 213.657 730.2 212.42 730.2C211.183 730.2 210.18 731.203 210.18 732.44C210.18 733.677 211.183 734.68 212.42 734.68Z" fill="white"/>
</g>
<g clip-path="url(#clip14_262_2484)">
<path d="M184.78 735.63C186.017 735.63 187.02 734.627 187.02 733.39C187.02 732.153 186.017 731.15 184.78 731.15C183.543 731.15 182.54 732.153 182.54 733.39C182.54 734.627 183.543 735.63 184.78 735.63Z" fill="white"/>
</g>
<g clip-path="url(#clip15_262_2484)">
<path d="M98.7996 902.33C100.037 902.33 101.04 901.327 101.04 900.09C101.04 898.852 100.037 897.85 98.7996 897.85C97.5625 897.85 96.5596 898.852 96.5596 900.09C96.5596 901.327 97.5625 902.33 98.7996 902.33Z" fill="white"/>
</g>
<g clip-path="url(#clip16_262_2484)">
<path d="M826.98 695.34C828.217 695.34 829.22 694.337 829.22 693.1C829.22 691.863 828.217 690.86 826.98 690.86C825.743 690.86 824.74 691.863 824.74 693.1C824.74 694.337 825.743 695.34 826.98 695.34Z" fill="white"/>
</g>
<g clip-path="url(#clip17_262_2484)">
<path d="M822.969 700.89C824.207 700.89 825.209 699.887 825.209 698.65C825.209 697.413 824.207 696.41 822.969 696.41C821.732 696.41 820.729 697.413 820.729 698.65C820.729 699.887 821.732 700.89 822.969 700.89Z" fill="white"/>
</g>
<g clip-path="url(#clip18_262_2484)">
<path d="M654.699 354.82C655.936 354.82 656.939 353.817 656.939 352.58C656.939 351.343 655.936 350.34 654.699 350.34C653.462 350.34 652.459 351.343 652.459 352.58C652.459 353.817 653.462 354.82 654.699 354.82Z" fill="white"/>
</g>
<g clip-path="url(#clip19_262_2484)">
<path d="M624.639 396.97C625.877 396.97 626.879 395.967 626.879 394.73C626.879 393.493 625.877 392.49 624.639 392.49C623.402 392.49 622.399 393.493 622.399 394.73C622.399 395.967 623.402 396.97 624.639 396.97Z" fill="white"/>
</g>
<g clip-path="url(#clip20_262_2484)">
<path d="M663.889 435.38C665.127 435.38 666.129 434.377 666.129 433.14C666.129 431.903 665.127 430.9 663.889 430.9C662.652 430.9 661.649 431.903 661.649 433.14C661.649 434.377 662.652 435.38 663.889 435.38Z" fill="white"/>
</g>
<g clip-path="url(#clip21_262_2484)">
<path d="M704.689 404.98C705.926 404.98 706.929 403.978 706.929 402.74C706.929 401.503 705.926 400.5 704.689 400.5C703.452 400.5 702.449 401.503 702.449 402.74C702.449 403.978 703.452 404.98 704.689 404.98Z" fill="white"/>
</g>
<g clip-path="url(#clip22_262_2484)">
<path d="M792.67 447.34C793.907 447.34 794.91 446.337 794.91 445.1C794.91 443.863 793.907 442.86 792.67 442.86C791.433 442.86 790.43 443.863 790.43 445.1C790.43 446.337 791.433 447.34 792.67 447.34Z" fill="white"/>
</g>
<g clip-path="url(#clip23_262_2484)">
<path d="M840.939 511.05C842.176 511.05 843.179 510.047 843.179 508.81C843.179 507.573 842.176 506.57 840.939 506.57C839.702 506.57 838.699 507.573 838.699 508.81C838.699 510.047 839.702 511.05 840.939 511.05Z" fill="white"/>
</g>
<g clip-path="url(#clip24_262_2484)">
<path d="M568.889 399.43C570.127 399.43 571.129 398.427 571.129 397.19C571.129 395.953 570.127 394.95 568.889 394.95C567.652 394.95 566.649 395.953 566.649 397.19C566.649 398.427 567.652 399.43 568.889 399.43Z" fill="white"/>
</g>
<g clip-path="url(#clip25_262_2484)">
<path d="M185.08 7.74977C186.317 7.74977 187.32 6.74689 187.32 5.50978C187.32 4.27266 186.317 3.26978 185.08 3.26978C183.843 3.26978 182.84 4.27266 182.84 5.50978C182.84 6.74689 183.843 7.74977 185.08 7.74977Z" fill="white"/>
</g>
<g clip-path="url(#clip26_262_2484)">
<path d="M157.849 98.73C159.086 98.73 160.089 97.7271 160.089 96.49C160.089 95.2529 159.086 94.25 157.849 94.25C156.612 94.25 155.609 95.2529 155.609 96.49C155.609 97.7271 156.612 98.73 157.849 98.73Z" fill="white"/>
</g>
<g clip-path="url(#clip27_262_2484)">
<path d="M166.42 310.82C167.657 310.82 168.66 309.817 168.66 308.58C168.66 307.343 167.657 306.34 166.42 306.34C165.183 306.34 164.18 307.343 164.18 308.58C164.18 309.817 165.183 310.82 166.42 310.82Z" fill="white"/>
</g>
<g clip-path="url(#clip28_262_2484)">
<path d="M150.4 338.99C151.637 338.99 152.64 337.987 152.64 336.75C152.64 335.513 151.637 334.51 150.4 334.51C149.163 334.51 148.16 335.513 148.16 336.75C148.16 337.987 149.163 338.99 150.4 338.99Z" fill="white"/>
</g>
<g clip-path="url(#clip29_262_2484)">
<path d="M203.82 445.6C205.057 445.6 206.06 444.597 206.06 443.36C206.06 442.123 205.057 441.12 203.82 441.12C202.583 441.12 201.58 442.123 201.58 443.36C201.58 444.597 202.583 445.6 203.82 445.6Z" fill="white"/>
</g>
<g clip-path="url(#clip30_262_2484)">
<path d="M437 214.85C438.237 214.85 439.24 213.847 439.24 212.61C439.24 211.373 438.237 210.37 437 210.37C435.763 210.37 434.76 211.373 434.76 212.61C434.76 213.847 435.763 214.85 437 214.85Z" fill="white"/>
</g>
<g clip-path="url(#clip31_262_2484)">
<path d="M288.75 46.4004C289.987 46.4004 290.99 45.3975 290.99 44.1604C290.99 42.9233 289.987 41.9204 288.75 41.9204C287.513 41.9204 286.51 42.9233 286.51 44.1604C286.51 45.3975 287.513 46.4004 288.75 46.4004Z" fill="white"/>
</g>
<g clip-path="url(#clip32_262_2484)">
<path d="M379.929 104.58C381.167 104.58 382.169 103.577 382.169 102.34C382.169 101.103 381.167 100.1 379.929 100.1C378.692 100.1 377.689 101.103 377.689 102.34C377.689 103.577 378.692 104.58 379.929 104.58Z" fill="white"/>
</g>
<g clip-path="url(#clip33_262_2484)">
<path d="M961.84 930.54C963.077 930.54 964.08 929.537 964.08 928.3C964.08 927.063 963.077 926.06 961.84 926.06C960.602 926.06 959.6 927.063 959.6 928.3C959.6 929.537 960.602 930.54 961.84 930.54Z" fill="white"/>
</g>
<g clip-path="url(#clip34_262_2484)">
<path d="M1136.57 950.07C1137.81 950.07 1138.81 949.067 1138.81 947.83C1138.81 946.593 1137.81 945.59 1136.57 945.59C1135.33 945.59 1134.33 946.593 1134.33 947.83C1134.33 949.067 1135.33 950.07 1136.57 950.07Z" fill="white"/>
</g>
<g clip-path="url(#clip35_262_2484)">
<path d="M901.6 653.06C902.837 653.06 903.84 652.057 903.84 650.82C903.84 649.583 902.837 648.58 901.6 648.58C900.363 648.58 899.36 649.583 899.36 650.82C899.36 652.057 900.363 653.06 901.6 653.06Z" fill="white"/>
</g>
<g clip-path="url(#clip36_262_2484)">
<path d="M975.09 744.57C976.327 744.57 977.33 743.567 977.33 742.33C977.33 741.093 976.327 740.09 975.09 740.09C973.852 740.09 972.85 741.093 972.85 742.33C972.85 743.567 973.852 744.57 975.09 744.57Z" fill="white"/>
</g>
<g clip-path="url(#clip37_262_2484)">
<path d="M1048.38 851.16C1049.62 851.16 1050.62 850.157 1050.62 848.92C1050.62 847.683 1049.62 846.68 1048.38 846.68C1047.14 846.68 1046.14 847.683 1046.14 848.92C1046.14 850.157 1047.14 851.16 1048.38 851.16Z" fill="white"/>
</g>
<g clip-path="url(#clip38_262_2484)">
<path d="M586.469 958.12C587.707 958.12 588.709 957.117 588.709 955.88C588.709 954.643 587.707 953.64 586.469 953.64C585.232 953.64 584.229 954.643 584.229 955.88C584.229 957.117 585.232 958.12 586.469 958.12Z" fill="white"/>
</g>
<g clip-path="url(#clip39_262_2484)">
<path d="M645.29 1001.57C646.527 1001.57 647.53 1000.57 647.53 999.33C647.53 998.093 646.527 997.09 645.29 997.09C644.053 997.09 643.05 998.093 643.05 999.33C643.05 1000.57 644.053 1001.57 645.29 1001.57Z" fill="white"/>
</g>
</g>
<g opacity="0.3">
<g clip-path="url(#clip40_262_2484)">
<path d="M93.0798 401.56C94.317 401.56 95.3198 400.557 95.3198 399.32C95.3198 398.082 94.317 397.08 93.0798 397.08C91.8427 397.08 90.8398 398.082 90.8398 399.32C90.8398 400.557 91.8427 401.56 93.0798 401.56Z" fill="white"/>
</g>
<g clip-path="url(#clip41_262_2484)">
<path d="M25.8796 622.03C27.1168 622.03 28.1196 621.027 28.1196 619.79C28.1196 618.553 27.1168 617.55 25.8796 617.55C24.6425 617.55 23.6396 618.553 23.6396 619.79C23.6396 621.027 24.6425 622.03 25.8796 622.03Z" fill="white"/>
</g>
<g clip-path="url(#clip42_262_2484)">
<path d="M2.24 740.68C3.47712 740.68 4.48 739.677 4.48 738.44C4.48 737.203 3.47712 736.2 2.24 736.2C1.00288 736.2 0 737.203 0 738.44C0 739.677 1.00288 740.68 2.24 740.68Z" fill="white"/>
</g>
<g clip-path="url(#clip43_262_2484)">
<path d="M89.7195 728.77C90.9566 728.77 91.9595 727.767 91.9595 726.53C91.9595 725.293 90.9566 724.29 89.7195 724.29C88.4824 724.29 87.4795 725.293 87.4795 726.53C87.4795 727.767 88.4824 728.77 89.7195 728.77Z" fill="white"/>
</g>
<g clip-path="url(#clip44_262_2484)">
<path d="M159.929 848.19C161.167 848.19 162.169 847.187 162.169 845.95C162.169 844.713 161.167 843.71 159.929 843.71C158.692 843.71 157.689 844.713 157.689 845.95C157.689 847.187 158.692 848.19 159.929 848.19Z" fill="white"/>
</g>
<g clip-path="url(#clip45_262_2484)">
<path d="M156.46 843.16C157.697 843.16 158.7 842.157 158.7 840.92C158.7 839.683 157.697 838.68 156.46 838.68C155.223 838.68 154.22 839.683 154.22 840.92C154.22 842.157 155.223 843.16 156.46 843.16Z" fill="white"/>
</g>
<g clip-path="url(#clip46_262_2484)">
<path d="M55.8093 926.13C57.0465 926.13 58.0493 925.128 58.0493 923.89C58.0493 922.653 57.0465 921.65 55.8093 921.65C54.5722 921.65 53.5693 922.653 53.5693 923.89C53.5693 925.128 54.5722 926.13 55.8093 926.13Z" fill="white"/>
</g>
<g clip-path="url(#clip47_262_2484)">
<path d="M208.349 949.51C209.586 949.51 210.589 948.507 210.589 947.27C210.589 946.033 209.586 945.03 208.349 945.03C207.112 945.03 206.109 946.033 206.109 947.27C206.109 948.507 207.112 949.51 208.349 949.51Z" fill="white"/>
</g>
<g clip-path="url(#clip48_262_2484)">
<path d="M81.0798 224.3C82.317 224.3 83.3198 223.297 83.3198 222.06C83.3198 220.823 82.317 219.82 81.0798 219.82C79.8427 219.82 78.8398 220.823 78.8398 222.06C78.8398 223.297 79.8427 224.3 81.0798 224.3Z" fill="white"/>
</g>
<g clip-path="url(#clip49_262_2484)">
<path d="M25.3201 474.31C26.5572 474.31 27.5601 473.307 27.5601 472.07C27.5601 470.833 26.5572 469.83 25.3201 469.83C24.083 469.83 23.0801 470.833 23.0801 472.07C23.0801 473.307 24.083 474.31 25.3201 474.31Z" fill="white"/>
</g>
<g clip-path="url(#clip50_262_2484)">
<path d="M81.3396 535.62C82.5767 535.62 83.5796 534.617 83.5796 533.38C83.5796 532.143 82.5767 531.14 81.3396 531.14C80.1025 531.14 79.0996 532.143 79.0996 533.38C79.0996 534.617 80.1025 535.62 81.3396 535.62Z" fill="white"/>
</g>
</g>
<g opacity="0.3">
<g clip-path="url(#clip51_262_2484)">
<path d="M493.8 76.03C495.037 76.03 496.04 75.0272 496.04 73.79C496.04 72.5529 495.037 71.55 493.8 71.55C492.562 71.55 491.56 72.5529 491.56 73.79C491.56 75.0272 492.562 76.03 493.8 76.03Z" fill="white"/>
</g>
<g clip-path="url(#clip52_262_2484)">
<path d="M642.74 135.09C643.977 135.09 644.98 134.087 644.98 132.85C644.98 131.613 643.977 130.61 642.74 130.61C641.503 130.61 640.5 131.613 640.5 132.85C640.5 134.087 641.503 135.09 642.74 135.09Z" fill="white"/>
</g>
<g clip-path="url(#clip53_262_2484)">
<path d="M670.63 245.19C671.867 245.19 672.87 244.187 672.87 242.95C672.87 241.713 671.867 240.71 670.63 240.71C669.393 240.71 668.39 241.713 668.39 242.95C668.39 244.187 669.393 245.19 670.63 245.19Z" fill="white"/>
</g>
<g clip-path="url(#clip54_262_2484)">
<path d="M774.599 260.63C775.836 260.63 776.839 259.627 776.839 258.39C776.839 257.153 775.836 256.15 774.599 256.15C773.362 256.15 772.359 257.153 772.359 258.39C772.359 259.627 773.362 260.63 774.599 260.63Z" fill="white"/>
</g>
<g clip-path="url(#clip55_262_2484)">
<path d="M776.34 152.05C777.577 152.05 778.58 151.047 778.58 149.81C778.58 148.572 777.577 147.57 776.34 147.57C775.102 147.57 774.1 148.572 774.1 149.81C774.1 151.047 775.102 152.05 776.34 152.05Z" fill="white"/>
</g>
<g clip-path="url(#clip56_262_2484)">
<path d="M868.58 399.82C869.817 399.82 870.82 398.817 870.82 397.58C870.82 396.342 869.817 395.34 868.58 395.34C867.343 395.34 866.34 396.342 866.34 397.58C866.34 398.817 867.343 399.82 868.58 399.82Z" fill="white"/>
</g>
<g clip-path="url(#clip57_262_2484)">
<path d="M744.31 370.81C745.547 370.81 746.55 369.807 746.55 368.57C746.55 367.333 745.547 366.33 744.31 366.33C743.073 366.33 742.07 367.333 742.07 368.57C742.07 369.807 743.073 370.81 744.31 370.81Z" fill="white"/>
</g>
<g clip-path="url(#clip58_262_2484)">
<path d="M544.38 32.9397C545.617 32.9397 546.62 31.9368 546.62 30.6997C546.62 29.4626 545.617 28.4597 544.38 28.4597C543.143 28.4597 542.14 29.4626 542.14 30.6997C542.14 31.9368 543.143 32.9397 544.38 32.9397Z" fill="white"/>
</g>
<g clip-path="url(#clip59_262_2484)">
<path d="M421.349 4.48C422.586 4.48 423.589 3.47712 423.589 2.24C423.589 1.00288 422.586 0 421.349 0C420.112 0 419.109 1.00288 419.109 2.24C419.109 3.47712 420.112 4.48 421.349 4.48Z" fill="white"/>
</g>
<g clip-path="url(#clip60_262_2484)">
<path d="M425.94 52.52C427.177 52.52 428.18 51.5172 428.18 50.28C428.18 49.0429 427.177 48.04 425.94 48.04C424.703 48.04 423.7 49.0429 423.7 50.28C423.7 51.5172 424.703 52.52 425.94 52.52Z" fill="white"/>
</g>
<g clip-path="url(#clip61_262_2484)">
<path d="M870.16 431C871.397 431 872.4 429.997 872.4 428.76C872.4 427.523 871.397 426.52 870.16 426.52C868.923 426.52 867.92 427.523 867.92 428.76C867.92 429.997 868.923 431 870.16 431Z" fill="white"/>
</g>
<g clip-path="url(#clip62_262_2484)">
<path d="M59.8504 136.93C61.0875 136.93 62.0904 135.927 62.0904 134.69C62.0904 133.453 61.0875 132.45 59.8504 132.45C58.6132 132.45 57.6104 133.453 57.6104 134.69C57.6104 135.927 58.6132 136.93 59.8504 136.93Z" fill="white"/>
</g>
<g clip-path="url(#clip63_262_2484)">
<path d="M6.89039 976.45C8.12751 976.45 9.13039 975.447 9.13039 974.21C9.13039 972.973 8.12751 971.97 6.89039 971.97C5.65327 971.97 4.65039 972.973 4.65039 974.21C4.65039 975.447 5.65327 976.45 6.89039 976.45Z" fill="white"/>
</g>
<g clip-path="url(#clip64_262_2484)">
<path d="M934.81 307.44C936.047 307.44 937.05 306.437 937.05 305.2C937.05 303.963 936.047 302.96 934.81 302.96C933.573 302.96 932.57 303.963 932.57 305.2C932.57 306.437 933.573 307.44 934.81 307.44Z" fill="white"/>
</g>
<g clip-path="url(#clip65_262_2484)">
<path d="M1011.3 528.93C1012.54 528.93 1013.54 527.927 1013.54 526.69C1013.54 525.453 1012.54 524.45 1011.3 524.45C1010.06 524.45 1009.06 525.453 1009.06 526.69C1009.06 527.927 1010.06 528.93 1011.3 528.93Z" fill="white"/>
</g>
</g>
<defs>
<clipPath id="clip0_262_2484">
<rect width="4.47" height="4.47" fill="white" transform="translate(324.609 926.75)"/>
</clipPath>
<clipPath id="clip1_262_2484">
<rect width="4.47" height="4.47" fill="white" transform="translate(392.51 940.2)"/>
</clipPath>
<clipPath id="clip2_262_2484">
<rect width="4.47" height="4.47" fill="white" transform="translate(331.85 965.66)"/>
</clipPath>
<clipPath id="clip3_262_2484">
<rect width="4.47" height="4.47" fill="white" transform="translate(612.42 850.5)"/>
</clipPath>
<clipPath id="clip4_262_2484">
<rect width="4.47" height="4.47" fill="white" transform="translate(674.08 800.13)"/>
</clipPath>
<clipPath id="clip5_262_2484">
<rect width="4.47" height="4.47" fill="white" transform="translate(699.869 828.12)"/>
</clipPath>
<clipPath id="clip6_262_2484">
<rect width="4.47" height="4.47" fill="white" transform="translate(670.83 865.32)"/>
</clipPath>
<clipPath id="clip7_262_2484">
<rect width="4.47" height="4.47" fill="white" transform="translate(743.259 914.84)"/>
</clipPath>
<clipPath id="clip8_262_2484">
<rect width="4.47" height="4.47" fill="white" transform="translate(880.79 769.5)"/>
</clipPath>
<clipPath id="clip9_262_2484">
<rect width="4.47" height="4.47" fill="white" transform="translate(952.47 868.28)"/>
</clipPath>
<clipPath id="clip10_262_2484">
<rect width="4.47" height="4.47" fill="white" transform="translate(178.27 663.9)"/>
</clipPath>
<clipPath id="clip11_262_2484">
<rect width="4.47" height="4.47" fill="white" transform="translate(237.369 653.05)"/>
</clipPath>
<clipPath id="clip12_262_2484">
<rect width="4.47" height="4.47" fill="white" transform="translate(229.27 697.43)"/>
</clipPath>
<clipPath id="clip13_262_2484">
<rect width="4.47" height="4.47" fill="white" transform="translate(210.18 730.2)"/>
</clipPath>
<clipPath id="clip14_262_2484">
<rect width="4.47" height="4.47" fill="white" transform="translate(182.54 731.15)"/>
</clipPath>
<clipPath id="clip15_262_2484">
<rect width="4.47" height="4.47" fill="white" transform="translate(96.5596 897.85)"/>
</clipPath>
<clipPath id="clip16_262_2484">
<rect width="4.47" height="4.47" fill="white" transform="translate(824.74 690.86)"/>
</clipPath>
<clipPath id="clip17_262_2484">
<rect width="4.47" height="4.47" fill="white" transform="translate(820.729 696.41)"/>
</clipPath>
<clipPath id="clip18_262_2484">
<rect width="4.47" height="4.47" fill="white" transform="translate(652.459 350.34)"/>
</clipPath>
<clipPath id="clip19_262_2484">
<rect width="4.47" height="4.47" fill="white" transform="translate(622.399 392.49)"/>
</clipPath>
<clipPath id="clip20_262_2484">
<rect width="4.47" height="4.47" fill="white" transform="translate(661.649 430.9)"/>
</clipPath>
<clipPath id="clip21_262_2484">
<rect width="4.47" height="4.47" fill="white" transform="translate(702.449 400.5)"/>
</clipPath>
<clipPath id="clip22_262_2484">
<rect width="4.47" height="4.47" fill="white" transform="translate(790.43 442.86)"/>
</clipPath>
<clipPath id="clip23_262_2484">
<rect width="4.47" height="4.47" fill="white" transform="translate(838.699 506.57)"/>
</clipPath>
<clipPath id="clip24_262_2484">
<rect width="4.47" height="4.47" fill="white" transform="translate(566.649 394.95)"/>
</clipPath>
<clipPath id="clip25_262_2484">
<rect width="4.47" height="4.47" fill="white" transform="translate(182.84 3.26978)"/>
</clipPath>
<clipPath id="clip26_262_2484">
<rect width="4.47" height="4.47" fill="white" transform="translate(155.609 94.25)"/>
</clipPath>
<clipPath id="clip27_262_2484">
<rect width="4.47" height="4.47" fill="white" transform="translate(164.18 306.34)"/>
</clipPath>
<clipPath id="clip28_262_2484">
<rect width="4.47" height="4.47" fill="white" transform="translate(148.16 334.51)"/>
</clipPath>
<clipPath id="clip29_262_2484">
<rect width="4.47" height="4.47" fill="white" transform="translate(201.58 441.12)"/>
</clipPath>
<clipPath id="clip30_262_2484">
<rect width="4.47" height="4.47" fill="white" transform="translate(434.76 210.37)"/>
</clipPath>
<clipPath id="clip31_262_2484">
<rect width="4.47" height="4.47" fill="white" transform="translate(286.51 41.9204)"/>
</clipPath>
<clipPath id="clip32_262_2484">
<rect width="4.47" height="4.47" fill="white" transform="translate(377.689 100.1)"/>
</clipPath>
<clipPath id="clip33_262_2484">
<rect width="4.47" height="4.47" fill="white" transform="translate(959.6 926.06)"/>
</clipPath>
<clipPath id="clip34_262_2484">
<rect width="4.47" height="4.47" fill="white" transform="translate(1134.33 945.59)"/>
</clipPath>
<clipPath id="clip35_262_2484">
<rect width="4.47" height="4.47" fill="white" transform="translate(899.36 648.58)"/>
</clipPath>
<clipPath id="clip36_262_2484">
<rect width="4.47" height="4.47" fill="white" transform="translate(972.85 740.09)"/>
</clipPath>
<clipPath id="clip37_262_2484">
<rect width="4.47" height="4.47" fill="white" transform="translate(1046.14 846.68)"/>
</clipPath>
<clipPath id="clip38_262_2484">
<rect width="4.47" height="4.47" fill="white" transform="translate(584.229 953.64)"/>
</clipPath>
<clipPath id="clip39_262_2484">
<rect width="4.47" height="4.47" fill="white" transform="translate(643.05 997.09)"/>
</clipPath>
<clipPath id="clip40_262_2484">
<rect width="4.47" height="4.47" fill="white" transform="translate(90.8398 397.08)"/>
</clipPath>
<clipPath id="clip41_262_2484">
<rect width="4.47" height="4.47" fill="white" transform="translate(23.6396 617.55)"/>
</clipPath>
<clipPath id="clip42_262_2484">
<rect width="4.47" height="4.47" fill="white" transform="translate(0 736.2)"/>
</clipPath>
<clipPath id="clip43_262_2484">
<rect width="4.47" height="4.47" fill="white" transform="translate(87.4795 724.29)"/>
</clipPath>
<clipPath id="clip44_262_2484">
<rect width="4.47" height="4.47" fill="white" transform="translate(157.689 843.71)"/>
</clipPath>
<clipPath id="clip45_262_2484">
<rect width="4.47" height="4.47" fill="white" transform="translate(154.22 838.68)"/>
</clipPath>
<clipPath id="clip46_262_2484">
<rect width="4.47" height="4.47" fill="white" transform="translate(53.5693 921.65)"/>
</clipPath>
<clipPath id="clip47_262_2484">
<rect width="4.47" height="4.47" fill="white" transform="translate(206.109 945.03)"/>
</clipPath>
<clipPath id="clip48_262_2484">
<rect width="4.47" height="4.47" fill="white" transform="translate(78.8398 219.82)"/>
</clipPath>
<clipPath id="clip49_262_2484">
<rect width="4.47" height="4.47" fill="white" transform="translate(23.0801 469.83)"/>
</clipPath>
<clipPath id="clip50_262_2484">
<rect width="4.47" height="4.47" fill="white" transform="translate(79.0996 531.14)"/>
</clipPath>
<clipPath id="clip51_262_2484">
<rect width="4.47" height="4.47" fill="white" transform="translate(491.56 71.55)"/>
</clipPath>
<clipPath id="clip52_262_2484">
<rect width="4.47" height="4.47" fill="white" transform="translate(640.5 130.61)"/>
</clipPath>
<clipPath id="clip53_262_2484">
<rect width="4.47" height="4.47" fill="white" transform="translate(668.39 240.71)"/>
</clipPath>
<clipPath id="clip54_262_2484">
<rect width="4.47" height="4.47" fill="white" transform="translate(772.359 256.15)"/>
</clipPath>
<clipPath id="clip55_262_2484">
<rect width="4.47" height="4.47" fill="white" transform="translate(774.1 147.57)"/>
</clipPath>
<clipPath id="clip56_262_2484">
<rect width="4.47" height="4.47" fill="white" transform="translate(866.34 395.34)"/>
</clipPath>
<clipPath id="clip57_262_2484">
<rect width="4.47" height="4.47" fill="white" transform="translate(742.07 366.33)"/>
</clipPath>
<clipPath id="clip58_262_2484">
<rect width="4.47" height="4.47" fill="white" transform="translate(542.14 28.4597)"/>
</clipPath>
<clipPath id="clip59_262_2484">
<rect width="4.47" height="4.47" fill="white" transform="translate(419.109)"/>
</clipPath>
<clipPath id="clip60_262_2484">
<rect width="4.47" height="4.47" fill="white" transform="translate(423.7 48.04)"/>
</clipPath>
<clipPath id="clip61_262_2484">
<rect width="4.47" height="4.47" fill="white" transform="translate(867.92 426.52)"/>
</clipPath>
<clipPath id="clip62_262_2484">
<rect width="4.47" height="4.47" fill="white" transform="translate(57.6104 132.45)"/>
</clipPath>
<clipPath id="clip63_262_2484">
<rect width="4.47" height="4.47" fill="white" transform="translate(4.65039 971.97)"/>
</clipPath>
<clipPath id="clip64_262_2484">
<rect width="4.47" height="4.47" fill="white" transform="translate(932.57 302.96)"/>
</clipPath>
<clipPath id="clip65_262_2484">
<rect width="4.47" height="4.47" fill="white" transform="translate(1009.06 524.45)"/>
</clipPath>
</defs>
</svg>
