<svg width="776" height="629" viewBox="0 0 776 629" fill="none" xmlns="http://www.w3.org/2000/svg">
<path d="M100.099 492.29C102.419 492.29 104.299 490.409 104.299 488.09C104.299 485.77 102.419 483.89 100.099 483.89C97.7798 483.89 95.8994 485.77 95.8994 488.09C95.8994 490.409 97.7798 492.29 100.099 492.29Z" fill="#0D5875"/>
<path d="M717.23 487.09C719.55 487.09 721.43 485.21 721.43 482.89C721.43 480.57 719.55 478.69 717.23 478.69C714.911 478.69 713.03 480.57 713.03 482.89C713.03 485.21 714.911 487.09 717.23 487.09Z" fill="#0D5875"/>
<path d="M478.8 225.539C481.119 225.539 483 223.659 483 221.339C483 219.02 481.119 217.139 478.8 217.139C476.48 217.139 474.6 219.02 474.6 221.339C474.6 223.659 476.48 225.539 478.8 225.539Z" fill="#FFE1AB"/>
<path opacity="0.7" d="M105.29 8.40001C107.609 8.40001 109.49 6.51961 109.49 4.20001C109.49 1.88042 107.609 0 105.29 0C102.97 0 101.09 1.88042 101.09 4.20001C101.09 6.51961 102.97 8.40001 105.29 8.40001Z" fill="#FFE1AB"/>
<path opacity="0.7" d="M4.2 338.96C6.51959 338.96 8.39999 337.08 8.39999 334.76C8.39999 332.44 6.51959 330.56 4.2 330.56C1.8804 330.56 0 332.44 0 334.76C0 337.08 1.8804 338.96 4.2 338.96Z" fill="#FFE1AB"/>
<path d="M771.15 628.47C773.47 628.47 775.35 626.589 775.35 624.27C775.35 621.95 773.47 620.07 771.15 620.07C768.831 620.07 766.95 621.95 766.95 624.27C766.95 626.589 768.831 628.47 771.15 628.47Z" fill="#0D5875"/>
<path opacity="0.7" d="M654.501 604.09C656.82 604.09 658.701 602.21 658.701 599.89C658.701 597.57 656.82 595.69 654.501 595.69C652.181 595.69 650.301 597.57 650.301 599.89C650.301 602.21 652.181 604.09 654.501 604.09Z" fill="white"/>
<path opacity="0.7" d="M8.40019 531.93C10.7198 531.93 12.6002 530.049 12.6002 527.73C12.6002 525.41 10.7198 523.53 8.40019 523.53C6.0806 523.53 4.2002 525.41 4.2002 527.73C4.2002 530.049 6.0806 531.93 8.40019 531.93Z" fill="white"/>
<path opacity="0.7" d="M494.29 321.57C496.609 321.57 498.49 319.689 498.49 317.37C498.49 315.05 496.609 313.17 494.29 313.17C491.97 313.17 490.09 315.05 490.09 317.37C490.09 319.689 491.97 321.57 494.29 321.57Z" fill="white"/>
<path opacity="0.7" d="M303.8 95.8297C306.119 95.8297 308 93.9493 308 91.6297C308 89.3101 306.119 87.4297 303.8 87.4297C301.48 87.4297 299.6 89.3101 299.6 91.6297C299.6 93.9493 301.48 95.8297 303.8 95.8297Z" fill="white"/>
</svg>
