<svg width="690" height="795" viewBox="0 0 690 795" fill="none" xmlns="http://www.w3.org/2000/svg">
<path opacity="0.7" d="M16.88 0L18.94 8.7C19.66 11.73 22.02 14.1 25.06 14.82L33.76 16.88L25.06 18.94C22.03 19.66 19.66 22.02 18.94 25.06L16.88 33.76L14.82 25.06C14.1 22.03 11.74 19.66 8.7 18.94L0 16.88L8.7 14.82C11.73 14.1 14.1 11.74 14.82 8.7L16.88 0Z" fill="#FFE1AB"/>
<path opacity="0.2" d="M665.731 746.35L669.191 760.99C669.911 764.02 672.271 766.39 675.311 767.11L689.951 770.57L675.311 774.03C672.281 774.75 669.911 777.11 669.191 780.15L665.731 794.79L662.271 780.15C661.551 777.12 659.191 774.75 656.151 774.03L641.511 770.57L656.151 767.11C659.181 766.39 661.551 764.03 662.271 760.99L665.731 746.35Z" fill="#0D5875"/>
</svg>
