<svg width="203" height="209" viewBox="0 0 203 209" fill="none" xmlns="http://www.w3.org/2000/svg">
<path style="mix-blend-mode:screen" d="M173.38 169.03C189.734 169.03 202.99 155.773 202.99 139.42C202.99 123.067 189.734 109.81 173.38 109.81C157.027 109.81 143.771 123.067 143.771 139.42C143.771 155.773 157.027 169.03 173.38 169.03Z" fill="url(#paint0_radial_262_2451)"/>
<path d="M103.551 0L104.861 5.56C105.581 8.59 107.941 10.96 110.981 11.68L116.541 12.99L110.981 14.3C107.951 15.02 105.581 17.38 104.861 20.42L103.551 25.98L102.241 20.42C101.521 17.39 99.1605 15.02 96.1205 14.3L90.5605 12.99L96.1205 11.68C99.1505 10.96 101.521 8.6 102.241 5.56L103.551 0Z" fill="#FFE1AB"/>
<path d="M173.38 122.54L175.44 131.24C176.16 134.27 178.52 136.64 181.56 137.36L190.26 139.42L181.56 141.48C178.53 142.2 176.16 144.56 175.44 147.6L173.38 156.3L171.32 147.6C170.6 144.57 168.24 142.2 165.2 141.48L156.5 139.42L165.2 137.36C168.23 136.64 170.6 134.28 171.32 131.24L173.38 122.54Z" fill="#FFE1AB"/>
<path d="M12.99 183.02L14.3 188.58C15.02 191.61 17.38 193.98 20.42 194.7L25.98 196.01L20.42 197.32C17.39 198.04 15.02 200.4 14.3 203.44L12.99 209L11.68 203.44C10.96 200.41 8.6 198.04 5.56 197.32L0 196.01L5.56 194.7C8.59 193.98 10.96 191.62 11.68 188.58L12.99 183.02Z" fill="#FFE1AB"/>
<path style="mix-blend-mode:screen" opacity="0.5" d="M170.195 139.424L173.376 137.696L106.139 13.9643L102.959 15.6927L170.195 139.424Z" fill="url(#paint1_linear_262_2451)"/>
<path style="mix-blend-mode:screen" opacity="0.5" d="M21.9053 196L23.2637 199.355L153.793 146.512L152.434 143.157L21.9053 196Z" fill="url(#paint2_linear_262_2451)"/>
<defs>
<radialGradient id="paint0_radial_262_2451" cx="0" cy="0" r="1" gradientUnits="userSpaceOnUse" gradientTransform="translate(173.38 139.42) scale(29.61 29.61)">
<stop stop-color="#F9DCA7"/>
<stop offset="0.09" stop-color="#C5AE84"/>
<stop offset="0.17" stop-color="#968565"/>
<stop offset="0.26" stop-color="#6E6149"/>
<stop offset="0.35" stop-color="#4C4333"/>
<stop offset="0.45" stop-color="#302A20"/>
<stop offset="0.55" stop-color="#1A1712"/>
<stop offset="0.67" stop-color="#0B0A07"/>
<stop offset="0.8" stop-color="#020201"/>
<stop offset="1"/>
</radialGradient>
<linearGradient id="paint1_linear_262_2451" x1="96.9229" y1="72.2894" x2="179.425" y2="81.0916" gradientUnits="userSpaceOnUse">
<stop/>
<stop offset="0.04" stop-color="#0B0907"/>
<stop offset="0.12" stop-color="#29241B"/>
<stop offset="0.22" stop-color="#5A4F3C"/>
<stop offset="0.34" stop-color="#9E8B6A"/>
<stop offset="0.48" stop-color="#F4D7A3"/>
<stop offset="0.5" stop-color="#FFE1AB"/>
<stop offset="0.63" stop-color="#A79370"/>
<stop offset="0.77" stop-color="#4E4434"/>
<stop offset="0.87" stop-color="#15130E"/>
<stop offset="0.92"/>
</linearGradient>
<linearGradient id="paint2_linear_262_2451" x1="96.8562" y1="130.801" x2="78.7993" y2="211.782" gradientUnits="userSpaceOnUse">
<stop/>
<stop offset="0.04" stop-color="#0B0907"/>
<stop offset="0.12" stop-color="#29241B"/>
<stop offset="0.22" stop-color="#5A4F3C"/>
<stop offset="0.34" stop-color="#9E8B6A"/>
<stop offset="0.48" stop-color="#F4D7A3"/>
<stop offset="0.5" stop-color="#FFE1AB"/>
<stop offset="0.63" stop-color="#A79370"/>
<stop offset="0.77" stop-color="#4E4434"/>
<stop offset="0.87" stop-color="#15130E"/>
<stop offset="0.92"/>
</linearGradient>
</defs>
</svg>
