<svg width="443" height="93" viewBox="0 0 443 93" fill="none" xmlns="http://www.w3.org/2000/svg">
<path d="M185.13 21.0751C175.15 13.2551 149.87 -1.16492 133.38 0.0750831V0.315134C126.4 1.43513 121.09 6.8851 121.09 13.4651C121.09 20.0451 126.4 25.4951 133.38 26.6151V26.8551C133.38 26.8551 143.41 30.2351 156.07 30.5851C164.47 30.8151 174.33 30.2751 183.19 28.8651C189.35 27.8851 187.82 23.1851 185.12 21.0751H185.13Z" fill="white"/>
<path d="M274.22 21.0751C284.2 13.2551 309.48 -1.16492 325.97 0.0750831V0.315134C332.95 1.43513 338.26 6.8851 338.26 13.4651C338.26 20.0551 332.95 25.4951 325.97 26.6151V26.8551C325.97 26.8551 315.94 30.2351 303.28 30.5851C294.88 30.8151 285.02 30.2751 276.16 28.8651C270 27.8851 271.53 23.1851 274.23 21.0751H274.22Z" fill="white"/>
<path d="M89.82 53.2452C75.24 51.8652 59.26 50.1752 44.66 48.4752C37.14 47.6252 29.57 47.1452 22.13 45.7152C14.74 44.2852 7.14 42.6752 0 40.2352L0.0700073 39.7452C5.83001 39.5052 11.49 39.8252 17.19 40.2452C26.6 40.8552 36 42.7852 45.23 44.5152C50.8 45.4752 62.02 47.4753 67.58 48.5053C75.02 49.9253 82.47 51.2652 89.89 52.7452L89.82 53.2352V53.2452Z" fill="#F8D99A"/>
<path d="M91.3601 73.2649C78.6001 76.3749 64.5601 79.6149 51.6801 82.4349C38.4701 85.7449 25.06 88.3849 11.36 88.1649L11.27 87.6749C14.47 86.3449 17.7201 85.2949 20.9901 84.3349C30.7501 81.2649 40.84 79.8249 50.95 78.5149C55.96 77.7349 66.07 76.2349 71.09 75.5249C77.82 74.6149 84.53 73.6349 91.27 72.7849L91.3601 73.2749V73.2649Z" fill="#F8D99A"/>
<path d="M352.77 57.1648C367.15 54.3548 382.95 51.4448 397.43 48.9248C404.88 47.6048 412.28 45.9248 419.82 45.1748C427.31 44.4548 435.06 43.8447 442.6 44.1547L442.67 44.6447C437.22 46.5047 431.7 47.8047 426.11 49.0147C416.91 51.0947 407.35 51.9148 398.01 52.8748C392.4 53.5348 381.07 54.7947 375.45 55.3847C367.92 56.1347 360.39 56.9547 352.85 57.6447L352.78 57.1547L352.77 57.1648Z" fill="#F8D99A"/>
<path d="M351.38 77.1851C364.41 78.8751 378.67 80.905 391.7 82.915C405.22 84.585 418.68 86.945 431.38 92.085L431.29 92.575C427.83 92.655 424.41 92.475 421.01 92.195C410.8 91.545 400.87 89.255 390.97 86.845C386.02 85.765 376.039 83.535 371.109 82.385C364.499 80.815 357.89 79.315 351.29 77.675L351.38 77.1851Z" fill="#F8D99A"/>
</svg>
