<svg width="1570" height="1747" viewBox="0 0 1570 1747" fill="none" xmlns="http://www.w3.org/2000/svg">
<g opacity="0.3">
<g clip-path="url(#clip0_262_3115)">
<path d="M1115.17 491.54C1116.41 491.54 1117.41 490.537 1117.41 489.3C1117.41 488.063 1116.41 487.06 1115.17 487.06C1113.93 487.06 1112.93 488.063 1112.93 489.3C1112.93 490.537 1113.93 491.54 1115.17 491.54Z" fill="white"/>
</g>
<g clip-path="url(#clip1_262_3115)">
<path d="M1292 617.12C1293.24 617.12 1294.24 616.117 1294.24 614.88C1294.24 613.643 1293.24 612.64 1292 612.64C1290.76 612.64 1289.76 613.643 1289.76 614.88C1289.76 616.117 1290.76 617.12 1292 617.12Z" fill="white"/>
</g>
<g clip-path="url(#clip2_262_3115)">
<path d="M1376.65 758.5C1377.89 758.5 1378.89 757.497 1378.89 756.26C1378.89 755.023 1377.89 754.02 1376.65 754.02C1375.41 754.02 1374.41 755.023 1374.41 756.26C1374.41 757.497 1375.41 758.5 1376.65 758.5Z" fill="white"/>
</g>
<g clip-path="url(#clip3_262_3115)">
<path d="M1343.35 1038.77C1344.59 1038.77 1345.59 1037.77 1345.59 1036.53C1345.59 1035.29 1344.59 1034.29 1343.35 1034.29C1342.11 1034.29 1341.11 1035.29 1341.11 1036.53C1341.11 1037.77 1342.11 1038.77 1343.35 1038.77Z" fill="white"/>
</g>
<g clip-path="url(#clip4_262_3115)">
<path d="M1242.97 251.78C1244.21 251.78 1245.21 250.777 1245.21 249.54C1245.21 248.303 1244.21 247.3 1242.97 247.3C1241.73 247.3 1240.73 248.303 1240.73 249.54C1240.73 250.777 1241.73 251.78 1242.97 251.78Z" fill="white"/>
</g>
<g clip-path="url(#clip5_262_3115)">
<path d="M1347.12 401.06C1348.36 401.06 1349.36 400.057 1349.36 398.82C1349.36 397.583 1348.36 396.58 1347.12 396.58C1345.88 396.58 1344.88 397.583 1344.88 398.82C1344.88 400.057 1345.88 401.06 1347.12 401.06Z" fill="white"/>
</g>
<g clip-path="url(#clip6_262_3115)">
<path d="M1482.91 601.44C1484.15 601.44 1485.15 600.437 1485.15 599.2C1485.15 597.963 1484.15 596.96 1482.91 596.96C1481.67 596.96 1480.67 597.963 1480.67 599.2C1480.67 600.437 1481.67 601.44 1482.91 601.44Z" fill="white"/>
</g>
<g clip-path="url(#clip7_262_3115)">
<path d="M1410.28 1291.87C1411.52 1291.87 1412.52 1290.87 1412.52 1289.63C1412.52 1288.39 1411.52 1287.39 1410.28 1287.39C1409.04 1287.39 1408.04 1288.39 1408.04 1289.63C1408.04 1290.87 1409.04 1291.87 1410.28 1291.87Z" fill="white"/>
</g>
<g clip-path="url(#clip8_262_3115)">
<path d="M1235.2 1425.56C1236.44 1425.56 1237.44 1424.56 1237.44 1423.32C1237.44 1422.08 1236.44 1421.08 1235.2 1421.08C1233.96 1421.08 1232.96 1422.08 1232.96 1423.32C1232.96 1424.56 1233.96 1425.56 1235.2 1425.56Z" fill="white"/>
</g>
<g clip-path="url(#clip9_262_3115)">
<path d="M1162.63 1162.21C1163.87 1162.21 1164.87 1161.21 1164.87 1159.97C1164.87 1158.73 1163.87 1157.73 1162.63 1157.73C1161.39 1157.73 1160.39 1158.73 1160.39 1159.97C1160.39 1161.21 1161.39 1162.21 1162.63 1162.21Z" fill="white"/>
</g>
<g clip-path="url(#clip10_262_3115)">
<path d="M1089.92 1268.42C1091.16 1268.42 1092.16 1267.42 1092.16 1266.18C1092.16 1264.94 1091.16 1263.94 1089.92 1263.94C1088.68 1263.94 1087.68 1264.94 1087.68 1266.18C1087.68 1267.42 1088.68 1268.42 1089.92 1268.42Z" fill="white"/>
</g>
<g clip-path="url(#clip11_262_3115)">
<path d="M1370.81 1454.97C1372.05 1454.97 1373.05 1453.97 1373.05 1452.73C1373.05 1451.49 1372.05 1450.49 1370.81 1450.49C1369.57 1450.49 1368.57 1451.49 1368.57 1452.73C1368.57 1453.97 1369.57 1454.97 1370.81 1454.97Z" fill="white"/>
</g>
<g clip-path="url(#clip12_262_3115)">
<path d="M1441.87 1498.38C1443.11 1498.38 1444.11 1497.38 1444.11 1496.14C1444.11 1494.9 1443.11 1493.9 1441.87 1493.9C1440.63 1493.9 1439.63 1494.9 1439.63 1496.14C1439.63 1497.38 1440.63 1498.38 1441.87 1498.38Z" fill="white"/>
</g>
<g clip-path="url(#clip13_262_3115)">
<path d="M104.91 1197.27C106.147 1197.27 107.15 1196.27 107.15 1195.03C107.15 1193.79 106.147 1192.79 104.91 1192.79C103.673 1192.79 102.67 1193.79 102.67 1195.03C102.67 1196.27 103.673 1197.27 104.91 1197.27Z" fill="white"/>
</g>
<g clip-path="url(#clip14_262_3115)">
<path d="M152.8 1428.95C154.037 1428.95 155.04 1427.95 155.04 1426.71C155.04 1425.47 154.037 1424.47 152.8 1424.47C151.563 1424.47 150.56 1425.47 150.56 1426.71C150.56 1427.95 151.563 1428.95 152.8 1428.95Z" fill="white"/>
</g>
<g clip-path="url(#clip15_262_3115)">
<path d="M528.42 1455.63C529.657 1455.63 530.66 1454.63 530.66 1453.39C530.66 1452.15 529.657 1451.15 528.42 1451.15C527.183 1451.15 526.18 1452.15 526.18 1453.39C526.18 1454.63 527.183 1455.63 528.42 1455.63Z" fill="white"/>
</g>
<g clip-path="url(#clip16_262_3115)">
<path d="M408.53 1141.35C409.767 1141.35 410.77 1140.35 410.77 1139.11C410.77 1137.87 409.767 1136.87 408.53 1136.87C407.293 1136.87 406.29 1137.87 406.29 1139.11C406.29 1140.35 407.293 1141.35 408.53 1141.35Z" fill="white"/>
</g>
<g clip-path="url(#clip17_262_3115)">
<path d="M302.071 1551.5C303.308 1551.5 304.311 1550.5 304.311 1549.26C304.311 1548.02 303.308 1547.02 302.071 1547.02C300.833 1547.02 299.831 1548.02 299.831 1549.26C299.831 1550.5 300.833 1551.5 302.071 1551.5Z" fill="white"/>
</g>
<g clip-path="url(#clip18_262_3115)">
<path d="M986.111 1367.9C987.348 1367.9 988.351 1366.9 988.351 1365.66C988.351 1364.42 987.348 1363.42 986.111 1363.42C984.873 1363.42 983.871 1364.42 983.871 1365.66C983.871 1366.9 984.873 1367.9 986.111 1367.9Z" fill="white"/>
</g>
<g clip-path="url(#clip19_262_3115)">
<path d="M1063.42 1527.73C1064.66 1527.73 1065.66 1526.73 1065.66 1525.49C1065.66 1524.25 1064.66 1523.25 1063.42 1523.25C1062.18 1523.25 1061.18 1524.25 1061.18 1525.49C1061.18 1526.73 1062.18 1527.73 1063.42 1527.73Z" fill="white"/>
</g>
<g clip-path="url(#clip20_262_3115)">
<path d="M1324.82 1634.51C1326.06 1634.51 1327.06 1633.51 1327.06 1632.27C1327.06 1631.03 1326.06 1630.03 1324.82 1630.03C1323.58 1630.03 1322.58 1631.03 1322.58 1632.27C1322.58 1633.51 1323.58 1634.51 1324.82 1634.51Z" fill="white"/>
</g>
<g clip-path="url(#clip21_262_3115)">
<path d="M390.03 241.49C391.267 241.49 392.27 240.487 392.27 239.25C392.27 238.013 391.267 237.01 390.03 237.01C388.793 237.01 387.79 238.013 387.79 239.25C387.79 240.487 388.793 241.49 390.03 241.49Z" fill="white"/>
</g>
<g clip-path="url(#clip22_262_3115)">
<path d="M376.62 417.31C377.857 417.31 378.86 416.307 378.86 415.07C378.86 413.833 377.857 412.83 376.62 412.83C375.383 412.83 374.38 413.833 374.38 415.07C374.38 416.307 375.383 417.31 376.62 417.31Z" fill="white"/>
</g>
<g clip-path="url(#clip23_262_3115)">
<path d="M126.23 286.84C127.467 286.84 128.47 285.837 128.47 284.6C128.47 283.363 127.467 282.36 126.23 282.36C124.993 282.36 123.99 283.363 123.99 284.6C123.99 285.837 124.993 286.84 126.23 286.84Z" fill="white"/>
</g>
<g clip-path="url(#clip24_262_3115)">
<path d="M307.401 71C308.638 71 309.641 69.9971 309.641 68.76C309.641 67.5229 308.638 66.52 307.401 66.52C306.164 66.52 305.161 67.5229 305.161 68.76C305.161 69.9971 306.164 71 307.401 71Z" fill="white"/>
</g>
<g clip-path="url(#clip25_262_3115)">
<path d="M853.251 12.4199C854.488 12.4199 855.491 11.4171 855.491 10.1799C855.491 8.94282 854.488 7.93994 853.251 7.93994C852.014 7.93994 851.011 8.94282 851.011 10.1799C851.011 11.4171 852.014 12.4199 853.251 12.4199Z" fill="white"/>
</g>
<g clip-path="url(#clip26_262_3115)">
<path d="M1074.12 134.77C1075.36 134.77 1076.36 133.767 1076.36 132.53C1076.36 131.293 1075.36 130.29 1074.12 130.29C1072.88 130.29 1071.88 131.293 1071.88 132.53C1071.88 133.767 1072.88 134.77 1074.12 134.77Z" fill="white"/>
</g>
<g clip-path="url(#clip27_262_3115)">
<path d="M637.56 4.48C638.797 4.48 639.8 3.47712 639.8 2.24C639.8 1.00288 638.797 0 637.56 0C636.323 0 635.32 1.00288 635.32 2.24C635.32 3.47712 636.323 4.48 637.56 4.48Z" fill="white"/>
</g>
<g clip-path="url(#clip28_262_3115)">
<path d="M1020.84 1701.07C1022.08 1701.07 1023.08 1700.07 1023.08 1698.83C1023.08 1697.59 1022.08 1696.59 1020.84 1696.59C1019.6 1696.59 1018.6 1697.59 1018.6 1698.83C1018.6 1700.07 1019.6 1701.07 1020.84 1701.07Z" fill="white"/>
</g>
<g clip-path="url(#clip29_262_3115)">
<path d="M558.06 1716.63C559.297 1716.63 560.3 1715.63 560.3 1714.39C560.3 1713.15 559.297 1712.15 558.06 1712.15C556.823 1712.15 555.82 1713.15 555.82 1714.39C555.82 1715.63 556.823 1716.63 558.06 1716.63Z" fill="white"/>
</g>
<g clip-path="url(#clip30_262_3115)">
<path d="M504.2 1746.26C505.438 1746.26 506.44 1745.26 506.44 1744.02C506.44 1742.78 505.438 1741.78 504.2 1741.78C502.963 1741.78 501.96 1742.78 501.96 1744.02C501.96 1745.26 502.963 1746.26 504.2 1746.26Z" fill="white"/>
</g>
<g clip-path="url(#clip31_262_3115)">
<path d="M198.79 1669.84C200.027 1669.84 201.03 1668.84 201.03 1667.6C201.03 1666.36 200.027 1665.36 198.79 1665.36C197.553 1665.36 196.55 1666.36 196.55 1667.6C196.55 1668.84 197.553 1669.84 198.79 1669.84Z" fill="white"/>
</g>
<g clip-path="url(#clip32_262_3115)">
<path d="M1308.11 102.57C1309.35 102.57 1310.35 101.567 1310.35 100.33C1310.35 99.093 1309.35 98.0901 1308.11 98.0901C1306.87 98.0901 1305.87 99.093 1305.87 100.33C1305.87 101.567 1306.87 102.57 1308.11 102.57Z" fill="white"/>
</g>
<g clip-path="url(#clip33_262_3115)">
<path d="M1402.79 234.44C1404.03 234.44 1405.03 233.437 1405.03 232.2C1405.03 230.963 1404.03 229.96 1402.79 229.96C1401.55 229.96 1400.55 230.963 1400.55 232.2C1400.55 233.437 1401.55 234.44 1402.79 234.44Z" fill="white"/>
</g>
<g clip-path="url(#clip34_262_3115)">
<path d="M1085.6 331.54C1086.84 331.54 1087.84 330.537 1087.84 329.3C1087.84 328.063 1086.84 327.06 1085.6 327.06C1084.36 327.06 1083.36 328.063 1083.36 329.3C1083.36 330.537 1084.36 331.54 1085.6 331.54Z" fill="white"/>
</g>
<g clip-path="url(#clip35_262_3115)">
<path d="M1454.06 462.58C1455.3 462.58 1456.3 461.577 1456.3 460.34C1456.3 459.103 1455.3 458.1 1454.06 458.1C1452.82 458.1 1451.82 459.103 1451.82 460.34C1451.82 461.577 1452.82 462.58 1454.06 462.58Z" fill="white"/>
</g>
<g clip-path="url(#clip36_262_3115)">
<path d="M962.31 1240.7C963.547 1240.7 964.55 1239.7 964.55 1238.46C964.55 1237.22 963.547 1236.22 962.31 1236.22C961.073 1236.22 960.07 1237.22 960.07 1238.46C960.07 1239.7 961.073 1240.7 962.31 1240.7Z" fill="white"/>
</g>
<g clip-path="url(#clip37_262_3115)">
<path d="M364.1 898.63C365.337 898.63 366.34 897.627 366.34 896.39C366.34 895.153 365.337 894.15 364.1 894.15C362.863 894.15 361.86 895.153 361.86 896.39C361.86 897.627 362.863 898.63 364.1 898.63Z" fill="white"/>
</g>
<g clip-path="url(#clip38_262_3115)">
<path d="M2.24 871.3C3.47712 871.3 4.48 870.297 4.48 869.06C4.48 867.823 3.47712 866.82 2.24 866.82C1.00288 866.82 0 867.823 0 869.06C0 870.297 1.00288 871.3 2.24 871.3Z" fill="white"/>
</g>
<g clip-path="url(#clip39_262_3115)">
<path d="M1177.83 1622.84C1179.07 1622.84 1180.07 1621.84 1180.07 1620.6C1180.07 1619.36 1179.07 1618.36 1177.83 1618.36C1176.59 1618.36 1175.59 1619.36 1175.59 1620.6C1175.59 1621.84 1176.59 1622.84 1177.83 1622.84Z" fill="white"/>
</g>
<g clip-path="url(#clip40_262_3115)">
<path d="M1567.46 1640.22C1568.7 1640.22 1569.7 1639.22 1569.7 1637.98C1569.7 1636.74 1568.7 1635.74 1567.46 1635.74C1566.22 1635.74 1565.22 1636.74 1565.22 1637.98C1565.22 1639.22 1566.22 1640.22 1567.46 1640.22Z" fill="white"/>
</g>
<g clip-path="url(#clip41_262_3115)">
<path d="M634.031 1195.9C635.268 1195.9 636.271 1194.9 636.271 1193.66C636.271 1192.42 635.268 1191.42 634.031 1191.42C632.793 1191.42 631.791 1192.42 631.791 1193.66C631.791 1194.9 632.793 1195.9 634.031 1195.9Z" fill="white"/>
</g>
<g clip-path="url(#clip42_262_3115)">
<path d="M436.73 571.91C437.967 571.91 438.97 570.907 438.97 569.67C438.97 568.433 437.967 567.43 436.73 567.43C435.493 567.43 434.49 568.433 434.49 569.67C434.49 570.907 435.493 571.91 436.73 571.91Z" fill="white"/>
</g>
</g>
<defs>
<clipPath id="clip0_262_3115">
<rect width="4.47" height="4.47" fill="white" transform="translate(1112.93 487.06)"/>
</clipPath>
<clipPath id="clip1_262_3115">
<rect width="4.47" height="4.47" fill="white" transform="translate(1289.76 612.64)"/>
</clipPath>
<clipPath id="clip2_262_3115">
<rect width="4.47" height="4.47" fill="white" transform="translate(1374.41 754.02)"/>
</clipPath>
<clipPath id="clip3_262_3115">
<rect width="4.47" height="4.47" fill="white" transform="translate(1341.11 1034.29)"/>
</clipPath>
<clipPath id="clip4_262_3115">
<rect width="4.47" height="4.47" fill="white" transform="translate(1240.73 247.3)"/>
</clipPath>
<clipPath id="clip5_262_3115">
<rect width="4.47" height="4.47" fill="white" transform="translate(1344.88 396.58)"/>
</clipPath>
<clipPath id="clip6_262_3115">
<rect width="4.47" height="4.47" fill="white" transform="translate(1480.67 596.96)"/>
</clipPath>
<clipPath id="clip7_262_3115">
<rect width="4.47" height="4.47" fill="white" transform="translate(1408.04 1287.39)"/>
</clipPath>
<clipPath id="clip8_262_3115">
<rect width="4.47" height="4.47" fill="white" transform="translate(1232.96 1421.08)"/>
</clipPath>
<clipPath id="clip9_262_3115">
<rect width="4.47" height="4.47" fill="white" transform="translate(1160.39 1157.73)"/>
</clipPath>
<clipPath id="clip10_262_3115">
<rect width="4.47" height="4.47" fill="white" transform="translate(1087.68 1263.94)"/>
</clipPath>
<clipPath id="clip11_262_3115">
<rect width="4.47" height="4.47" fill="white" transform="translate(1368.57 1450.49)"/>
</clipPath>
<clipPath id="clip12_262_3115">
<rect width="4.47" height="4.47" fill="white" transform="translate(1439.63 1493.9)"/>
</clipPath>
<clipPath id="clip13_262_3115">
<rect width="4.47" height="4.47" fill="white" transform="translate(102.67 1192.79)"/>
</clipPath>
<clipPath id="clip14_262_3115">
<rect width="4.47" height="4.47" fill="white" transform="translate(150.56 1424.47)"/>
</clipPath>
<clipPath id="clip15_262_3115">
<rect width="4.47" height="4.47" fill="white" transform="translate(526.18 1451.15)"/>
</clipPath>
<clipPath id="clip16_262_3115">
<rect width="4.47" height="4.47" fill="white" transform="translate(406.29 1136.87)"/>
</clipPath>
<clipPath id="clip17_262_3115">
<rect width="4.47" height="4.47" fill="white" transform="translate(299.831 1547.02)"/>
</clipPath>
<clipPath id="clip18_262_3115">
<rect width="4.47" height="4.47" fill="white" transform="translate(983.871 1363.42)"/>
</clipPath>
<clipPath id="clip19_262_3115">
<rect width="4.47" height="4.47" fill="white" transform="translate(1061.18 1523.25)"/>
</clipPath>
<clipPath id="clip20_262_3115">
<rect width="4.47" height="4.47" fill="white" transform="translate(1322.58 1630.03)"/>
</clipPath>
<clipPath id="clip21_262_3115">
<rect width="4.47" height="4.47" fill="white" transform="translate(387.79 237.01)"/>
</clipPath>
<clipPath id="clip22_262_3115">
<rect width="4.47" height="4.47" fill="white" transform="translate(374.38 412.83)"/>
</clipPath>
<clipPath id="clip23_262_3115">
<rect width="4.47" height="4.47" fill="white" transform="translate(123.99 282.36)"/>
</clipPath>
<clipPath id="clip24_262_3115">
<rect width="4.47" height="4.47" fill="white" transform="translate(305.161 66.52)"/>
</clipPath>
<clipPath id="clip25_262_3115">
<rect width="4.47" height="4.47" fill="white" transform="translate(851.011 7.93994)"/>
</clipPath>
<clipPath id="clip26_262_3115">
<rect width="4.47" height="4.47" fill="white" transform="translate(1071.88 130.29)"/>
</clipPath>
<clipPath id="clip27_262_3115">
<rect width="4.47" height="4.47" fill="white" transform="translate(635.32)"/>
</clipPath>
<clipPath id="clip28_262_3115">
<rect width="4.47" height="4.47" fill="white" transform="translate(1018.6 1696.59)"/>
</clipPath>
<clipPath id="clip29_262_3115">
<rect width="4.47" height="4.47" fill="white" transform="translate(555.82 1712.15)"/>
</clipPath>
<clipPath id="clip30_262_3115">
<rect width="4.47" height="4.47" fill="white" transform="translate(501.96 1741.78)"/>
</clipPath>
<clipPath id="clip31_262_3115">
<rect width="4.47" height="4.47" fill="white" transform="translate(196.55 1665.36)"/>
</clipPath>
<clipPath id="clip32_262_3115">
<rect width="4.47" height="4.47" fill="white" transform="translate(1305.87 98.0901)"/>
</clipPath>
<clipPath id="clip33_262_3115">
<rect width="4.47" height="4.47" fill="white" transform="translate(1400.55 229.96)"/>
</clipPath>
<clipPath id="clip34_262_3115">
<rect width="4.47" height="4.47" fill="white" transform="translate(1083.36 327.06)"/>
</clipPath>
<clipPath id="clip35_262_3115">
<rect width="4.47" height="4.47" fill="white" transform="translate(1451.82 458.1)"/>
</clipPath>
<clipPath id="clip36_262_3115">
<rect width="4.47" height="4.47" fill="white" transform="translate(960.07 1236.22)"/>
</clipPath>
<clipPath id="clip37_262_3115">
<rect width="4.47" height="4.47" fill="white" transform="translate(361.86 894.15)"/>
</clipPath>
<clipPath id="clip38_262_3115">
<rect width="4.47" height="4.47" fill="white" transform="translate(0 866.82)"/>
</clipPath>
<clipPath id="clip39_262_3115">
<rect width="4.47" height="4.47" fill="white" transform="translate(1175.59 1618.36)"/>
</clipPath>
<clipPath id="clip40_262_3115">
<rect width="4.47" height="4.47" fill="white" transform="translate(1565.22 1635.74)"/>
</clipPath>
<clipPath id="clip41_262_3115">
<rect width="4.47" height="4.47" fill="white" transform="translate(631.791 1191.42)"/>
</clipPath>
<clipPath id="clip42_262_3115">
<rect width="4.47" height="4.47" fill="white" transform="translate(434.49 567.43)"/>
</clipPath>
</defs>
</svg>
