<svg width="1570" height="1118" viewBox="0 0 1570 1118" fill="none" xmlns="http://www.w3.org/2000/svg">
<path opacity="0.7" d="M390.979 785.82C394.625 785.82 397.579 782.865 397.579 779.22C397.579 775.575 394.625 772.62 390.979 772.62C387.334 772.62 384.379 775.575 384.379 779.22C384.379 782.865 387.334 785.82 390.979 785.82Z" fill="#FFE1AB"/>
<path opacity="0.7" d="M96.8798 223.35C100.525 223.35 103.48 220.395 103.48 216.75C103.48 213.105 100.525 210.15 96.8798 210.15C93.2347 210.15 90.2798 213.105 90.2798 216.75C90.2798 220.395 93.2347 223.35 96.8798 223.35Z" fill="#FFE1AB"/>
<path d="M316.229 1104.56C319.875 1104.56 322.829 1101.6 322.829 1097.96C322.829 1094.31 319.875 1091.36 316.229 1091.36C312.584 1091.36 309.629 1094.31 309.629 1097.96C309.629 1101.6 312.584 1104.56 316.229 1104.56Z" fill="#0D5875"/>
<path d="M1215.52 271.33C1219.17 271.33 1222.12 268.375 1222.12 264.73C1222.12 261.085 1219.17 258.13 1215.52 258.13C1211.88 258.13 1208.92 261.085 1208.92 264.73C1208.92 268.375 1211.88 271.33 1215.52 271.33Z" fill="#0D5875"/>
<path d="M1452.94 983.63C1456.59 983.63 1459.54 980.675 1459.54 977.03C1459.54 973.385 1456.59 970.43 1452.94 970.43C1449.29 970.43 1446.34 973.385 1446.34 977.03C1446.34 980.675 1449.29 983.63 1452.94 983.63Z" fill="#0D5875"/>
<path opacity="0.7" d="M1085.82 486.14C1089.47 486.14 1092.42 483.185 1092.42 479.54C1092.42 475.895 1089.47 472.94 1085.82 472.94C1082.18 472.94 1079.22 475.895 1079.22 479.54C1079.22 483.185 1082.18 486.14 1085.82 486.14Z" fill="white"/>
<path opacity="0.7" d="M6.60001 476.08C10.2451 476.08 13.2 473.125 13.2 469.48C13.2 465.835 10.2451 462.88 6.60001 462.88C2.95493 462.88 0 465.835 0 469.48C0 473.125 2.95493 476.08 6.60001 476.08Z" fill="white"/>
<path opacity="0.7" d="M869.52 1117.76C873.165 1117.76 876.12 1114.8 876.12 1111.16C876.12 1107.51 873.165 1104.56 869.52 1104.56C865.875 1104.56 862.92 1107.51 862.92 1111.16C862.92 1114.8 865.875 1117.76 869.52 1117.76Z" fill="white"/>
<path d="M357.02 31.7198C360.665 31.7198 363.62 28.7648 363.62 25.1198C363.62 21.4747 360.665 18.5198 357.02 18.5198C353.375 18.5198 350.42 21.4747 350.42 25.1198C350.42 28.7648 353.375 31.7198 357.02 31.7198Z" fill="#0D5875"/>
<path opacity="0.7" d="M1563.35 13.2C1567 13.2 1569.95 10.2451 1569.95 6.60004C1569.95 2.95496 1567 0 1563.35 0C1559.7 0 1556.75 2.95496 1556.75 6.60004C1556.75 10.2451 1559.7 13.2 1563.35 13.2Z" fill="white"/>
</svg>
