<svg width="1002" height="1415" viewBox="0 0 1002 1415" fill="none" xmlns="http://www.w3.org/2000/svg">
<path opacity="0.7" d="M974.6 1361.47L978.5 1377.96C979.22 1380.99 981.58 1383.36 984.62 1384.08L1001.11 1387.98L984.62 1391.88C981.59 1392.6 979.22 1394.96 978.5 1398L974.6 1414.49L970.7 1398C969.98 1394.97 967.62 1392.6 964.58 1391.88L948.09 1387.98L964.58 1384.08C967.61 1383.36 969.98 1381 970.7 1377.96L974.6 1361.47Z" fill="#FFE1AB"/>
<path opacity="0.2" d="M38.05 729.93L44.16 755.75C44.88 758.78 47.24 761.15 50.28 761.87L76.1 767.98L50.28 774.09C47.25 774.81 44.88 777.17 44.16 780.21L38.05 806.03L31.94 780.21C31.22 777.18 28.86 774.81 25.82 774.09L0 767.98L25.82 761.87C28.85 761.15 31.22 758.79 31.94 755.75L38.05 729.93Z" fill="#0D5875"/>
<path opacity="0.5" d="M194.47 0L199.17 19.86C199.89 22.89 202.25 25.26 205.29 25.98L225.15 30.68L205.29 35.38C202.26 36.1 199.89 38.46 199.17 41.5L194.47 61.36L189.77 41.5C189.05 38.47 186.69 36.1 183.65 35.38L163.79 30.68L183.65 25.98C186.68 25.26 189.05 22.9 189.77 19.86L194.47 0Z" fill="#FFE1AB"/>
</svg>
