<svg width="317" height="438" viewBox="0 0 317 438" fill="none" xmlns="http://www.w3.org/2000/svg">
<path style="mix-blend-mode:screen" d="M259.161 289.91C290.619 289.91 316.121 264.408 316.121 232.95C316.121 201.492 290.619 175.99 259.161 175.99C227.703 175.99 202.201 201.492 202.201 232.95C202.201 264.408 227.703 289.91 259.161 289.91Z" fill="url(#paint0_radial_262_3092)"/>
<path d="M89.7708 0L93.3807 15.26C94.1007 18.29 96.4607 20.66 99.5007 21.38L114.761 24.99L99.5007 28.6C96.4707 29.32 94.1007 31.68 93.3807 34.72L89.7708 49.98L86.1606 34.72C85.4406 31.69 83.0807 29.32 80.0407 28.6L64.7808 24.99L80.0407 21.38C83.0707 20.66 85.4406 18.3 86.1606 15.26L89.7708 0Z" fill="#FFE1AB"/>
<path d="M259.15 200.48L264.19 221.79C264.91 224.82 267.27 227.19 270.31 227.91L291.62 232.95L270.31 237.99C267.28 238.71 264.91 241.07 264.19 244.11L259.15 265.42L254.11 244.11C253.39 241.08 251.03 238.71 247.99 237.99L226.68 232.95L247.99 227.91C251.02 227.19 253.39 224.83 254.11 221.79L259.15 200.48Z" fill="#FFE1AB"/>
<path style="mix-blend-mode:screen" opacity="0.5" d="M257.487 244.192L262.96 239.877L95.2479 27.1349L89.7743 31.45L257.487 244.192Z" fill="url(#paint1_linear_262_3092)"/>
<path style="mix-blend-mode:screen" opacity="0.5" d="M33.6378 398.679L37.7837 404.282L255.549 243.145L251.403 237.542L33.6378 398.679Z" fill="url(#paint2_linear_262_3092)"/>
<path d="M221.01 437.33C225.473 437.33 229.09 433.713 229.09 429.25C229.09 424.788 225.473 421.17 221.01 421.17C216.548 421.17 212.93 424.788 212.93 429.25C212.93 433.713 216.548 437.33 221.01 437.33Z" fill="#FFE1AB"/>
<path d="M24.99 379.29L28.6 394.55C29.32 397.58 31.68 399.95 34.72 400.67L49.98 404.28L34.72 407.89C31.69 408.61 29.32 410.97 28.6 414.01L24.99 429.27L21.38 414.01C20.66 410.98 18.3 408.61 15.26 407.89L0 404.28L15.26 400.67C18.29 399.95 20.66 397.59 21.38 394.55L24.99 379.29Z" fill="#FFE1AB"/>
<defs>
<radialGradient id="paint0_radial_262_3092" cx="0" cy="0" r="1" gradientUnits="userSpaceOnUse" gradientTransform="translate(259.161 232.95) scale(56.96 56.96)">
<stop stop-color="#F9DCA7"/>
<stop offset="0.09" stop-color="#C5AE84"/>
<stop offset="0.17" stop-color="#968565"/>
<stop offset="0.26" stop-color="#6E6149"/>
<stop offset="0.35" stop-color="#4C4333"/>
<stop offset="0.45" stop-color="#302A20"/>
<stop offset="0.55" stop-color="#1A1712"/>
<stop offset="0.67" stop-color="#0B0A07"/>
<stop offset="0.8" stop-color="#020201"/>
<stop offset="1"/>
</radialGradient>
<linearGradient id="paint1_linear_262_3092" x1="96.7394" y1="140.711" x2="256.027" y2="130.577" gradientUnits="userSpaceOnUse">
<stop/>
<stop offset="0.04" stop-color="#0B0907"/>
<stop offset="0.12" stop-color="#29241B"/>
<stop offset="0.22" stop-color="#5A4F3C"/>
<stop offset="0.34" stop-color="#9E8B6A"/>
<stop offset="0.48" stop-color="#F4D7A3"/>
<stop offset="0.5" stop-color="#FFE1AB"/>
<stop offset="0.63" stop-color="#A79370"/>
<stop offset="0.77" stop-color="#4E4434"/>
<stop offset="0.87" stop-color="#15130E"/>
<stop offset="0.92"/>
</linearGradient>
<linearGradient id="paint2_linear_262_3092" x1="141.971" y1="241.156" x2="147.235" y2="400.679" gradientUnits="userSpaceOnUse">
<stop/>
<stop offset="0.04" stop-color="#0B0907"/>
<stop offset="0.12" stop-color="#29241B"/>
<stop offset="0.22" stop-color="#5A4F3C"/>
<stop offset="0.34" stop-color="#9E8B6A"/>
<stop offset="0.48" stop-color="#F4D7A3"/>
<stop offset="0.5" stop-color="#FFE1AB"/>
<stop offset="0.63" stop-color="#A79370"/>
<stop offset="0.77" stop-color="#4E4434"/>
<stop offset="0.87" stop-color="#15130E"/>
<stop offset="0.92"/>
</linearGradient>
</defs>
</svg>
