<svg width="968" height="996" viewBox="0 0 968 996" fill="none" xmlns="http://www.w3.org/2000/svg">
<path d="M808.27 60.08H159.25V937.23H808.27V60.08Z" fill="#A0A4A5"/>
<path d="M808.06 60.08H159.04L142.12 30.09H825.4L808.06 60.08Z" fill="#616668"/>
<path d="M658.86 385.57L647.57 386.01L318.85 398.77C308.82 399.16 302.32 390.87 296.76 383.45C293.03 378.48 288.35 375.89 288.42 369.16L289.6 266.75C289.62 265.75 289.58 264.75 289.49 263.75L280.78 168.52C279.2 151.27 292.87 136.42 310.19 136.57L476.84 137.97C477.76 137.98 478.69 137.95 479.6 137.87L634.62 124.49L647.29 123.4C663.95 121.96 678.43 134.74 672.66 156.77L672.71 158.17L675.31 224.94L679.61 261.04L680.2 308.99L684.36 337.27L686.99 355.16C687.62 371.33 675.02 384.94 658.86 385.57Z" fill="#E2E2E2"/>
<path d="M658.86 385.57L647.57 386.01C651.12 384.04 653.89 381.55 654.9 378.4C658.81 366.18 671.03 382.24 676.89 365.41C679.93 356.67 682.55 345.75 684.36 337.27L686.99 355.16C687.62 371.33 675.02 384.94 658.86 385.57Z" fill="#CFD0D1"/>
<path d="M289.49 263.75C289.49 263.75 293.92 284.81 296.78 294.56C299.65 304.3 295.06 318.06 296.78 328.95C298.5 339.84 288.47 365.42 288.47 365.42L289.49 263.75Z" fill="#CFD0D1"/>
<path d="M825.39 0H142.12V30.09H825.39V0Z" fill="#34393A"/>
<path d="M672.66 156.77L672.71 158.17C670.27 156.66 666.9 153.2 667.29 145.64C667.9 133.92 662.93 133.5 652.83 130.92C648.71 129.87 642.17 126.54 634.62 124.49L647.29 123.4C663.95 121.96 678.43 134.74 672.66 156.77Z" fill="#CFD0D1"/>
<path d="M918.41 659.4H49.12C21.9918 659.4 0 681.392 0 708.52V946.72C0 973.848 21.9918 995.84 49.12 995.84H918.41C945.538 995.84 967.53 973.848 967.53 946.72V708.52C967.53 681.392 945.538 659.4 918.41 659.4Z" fill="#0B1E23"/>
</svg>
