<svg width="695" height="535" viewBox="0 0 695 535" fill="none" xmlns="http://www.w3.org/2000/svg">
<path d="M680.5 314.68C680.47 315.43 680.48 316.18 680.51 316.93L687.55 479.88C688.35 498.21 671.75 513.46 650.99 513.46L409.66 524.53L343.96 534.62L307.54 529.21L42.9898 513.46C22.0698 513.46 5.39981 497.98 6.44981 479.51L13.9298 347.21L15.3198 322.59L16.0998 308.76C16.0998 308.69 16.0598 308.11 15.9798 307.08C14.8198 293.16 6.09979 197.88 6.05979 196.97L6.08982 116.11V108.71C5.23982 90.35 21.8498 75.05 42.6498 75.05H651.25C671.91 75.05 688.47 90.15 687.82 108.4L691.52 168.69L694.17 211.9L694.48 216.91L693.8 221.68L683.56 293.28L680.5 314.68Z" fill="#194872"/>
<path d="M693.8 221.68L683.56 293.28L567.89 312.73L659.38 281.13L693.8 221.68Z" fill="#174160"/>
<path d="M693.8 221.68L659.38 281.13L567.89 312.73L647.24 272.73L693.8 221.68Z" fill="#1D5782"/>
<path d="M357.41 357.65C357.41 357.65 256.96 352.37 213.68 354.13C170.4 355.89 119.56 384.96 119.56 384.96C119.56 384.96 119.563 384.953 119.57 384.94C119.82 384.18 128.31 359.74 180.08 334.05C180.08 334.05 202.45 326.89 202.95 324.41C203.44 321.94 339.11 349.5 357.39 357.64C357.4 357.65 357.41 357.65 357.41 357.65Z" fill="#1D5782"/>
<path d="M357.41 357.65C357.41 357.65 256.96 352.37 213.68 354.13C170.4 355.89 119.56 384.96 119.56 384.96C119.56 384.96 119.563 384.953 119.57 384.94C148.64 348.85 190.9 344.44 205.64 335.63C220.28 326.89 355.54 357.23 357.39 357.64C357.4 357.65 357.41 357.65 357.41 357.65Z" fill="#174160"/>
<path d="M409.66 524.53L343.96 534.62L307.54 529.21C307.54 529.21 344.72 516.98 346.95 516.17C349.15 515.37 386.41 478.58 387.57 477.43C387.59 477.41 387.6 477.4 387.6 477.4L409.66 524.53Z" fill="#1D5782"/>
<path d="M409.66 524.53L343.96 534.62L307.54 529.21C307.54 529.21 352.01 527.73 358.6 520.53C365.06 513.45 386.74 478.57 387.57 477.43C387.59 477.41 387.6 477.4 387.6 477.4L409.66 524.53Z" fill="#174160"/>
<path d="M22.4401 296.97L6.06006 322.59L14.2501 348.21L15.3201 322.59L22.4401 296.97Z" fill="#174160"/>
<path d="M687.83 133.59C687.83 115.33 671.91 75.05 651.25 75.05H42.6498C21.8498 75.05 5.23982 90.35 6.08982 108.71V116.1C63.3698 126.89 118.17 134.74 176.11 141.12C236.12 147.73 282.06 154.75 313.69 157.81C368.48 163.12 584.46 204.62 622.13 214.21C622.13 214.21 687.84 159.71 687.83 133.58V133.59Z" fill="#174160"/>
<path d="M692.73 133.59L276.87 123L135.3 111.45L0 113.91L6.06 0L71.71 5.34003L129.3 12.73L208.11 10.66H282.37L694.48 66.8L692.73 133.59Z" fill="#194D6D"/>
<path d="M694.45 66.8C691.43 66.8 671.83 119.9 662.26 136.65C661.4 138.14 660.63 139.34 659.96 140.19C655.32 146.06 628.42 185.64 619.2 181.86C532.56 146 446.52 111.92 366.69 63.39C351.35 54.06 336.14 44.53 320.94 34.97C311.2 28.84 293.01 12.12 282.45 10.67C283.67 10.84 299.92 13.05 325.31 16.51C430.21 30.8 691.21 66.36 694.45 66.8Z" fill="#26608C"/>
<path d="M662.26 136.65C661.4 138.14 660.63 139.34 659.96 140.19C655.32 146.06 628.42 185.64 619.2 181.86C532.56 146 446.52 111.92 366.69 63.39C351.35 54.06 336.14 44.53 320.94 34.97C311.2 28.84 293.01 12.12 282.45 10.67C283.67 10.84 285.97 11.15 311.36 14.61C331.29 31.51 383.94 64.59 409.66 75.05C445.6 89.67 620.82 170.79 620.82 170.79C620.82 170.79 642.9 154.37 662.26 136.65Z" fill="#1E5577"/>
</svg>
