<svg width="319" height="392" viewBox="0 0 319 392" fill="none" xmlns="http://www.w3.org/2000/svg">
<path d="M156.58 281.57H106.26V325.34H156.58V281.57Z" fill="url(#paint0_linear_353_1891)"/>
<path d="M210.33 281.57H160.01V328.17H210.33V281.57Z" fill="url(#paint1_linear_353_1891)"/>
<path d="M48.5703 210.39C45.4203 209.71 43.9203 205.9 43.3303 201.84L42.0803 191.12L38.9302 196.56C35.3502 202.76 33.4102 211.57 22.0602 208.41L13.1403 203.26L6.48023 199.41C0.280225 195.83 -1.83977 187.89 1.74023 181.69L15.9503 157.1C19.5303 150.9 27.4702 148.78 33.6702 152.36L49.2502 161.37C51.5502 162.7 53.2902 164.62 54.3802 166.83C54.7902 166.83 55.2002 166.87 55.6102 166.95L57.1102 166.15C60.2702 166.82 62.2803 169.93 61.5903 173.08L55.8502 199.83C54.6502 205.4 54.1402 211.59 48.5602 210.38L48.5703 210.39Z" fill="url(#paint2_linear_353_1891)"/>
<path d="M269.73 210.39C272.88 209.71 274.38 205.9 274.97 201.84L276.22 191.12L279.37 196.56C282.95 202.76 284.89 211.57 296.24 208.41L305.16 203.26L311.82 199.41C318.02 195.83 320.14 187.89 316.56 181.69L302.35 157.1C298.77 150.9 290.83 148.78 284.63 152.36L269.05 161.37C266.75 162.7 265.01 164.62 263.92 166.83C263.51 166.83 263.1 166.87 262.69 166.95L261.19 166.15C258.03 166.82 256.02 169.93 256.71 173.08L262.45 199.83C263.65 205.4 264.16 211.59 269.74 210.38L269.73 210.39Z" fill="url(#paint3_linear_353_1891)"/>
<path d="M158.29 208.69V288.34C158.29 288.48 146.53 290.76 145.65 290.94C139.92 292.07 134.12 292.8 128.28 293.1C122.12 293.43 115.93 293.32 109.77 292.74C107.89 292.57 106.01 292.35 104.14 292.09C102.56 291.87 84.5801 289.49 84.5801 288.35V208.7H158.29V208.69Z" fill="url(#paint4_linear_353_1891)"/>
<path d="M158.29 288.35C158.29 288.48 170.04 290.77 170.93 290.94C176.66 292.06 182.47 292.78 188.3 293.1C196.36 293.53 204.45 293.2 212.45 292.08C214.03 291.86 232.01 289.48 232.01 288.35V208.69H158.3C158.3 208.69 158.3 288.28 158.3 288.35H158.29Z" fill="url(#paint5_linear_353_1891)"/>
<path d="M310.88 145.1L281.37 95.54C251.86 45.98 214.77 29.41 214.77 29.41H105.26C105.26 29.41 68.1703 45.98 38.6603 95.54L9.15039 145.1C9.15039 145.1 35.5304 176.79 77.0104 173.43L69.3104 219.25C101.09 230.6 160.02 231.74 160.02 231.74C160.02 231.74 218.95 230.6 250.73 219.25L243.03 173.43C284.51 176.79 310.89 145.1 310.89 145.1H310.88Z" fill="url(#paint6_linear_353_1891)"/>
<path d="M100.74 77.74C100.74 77.74 73.3704 166.28 74.5904 200.54L100.74 77.74Z" fill="url(#paint7_linear_353_1891)"/>
<path d="M218.91 77.74C218.91 77.74 246.28 166.28 245.06 200.54L218.91 77.74Z" fill="url(#paint8_linear_353_1891)"/>
<path d="M224.69 18.21C224.04 22.81 221.6 26.87 217.51 29.1C213.07 31.54 208.07 32.74 203.11 33.54C201.37 33.83 199.59 33.95 197.83 34.11C197.74 34.11 197.66 34.12 197.57 34.14C192.66 34.57 187.73 34.82 182.8 34.94C178.32 35.04 173.97 35.49 169.48 35.58C166.35 35.62 163.19 35.7 160.01 35.74C156.83 35.7 153.67 35.62 150.54 35.58C146.05 35.49 141.7 35.04 137.22 34.94C132.28 34.82 127.35 34.58 122.45 34.14C122.36 34.13 122.28 34.11 122.19 34.11C120.44 33.95 118.65 33.83 116.91 33.54C111.95 32.74 106.95 31.54 102.51 29.1C99.5105 27.46 97.3904 24.84 96.2304 21.74C95.8004 20.62 95.5105 19.43 95.3305 18.22C93.9505 8.48 100.82 0 109.41 0C117.43 1.91 125.33 3.95999 133.52 4.95999C142.2 6.02999 151.11 6.5 160.01 6.41C168.91 6.5 177.81 6.02999 186.48 4.95999C194.69 3.95999 202.59 1.92 210.6 0C215.49 0 219.81 2.73999 222.37 6.89999C224.33 10.06 225.271 14.02 224.681 18.22L224.69 18.21Z" fill="#32214B"/>
<path d="M224.69 18.21C224.04 22.81 221.6 26.87 217.51 29.1C213.07 31.54 208.07 32.74 203.11 33.54C201.37 33.83 199.59 33.95 197.83 34.11C197.74 34.11 197.66 34.12 197.57 34.14C192.66 34.57 187.73 34.82 182.8 34.94C178.32 35.04 173.97 35.49 169.48 35.58C166.35 35.62 163.19 35.7 160.01 35.74C156.83 35.7 153.67 35.62 150.54 35.58C146.05 35.49 141.7 35.04 137.22 34.94C132.28 34.82 127.35 34.58 122.45 34.14C122.36 34.13 122.28 34.11 122.19 34.11C120.44 33.95 118.65 33.83 116.91 33.54C111.95 32.74 106.95 31.54 102.51 29.1C99.51 27.46 97.39 24.84 96.23 21.74C106.38 24.54 118.32 26.8 131.75 27.5C171.87 29.57 203.92 16.57 222.38 6.89999C224.34 10.06 225.28 14.02 224.69 18.22V18.21Z" fill="#281B42"/>
<path d="M167.84 79.99L176.89 99.63C177.45 100.86 178.62 101.7 179.95 101.86L201.43 104.39C204.72 104.78 206.03 108.84 203.6 111.08L187.71 125.75C186.72 126.67 186.28 128.03 186.54 129.35L190.77 150.56C191.42 153.8 187.96 156.31 185.08 154.7L166.22 144.13C165.04 143.47 163.61 143.47 162.43 144.13L143.57 154.7C140.68 156.32 137.23 153.81 137.88 150.56L142.11 129.35C142.37 128.03 141.93 126.66 140.94 125.75L125.05 111.08C122.62 108.84 123.94 104.77 127.22 104.39L148.7 101.86C150.04 101.7 151.2 100.86 151.76 99.63L160.81 79.99C162.19 76.99 166.46 76.99 167.85 79.99H167.84Z" fill="url(#paint9_radial_353_1891)"/>
<path d="M159 325.34V386.06C159 389.3 161.66 391.93 164.94 391.93H244.59C252.38 391.93 257.321 383.66 253.561 376.91C248.441 367.72 239.641 361.6 229.061 355.19L209.47 344.57V325.34H159Z" fill="url(#paint10_linear_353_1891)"/>
<path d="M157.29 325.34V386.06C157.29 389.3 154.64 391.93 151.37 391.93H71.9802C64.2102 391.93 59.2902 383.66 63.0402 376.91C68.1402 367.72 76.9202 361.6 87.4602 355.19L106.99 344.57V325.34H157.29Z" fill="url(#paint11_linear_353_1891)"/>
<path d="M157.29 318.15H103.34V336H157.29V318.15Z" fill="#F0EDE9"/>
<path d="M118 318.15H115.88V336H118V318.15Z" fill="#D4D4D4"/>
<path d="M131.75 318.15H129.63V336H131.75V318.15Z" fill="#D4D4D4"/>
<path d="M144.52 318.15H142.4V336H144.52V318.15Z" fill="#D4D4D4"/>
<path d="M105.46 318.15H103.34V336H105.46V318.15Z" fill="#D4D4D4"/>
<path d="M157.29 318.15H155.17V336H157.29V318.15Z" fill="#D4D4D4"/>
<path d="M212.91 318.15H159V336H212.91V318.15Z" fill="#F0EDE9"/>
<path d="M173.651 318.15H171.531V336H173.651V318.15Z" fill="#D4D4D4"/>
<path d="M187.38 318.15H185.26V336H187.38V318.15Z" fill="#D4D4D4"/>
<path d="M200.141 318.15H198.021V336H200.141V318.15Z" fill="#D4D4D4"/>
<path d="M161.12 318.15H159V336H161.12V318.15Z" fill="#D4D4D4"/>
<path d="M212.901 318.15H210.781V336H212.901V318.15Z" fill="#D4D4D4"/>
<defs>
<linearGradient id="paint0_linear_353_1891" x1="131.42" y1="325.34" x2="131.42" y2="281.57" gradientUnits="userSpaceOnUse">
<stop stop-color="#FCE8E1"/>
<stop offset="1" stop-color="#FFBDA9"/>
</linearGradient>
<linearGradient id="paint1_linear_353_1891" x1="185.17" y1="328.17" x2="185.17" y2="-455.12" gradientUnits="userSpaceOnUse">
<stop stop-color="#FCE8E1"/>
<stop offset="1" stop-color="#FFBDA9"/>
</linearGradient>
<linearGradient id="paint2_linear_353_1891" x1="19.8002" y1="208.57" x2="50.3803" y2="155.6" gradientUnits="userSpaceOnUse">
<stop stop-color="#FCE8E1"/>
<stop offset="1" stop-color="#FFBDA9"/>
</linearGradient>
<linearGradient id="paint3_linear_353_1891" x1="299.09" y1="209.58" x2="267.88" y2="155.52" gradientUnits="userSpaceOnUse">
<stop stop-color="#FCE8E1"/>
<stop offset="1" stop-color="#FFBDA9"/>
</linearGradient>
<linearGradient id="paint4_linear_353_1891" x1="121.43" y1="208.69" x2="121.43" y2="293.29" gradientUnits="userSpaceOnUse">
<stop stop-color="#191718"/>
<stop offset="0.32" stop-color="#1E1C1D"/>
<stop offset="0.74" stop-color="#2F2C2D"/>
<stop offset="1" stop-color="#3D393A"/>
</linearGradient>
<linearGradient id="paint5_linear_353_1891" x1="195.14" y1="208.7" x2="195.14" y2="293.29" gradientUnits="userSpaceOnUse">
<stop offset="0.29" stop-color="#191718"/>
<stop offset="0.54" stop-color="#211F20"/>
<stop offset="0.94" stop-color="#393536"/>
<stop offset="1" stop-color="#3D393A"/>
</linearGradient>
<linearGradient id="paint6_linear_353_1891" x1="160.01" y1="29.4" x2="160.01" y2="231.74" gradientUnits="userSpaceOnUse">
<stop stop-color="#533976"/>
<stop offset="0.25" stop-color="#4B336C"/>
<stop offset="0.67" stop-color="#362352"/>
<stop offset="1" stop-color="#23143A"/>
</linearGradient>
<linearGradient id="paint7_linear_353_1891" x1="76.3941" y1="82.609" x2="98.9314" y2="195.705" gradientUnits="userSpaceOnUse">
<stop stop-color="#523874"/>
<stop offset="0.09" stop-color="#402A5F"/>
<stop offset="0.19" stop-color="#33204E"/>
<stop offset="0.32" stop-color="#291942"/>
<stop offset="0.5" stop-color="#24153B"/>
<stop offset="1" stop-color="#23143A"/>
</linearGradient>
<linearGradient id="paint8_linear_353_1891" x1="243.257" y1="82.6228" x2="220.72" y2="195.719" gradientUnits="userSpaceOnUse">
<stop stop-color="#523874"/>
<stop offset="0.09" stop-color="#402A5F"/>
<stop offset="0.19" stop-color="#33204E"/>
<stop offset="0.32" stop-color="#291942"/>
<stop offset="0.5" stop-color="#24153B"/>
<stop offset="1" stop-color="#23143A"/>
</linearGradient>
<radialGradient id="paint9_radial_353_1891" cx="0" cy="0" r="1" gradientUnits="userSpaceOnUse" gradientTransform="translate(164.32 116.48) scale(39.64 39.64)">
<stop stop-color="#F2BF3E"/>
<stop offset="0.26" stop-color="#E8B332"/>
<stop offset="0.73" stop-color="#CE9314"/>
<stop offset="1" stop-color="#BD7F00"/>
</radialGradient>
<linearGradient id="paint10_linear_353_1891" x1="206.921" y1="325.34" x2="206.921" y2="391.93" gradientUnits="userSpaceOnUse">
<stop stop-color="#D4D4D4"/>
<stop offset="0.27" stop-color="#E2E0DE"/>
<stop offset="0.6" stop-color="#ECEAE6"/>
<stop offset="1" stop-color="#F0EDE9"/>
</linearGradient>
<linearGradient id="paint11_linear_353_1891" x1="109.52" y1="325.34" x2="109.52" y2="391.93" gradientUnits="userSpaceOnUse">
<stop stop-color="#D4D4D4"/>
<stop offset="0.27" stop-color="#E2E0DE"/>
<stop offset="0.6" stop-color="#ECEAE6"/>
<stop offset="1" stop-color="#F0EDE9"/>
</linearGradient>
</defs>
</svg>
