<svg width="96" height="110" viewBox="0 0 96 110" fill="none" xmlns="http://www.w3.org/2000/svg">
<path d="M23.4682 109.02L91.9762 93.0276C93.3476 92.7075 94.1999 91.3362 93.8798 89.9647L74.0542 5.03809C73.7341 3.66663 72.3627 2.81438 70.9912 3.13454L2.48321 19.1273C1.11176 19.4474 0.259468 20.8188 0.579624 22.1902L20.4052 107.117C20.7253 108.488 22.0967 109.341 23.4682 109.02Z" fill="#383344"/>
<path d="M22.1548 108.206L1.37476 21.1161L3.16479 19.8061L23.1448 105.296L22.1548 108.206Z" fill="#A9A7AF"/>
<path d="M92.2247 91.8161L93.4747 89.2161L23.1448 105.296L22.1548 108.206L92.2247 91.8161Z" fill="#A9A7AF"/>
<path d="M24.7204 106.466L93.2284 90.4728C94.5998 90.1526 95.4521 88.7813 95.132 87.4098L75.3064 2.48322C74.9863 1.11176 73.6149 0.259542 72.2434 0.579699L3.73541 16.5724C2.36396 16.8926 1.51167 18.2639 1.83182 19.6354L21.6574 104.562C21.9775 105.933 23.3489 106.786 24.7204 106.466Z" fill="#383344"/>
<path d="M71.8707 4.69462L5.68188 20.4142L25.02 101.839L91.2089 86.1198L71.8707 4.69462Z" fill="#3F384C"/>
<path d="M88.3046 73.9461L91.2245 86.2561L25.0345 101.966L22.1145 89.6561C22.1145 89.6561 23.2346 82.8261 24.6646 81.5161C26.0646 80.2461 29.2445 79.4861 29.3845 79.4461C29.3845 79.4461 28.5946 67.6061 29.6746 63.7161C30.7546 59.8361 39.7245 57.9461 39.7245 57.9461C39.7245 57.9461 34.7345 45.3461 34.0045 41.9661C33.2945 38.5861 38.3446 35.6561 38.3446 35.6561L36.4446 30.5761C36.4446 30.5761 38.1345 28.5161 42.9945 27.6961C47.8545 26.8761 48.9646 27.1161 48.9646 27.1161L49.8046 32.5261C49.8046 32.5261 54.8345 32.0761 55.8545 35.2261C56.3445 36.7861 56.8246 41.2861 57.1846 45.4461C57.2046 45.5161 57.2046 45.5761 57.2146 45.6461L57.2745 46.5261C57.5045 49.3461 57.6645 51.8661 57.7345 52.9861L57.7745 53.5961C57.7745 53.5961 63.1746 51.7361 65.3246 52.3761C67.4846 53.0261 74.3545 65.0961 76.0145 68.4061C76.0145 68.4061 81.6845 66.9761 83.4945 67.6261C85.3045 68.2661 88.3046 73.9461 88.3046 73.9461Z" fill="#4A435B"/>
<path d="M79.3636 55.566L38.5002 65.2709L42.1719 80.7308L83.0353 71.026L79.3636 55.566Z" fill="#554F68"/>
</svg>
