<svg width="96" height="110" viewBox="0 0 96 110" fill="none" xmlns="http://www.w3.org/2000/svg">
<path d="M93.2218 19.1273L24.7137 3.13455C23.3423 2.81439 21.9709 3.66664 21.6508 5.03809L1.82522 89.9647C1.50506 91.3362 2.35731 92.7075 3.72877 93.0276L72.2368 109.02C73.6083 109.341 74.9796 108.488 75.2997 107.117L95.1253 22.1902C95.4455 20.8188 94.5932 19.4475 93.2218 19.1273Z" fill="#525575"/>
<path d="M73.5632 108.307L94.3432 21.2173L92.5532 19.9173L72.5732 105.397L73.5632 108.307Z" fill="#CCCCCC"/>
<path d="M3.49316 91.9173L2.24316 89.3173L72.5732 105.397L73.5632 108.307L3.49316 91.9173Z" fill="#CCCCCC"/>
<path d="M91.9762 16.5724L23.4681 0.579695C22.0966 0.259539 20.7253 1.11177 20.4052 2.48322L0.579614 87.4099C0.259458 88.7813 1.11171 90.1526 2.48316 90.4728L70.9912 106.466C72.3627 106.786 73.734 105.933 74.0542 104.562L93.8797 19.6354C94.1999 18.2639 93.3476 16.8926 91.9762 16.5724Z" fill="#525575"/>
<path d="M90.6776 20.0687L23.085 4.28966L3.78227 86.9765L71.3749 102.756L90.6776 20.0687Z" fill="#3E4360"/>
<path d="M23.1135 4.27728L45.1335 57.8073L90.7035 20.0473L71.4035 102.727L3.81348 86.9573L23.1135 4.27728Z" fill="#7B7D9B"/>
<path d="M27.5031 77.4673C32.4903 77.4673 36.5331 73.7602 36.5331 69.1873C36.5331 64.6144 32.4903 60.9073 27.5031 60.9073C22.516 60.9073 18.4731 64.6144 18.4731 69.1873C18.4731 73.7602 22.516 77.4673 27.5031 77.4673Z" fill="#989AA8"/>
<path d="M68.5835 31.6773C44.6735 36.9373 40.0035 42.0973 36.5335 50.4273C33.0635 58.7573 41.9935 56.6773 43.4835 61.7373C44.9735 66.7973 56.3835 65.5073 56.3835 65.5073L67.2035 63.4273C67.2035 63.4273 75.8335 83.0773 61.2535 87.1473C46.6735 91.2173 22.0835 91.2173 22.0835 91.2173L71.4135 102.727L87.7535 32.6973C87.7535 32.6973 78.4935 29.4973 68.5935 31.6773H68.5835Z" fill="#5E617A"/>
</svg>
