<svg width="125" height="62" viewBox="0 0 125 62" fill="none" xmlns="http://www.w3.org/2000/svg">
<path d="M1.96924 34.9755L7.28931 40.9655L109.669 61.9255L116.669 58.0255L1.96924 34.9755Z" fill="#565654"/>
<path d="M115.139 59.4355C115.049 59.4355 114.959 59.4155 114.869 59.3955L114.739 59.3655L114.589 59.3355L114.419 59.2955L114.219 59.2555L113.999 59.2055L113.759 59.1555L113.499 59.1055L113.219 59.0455L112.909 58.9855L112.579 58.9155L112.229 58.8455L111.859 58.7655L111.469 58.6855L111.059 58.6055L110.629 58.5155L110.179 58.4255L109.709 58.3255L109.229 58.2255L108.729 58.1255L108.209 58.0155L107.669 57.9055L107.109 57.7955L106.539 57.6755L105.949 57.5555L105.339 57.4355L104.719 57.3055L104.079 57.1755L103.429 57.0455L102.759 56.9055L102.079 56.7655L101.379 56.6255L100.669 56.4755L99.9393 56.3255L99.1993 56.1755L98.4493 56.0255L97.6793 55.8655L96.8993 55.7055L96.1093 55.5455L95.3093 55.3755L94.4993 55.2055L93.6693 55.0355L92.8293 54.8655L91.9792 54.6955L91.1193 54.5155L90.2493 54.3355L89.3693 54.1555L88.4792 53.9755L87.5793 53.7955L86.6693 53.6055L85.7593 53.4155L84.8392 53.2255L83.9093 53.0355L82.9692 52.8455L82.0193 52.6555L81.0693 52.4555L80.1093 52.2555L79.1393 52.0555L78.1693 51.8555L77.1893 51.6555L76.2094 51.4555L75.2192 51.2555L74.2292 51.0555L73.2292 50.8455L72.2292 50.6355L71.2192 50.4255L70.2094 50.2155L69.1993 50.0055L68.1793 49.7955L67.1593 49.5855L66.1393 49.3755L65.1193 49.1655L64.0892 48.9555L63.0593 48.7455L62.0293 48.5355L60.9993 48.3255L59.9692 48.1155L58.9393 47.9055L57.9093 47.6955L56.8793 47.4855L55.8492 47.2755L54.8193 47.0655L53.7893 46.8555L52.7593 46.6455L51.7393 46.4355L50.7192 46.2255L49.6993 46.0155L48.6793 45.8055L47.6693 45.5955L46.6593 45.3855L45.6493 45.1755L44.6493 44.9655L43.6493 44.7555L42.6593 44.5555L41.6693 44.3555L40.6893 44.1555L39.7094 43.9555L38.7393 43.7555L37.7793 43.5555L36.8193 43.3555L35.8693 43.1555L34.9293 42.9655L33.9893 42.7755L33.0593 42.5855L32.1393 42.3955L31.2292 42.2055L30.3293 42.0155L29.4393 41.8355L28.5593 41.6555L27.6893 41.4755L26.8293 41.2955L25.9792 41.1155L25.1393 40.9455L24.3093 40.7755L23.4893 40.6055L22.6793 40.4355L21.8793 40.2755L21.0892 40.1155L20.3193 39.9555L19.5593 39.7955L18.8093 39.6455L18.0793 39.4955L17.3593 39.3455L16.6493 39.1955L15.9594 39.0555L15.2793 38.9155L14.6193 38.7755L13.9692 38.6455L13.3392 38.5155L12.7292 38.3855L12.1293 38.2655L11.5493 38.1455L10.9792 38.0255L10.4293 37.9155L9.89929 37.8055L9.38928 37.6955L8.89929 37.5955L8.41931 37.4955L7.95935 37.4055L7.51929 37.3155L7.09924 37.2255L6.69934 37.1455L6.31934 37.0655L5.95935 36.9955L5.61926 36.9255L5.29932 36.8555L4.99927 36.7955L4.71924 36.7355L4.46924 36.6855L4.23926 36.6355L4.0293 36.5955L3.83923 36.5555L3.67932 36.5255L3.53931 36.4955L3.41931 36.4755L3.32935 36.4555H3.25928C3.25928 36.4555 3.22934 36.4355 3.19934 36.4255C2.22934 36.2255 0.799316 36.0055 0.299316 34.2255L0.249268 33.7955L6.6593 2.49552C6.8593 1.52552 7.80931 0.895507 8.78931 1.09551L122.289 24.3355C123.259 24.5355 123.889 25.4855 123.689 26.4655L117.069 58.1155C117.069 58.1555 116.989 58.2255 116.959 58.2555C116.919 58.3055 116.889 58.3555 116.849 58.4055C116.779 58.4955 116.699 58.5955 116.619 58.6855C116.459 58.8655 116.279 59.0255 116.069 59.1455C115.829 59.2955 115.549 59.4055 115.269 59.4455C115.209 59.4455 115.159 59.4555 115.109 59.4555L115.139 59.4355Z" fill="#4C4C48"/>
<path d="M122.484 23.5985L8.97783 0.361027C8.00392 0.161643 7.05272 0.789515 6.85334 1.76343L0.361047 33.4757C0.161662 34.4496 0.789592 35.4007 1.7635 35.6001L115.269 58.8376C116.243 59.037 117.194 58.4091 117.394 57.4352L123.886 25.7229C124.085 24.749 123.457 23.7979 122.484 23.5985Z" fill="#6B6B6A"/>
<path d="M74.3514 27.902L51.8383 23.293C50.6534 23.0504 49.4962 23.8144 49.2536 24.9993L48.1926 30.1818C47.9501 31.3667 48.7139 32.5239 49.8989 32.7665L72.4119 37.3755C73.5968 37.6181 74.7541 36.8542 74.9967 35.6693L76.0577 30.4867C76.3003 29.3018 75.5363 28.1446 74.3514 27.902Z" fill="#4C4C4B"/>
<path d="M74.5165 27.0632L52.0035 22.4542C50.8185 22.2116 49.6613 22.9755 49.4187 24.1604L48.3577 29.3429C48.1151 30.5279 48.8791 31.6851 50.064 31.9277L72.577 36.5367C73.762 36.7793 74.9193 36.0154 75.1618 34.8304L76.2228 29.6479C76.4654 28.463 75.7014 27.3058 74.5165 27.0632Z" fill="#7F7F7A"/>
<path d="M27.8193 44.2155C25.2693 43.6955 23.5493 43.2555 22.6593 42.8855C21.7593 42.5155 21.5892 42.2155 22.1392 41.9855C22.6992 41.7555 23.7393 41.6955 25.2693 41.8155C26.7993 41.9355 28.8693 42.2655 31.4593 42.7855C34.0393 43.3155 35.7592 43.7655 36.6292 44.1355C37.4992 44.5055 37.6293 44.7955 37.0293 45.0155C36.4393 45.2355 35.3892 45.2855 33.8792 45.1655C32.3692 45.0455 30.3493 44.7255 27.8193 44.2155ZM28.2693 44.0355C29.2593 44.2355 30.0792 44.3755 30.7492 44.4655C31.4192 44.5455 31.9693 44.5855 32.4093 44.5855C32.8493 44.5855 33.1692 44.5355 33.3792 44.4555L33.9892 44.2255C34.2092 44.1455 34.2592 44.0455 34.1392 43.9255C34.0192 43.8055 33.7192 43.6755 33.2192 43.5155C32.7192 43.3555 31.9792 43.1855 30.9792 42.9755C29.9992 42.7755 29.1592 42.6355 28.4692 42.5455C27.7792 42.4555 27.2193 42.4155 26.7793 42.4255C26.3393 42.4255 26.0193 42.4755 25.8093 42.5555L25.2192 42.7955C25.0192 42.8755 24.9792 42.9755 25.0992 43.0955C25.2192 43.2155 25.5393 43.3555 26.0493 43.5055C26.5593 43.6655 27.2992 43.8355 28.2592 44.0355H28.2693Z" fill="#B2B2AB"/>
<path d="M45.3691 47.7755C42.8791 47.2655 41.2091 46.8355 40.3591 46.4855C39.5091 46.1255 39.3891 45.8355 39.9791 45.6255C40.5791 45.4055 41.6492 45.3555 43.1792 45.4855C44.7092 45.6055 46.7491 45.9255 49.2891 46.4455C51.8091 46.9655 53.4792 47.3955 54.3092 47.7555C55.1292 48.1155 55.2092 48.3955 54.5692 48.5955C53.9292 48.8055 52.8591 48.8455 51.3491 48.7155C49.8391 48.5955 47.8491 48.2755 45.3691 47.7755ZM45.8491 47.6155C46.8191 47.8155 47.6291 47.9555 48.2891 48.0355C48.9491 48.1155 49.5092 48.1555 49.9492 48.1555C50.3892 48.1555 50.7292 48.1155 50.9592 48.0355L51.6191 47.8155C51.8491 47.7355 51.9192 47.6455 51.8192 47.5255C51.7192 47.4155 51.4292 47.2755 50.9592 47.1255C50.4792 46.9755 49.7591 46.7955 48.7791 46.5955C47.8191 46.3955 46.9992 46.2555 46.3092 46.1755C45.6192 46.0855 45.0591 46.0455 44.6191 46.0455C44.1791 46.0455 43.8391 46.0855 43.6191 46.1655L42.9791 46.3955C42.7591 46.4755 42.6992 46.5655 42.8092 46.6855C42.9092 46.7955 43.2092 46.9355 43.6992 47.0855C44.1892 47.2355 44.8991 47.4055 45.8491 47.6055V47.6155Z" fill="#B2B2AB"/>
<path d="M58.3393 50.4155C57.6793 50.2855 57.2094 50.1655 56.9494 50.0755C56.6894 49.9855 56.6094 49.9255 56.7094 49.8955L56.7893 49.8655C56.8993 49.8355 57.1494 49.8355 57.5494 49.8855C57.9494 49.9355 58.4893 50.0255 59.1493 50.1555C59.8493 50.2955 60.3294 50.4155 60.5794 50.4955C60.8294 50.5755 60.8893 50.6355 60.7793 50.6755L60.6894 50.7055C60.5794 50.7355 60.3394 50.7355 59.9494 50.6955C59.5594 50.6555 59.0194 50.5655 58.3194 50.4155H58.3393ZM60.5893 49.7155C59.9193 49.5755 59.4494 49.4655 59.1894 49.3755C58.9194 49.2855 58.8394 49.2255 58.9494 49.1855L59.0393 49.1555C59.1493 49.1255 59.4094 49.1255 59.8194 49.1755C60.2294 49.2255 60.7694 49.3155 61.4394 49.4555C62.1494 49.5955 62.6293 49.7155 62.8693 49.8055C63.1093 49.8955 63.1794 49.9555 63.0694 49.9855L62.9793 50.0155C62.8693 50.0455 62.6193 50.0455 62.2393 50.0055C61.8493 49.9655 61.2993 49.8655 60.5993 49.7255L60.5893 49.7155Z" fill="#B2B2AB"/>
<path d="M71.1393 53.0155C68.7193 52.5255 67.1293 52.1055 66.3593 51.7755C65.5893 51.4455 65.5294 51.1655 66.1894 50.9655C66.8594 50.7655 67.9593 50.7255 69.4893 50.8555C71.0193 50.9855 73.0193 51.2955 75.4693 51.7955C77.9093 52.2955 79.5093 52.7155 80.2593 53.0555C80.9993 53.3955 81.0194 53.6555 80.3194 53.8455C79.6194 54.0355 78.5193 54.0655 77.0093 53.9355C75.4993 53.8055 73.5493 53.5055 71.1393 53.0155ZM71.6794 52.8655C72.6194 53.0555 73.4094 53.1955 74.0694 53.2755C74.7294 53.3555 75.2793 53.3955 75.7293 53.4055C76.1793 53.4055 76.5293 53.3755 76.7893 53.3055L77.5193 53.1055C77.7793 53.0355 77.8694 52.9455 77.7994 52.8355C77.7294 52.7255 77.4693 52.6055 77.0193 52.4555C76.5693 52.3055 75.8694 52.1455 74.9294 51.9455C73.9994 51.7555 73.1993 51.6155 72.5193 51.5355C71.8393 51.4455 71.2794 51.4055 70.8194 51.4055C70.3594 51.4055 70.0193 51.4455 69.7693 51.5155L69.0594 51.7255C68.8194 51.7955 68.7294 51.8855 68.8094 51.9955C68.8894 52.1055 69.1593 52.2255 69.6193 52.3755C70.0793 52.5155 70.7694 52.6855 71.6894 52.8755L71.6794 52.8655Z" fill="#B2B2AB"/>
<path d="M87.7992 56.3955C85.4292 55.9155 83.8792 55.5055 83.1592 55.1855C82.4392 54.8655 82.4192 54.5955 83.1192 54.4155C83.8292 54.2255 84.9491 54.1955 86.4791 54.3255C88.0091 54.4555 89.9792 54.7655 92.3892 55.2555C94.7792 55.7455 96.3292 56.1555 97.0292 56.4855C97.7292 56.8155 97.6993 57.0655 96.9593 57.2455C96.2193 57.4255 95.0991 57.4455 93.5891 57.3155C92.0791 57.1855 90.1492 56.8855 87.7992 56.4055V56.3955ZM88.3692 56.2555C89.2892 56.4455 90.0691 56.5755 90.7191 56.6555C91.3691 56.7355 91.9292 56.7855 92.3892 56.7855C92.8492 56.7855 93.2091 56.7555 93.4791 56.6955L94.2492 56.5055C94.5192 56.4355 94.6292 56.3555 94.5792 56.2555C94.5192 56.1555 94.2791 56.0355 93.8491 55.8955C93.4191 55.7555 92.7392 55.5955 91.8092 55.4055C90.8992 55.2155 90.1092 55.0855 89.4392 54.9955C88.7692 54.9055 88.1992 54.8655 87.7392 54.8655C87.2792 54.8655 86.9192 54.8955 86.6492 54.9655L85.8992 55.1555C85.6392 55.2255 85.5391 55.3055 85.5991 55.4055C85.6591 55.5055 85.9092 55.6255 86.3592 55.7755C86.7992 55.9155 87.4692 56.0755 88.3692 56.2555Z" fill="#B2B2AB"/>
</svg>
