<svg width="308" height="276" viewBox="0 0 308 276" fill="none" xmlns="http://www.w3.org/2000/svg">
<path d="M180.08 239.849H125.95V275.449H180.08V239.849Z" fill="#FCE8E1"/>
<path d="M153.15 268.669C201.29 268.669 242.26 258.719 242.26 258.719L247.35 252.929L253.37 257.559H272.35C273.57 243.189 273.74 211.269 273.74 211.269L277.91 192.059H28.6299L32.5599 211.269C32.5599 211.269 33.2999 240.649 33.9499 257.559H52.9299L58.9499 252.929L64.0399 258.719C64.0399 258.719 105.01 268.669 153.15 268.669Z" fill="url(#paint0_linear_353_1882)"/>
<path d="M38.6999 212.649C58.919 212.649 75.3099 196.258 75.3099 176.039C75.3099 155.82 58.919 139.429 38.6999 139.429C18.4807 139.429 2.08984 155.82 2.08984 176.039C2.08984 196.258 18.4807 212.649 38.6999 212.649Z" fill="url(#paint1_linear_353_1882)"/>
<path d="M270.65 212.649C290.869 212.649 307.26 196.258 307.26 176.039C307.26 155.82 290.869 139.429 270.65 139.429C250.431 139.429 234.04 155.82 234.04 176.039C234.04 196.258 250.431 212.649 270.65 212.649Z" fill="url(#paint2_linear_353_1882)"/>
<path d="M153.02 257.819C223.69 257.819 280.98 200.529 280.98 129.859C280.98 59.1884 223.69 1.89877 153.02 1.89877C82.3497 1.89877 25.0601 59.1884 25.0601 129.859C25.0601 200.529 82.3497 257.819 153.02 257.819Z" fill="url(#paint3_linear_353_1882)"/>
<path d="M138.53 220.469H167.11" stroke="#191718" stroke-width="3.58" stroke-miterlimit="10" stroke-linecap="round"/>
<path d="M284.71 84.1988C288.14 84.3288 291.96 83.8788 295.9 82.3488C295.9 82.3488 282.94 73.6688 271.53 59.0288C266.62 52.0488 261.82 46.6488 259.15 43.6288C259.15 43.6288 252.61 36.5888 246.16 30.5588C213.07 -0.331223 172.65 -0.231234 153.63 0.0487663C134.61 -0.231234 94.19 -0.331223 61.1 30.5588C53.62 37.5388 40.76 49.3888 27.38 72.7988C21.7 82.7388 15.71 93.3188 8.76996 102.419L0 112.309L18.56 111.119C17.27 118.179 16.61 125.439 16.61 132.839C16.61 153.409 19.12 167.389 28.22 184.609H48.99C47.87 166.169 50.87 143.499 50.87 143.499C52.41 156.859 54.86 173.329 56.62 184.609L80.51 185.269L84.87 128.539C84.28 141.709 86.76 165.579 90.58 185.009H156.11V184.989L279.05 184.599C281.52 180.019 284.62 173.419 287 165.099C288.74 159.009 292.71 148.279 292.54 131.659C292.36 114.819 290.32 100.389 284.72 84.1788L284.71 84.1988Z" fill="url(#paint4_linear_353_1882)"/>
<defs>
<linearGradient id="paint0_linear_353_1882" x1="153.26" y1="192.059" x2="153.26" y2="268.669" gradientUnits="userSpaceOnUse">
<stop stop-color="#110F10"/>
<stop offset="1" stop-color="#453333"/>
</linearGradient>
<linearGradient id="paint1_linear_353_1882" x1="4.95984" y1="176.039" x2="78.1699" y2="176.039" gradientUnits="userSpaceOnUse">
<stop stop-color="#FCE8E1"/>
<stop offset="0.22" stop-color="#FDD5C8"/>
<stop offset="0.46" stop-color="#FEC7B6"/>
<stop offset="0.71" stop-color="#FEBFAC"/>
<stop offset="1" stop-color="#FFBDA9"/>
</linearGradient>
<linearGradient id="paint2_linear_353_1882" x1="307.26" y1="-206.381" x2="234.05" y2="-206.381" gradientUnits="userSpaceOnUse">
<stop stop-color="#FCE8E1"/>
<stop offset="0.22" stop-color="#FDD5C8"/>
<stop offset="0.46" stop-color="#FEC7B6"/>
<stop offset="0.71" stop-color="#FEBFAC"/>
<stop offset="1" stop-color="#FFBDA9"/>
</linearGradient>
<linearGradient id="paint3_linear_353_1882" x1="153.02" y1="257.819" x2="153.02" y2="102.819" gradientUnits="userSpaceOnUse">
<stop stop-color="#FCE8E1"/>
<stop offset="0.79" stop-color="#FEC0AD"/>
<stop offset="0.85" stop-color="#FFBDA9"/>
</linearGradient>
<linearGradient id="paint4_linear_353_1882" x1="147.95" y1="0.00876649" x2="147.95" y2="185.279" gradientUnits="userSpaceOnUse">
<stop offset="0.3" stop-color="#453333"/>
<stop offset="0.5" stop-color="#403030"/>
<stop offset="0.69" stop-color="#342728"/>
<stop offset="0.88" stop-color="#20191A"/>
<stop offset="1" stop-color="#110F10"/>
</linearGradient>
</defs>
</svg>
