<svg width="106" height="106" viewBox="0 0 106 106" fill="none" xmlns="http://www.w3.org/2000/svg">
<path d="M52.82 0C23.65 0 0 23.65 0 52.82C0 81.99 23.65 105.64 52.82 105.64C81.99 105.64 105.64 81.99 105.64 52.82C105.64 23.65 81.99 0 52.82 0ZM52.82 78.3C38.75 78.3 27.34 66.89 27.34 52.82C27.34 38.75 38.75 27.34 52.82 27.34C66.89 27.34 78.3 38.75 78.3 52.82C78.3 66.89 66.89 78.3 52.82 78.3Z" fill="#7F7F7F"/>
<path d="M52.8199 67.45C60.8999 67.45 67.45 60.8999 67.45 52.82C67.45 44.7401 60.8999 38.19 52.8199 38.19C44.74 38.19 38.1899 44.7401 38.1899 52.82C38.1899 60.8999 44.74 67.45 52.8199 67.45Z" fill="#C6C6C6"/>
<path d="M73.6346 38.0607L72.1421 36.1558L32.0289 67.5859L33.5215 69.4908L73.6346 38.0607Z" fill="#5D5E5E"/>
<path d="M72.13 69.4792L73.6226 67.5743L33.5094 36.1442L32.0168 38.0491L72.13 69.4792Z" fill="#5D5E5E"/>
</svg>
