<svg width="69" height="88" viewBox="0 0 69 88" fill="none" xmlns="http://www.w3.org/2000/svg">
<path d="M68.028 -2.49073e-06L0 0.510551L0.65097 87.2481L68.679 86.7375L68.028 -2.49073e-06Z" fill="#4A3D60"/>
<path d="M11.2483 19.8476H44.3582C45.3282 19.8476 45.3282 18.3476 44.3582 18.3476H11.2483C10.2783 18.3476 10.2783 19.8476 11.2483 19.8476Z" fill="#5C467F"/>
<path d="M51.0784 19.2476L57.2983 19.0076C57.6983 18.9876 58.0483 18.6776 58.0483 18.2576C58.0483 17.8676 57.7083 17.4876 57.2983 17.5076L51.0784 17.7476C50.6784 17.7676 50.3284 18.0776 50.3284 18.4976C50.3284 18.8876 50.6684 19.2676 51.0784 19.2476Z" fill="#5C467F"/>
<path d="M11.4183 29.4376C26.0883 28.7676 40.7684 28.5376 55.4484 28.7376C56.4184 28.7476 56.4184 27.2476 55.4484 27.2376C40.7684 27.0276 26.0883 27.2676 11.4183 27.9376C10.4583 27.9776 10.4483 29.4776 11.4183 29.4376Z" fill="#5C467F"/>
<path d="M11.7285 42.0876C12.7485 41.1776 14.5184 41.4976 15.7784 41.4976C17.3884 41.4976 18.9985 41.5176 20.5985 41.5276C23.8085 41.5576 27.0185 41.5876 30.2185 41.6376C36.7185 41.7276 43.2185 41.8676 49.7085 42.0376C50.6785 42.0676 50.6685 40.5676 49.7085 40.5376C42.7185 40.3476 35.7284 40.2076 28.7384 40.1176C25.2884 40.0676 21.8284 40.0376 18.3784 40.0176C16.8184 40.0076 15.2484 39.9576 13.6884 39.9976C12.5284 40.0276 11.5384 40.2476 10.6584 41.0276C9.93842 41.6676 10.9985 42.7276 11.7185 42.0876H11.7285Z" fill="#5C467F"/>
<path d="M57.1284 41.7276C58.0984 41.7276 58.0984 40.2276 57.1284 40.2276C56.1584 40.2276 56.1584 41.7276 57.1284 41.7276Z" fill="#5C467F"/>
</svg>
