<svg width="68" height="98" viewBox="0 0 68 98" fill="none" xmlns="http://www.w3.org/2000/svg">
<path d="M59.5058 8.51397L26.1086 1.67672C21.5853 0.750692 17.1678 3.66686 16.2417 8.19014L1.67671 79.3345C0.750678 83.8578 3.66681 88.2754 8.19009 89.2014L41.5874 96.0386C46.1106 96.9647 50.5282 94.0485 51.4542 89.5252L66.0192 18.3808C66.9453 13.8576 64.0291 9.44 59.5058 8.51397Z" fill="#3E4D8C" stroke="#1A1A1A" stroke-width="2" stroke-miterlimit="10"/>
<path d="M34.4689 26.497C35.324 22.32 32.6443 18.2434 28.4835 17.3916C24.3227 16.5398 20.2565 19.2353 19.4014 23.4123C18.5463 27.5893 21.226 31.6661 25.3868 32.5179C29.5475 33.3697 33.6138 30.674 34.4689 26.497Z" fill="#BAAB3F"/>
<path d="M52.1417 81.0812L50.5117 89.0412C49.6217 93.4012 45.3717 96.2212 41.0217 95.3312L9.96167 88.9712L39.5518 48.4612L52.1317 81.0912L52.1417 81.0812Z" fill="#AA9B59"/>
<path d="M39.5518 48.4612L9.96166 88.9712L8.93176 88.7612C4.58176 87.8712 1.77175 83.6112 2.67175 79.2512L3.16174 76.8812L39.5518 48.4612Z" fill="#6D6339"/>
<path d="M25.9017 25.2412C24.9217 25.0412 24.2817 24.5212 23.9817 23.6812C23.6817 22.8412 23.6718 21.7512 23.9418 20.4112C24.2118 19.0712 24.6517 18.0712 25.2617 17.4212C25.8617 16.7712 26.6517 16.5412 27.6317 16.7412C28.6117 16.9412 29.2517 17.4612 29.5517 18.3012C29.8517 19.1412 29.8617 20.2212 29.5917 21.5712C29.3217 22.9212 28.8817 23.9112 28.2717 24.5612C27.6717 25.2112 26.8717 25.4412 25.8917 25.2412H25.9017ZM26.0718 24.3912C26.5018 24.4812 26.8717 24.4312 27.1817 24.2512C27.4917 24.0712 27.7418 23.7912 27.9518 23.4012C28.1618 23.0112 28.3117 22.5612 28.4217 22.0312L28.6918 20.6912C28.8018 20.1612 28.8317 19.6712 28.8017 19.2412C28.7617 18.8112 28.6417 18.4512 28.4317 18.1712C28.2217 17.8812 27.9017 17.7012 27.4717 17.6112C27.0517 17.5212 26.6817 17.5712 26.3717 17.7512C26.0617 17.9312 25.8017 18.2112 25.6017 18.5912C25.4017 18.9712 25.2417 19.4312 25.1317 19.9612L24.8617 21.3012C24.7517 21.8312 24.7217 22.3112 24.7517 22.7412C24.7917 23.1812 24.9217 23.5412 25.1317 23.8212C25.3517 24.1112 25.6717 24.2912 26.0917 24.3812L26.0718 24.3912Z" fill="#B3B3B3"/>
<path d="M32.9518 26.6912C31.9718 26.4912 31.3318 25.9712 31.0318 25.1312C30.7318 24.2912 30.7218 23.2112 30.9918 21.8612C31.2618 20.5212 31.7018 19.5212 32.3118 18.8712C32.9118 18.2212 33.7018 17.9912 34.6818 18.1912C35.6618 18.3912 36.3017 18.9112 36.6017 19.7512C36.9017 20.5912 36.9118 21.6712 36.6418 23.0212C36.3718 24.3712 35.9318 25.3612 35.3218 26.0112C34.7218 26.6612 33.9318 26.8912 32.9418 26.6912H32.9518ZM33.1318 25.8312C33.5618 25.9212 33.9318 25.8712 34.2418 25.6912C34.5518 25.5112 34.8018 25.2312 35.0118 24.8412C35.2218 24.4512 35.3717 24.0012 35.4817 23.4712L35.7518 22.1312C35.8618 21.6012 35.9017 21.1112 35.8617 20.6812C35.8217 20.2512 35.7018 19.8912 35.4918 19.6112C35.2818 19.3212 34.9618 19.1412 34.5318 19.0512C34.1118 18.9612 33.7418 19.0112 33.4318 19.1912C33.1218 19.3712 32.8618 19.6512 32.6618 20.0312C32.4618 20.4112 32.3018 20.8712 32.1918 21.4012L31.9218 22.7412C31.8118 23.2712 31.7818 23.7512 31.8118 24.1812C31.8518 24.6212 31.9818 24.9812 32.1918 25.2612C32.4118 25.5512 32.7318 25.7312 33.1518 25.8212L33.1318 25.8312Z" fill="#B3B3B3"/>
<path d="M38.1919 27.7612C37.9519 27.7112 37.7819 27.6112 37.6919 27.4512C37.6019 27.3012 37.5718 27.1212 37.6118 26.9312L37.6419 26.7812C37.6819 26.5812 37.7719 26.4212 37.9219 26.3212C38.0619 26.2212 38.2619 26.1912 38.5019 26.2412C38.7519 26.2912 38.9219 26.3912 39.0119 26.5412C39.1019 26.6912 39.1218 26.8612 39.0818 27.0712L39.0519 27.2212C39.0119 27.4212 38.9219 27.5712 38.7819 27.6712C38.6419 27.7812 38.4519 27.8012 38.2019 27.7512L38.1919 27.7612ZM39.1819 22.9312C38.9419 22.8812 38.7719 22.7812 38.6819 22.6312C38.5919 22.4812 38.5618 22.3012 38.6018 22.1112L38.6319 21.9612C38.6719 21.7612 38.7619 21.6012 38.9119 21.5012C39.0519 21.4012 39.2519 21.3712 39.4919 21.4212C39.7419 21.4712 39.9119 21.5712 40.0019 21.7212C40.0919 21.8712 40.1119 22.0512 40.0719 22.2512L40.0419 22.4012C40.0019 22.6012 39.9119 22.7512 39.7719 22.8512C39.6319 22.9612 39.4419 22.9812 39.1919 22.9312H39.1819Z" fill="#B3B3B3"/>
<path d="M43.4418 28.8412C42.4618 28.6412 41.8218 28.1212 41.5218 27.2812C41.2218 26.4412 41.2117 25.3512 41.4817 24.0112C41.7517 22.6712 42.1918 21.6712 42.8018 21.0212C43.4018 20.3712 44.1918 20.1412 45.1718 20.3412C46.1518 20.5412 46.7917 21.0612 47.0917 21.9012C47.3917 22.7412 47.4018 23.8212 47.1318 25.1612C46.8618 26.5012 46.4218 27.5012 45.8118 28.1512C45.2018 28.8012 44.4218 29.0312 43.4418 28.8312V28.8412ZM43.6117 27.9812C44.0417 28.0712 44.4117 28.0212 44.7217 27.8512C45.0317 27.6712 45.2818 27.3912 45.4918 27.0012C45.7018 26.6112 45.8517 26.1612 45.9617 25.6312L46.2317 24.2912C46.3417 23.7612 46.3717 23.2812 46.3417 22.8412C46.3017 22.4112 46.1817 22.0512 45.9717 21.7612C45.7617 21.4812 45.4418 21.2912 45.0118 21.2012C44.5918 21.1112 44.2218 21.1612 43.9118 21.3412C43.6018 21.5212 43.3418 21.8012 43.1418 22.1812C42.9318 22.5612 42.7818 23.0212 42.6718 23.5512L42.4018 24.8912C42.2918 25.4212 42.2618 25.8912 42.2918 26.3312C42.3218 26.7712 42.4518 27.1312 42.6718 27.4112C42.8918 27.7012 43.2118 27.8812 43.6318 27.9712L43.6117 27.9812Z" fill="#B3B3B3"/>
<path d="M50.4918 30.2812C49.5118 30.0812 48.8718 29.5612 48.5718 28.7212C48.2718 27.8812 48.2618 26.8012 48.5318 25.4512C48.8018 24.1012 49.2417 23.1112 49.8517 22.4612C50.4517 21.8112 51.2417 21.5812 52.2217 21.7812C53.2017 21.9812 53.8418 22.5012 54.1418 23.3412C54.4418 24.1812 54.4518 25.2712 54.1818 26.6112C53.9118 27.9512 53.4717 28.9512 52.8617 29.6012C52.2617 30.2512 51.4718 30.4812 50.4918 30.2812ZM50.6718 29.4212C51.1018 29.5112 51.4718 29.4612 51.7818 29.2812C52.0918 29.1012 52.3418 28.8212 52.5518 28.4312C52.7618 28.0412 52.9118 27.5912 53.0218 27.0612L53.2918 25.7212C53.4018 25.1912 53.4318 24.7012 53.4018 24.2712C53.3618 23.8412 53.2418 23.4812 53.0318 23.1912C52.8218 22.9112 52.5018 22.7212 52.0718 22.6312C51.6518 22.5412 51.2817 22.5912 50.9717 22.7712C50.6617 22.9512 50.4018 23.2312 50.2018 23.6112C49.9918 23.9912 49.8417 24.4512 49.7317 24.9812L49.4617 26.3212C49.3517 26.8512 49.3217 27.3312 49.3517 27.7612C49.3817 28.1912 49.5117 28.5612 49.7317 28.8412C49.9517 29.1312 50.2718 29.3112 50.6918 29.4012L50.6718 29.4212Z" fill="#B3B3B3"/>
<path d="M28.4318 13.9012C28.3018 13.8712 28.2017 13.8212 28.1317 13.7512C28.0617 13.6812 28.0117 13.5912 27.9917 13.5012L28.1918 13.4512C28.1918 13.4512 28.2217 13.5412 28.2417 13.5712C28.2617 13.6112 28.2917 13.6412 28.3317 13.6612C28.3717 13.6812 28.4117 13.7012 28.4617 13.7112C28.5617 13.7312 28.6517 13.7112 28.7317 13.6512C28.8117 13.5912 28.8617 13.4912 28.8917 13.3612L28.9418 13.0912C28.9718 12.9612 28.9617 12.8412 28.9117 12.7612C28.8617 12.6812 28.7918 12.6212 28.6818 12.6012C28.6018 12.5812 28.5417 12.5912 28.4717 12.6112C28.4117 12.6312 28.3618 12.6812 28.3218 12.7412L28.1617 12.6212C28.2217 12.5412 28.2917 12.4812 28.3917 12.4412C28.4817 12.4012 28.5917 12.3912 28.7217 12.4212C28.9117 12.4612 29.0417 12.5512 29.1017 12.6912C29.1717 12.8312 29.1717 13.0212 29.1217 13.2612C29.0717 13.5012 28.9917 13.6712 28.8717 13.7812C28.7517 13.8912 28.6017 13.9212 28.4117 13.8812L28.4318 13.9012Z" fill="#B3B3B3"/>
<path d="M29.0618 12.3312C28.9618 12.3112 28.8917 12.2812 28.8617 12.2312C28.8217 12.1812 28.8217 12.1112 28.8317 12.0312V11.9612L29.0318 12.0012L29.0018 12.1612L29.5817 12.2812L29.5518 12.4412L29.0618 12.3412V12.3312Z" fill="#B3B3B3"/>
<path d="M29.7817 14.1812C29.6417 14.1512 29.5317 14.0812 29.4717 13.9712C29.4017 13.8612 29.3917 13.7212 29.4217 13.5512L29.6117 12.6512L29.8117 12.6912L29.6317 13.5612C29.6017 13.6812 29.6117 13.7912 29.6517 13.8612C29.6917 13.9412 29.7717 13.9812 29.8717 14.0112C29.9317 14.0212 29.9917 14.0212 30.0417 14.0112C30.1017 14.0112 30.1417 13.9812 30.1917 13.9512C30.2317 13.9212 30.2617 13.8712 30.2717 13.8112L30.4717 12.8312L30.6717 12.8712L30.3817 14.2812L30.1817 14.2412L30.2317 14.0112H30.2217C30.2217 14.0112 30.1617 14.0912 30.1217 14.1212C30.0817 14.1512 30.0317 14.1812 29.9817 14.1912C29.9217 14.2012 29.8617 14.2012 29.7817 14.1912V14.1812Z" fill="#B3B3B3"/>
<path d="M31.0518 14.4112C30.9818 14.4012 30.9318 14.3712 30.9118 14.3212C30.8818 14.2712 30.8717 14.2212 30.8917 14.1612L31.1417 12.9612L31.3417 13.0012L31.0917 14.2312L31.3417 14.2812L31.3018 14.4512L31.0518 14.4012V14.4112Z" fill="#B3B3B3"/>
<path d="M31.9416 14.5912C31.8016 14.5612 31.6915 14.5012 31.6215 14.4212C31.5515 14.3312 31.5316 14.2212 31.5616 14.0912C31.5816 14.0012 31.6216 13.9212 31.6716 13.8712C31.7316 13.8212 31.8016 13.7812 31.8916 13.7712C31.9816 13.7612 32.1015 13.7712 32.2315 13.7912L32.6115 13.8712L32.5716 14.0512L32.1516 13.9612C32.0416 13.9412 31.9516 13.9412 31.8916 13.9612C31.8316 13.9812 31.7916 14.0312 31.7816 14.0912V14.1512C31.7516 14.2212 31.7716 14.2812 31.8116 14.3212C31.8516 14.3612 31.9216 14.3912 32.0016 14.4112L32.1215 14.4312L32.0815 14.6112L31.9316 14.5812L31.9416 14.5912ZM32.3715 14.6812L32.5516 13.7812C32.5816 13.6612 32.5716 13.5612 32.5216 13.4912C32.4716 13.4212 32.3916 13.3812 32.2716 13.3512C32.1816 13.3312 32.1016 13.3412 32.0316 13.3712C31.9616 13.4012 31.9015 13.4412 31.8515 13.5012L31.7516 13.3512C31.8216 13.2812 31.9016 13.2312 32.0016 13.1912C32.1016 13.1612 32.2115 13.1512 32.3315 13.1812C32.4115 13.2012 32.4716 13.2212 32.5316 13.2512C32.5916 13.2812 32.6316 13.3212 32.6716 13.3712C32.7316 13.4312 32.7616 13.4912 32.7816 13.5712C32.7916 13.6412 32.7916 13.7212 32.7816 13.8112L32.5915 14.7312L32.3916 14.6912L32.3715 14.6812ZM32.7016 13.4612L32.5915 13.4012L32.6115 13.3012C32.6115 13.3012 32.6416 13.2412 32.6716 13.2212C32.7016 13.2012 32.7416 13.2012 32.7816 13.2112L33.0116 13.2612L32.9715 13.4312L32.7215 13.3812L32.7016 13.4612Z" fill="#B3B3B3"/>
<path d="M33.5518 14.9212L33.7517 13.9412C33.7717 13.8412 33.7617 13.7712 33.7317 13.7212C33.7017 13.6712 33.6418 13.6312 33.5518 13.6212C33.4718 13.6012 33.4117 13.6112 33.3517 13.6312C33.2917 13.6512 33.2418 13.6912 33.1818 13.7412L33.0718 13.5912C33.1318 13.5212 33.2017 13.4712 33.2917 13.4412C33.3817 13.4112 33.4817 13.4112 33.5817 13.4412C33.7317 13.4712 33.8317 13.5312 33.8917 13.6212C33.9517 13.7112 33.9718 13.8212 33.9418 13.9612L33.7317 14.9712L33.5317 14.9312L33.5518 14.9212Z" fill="#B3B3B3"/>
<path d="M34.6018 15.1612C34.4818 15.1312 34.3819 15.0912 34.3019 15.0212C34.2319 14.9512 34.1718 14.8712 34.1218 14.7712L34.2919 14.6812C34.3319 14.7712 34.3819 14.8312 34.4319 14.8812C34.4919 14.9312 34.5618 14.9612 34.6418 14.9812C34.7218 15.0012 34.8018 14.9812 34.8518 14.9612C34.9118 14.9312 34.9518 14.8812 34.9618 14.8012C34.9718 14.7512 34.9619 14.6912 34.9419 14.6412C34.9219 14.5912 34.8619 14.5512 34.7819 14.5212L34.6719 14.4812C34.5919 14.4512 34.5318 14.4212 34.4718 14.3812C34.4118 14.3412 34.3718 14.2912 34.3418 14.2312C34.3118 14.1712 34.3118 14.1012 34.3318 14.0112C34.3518 13.9212 34.3919 13.8512 34.4419 13.7912C34.4919 13.7312 34.5618 13.7012 34.6418 13.6912C34.7218 13.6712 34.8018 13.6812 34.8918 13.6912C35.0018 13.7112 35.0819 13.7512 35.1519 13.8112C35.2219 13.8712 35.2719 13.9312 35.3219 14.0212L35.1519 14.1212C35.1519 14.1212 35.0919 14.0212 35.0419 13.9712C34.9919 13.9212 34.9218 13.8912 34.8418 13.8712C34.7618 13.8512 34.6918 13.8712 34.6318 13.8912C34.5718 13.9212 34.5419 13.9712 34.5319 14.0412C34.5219 14.1112 34.5319 14.1612 34.5719 14.2112C34.6119 14.2612 34.6718 14.2912 34.7518 14.3212L34.8618 14.3612C35.0018 14.4112 35.0918 14.4712 35.1418 14.5512C35.1918 14.6312 35.2019 14.7212 35.1819 14.8312C35.1519 14.9712 35.0918 15.0712 34.9818 15.1212C34.8818 15.1812 34.7518 15.1912 34.6018 15.1612Z" fill="#B3B3B3"/>
<path d="M35.0217 13.5512L35.0417 13.4812C35.0617 13.3912 35.0917 13.3312 35.1417 13.3012C35.1917 13.2712 35.2717 13.2612 35.3717 13.2812L35.6017 13.3312L35.5718 13.4912L35.2417 13.4212L35.2117 13.5812L35.0217 13.5412V13.5512Z" fill="#B3B3B3"/>
<path d="M35.4319 15.3012L35.7218 13.8912L35.9219 13.9312L35.8718 14.1612C35.8718 14.1612 35.9318 14.0812 35.9718 14.0512C36.0118 14.0212 36.0618 13.9912 36.1218 13.9812C36.1818 13.9712 36.2518 13.9712 36.3318 13.9812C36.4718 14.0112 36.5818 14.0812 36.6418 14.1912C36.7018 14.3012 36.7219 14.4412 36.6919 14.6112L36.5118 15.5112L36.3119 15.4712L36.4918 14.6012C36.5218 14.4712 36.5118 14.3712 36.4718 14.3012C36.4318 14.2212 36.3518 14.1812 36.2518 14.1512C36.1918 14.1412 36.1319 14.1412 36.0719 14.1512C36.0119 14.1512 35.9619 14.1812 35.9219 14.2112C35.8819 14.2412 35.8518 14.2912 35.8418 14.3512L35.6418 15.3312L35.4419 15.2912L35.4319 15.3012Z" fill="#B3B3B3"/>
<path d="M35.8317 13.7112L35.8617 13.5512L36.6517 13.7112L36.6918 13.5012L36.8817 13.5412L36.8417 13.7112C36.8317 13.7812 36.8017 13.8212 36.7617 13.8512C36.7217 13.8812 36.6617 13.8812 36.6017 13.8712L35.8218 13.7112H35.8317Z" fill="#B3B3B3"/>
<path d="M36.7517 13.3612L36.8218 13.0212L36.9917 13.0512L36.9218 13.3912L36.7517 13.3612Z" fill="#B3B3B3"/>
<path d="M37.4818 15.7212L37.5219 15.5112L38.1919 15.1112C38.2919 15.0512 38.3719 14.9912 38.4419 14.9112C38.5119 14.8412 38.5619 14.7612 38.5719 14.6812V14.6512C38.6019 14.5612 38.5819 14.4712 38.5419 14.4012C38.5019 14.3312 38.4319 14.2812 38.3219 14.2612C38.2119 14.2412 38.1319 14.2512 38.0619 14.2912C37.9919 14.3312 37.9419 14.4012 37.9019 14.4712L37.7318 14.3612C37.7718 14.3012 37.8118 14.2412 37.8718 14.1912C37.9318 14.1412 38.0018 14.1012 38.0818 14.0712C38.1618 14.0512 38.2618 14.0412 38.3718 14.0712C38.4818 14.0912 38.5718 14.1312 38.6418 14.1912C38.7118 14.2512 38.7619 14.3212 38.7819 14.4012C38.8119 14.4812 38.8119 14.5712 38.7819 14.6712C38.7619 14.7612 38.7319 14.8412 38.6819 14.9012C38.6319 14.9712 38.5718 15.0312 38.5018 15.0812C38.4318 15.1312 38.3518 15.1912 38.2618 15.2412L37.7118 15.5612L38.6218 15.7512L38.5818 15.9312L37.4519 15.7012L37.4818 15.7212Z" fill="#B3B3B3"/>
<path d="M39.5017 16.1712C39.4017 16.1512 39.3317 16.1212 39.2617 16.0812C39.2017 16.0412 39.1517 15.9912 39.1117 15.9312C39.0717 15.8812 39.0417 15.8212 39.0217 15.7612L39.2018 15.6712C39.2318 15.7512 39.2718 15.8112 39.3118 15.8612C39.3518 15.9112 39.4317 15.9512 39.5317 15.9712C39.6517 15.9912 39.7418 15.9812 39.8218 15.9312C39.8918 15.8812 39.9417 15.8012 39.9717 15.6812V15.6612C40.0017 15.5512 39.9818 15.4512 39.9418 15.3812C39.8918 15.3012 39.8118 15.2612 39.6918 15.2312C39.6118 15.2112 39.5517 15.2212 39.4917 15.2312C39.4317 15.2412 39.3917 15.2812 39.3517 15.3112L39.1818 15.2512L39.4418 14.3112L40.3617 14.5012L40.3218 14.6812L39.5718 14.5312L39.3917 15.1812H39.4117C39.4117 15.1812 39.4817 15.1212 39.5217 15.1012C39.5617 15.0812 39.6017 15.0612 39.6417 15.0612C39.6917 15.0612 39.7418 15.0612 39.8018 15.0612C39.9018 15.0812 39.9818 15.1212 40.0518 15.1812C40.1218 15.2412 40.1718 15.3112 40.1918 15.4012C40.2218 15.4912 40.2218 15.5912 40.1918 15.7012C40.1718 15.8112 40.1218 15.9112 40.0618 15.9812C40.0018 16.0612 39.9218 16.1112 39.8218 16.1412C39.7218 16.1712 39.6117 16.1712 39.4917 16.1412L39.5017 16.1712Z" fill="#B3B3B3"/>
<path d="M41.5117 16.5512C41.3917 16.5312 41.2916 16.4812 41.2216 16.4112C41.1516 16.3412 41.1116 16.2512 41.1016 16.1412C41.0916 16.0312 41.1017 15.8812 41.1317 15.7112C41.1817 15.4712 41.2517 15.3112 41.3617 15.2012C41.4617 15.1012 41.5817 15.0612 41.7317 15.0912L41.8516 15.3012L42.0417 15.1512C42.1117 15.1612 42.1716 15.1912 42.2216 15.2212C42.2716 15.2612 42.3116 15.3012 42.3316 15.3612C42.3516 15.4212 42.3616 15.5012 42.3316 15.5912L42.1117 16.6512L41.9117 16.6112L42.1016 15.6912C42.1216 15.6112 42.1317 15.5412 42.1317 15.5012C42.1317 15.4512 42.1317 15.4212 42.1117 15.4012C42.0917 15.3812 42.0617 15.3612 42.0317 15.3512L41.8017 15.5112L41.6517 15.2712C41.5917 15.2612 41.5317 15.2812 41.4817 15.3512C41.4317 15.4212 41.3917 15.5112 41.3717 15.6312L41.3117 15.9112C41.2817 16.0512 41.2916 16.1512 41.3316 16.2112C41.3716 16.2812 41.4517 16.3212 41.5617 16.3512L41.7017 16.3812L41.6617 16.5612L41.5117 16.5312V16.5512Z" fill="#B3B3B3"/>
<path d="M41.8218 17.3012L41.8917 16.9712L41.7517 16.9412L41.7817 16.7912L41.9017 16.8112C41.9617 16.8212 42.0017 16.8512 42.0317 16.8912C42.0517 16.9312 42.0618 16.9812 42.0518 17.0412L41.9917 17.3312L41.8218 17.2912V17.3012Z" fill="#B3B3B3"/>
<path d="M42.9216 16.8412C42.7816 16.8112 42.6715 16.7512 42.6015 16.6712C42.5315 16.5812 42.5116 16.4712 42.5416 16.3412C42.5616 16.2512 42.6016 16.1712 42.6516 16.1212C42.7116 16.0712 42.7815 16.0312 42.8715 16.0212C42.9615 16.0112 43.0815 16.0212 43.2115 16.0412L43.5915 16.1212L43.5516 16.3012L43.1316 16.2112C43.0216 16.1912 42.9315 16.1912 42.8715 16.2112C42.8115 16.2312 42.7716 16.2812 42.7616 16.3412V16.4012C42.7316 16.4712 42.7416 16.5312 42.7916 16.5712C42.8316 16.6112 42.9015 16.6412 42.9815 16.6612L43.1015 16.6812L43.0616 16.8612L42.9116 16.8312L42.9216 16.8412ZM43.3515 16.9212L43.5316 16.0212C43.5616 15.9012 43.5516 15.8012 43.5016 15.7312C43.4516 15.6612 43.3716 15.6212 43.2516 15.5912C43.1616 15.5712 43.0816 15.5812 43.0116 15.6112C42.9416 15.6412 42.8815 15.6812 42.8315 15.7412L42.7315 15.5912C42.8015 15.5212 42.8815 15.4712 42.9815 15.4312C43.0815 15.4012 43.1916 15.3912 43.3116 15.4212C43.4916 15.4612 43.6116 15.5312 43.6816 15.6312C43.7516 15.7412 43.7715 15.8712 43.7415 16.0312L43.5516 16.9612L43.3515 16.9212Z" fill="#B3B3B3"/>
<path d="M44.5017 17.1612L44.7018 16.1812C44.7218 16.0812 44.7118 16.0112 44.6818 15.9612C44.6518 15.9112 44.5917 15.8712 44.5017 15.8612C44.4217 15.8412 44.3618 15.8512 44.3018 15.8712C44.2418 15.8912 44.1917 15.9312 44.1317 15.9812L44.0217 15.8312C44.0817 15.7612 44.1517 15.7112 44.2417 15.6812C44.3317 15.6512 44.4317 15.6512 44.5317 15.6812C44.6817 15.7112 44.7817 15.7712 44.8417 15.8612C44.9017 15.9512 44.9217 16.0612 44.8917 16.2012L44.6818 17.2112L44.4817 17.1712L44.5017 17.1612Z" fill="#B3B3B3"/>
<path d="M45.1116 17.2812L45.2916 16.3812C45.3216 16.2212 45.4016 16.1012 45.5116 16.0212C45.6216 15.9412 45.7715 15.9212 45.9615 15.9612C46.1515 16.0012 46.2716 16.0712 46.3516 16.1912C46.4316 16.3112 46.4416 16.4412 46.4116 16.6112L46.2316 17.5112L46.0316 17.4712L46.2115 16.5812C46.2315 16.4612 46.2116 16.3612 46.1716 16.2912C46.1216 16.2112 46.0416 16.1612 45.9316 16.1412C45.8216 16.1212 45.7316 16.1412 45.6516 16.1812C45.5716 16.2312 45.5216 16.3212 45.5016 16.4312L45.4316 16.7612C45.4716 16.7012 45.5117 16.6612 45.5717 16.6212C45.6317 16.5812 45.7116 16.5712 45.8016 16.5912L45.9216 16.6112L45.8816 16.8112L45.7017 16.7712C45.7017 16.7712 45.6117 16.7612 45.5717 16.7712C45.5217 16.7712 45.4917 16.8012 45.4517 16.8312C45.4217 16.8612 45.3916 16.9112 45.3816 16.9812L45.3116 17.3212L45.1116 17.2812Z" fill="#B3B3B3"/>
<path d="M47.2418 17.7512C47.1618 17.7312 47.1019 17.7112 47.0619 17.6712C47.0219 17.6312 46.9818 17.5912 46.9618 17.5512C46.9318 17.5012 46.9219 17.4612 46.9119 17.4112L46.8618 17.6412L46.6619 17.6012L46.9519 16.1912L47.1519 16.2312L46.9519 17.2112C46.9419 17.2712 46.9518 17.3212 46.9718 17.3712C46.9918 17.4212 47.0318 17.4612 47.0818 17.4912C47.1318 17.5212 47.1818 17.5412 47.2418 17.5512C47.3518 17.5712 47.4318 17.5512 47.5018 17.5012C47.5718 17.4512 47.6118 17.3612 47.6418 17.2312L47.8219 16.3612L48.0219 16.4012L47.8318 17.3012C47.8018 17.4712 47.7318 17.5912 47.6218 17.6712C47.5118 17.7512 47.3918 17.7712 47.2518 17.7412L47.2418 17.7512Z" fill="#B3B3B3"/>
<path d="M48.7017 18.0212L48.7416 17.8112L49.4116 17.4112C49.5116 17.3512 49.5916 17.2912 49.6616 17.2112C49.7316 17.1412 49.7816 17.0612 49.7916 16.9812V16.9512C49.8216 16.8512 49.8016 16.7712 49.7616 16.7012C49.7216 16.6312 49.6516 16.5812 49.5416 16.5612C49.4316 16.5412 49.3516 16.5512 49.2816 16.6012C49.2116 16.6412 49.1616 16.7112 49.1216 16.7812L48.9517 16.6712C48.9917 16.6112 49.0316 16.5512 49.0916 16.5012C49.1516 16.4512 49.2216 16.4112 49.3016 16.3912C49.3816 16.3612 49.4816 16.3612 49.5916 16.3912C49.7016 16.4112 49.7916 16.4512 49.8616 16.5112C49.9316 16.5712 49.9816 16.6412 50.0016 16.7212C50.0216 16.8012 50.0316 16.8912 50.0016 16.9912C49.9816 17.0812 49.9516 17.1612 49.9016 17.2312C49.8516 17.3012 49.7916 17.3612 49.7216 17.4112C49.6516 17.4612 49.5716 17.5212 49.4816 17.5712L48.9316 17.8912L49.8416 18.0812L49.8016 18.2612L48.6716 18.0312L48.7017 18.0212Z" fill="#B3B3B3"/>
<path d="M50.7316 18.4712C50.5216 18.4312 50.3916 18.3212 50.3316 18.1412C50.2716 17.9612 50.2716 17.7412 50.3316 17.4512C50.3916 17.1712 50.4817 16.9612 50.6117 16.8212C50.7417 16.6812 50.9017 16.6412 51.1117 16.6812C51.3217 16.7212 51.4517 16.8312 51.5117 17.0112C51.5717 17.1912 51.5817 17.4112 51.5117 17.7012C51.4517 17.9812 51.3616 18.1912 51.2316 18.3312C51.1016 18.4712 50.9416 18.5112 50.7316 18.4712ZM50.7617 18.2912C50.8517 18.3112 50.9317 18.2912 50.9917 18.2612C51.0517 18.2212 51.1117 18.1612 51.1517 18.0812C51.1917 18.0012 51.2317 17.9012 51.2517 17.7912L51.3117 17.5112C51.3317 17.4012 51.3416 17.3012 51.3316 17.2112C51.3316 17.1212 51.2917 17.0412 51.2517 16.9812C51.2117 16.9212 51.1417 16.8812 51.0517 16.8612C50.9617 16.8412 50.8817 16.8612 50.8217 16.8912C50.7617 16.9312 50.7017 16.9912 50.6617 17.0712C50.6217 17.1512 50.5817 17.2512 50.5617 17.3612L50.5017 17.6412C50.4817 17.7512 50.4716 17.8512 50.4816 17.9412C50.4816 18.0312 50.5117 18.1112 50.5617 18.1712C50.6117 18.2312 50.6717 18.2712 50.7617 18.2912Z" fill="#B3B3B3"/>
<path d="M51.6616 18.6312L51.7017 18.4212L52.3716 18.0212C52.4716 17.9612 52.5516 17.9012 52.6216 17.8212C52.6916 17.7512 52.7416 17.6712 52.7516 17.5912V17.5612C52.7816 17.4612 52.7616 17.3812 52.7216 17.3112C52.6816 17.2412 52.6116 17.1912 52.5016 17.1712C52.3916 17.1512 52.3116 17.1612 52.2416 17.2012C52.1716 17.2412 52.1215 17.3112 52.0815 17.3812L51.9116 17.2712C51.9516 17.2112 51.9916 17.1512 52.0516 17.1012C52.1116 17.0512 52.1816 17.0112 52.2616 16.9812C52.3416 16.9612 52.4416 16.9512 52.5516 16.9812C52.6616 17.0012 52.7517 17.0412 52.8217 17.1012C52.8917 17.1612 52.9415 17.2312 52.9615 17.3112C52.9915 17.3912 52.9915 17.4812 52.9615 17.5812C52.9415 17.6712 52.9116 17.7512 52.8616 17.8112C52.8116 17.8812 52.7516 17.9412 52.6816 17.9912C52.6116 18.0412 52.5317 18.1012 52.4417 18.1512L51.8916 18.4712L52.8016 18.6612L52.7616 18.8412L51.6316 18.6112L51.6616 18.6312Z" fill="#B3B3B3"/>
<path d="M53.6716 19.0712C53.5716 19.0512 53.5016 19.0212 53.4316 18.9812C53.3716 18.9412 53.3216 18.8912 53.2816 18.8312C53.2416 18.7812 53.2117 18.7212 53.1917 18.6612L53.3716 18.5712C53.4016 18.6512 53.4416 18.7112 53.4816 18.7612C53.5216 18.8112 53.6017 18.8512 53.7017 18.8712C53.8217 18.8912 53.9116 18.8812 53.9916 18.8312C54.0616 18.7812 54.1116 18.7012 54.1416 18.5912V18.5712C54.1716 18.4612 54.1516 18.3612 54.1116 18.2912C54.0616 18.2112 53.9816 18.1712 53.8616 18.1412C53.7816 18.1212 53.7216 18.1312 53.6616 18.1412C53.6016 18.1512 53.5616 18.1812 53.5216 18.2212L53.3516 18.1612L53.6116 17.2212L54.5316 17.4112L54.4916 17.5912L53.7416 17.4412L53.5616 18.0912H53.5815C53.5815 18.0912 53.6517 18.0312 53.6917 18.0112C53.7317 17.9912 53.7716 17.9712 53.8116 17.9712C53.8616 17.9712 53.9116 17.9712 53.9716 17.9712C54.0716 17.9912 54.1516 18.0312 54.2216 18.0912C54.2916 18.1512 54.3416 18.2212 54.3616 18.3112C54.3916 18.4012 54.3916 18.5012 54.3616 18.6112C54.3416 18.7212 54.2916 18.8212 54.2316 18.8912C54.1716 18.9712 54.0916 19.0212 53.9916 19.0512C53.8916 19.0812 53.7816 19.0812 53.6616 19.0512L53.6716 19.0712Z" fill="#B3B3B3"/>
<g style="mix-blend-mode:color-burn" opacity="0.5">
<path d="M58.7713 8.57775L26.5007 1.97115C21.9774 1.04513 17.5599 3.96126 16.6338 8.48455L2.23927 78.7962C1.31324 83.3195 4.22938 87.737 8.75267 88.6631L41.0233 95.2697C45.5466 96.1957 49.9642 93.2796 50.8902 88.7563L65.2848 18.4446C66.2108 13.9213 63.2946 9.50378 58.7713 8.57775Z" fill="#333333"/>
</g>
</svg>
