<svg width="186" height="243" viewBox="0 0 186 243" fill="none" xmlns="http://www.w3.org/2000/svg">
<path d="M117.74 12.1894C101.662 5.45737 83.1723 13.0314 76.4413 29.1064C69.7104 45.1815 77.2874 63.6702 93.365 70.4022L131.802 86.4963C147.879 93.2283 166.369 85.6543 173.1 69.5793C179.831 53.5042 172.254 35.0155 156.176 28.2835L117.74 12.1894Z" fill="#132835"/>
<path d="M99.832 73.1413C97.672 72.2413 95.522 71.3313 93.362 70.4313C77.352 63.7313 69.742 45.1413 76.442 29.1413C83.142 13.1313 101.732 5.5213 117.732 12.2213L124.202 14.9313C123.432 22.6213 123.492 34.1313 118.592 46.0313C113.442 58.5613 104.892 67.0313 99.8219 73.1413H99.832Z" fill="#0E232D"/>
<path d="M30.421 173.525C13.62 178.165 3.76123 195.545 8.4009 212.343C13.0406 229.142 30.4217 238.998 47.2227 234.357L87.3889 223.263C104.19 218.623 114.049 201.244 109.409 184.445C104.769 167.647 87.3882 157.791 70.5871 162.431L30.421 173.525Z" fill="#132835"/>
<path d="M53.9319 232.451C51.6819 233.071 49.4219 233.701 47.1719 234.321C30.4419 238.941 12.9719 229.041 8.35191 212.311C3.73191 195.581 13.6319 178.111 30.3619 173.491L37.1219 171.621C41.2619 178.141 48.4319 187.161 51.9319 199.541C55.6219 212.581 54.1419 224.521 53.9219 232.451H53.9319Z" fill="#0E232D"/>
</svg>
