<svg width="354" height="221" viewBox="0 0 354 221" fill="none" xmlns="http://www.w3.org/2000/svg">
<path d="M184.94 120.89H168.91L23.28 193.76L34.2 212.65C36.26 217.27 40.54 220.2 45.24 220.2H308.62C313.32 220.2 317.6 217.27 319.66 212.65L330.58 193.76L184.95 120.89H184.94Z" fill="#3D3D3B"/>
<path d="M337.29 0H16.5701C7.41871 0 0 7.41865 0 16.57V177.18C0 186.331 7.41871 193.75 16.5701 193.75H337.29C346.441 193.75 353.86 186.331 353.86 177.18V16.57C353.86 7.41865 346.441 0 337.29 0Z" fill="#565655"/>
<path d="M301.41 208.94L50.0602 208.16L48.1401 206.18H303.16L301.41 208.94Z" fill="#191718"/>
</svg>
