<svg width="354" height="221" viewBox="0 0 354 221" fill="none" xmlns="http://www.w3.org/2000/svg">
<path d="M184.95 120.88H168.92L23.29 193.75L34.21 212.64C36.27 217.26 40.55 220.19 45.25 220.19H308.63C313.33 220.19 317.61 217.26 319.67 212.64L330.59 193.75L184.96 120.88H184.95Z" fill="#3D3D3B"/>
<path d="M337.29 0H16.57C7.41865 0 0 7.41865 0 16.57V177.18C0 186.331 7.41865 193.75 16.57 193.75H337.29C346.441 193.75 353.86 186.331 353.86 177.18V16.57C353.86 7.41865 346.441 0 337.29 0Z" fill="#565655"/>
<path d="M301.41 208.93L50.0599 208.15L48.1499 206.17H303.16L301.41 208.93Z" fill="#191718"/>
</svg>
