<?xml version="1.0" encoding="UTF-8"?><svg id="mute" xmlns="http://www.w3.org/2000/svg" width="1024" height="1024" xmlns:xlink="http://www.w3.org/1999/xlink" viewBox="0 0 1024 1024"><defs><linearGradient id="linear-gradient" x1="560.46" y1="663.3" x2="560.46" y2="167.02" gradientUnits="userSpaceOnUse"><stop offset="0" stop-color="#fe725b"/><stop offset=".33" stop-color="#b17282"/><stop offset=".65" stop-color="#6d72a5"/><stop offset=".88" stop-color="#4372ba"/><stop offset="1" stop-color="#3473c3"/></linearGradient><linearGradient id="linear-gradient-2" x1="271.8" y1="823.19" x2="271.8" y2="551.53" gradientUnits="userSpaceOnUse"><stop offset="0" stop-color="#fe725b"/><stop offset=".13" stop-color="#f9725d"/><stop offset=".28" stop-color="#ed7263"/><stop offset=".42" stop-color="#d8726e"/><stop offset=".56" stop-color="#ba727d"/><stop offset=".71" stop-color="#957290"/><stop offset=".86" stop-color="#6772a8"/><stop offset="1" stop-color="#3473c3"/></linearGradient><linearGradient id="linear-gradient-3" x1="341.11" y1="847.12" x2="341.11" y2="690.84" gradientUnits="userSpaceOnUse"><stop offset="0" stop-color="#fe725b"/><stop offset=".39" stop-color="#fc725b"/><stop offset=".53" stop-color="#f5725f"/><stop offset=".63" stop-color="#e97265"/><stop offset=".71" stop-color="#d8726e"/><stop offset=".78" stop-color="#c27279"/><stop offset=".84" stop-color="#a77287"/><stop offset=".9" stop-color="#867298"/><stop offset=".95" stop-color="#6172ab"/><stop offset="1" stop-color="#3872c0"/><stop offset="1" stop-color="#3473c3"/></linearGradient><linearGradient id="linear-gradient-4" x1="679.93" y1="704.38" x2="679.93" y2="172.34" xlink:href="#linear-gradient"/><linearGradient id="linear-gradient-5" x1="223.94" y1="855.14" x2="803.48" y2="256.06" gradientTransform="translate(-245.48 515.05) rotate(-43.86) skewX(.37)" xlink:href="#linear-gradient"/></defs><path d="M396.71,654.02v-243.59c0-8.88,6.06-16.6,14.69-18.71l288.98-70.74c5.7-1.4,11.31-.11,15.65,2.95l58.58-60.56v-98.22c0-12.5-11.71-21.69-23.85-18.71l-389.74,95.4c-8.62,2.11-14.69,9.84-14.69,18.71v445.55l50.38-52.08Z" fill="url(#linear-gradient)"/><path d="M224.34,832.2l111.89-115.67c-14.62-2.92-30.85-3.06-47.48.17-51.76,10.05-87.78,48.83-80.44,86.61,2.15,11.1,7.81,20.87,16.04,28.89Z" fill="url(#linear-gradient-2)"/><path d="M285.51,855.8c9.6.41,19.63-.31,29.8-2.28,43.43-8.43,75.77-37.09,80.72-68.41h.67v-44.26l-111.19,114.95Z" fill="url(#linear-gradient-3)"/><path d="M724.22,402.28v194.54c-17.05-5.2-37-6.36-57.58-2.37-51.76,10.05-87.78,48.83-80.44,86.61,7.34,37.78,55.25,60.26,107.01,50.21,43.43-8.43,75.77-37.09,80.72-68.41h.67v-312.67l-50.38,52.08Z" fill="url(#linear-gradient-4)"/><rect x="494.39" y="123.4" width="31.3" height="871.98" rx="13.3" ry="13.3" transform="translate(532.38 -197.29) rotate(44.05)" fill="url(#linear-gradient-5)"/></svg>