<svg width="207" height="125" viewBox="0 0 207 125" fill="none" xmlns="http://www.w3.org/2000/svg">
<path opacity="0.2" d="M8.42217 20.9785L2.94219 21.2885C0.702189 21.4185 -0.667827 23.7985 0.332173 25.7985L46.8522 118.318C48.8122 122.228 52.9822 124.519 57.3322 124.089L205.312 109.609L118.242 7.46851L8.41219 20.9785H8.42217Z" fill="black"/>
<path d="M205.852 106.729L179.802 80.6285C179.802 80.6285 70.6423 84.6785 69.1923 85.6185C67.7423 86.5585 63.3823 94.2586 62.9623 96.1486C62.5423 98.0386 63.7923 105.999 65.0423 107.219C66.2923 108.439 69.1923 111.128 70.6423 111.808C72.0923 112.478 76.4523 112.749 76.4523 112.749L205.852 106.729Z" fill="#FFAB00"/>
<path d="M203.262 98.6486L185.082 82.3385L78.5023 89.9485C78.5023 89.9485 65.1323 100.009 65.1323 101.499C65.1323 102.989 66.6523 105.119 66.6523 105.119C66.6523 105.119 68.8923 106.119 70.5623 106.389C72.2323 106.659 203.262 98.6385 203.262 98.6385V98.6486Z" fill="#FFD7CB"/>
<path d="M73.0723 103.808L202.432 94.9785L192.812 86.5485L73.0723 103.808Z" fill="#FFD7CB"/>
<path d="M202.432 94.9785L199.702 92.5885L106.062 101.558L202.432 94.9785Z" fill="#FFEEE8"/>
<path d="M68.4722 109.389L201.382 103.948L203.262 98.6486L65.7622 104.359L68.4722 109.389Z" fill="#FFEEE8"/>
<path d="M65.7622 105.168L201.172 91.0385L203.052 83.4285C203.052 83.4285 76.8322 96.8785 75.7922 96.8785C74.7522 96.8785 72.2422 95.6885 69.4222 97.9785C66.6022 100.279 65.7622 105.168 65.7622 105.168Z" fill="#FFEEE8"/>
<path d="M65.5623 109.608C65.5623 109.608 8.6823 22.1885 8.4223 20.9685C8.1523 19.7585 6.98231 12.0485 16.2723 10.2285C16.2723 10.2285 130.812 -0.341496 131.672 0.00850409C132.532 0.358504 205.322 81.8184 205.322 81.8184L69.4223 97.9785C69.4223 97.9785 63.3123 103.658 65.5723 109.608H65.5623Z" fill="#FFBC00"/>
<path d="M16.2723 10.2385C6.98231 12.0085 8.1523 19.7685 8.4223 20.9785C8.6623 22.0585 53.6523 91.2985 63.6223 106.629L66.0623 102.719C66.6723 101.399 67.4423 100.268 68.1023 99.4485L69.8623 96.6185L16.2623 10.2385H16.2723Z" fill="#FFAB00"/>
<path d="M25.6122 25.2985C22.6322 26.3485 20.0622 27.9086 18.6022 29.8986C17.6222 31.2286 17.0121 32.6485 16.6721 34.1085C17.5421 35.4685 18.4622 36.9086 19.4322 38.4086C19.3922 37.7886 19.4422 37.1785 19.5522 36.5585C20.1822 33.1285 22.7122 29.6885 27.2122 27.8885L25.6022 25.2985H25.6122ZM18.4722 18.1885C19.1322 17.8485 20.4321 17.6685 20.9821 17.8385L19.7522 15.8485C13.2622 16.4485 11.5421 21.4085 10.9521 25.1385C11.4821 25.9885 12.0922 26.9485 12.7722 28.0085C12.7922 27.7385 12.8022 27.4685 12.8222 27.1985C12.8622 26.5585 12.9022 25.9086 13.0422 25.2786C13.6022 22.6286 14.9022 20.0685 18.4722 18.1885Z" fill="#FAEDE3"/>
<path d="M205.322 81.8285C205.322 81.8285 72.0921 96.1385 69.8721 96.6185C67.6521 97.0985 63.4521 100.948 63.9521 105.448C64.4421 109.938 68.6421 113.639 72.8321 114.119C77.0321 114.599 204.132 108.499 205.122 108.339C206.112 108.179 206.852 107.379 205.862 106.729C204.872 106.079 74.8121 112.508 73.5721 112.188C72.3421 111.868 66.9121 108.979 66.6621 105.129C66.4121 101.279 70.3621 98.5485 72.0921 98.0685C73.8221 97.5885 204.342 84.2485 205.322 83.7585C206.312 83.2785 205.812 82.7985 205.322 81.8285Z" fill="#FFC400"/>
<path d="M191.162 102.088C187.322 102.068 183.452 102.328 179.612 102.468C175.942 102.608 172.262 102.739 168.592 102.879C161.072 103.159 153.542 103.438 146.022 103.718C131.062 104.268 116.102 104.829 101.132 105.379C96.9321 105.539 92.7321 105.679 88.5321 105.849C84.4121 106.009 80.2121 106.048 76.1321 106.448C75.8521 106.478 75.9421 106.749 76.1921 106.759C80.0321 106.849 83.9121 106.598 87.7421 106.468C91.4221 106.338 95.0921 106.198 98.7621 106.058C106.202 105.778 113.632 105.498 121.072 105.218C136.032 104.658 150.992 104.098 165.962 103.538C170.162 103.378 174.362 103.228 178.562 103.068C182.752 102.908 187.002 102.878 191.162 102.548C191.592 102.518 191.622 102.099 191.162 102.099V102.088Z" fill="#FFD7CB"/>
<path d="M175.522 100.979C155.072 101.759 134.622 102.469 114.182 103.349C108.412 103.599 102.642 103.869 96.8822 104.149C96.7222 104.149 96.7222 104.318 96.8822 104.308C117.342 103.738 137.782 102.929 158.222 102.159L175.522 101.509C176.032 101.489 176.032 100.979 175.522 100.999V100.979Z" fill="#FFD7CB"/>
<path d="M193.482 88.9885C191.712 89.0185 189.992 89.2985 188.262 89.5085C186.382 89.7385 184.512 89.9685 182.632 90.1985C178.962 90.6485 175.292 91.0886 171.622 91.5286C164.192 92.4086 156.752 93.2485 149.302 94.0585C134.572 95.6485 119.792 96.9986 105.022 98.4086C100.902 98.7986 96.782 99.1786 92.652 99.5286C88.392 99.8886 83.982 100.069 79.802 100.749C79.762 100.749 79.762 100.798 79.802 100.798C83.452 100.828 87.122 100.419 90.742 100.129C94.452 99.8385 98.162 99.5385 101.862 99.2485C109.362 98.6585 116.832 97.9585 124.312 97.2285C139.082 95.7985 153.812 94.2285 168.502 92.5085C172.602 92.0285 176.702 91.5385 180.792 91.0385C182.842 90.7885 184.882 90.5286 186.922 90.2686C189.112 89.9886 191.432 89.8085 193.512 89.2885C193.732 89.2285 193.742 88.9885 193.462 88.9885H193.482Z" fill="#FFD7CB"/>
<path d="M171.352 89.6885C162.032 90.6085 152.722 91.5885 143.412 92.5885C134.102 93.5885 124.742 94.4185 115.422 95.3485C112.742 95.6185 110.072 95.8886 107.392 96.1486C104.982 96.3886 102.212 96.4786 99.9622 97.1286C99.9122 97.1386 99.9422 97.1885 99.9922 97.1885C102.142 97.3385 104.452 96.9686 106.572 96.7586C108.902 96.5186 111.232 96.2885 113.562 96.0485C118.222 95.5785 122.882 95.1186 127.542 94.6386C136.862 93.6786 146.192 92.7685 155.532 91.8585C160.892 91.3285 166.242 90.8086 171.592 90.2586C172.172 90.1986 171.922 89.6285 171.352 89.6885Z" fill="#FFD7CB"/>
<path d="M164.472 94.8685L152.882 96.0785C156.262 98.4185 166.772 106.808 161.412 117.818L168.492 114.139L173.622 119.089C173.622 119.089 180.172 103.769 164.472 94.8685Z" fill="#BE1F11"/>
<path d="M131.672 0.0185547L205.852 83.0085L69.8624 96.6885L16.6724 10.2385L131.672 0.0185547Z" fill="#628EA0"/>
<path d="M58.7021 76.0385L82.7422 44.8385L129.012 73.9285L58.7021 76.0385Z" fill="#CCAA79"/>
<path d="M82.7422 44.8385L132.842 63.5585L129.012 73.9285L82.7422 44.8385Z" fill="#F9DA9B"/>
<path d="M102.202 62.5585L123.232 32.8085L155.052 63.4785L102.202 62.5585Z" fill="#E0B873"/>
<path d="M123.232 32.8085L180.742 54.9185L155.052 63.4785L123.232 32.8085Z" fill="#F9DA9B"/>
<path d="M180.743 54.9184L205.853 83.0085L69.8625 96.6885L48.5825 62.1085C55.0125 62.1385 62.3825 63.6185 72.6825 64.1485C78.1325 64.4285 84.3825 64.4385 91.6925 63.8185C96.1125 63.4485 99.3325 62.9785 102.043 62.4385C103.003 62.2485 103.893 62.0485 104.753 61.8385C109.093 60.7985 112.623 59.5585 119.253 58.2485C121.413 57.8185 123.903 57.3885 126.853 56.9485C131.723 56.2285 138.273 55.2484 145.633 54.5484C153.943 53.7584 163.303 53.3185 172.493 53.9885C175.253 54.1885 178.013 54.4884 180.733 54.9184H180.743Z" fill="#D39A48"/>
<path d="M142.742 54.8385C142.742 54.8385 100.422 66.1585 115.352 70.5985C130.572 75.1185 159.912 77.9086 159.912 77.9086C156.672 77.5986 153.412 79.5785 151.162 80.2985C146.482 81.7985 141.472 83.1185 136.482 84.4285C115.702 89.8785 93.0824 93.1185 69.8724 96.6885L55.9624 74.0785C55.9624 74.0785 122.382 55.0285 142.742 54.8385Z" fill="#725737"/>
<path d="M51.0523 29.8586C51.0523 29.8586 49.5123 23.9085 53.3723 23.7885C57.2323 23.6785 63.0623 27.9086 63.0623 27.9086C63.0623 27.9086 68.2723 27.7086 71.4323 28.8686C74.5923 30.0286 79.2423 32.5586 80.9423 33.2686C82.6423 33.9786 85.7623 34.6886 85.1623 37.1286C84.5623 39.5686 78.8322 42.6585 70.4222 43.1785C66.4322 43.4285 93.1122 60.6185 97.5822 68.3085C102.202 76.2385 90.9723 76.8086 94.6823 82.2686C98.3923 87.7286 101.172 91.7686 101.172 91.7686L90.6023 93.4986L75.7723 86.1186L67.7423 93.2486L51.3723 66.6486C51.3723 66.6486 56.5422 52.1785 51.9222 44.4285C44.5422 32.0585 51.0423 29.8485 51.0423 29.8485L51.0523 29.8586Z" fill="#232121"/>
<path d="M72.3622 15.5085L72.2222 15.3185L74.1622 15.1486L74.3622 15.4185L74.1922 15.4385L72.3722 15.5186L72.3622 15.5085ZM75.2622 19.4685L75.1222 19.2786L76.8322 19.0286L77.0122 19.0085L77.2222 19.2885L75.2722 19.4685H75.2622ZM76.2522 19.3785C76.0322 19.0585 75.8022 18.7286 75.5622 18.3986C75.3222 18.0686 75.0822 17.7386 74.8422 17.4086L74.6622 17.1685C74.4222 16.8385 74.1822 16.5185 73.9422 16.1885C73.7022 15.8685 73.4521 15.5485 73.2021 15.2185L75.1222 15.0485C75.3422 15.3685 75.5722 15.6886 75.8022 16.0186C76.0422 16.3486 76.2822 16.6786 76.5322 17.0186L76.6622 17.1885C76.9222 17.5385 77.1721 17.8785 77.4221 18.2085C77.6721 18.5385 77.9222 18.8685 78.1822 19.1985L76.2422 19.3785H76.2522ZM78.6522 15.9086L77.2321 14.8685L78.3122 14.9985L74.3222 15.3585L74.1622 15.1486L78.4821 14.7585L79.2922 15.8585L78.6622 15.9185L78.6522 15.9086ZM75.7321 17.2686L75.5822 17.0685L78.3122 16.8185L78.4622 17.0186L75.7321 17.2686ZM77.2222 19.2885L77.0622 19.0685L81.3322 18.6785L80.5422 18.9785L80.3122 17.7686L80.9322 17.7085L81.8122 18.8585L77.2222 19.2786V19.2885ZM78.7321 17.5885L78.1022 16.9885L78.0122 16.8685L77.7321 16.2485L78.2822 16.1985L79.2822 17.5385L78.7321 17.5885Z" fill="#FFAB00"/>
<path d="M87.0324 18.5186C86.1624 18.5986 85.3324 18.5785 84.5424 18.4585C83.7524 18.3385 83.0424 18.1385 82.4324 17.8385C81.8224 17.5385 81.3424 17.1685 81.0024 16.7085C80.6624 16.2485 80.5624 15.8586 80.7024 15.5086C80.8324 15.1586 81.1624 14.8586 81.7024 14.6286C82.2424 14.3986 82.9424 14.2386 83.8124 14.1586C84.2824 14.1186 84.7324 14.0986 85.1624 14.1186C85.5824 14.1386 86.0024 14.1786 86.4124 14.2386L87.1424 15.2486L86.4624 15.3085L84.9124 14.1985L85.9424 14.2885L86.1224 14.5186C85.7324 14.4286 85.4024 14.3685 85.1124 14.3385C84.8324 14.3085 84.5324 14.3085 84.2124 14.3385C83.7024 14.3885 83.2924 14.4985 82.9924 14.6785C82.6924 14.8585 82.5224 15.0986 82.5024 15.4086C82.4824 15.7186 82.6324 16.0985 82.9724 16.5385C83.2824 16.9485 83.6624 17.2885 84.1224 17.5685C84.5824 17.8485 85.0724 18.0385 85.5824 18.1685C86.1024 18.2885 86.6024 18.3285 87.0924 18.2885C87.3224 18.2685 87.5424 18.2385 87.7524 18.1885C87.9524 18.1485 88.1524 18.0985 88.3324 18.0385L87.8524 18.2686L87.4624 17.7586C87.2724 17.5086 87.0824 17.2586 86.8924 17.0186C86.7024 16.7786 86.5024 16.5286 86.2924 16.2786L88.1324 16.1085C88.3124 16.3485 88.4824 16.5885 88.6624 16.8385C88.8424 17.0885 89.0324 17.3486 89.2424 17.6186L89.4524 17.8886C89.1224 18.0586 88.7724 18.1886 88.3924 18.2786C88.0124 18.3786 87.5624 18.4486 87.0424 18.4986L87.0324 18.5186ZM85.2724 16.5885L85.1324 16.3986L88.7924 16.0685L88.9324 16.2586L87.6224 16.4785L86.8624 16.5485L85.2624 16.5885H85.2724Z" fill="#FFAB00"/>
<path d="M87.2523 14.1685L87.1123 13.9785L90.8823 13.6385L91.0223 13.8285L89.5623 14.0485L89.0523 14.0985L87.2523 14.1685ZM92.2623 16.4385L87.4823 13.9385L89.5823 13.7485L93.4523 15.8485L93.1223 15.8785V15.7686L93.4123 13.3986L94.0223 13.3485L93.4923 16.3185L92.2523 16.4285L92.2623 16.4385ZM91.9723 17.9585L91.8223 17.7686L93.5423 17.5186L94.0423 17.4685L95.9423 17.3885L96.0923 17.5785L91.9623 17.9485L91.9723 17.9585ZM93.0723 17.8585C92.9623 17.7085 92.8723 17.5785 92.7723 17.4585C92.6723 17.3385 92.5823 17.1985 92.4823 17.0585C92.3823 16.9185 92.2523 16.7585 92.1223 16.5785L91.6223 15.9285L93.4823 15.7585L93.9823 16.3986L94.3523 16.8785C94.4623 17.0185 94.5623 17.1486 94.6623 17.2786C94.7623 17.4086 94.8723 17.5385 94.9923 17.6785L93.0723 17.8485V17.8585ZM92.2723 13.7185L92.1323 13.5286L94.6823 13.2985L94.8323 13.4885L93.8223 13.6685L93.5523 13.6885L92.2923 13.7185H92.2723Z" fill="#FFAB00"/>
<path d="M95.252 13.4484L95.1021 13.2585L97.022 13.0885L97.232 13.3585L97.062 13.3785L95.242 13.4584L95.252 13.4484ZM98.342 17.3785L98.192 17.1884L99.892 16.9384L100.422 16.8885L102.272 16.8184L102.422 17.0085L98.3521 17.3785H98.342ZM99.3221 17.2884C99.0821 16.9684 98.842 16.6484 98.592 16.3184C98.342 15.9884 98.0821 15.6685 97.8221 15.3385L97.632 15.0985C97.372 14.7685 97.122 14.4485 96.862 14.1285C96.602 13.8085 96.342 13.4884 96.082 13.1684L97.992 12.9985C98.222 13.3085 98.472 13.6284 98.722 13.9584C98.972 14.2784 99.232 14.6084 99.492 14.9384L99.802 15.3284C100.002 15.5784 100.232 15.8684 100.482 16.1684C100.732 16.4784 100.992 16.7985 101.262 17.1185L99.332 17.2984L99.3221 17.2884ZM98.972 15.5484L98.802 15.3385L100.102 15.2185C100.522 15.1785 100.832 15.1085 101.032 14.9885C101.232 14.8785 101.332 14.7384 101.342 14.5684C101.352 14.3984 101.272 14.2185 101.112 14.0085C100.852 13.6785 100.502 13.4384 100.072 13.2984C99.6421 13.1584 99.132 13.1084 98.552 13.1684L97.182 13.2884L97.022 13.0784L98.392 12.9584C99.642 12.8484 100.612 12.8685 101.322 13.0285C102.032 13.1885 102.542 13.4685 102.852 13.8485C103.032 14.0785 103.082 14.2885 103.012 14.4985C102.932 14.7085 102.682 14.8884 102.252 15.0484C101.822 15.2084 101.182 15.3285 100.312 15.4085L98.972 15.5285V15.5484Z" fill="#FFAB00"/>
<path d="M103.392 13.7786L102.492 12.5985L109.652 11.9485L110.662 13.1185L110.032 13.1785L108.392 12.0585L109.432 12.1885L103.042 12.7686L103.752 12.4785L104.042 13.7185L103.402 13.7786H103.392ZM107.342 16.5585L107.192 16.3685L108.902 16.1185L109.402 16.0685L111.312 15.9885L111.462 16.1785L107.342 16.5485V16.5585ZM108.432 16.4585C108.192 16.1385 107.942 15.8185 107.682 15.4985C107.422 15.1785 107.162 14.8486 106.902 14.5186L106.702 14.2786C106.442 13.9486 106.172 13.6285 105.912 13.3085C105.652 12.9885 105.382 12.6685 105.112 12.3485L107.022 12.1785C107.262 12.4885 107.512 12.8085 107.772 13.1285C108.032 13.4485 108.292 13.7785 108.562 14.0985L108.752 14.3385C109.012 14.6585 109.282 14.9885 109.542 15.3085C109.802 15.6285 110.082 15.9586 110.362 16.2786L108.432 16.4485V16.4585Z" fill="#FFAB00"/>
<path d="M110.532 12.0685L110.382 11.8885L114.212 11.5385L114.362 11.7185L112.672 11.9585L112.332 11.9885L110.522 12.0685H110.532ZM113.752 15.9785L113.602 15.7885L115.292 15.5385L115.632 15.5085L117.472 15.4385L117.632 15.6285L113.762 15.9785H113.752ZM114.722 15.8885C114.482 15.5685 114.232 15.2485 113.972 14.9285C113.712 14.6085 113.442 14.2785 113.172 13.9585L112.972 13.7185C112.702 13.3985 112.432 13.0685 112.172 12.7585C111.902 12.4385 111.632 12.1185 111.342 11.8085L113.262 11.6385C113.502 11.9485 113.762 12.2685 114.022 12.5885C114.282 12.9085 114.552 13.2385 114.822 13.5585L115.022 13.7985C115.292 14.1185 115.562 14.4386 115.832 14.7686C116.102 15.0986 116.382 15.4185 116.662 15.7385L114.732 15.9185L114.722 15.8885Z" fill="#FFAB00"/>
<path d="M118.222 15.5685L118.062 15.3785L119.082 15.1985L119.292 15.1785L120.552 15.1486L120.712 15.3385L118.222 15.5685ZM118.972 15.5085L118.262 11.1586L119.382 11.0585L125.632 14.9086L123.742 15.0785L118.512 11.7385L118.742 11.7185L118.772 11.7985L119.542 15.4585L118.962 15.5085H118.972ZM119.092 14.0885L119.032 13.8885L122.552 13.5685L122.812 13.7485L119.092 14.0885ZM122.522 15.1785L122.362 14.9885L123.772 14.7686L124.452 14.7085L126.082 14.6486L126.242 14.8385L122.522 15.1785Z" fill="#FFAB00"/>
<path d="M126.752 14.7985L126.592 14.6085L127.662 14.4185L128.002 14.3885L129.612 14.3385L129.772 14.5286L126.752 14.7985ZM132.962 14.2485L125.092 11.1685L125.042 11.1486L124.342 10.8685L123.482 10.8986L123.322 10.7185L125.982 10.4785L132.782 13.1385L132.602 13.1985L131.152 11.5885L129.882 10.1285L130.352 10.0885L133.902 14.1685L132.942 14.2585L132.962 14.2485ZM127.822 14.6985L124.462 10.7786L124.872 10.7385L127.302 13.3785L128.382 14.6385L127.812 14.6885L127.822 14.6985ZM128.602 10.4385L128.442 10.2585L131.442 9.98853L131.602 10.1685L130.542 10.3485L130.222 10.3785L128.612 10.4385H128.602Z" fill="#FFAB00"/>
<path d="M84.0824 22.3986L83.9424 22.2085L87.9624 21.8385L88.1124 22.0286L86.3724 22.2786L85.9524 22.3185L84.1024 22.3986H84.0824ZM87.1324 26.4885L86.9924 26.2885L88.7124 26.0286L88.9024 26.0085L89.1124 26.2985L87.1324 26.4785V26.4885ZM88.1324 26.3986C87.9024 26.0686 87.6624 25.7386 87.4224 25.4086C87.1824 25.0786 86.9624 24.7886 86.7724 24.5286L86.4724 24.1185C86.2224 23.7785 85.9624 23.4385 85.7124 23.1085C85.4624 22.7785 85.2024 22.4485 84.9424 22.1185L86.8924 21.9385C87.1224 22.2685 87.3624 22.5885 87.6024 22.9185C87.8424 23.2485 88.0824 23.5585 88.3024 23.8485L88.5824 24.2185C88.8224 24.5385 89.0724 24.8585 89.3224 25.1985C89.5824 25.5385 89.8424 25.8685 90.1124 26.2085L88.1424 26.3885L88.1324 26.3986ZM89.1124 26.3085L88.9524 26.0785L93.0824 25.6985L92.2924 25.9985L91.9824 24.6586L92.5924 24.5985L93.5924 25.8885L89.1124 26.2985V26.3085Z" fill="#FFAB00"/>
<path d="M91.252 21.7485L91.1021 21.5585L93.062 21.3785L93.272 21.6586L93.092 21.6785L91.242 21.7585L91.252 21.7485ZM94.3521 25.8285L94.202 25.6285L95.932 25.3685L96.112 25.3485L96.332 25.6385L94.3521 25.8185V25.8285ZM95.3521 25.7385C95.1121 25.4085 94.872 25.0685 94.612 24.7385C94.352 24.4085 94.102 24.0585 93.842 23.7285L93.652 23.4785C93.392 23.1385 93.132 22.8085 92.882 22.4785C92.622 22.1485 92.362 21.8185 92.092 21.4885L94.0421 21.3085C94.2821 21.6385 94.522 21.9685 94.782 22.2985C95.042 22.6385 95.3021 22.9785 95.5721 23.3285L95.712 23.5085C95.992 23.8685 96.262 24.2185 96.522 24.5585C96.782 24.8985 97.062 25.2385 97.332 25.5685L95.362 25.7485L95.3521 25.7385ZM97.652 22.1685L96.172 21.0985L97.272 21.2385L93.232 21.6085L93.062 21.3885L97.432 20.9885L98.302 22.1185L97.662 22.1785L97.652 22.1685ZM94.732 23.5585L94.5721 23.3485L97.342 23.0985L97.502 23.3085L94.732 23.5585ZM96.332 25.6486L96.162 25.4285L100.482 25.0286L99.692 25.3385L99.412 24.0985L100.032 24.0385L100.982 25.2285L96.342 25.6586L96.332 25.6486ZM97.802 23.8885L97.132 23.2686L97.0421 23.1486L96.732 22.5085L97.282 22.4585L98.3521 23.8385L97.7921 23.8885H97.802Z" fill="#FFAB00"/>
<path d="M106.272 24.8585C105.392 24.9385 104.552 24.9185 103.742 24.7985C102.932 24.6785 102.212 24.4686 101.572 24.1586C100.932 23.8586 100.432 23.4686 100.072 22.9986C99.712 22.5286 99.592 22.1286 99.712 21.7586C99.832 21.3886 100.152 21.0885 100.692 20.8485C101.232 20.6085 101.932 20.4486 102.822 20.3686C103.302 20.3286 103.752 20.3085 104.192 20.3285C104.622 20.3485 105.052 20.3885 105.462 20.4585L106.242 21.4986L105.552 21.5585L103.932 20.4185L104.992 20.5086L105.182 20.7486C104.782 20.6586 104.442 20.5985 104.152 20.5685C103.862 20.5385 103.562 20.5385 103.242 20.5685C102.722 20.6185 102.322 20.7285 102.012 20.9185C101.712 21.0985 101.552 21.3485 101.542 21.6685C101.532 21.9885 101.702 22.3785 102.062 22.8285C102.392 23.2485 102.802 23.5986 103.272 23.8886C103.742 24.1786 104.252 24.3786 104.782 24.4986C105.312 24.6286 105.822 24.6686 106.322 24.6186C106.562 24.5986 106.782 24.5686 106.982 24.5186C107.182 24.4786 107.382 24.4286 107.562 24.3686L107.082 24.6085L106.672 24.0885C106.462 23.8285 106.262 23.5785 106.062 23.3285C105.862 23.0785 105.642 22.8285 105.422 22.5685L107.282 22.3986C107.472 22.6486 107.662 22.8986 107.852 23.1486C108.042 23.3986 108.252 23.6685 108.472 23.9485L108.692 24.2285C108.362 24.3985 108.012 24.5286 107.632 24.6386C107.252 24.7386 106.802 24.8185 106.272 24.8585ZM104.402 22.8585L104.252 22.6685L107.952 22.3285L108.102 22.5186L106.782 22.7386L106.012 22.8085L104.392 22.8485L104.402 22.8585Z" fill="#FFAB00"/>
<path d="M106.912 20.3185L106.762 20.1285L108.712 19.9485L108.932 20.2285L108.752 20.2485L106.912 20.3285V20.3185ZM110.162 24.3785L110.002 24.1885L111.722 23.9285L111.902 23.9086L112.132 24.1985L110.162 24.3785ZM111.152 24.2885C110.902 23.9585 110.642 23.6285 110.382 23.2885C110.122 22.9485 109.852 22.6186 109.582 22.2786L109.382 22.0286C109.112 21.6886 108.842 21.3586 108.572 21.0286C108.302 20.6986 108.032 20.3685 107.752 20.0385L109.692 19.8585C109.942 20.1785 110.192 20.5085 110.462 20.8485C110.732 21.1885 111.002 21.5285 111.282 21.8785L111.422 22.0585C111.712 22.4185 111.992 22.7585 112.272 23.0985C112.552 23.4385 112.832 23.7685 113.112 24.1085L111.152 24.2885ZM113.332 20.7385L111.812 19.6685L112.912 19.7985L108.892 20.1685L108.712 19.9485L113.062 19.5485L113.962 20.6685L113.322 20.7285L113.332 20.7385ZM110.462 22.1185L110.302 21.9185L113.062 21.6685L113.232 21.8685L110.472 22.1185H110.462ZM112.132 24.1985L111.952 23.9785L116.252 23.5885L115.472 23.8986L115.152 22.6685L115.772 22.6085L116.762 23.7885L112.142 24.2085L112.132 24.1985ZM113.532 22.4485L112.842 21.8385L112.742 21.7185L112.412 21.0785L112.962 21.0286L114.072 22.3986L113.522 22.4485H113.532Z" fill="#FFAB00"/>
<path d="M117.582 23.6885L117.422 23.4985L118.512 23.2985L118.852 23.2686L120.492 23.2185L120.652 23.4086L117.572 23.6885H117.582ZM123.922 23.1285L115.972 19.9285L115.922 19.9086L115.222 19.6185L114.352 19.6486L114.192 19.4585L116.902 19.2085L123.772 21.9685L123.582 22.0286L122.142 20.3585L120.882 18.8485L121.362 18.8085L124.892 23.0485L123.912 23.1385L123.922 23.1285ZM118.672 23.5885L115.332 19.5186L115.752 19.4785L118.172 22.2185L119.252 23.5286L118.672 23.5785V23.5885ZM119.552 19.1685L119.392 18.9785L122.452 18.6985L122.612 18.8885L121.532 19.0785L121.202 19.1085L119.562 19.1685H119.552Z" fill="#FFAB00"/>
<path d="M123.322 18.8185L123.162 18.6285L125.102 18.4485L125.332 18.7185L125.152 18.7385L123.312 18.8185H123.322ZM126.702 22.8585L126.542 22.6684L128.252 22.4184L128.432 22.3985L128.672 22.6885L126.712 22.8685L126.702 22.8585ZM127.692 22.7685C127.432 22.4385 127.162 22.1085 126.882 21.7685C126.602 21.4285 126.312 21.0785 126.002 20.7185L125.842 20.5285C125.562 20.1885 125.272 19.8585 124.992 19.5285C124.712 19.1985 124.422 18.8684 124.132 18.5384L126.062 18.3585C126.322 18.6785 126.582 19.0085 126.862 19.3385C127.142 19.6685 127.422 20.0085 127.712 20.3485L127.872 20.5384C128.172 20.8884 128.462 21.2385 128.752 21.5785C129.042 21.9185 129.332 22.2485 129.632 22.5785L127.682 22.7585L127.692 22.7685ZM128.662 22.6784L128.482 22.4685L129.932 22.3385C130.742 22.2685 131.232 22.0385 131.402 21.6585C131.572 21.2785 131.402 20.7885 130.882 20.1885C130.362 19.5885 129.732 19.1285 129.012 18.8485C128.292 18.5685 127.542 18.4684 126.762 18.5384L125.282 18.6784L125.102 18.4685L126.752 18.3185C127.652 18.2385 128.492 18.2485 129.262 18.3585C130.032 18.4685 130.732 18.6585 131.332 18.9385C131.932 19.2185 132.422 19.5785 132.792 20.0085C133.162 20.4385 133.312 20.8485 133.232 21.1985C133.142 21.5485 132.842 21.8385 132.322 22.0785C131.802 22.3085 131.072 22.4685 130.142 22.5585L128.672 22.6985L128.662 22.6784Z" fill="#FFAB00"/>
<path d="M138.332 21.9086C137.882 21.9486 137.402 21.9585 136.882 21.9485C136.362 21.9285 135.892 21.8885 135.462 21.8085L134.702 20.8285L135.342 20.7686L137.002 21.8485L136.082 21.7586L135.732 21.5485C136.212 21.6385 136.602 21.6985 136.922 21.7185C137.232 21.7385 137.572 21.7185 137.932 21.6885C138.482 21.6385 138.842 21.5386 139.022 21.3786C139.202 21.2186 139.202 21.0385 139.012 20.8185C138.902 20.6885 138.762 20.5885 138.612 20.4985C138.452 20.4185 138.262 20.3485 138.022 20.2885C137.792 20.2285 137.492 20.1886 137.142 20.1486L136.512 20.0785C135.632 19.9685 134.902 19.8286 134.342 19.6586C133.772 19.4886 133.352 19.2286 133.062 18.8886C132.842 18.6386 132.782 18.4085 132.882 18.2085C132.982 18.0085 133.222 17.8485 133.592 17.7085C133.962 17.5785 134.442 17.4785 135.032 17.4285C135.462 17.3885 135.892 17.3786 136.322 17.3986C136.752 17.4186 137.152 17.4685 137.532 17.5385L138.242 18.4585L137.602 18.5186L136.032 17.4985L137.012 17.5985L137.332 17.8385C136.892 17.7385 136.552 17.6686 136.292 17.6386C136.032 17.6086 135.752 17.6086 135.452 17.6386C134.982 17.6786 134.642 17.7785 134.452 17.9185C134.262 18.0585 134.252 18.2385 134.432 18.4485C134.602 18.6385 134.832 18.7886 135.142 18.8886C135.452 18.9886 135.832 19.0585 136.302 19.1185L136.992 19.1985C137.652 19.2685 138.202 19.3585 138.642 19.4585C139.082 19.5585 139.442 19.6785 139.722 19.8185C140.002 19.9585 140.242 20.1385 140.422 20.3485C140.642 20.5985 140.712 20.8285 140.632 21.0385C140.552 21.2485 140.322 21.4385 139.942 21.5885C139.562 21.7385 139.022 21.8486 138.332 21.9086Z" fill="#FFAB00"/>
</svg>
