<svg width="494" height="191" viewBox="0 0 494 191" fill="none" xmlns="http://www.w3.org/2000/svg">
<g style="mix-blend-mode:soft-light" opacity="0.2">
<path d="M161.61 6.40081C161.61 6.40081 272.92 -2.51914 326.8 0.700856C369.08 3.22086 396.25 68.0108 396.25 68.0108L493.85 270.891H480.54L161.6 6.40081H161.61Z" fill="black"/>
</g>
<path d="M480.55 270.891H1.39014L13.0502 238.541C13.1702 238.221 13.2902 237.891 13.4102 237.561C16.9002 227.911 20.5401 218.321 24.3301 208.791C33.4501 185.791 43.4401 163.111 54.2701 140.811C69.9201 108.591 87.6402 77.1008 106.31 46.4308C113.09 35.3008 120.76 24.8308 132.1 17.6608C143.69 10.3408 157.39 6.40076 171.21 6.40076H310.73C318.72 6.40076 326.67 7.72072 334.19 10.2407C339.68 12.0807 344.95 14.5708 349.84 17.6608C361.18 24.8308 368.85 35.3008 375.63 46.4308C394.3 77.1008 412.02 108.591 427.67 140.811C442.99 172.351 456.63 204.651 468.53 237.561C468.65 237.891 468.77 238.221 468.89 238.541L480.55 270.891Z" fill="#333333"/>
<path d="M192.94 6.40076C192.94 6.40076 160.12 8.5508 121.06 118.701C98.22 183.101 82.05 237.131 72.56 270.891H0L11.66 238.541C11.78 238.221 11.9 237.891 12.02 237.561C15.51 227.911 19.15 218.321 22.94 208.791C32.06 185.791 42.05 163.111 52.88 140.811C68.53 108.591 86.25 77.1008 104.92 46.4308C111.7 35.3008 119.37 24.8308 130.71 17.6608C142.3 10.3408 156 6.40076 169.82 6.40076H192.94Z" fill="#3A3939"/>
</svg>
