<svg width="964" height="762" viewBox="0 0 964 762" fill="none" xmlns="http://www.w3.org/2000/svg">
<path d="M574.47 514.42H393.84V621.19H574.47V514.42Z" fill="#B3B3B3"/>
<path d="M595.96 645.25H367.64V666.98H595.96V645.25Z" fill="#666666"/>
<path d="M393.84 621.18L367.64 645.25H595.96L574.47 621.18H393.84Z" fill="#999999"/>
<path d="M948.73 3H14.87C8.31437 3 3 8.3145 3 14.8701V535.97C3 542.526 8.31437 547.84 14.87 547.84H948.73C955.286 547.84 960.6 542.526 960.6 535.97V14.8701C960.6 8.3145 955.286 3 948.73 3Z" fill="black"/>
<path d="M948.73 3H14.87C8.31437 3 3 8.3145 3 14.8701V535.97C3 542.526 8.31437 547.84 14.87 547.84H948.73C955.286 547.84 960.6 542.526 960.6 535.97V14.8701C960.6 8.3145 955.286 3 948.73 3Z" stroke="#939393" stroke-width="6"/>
<path d="M933.99 18.8701H29.62C23.0644 18.8701 17.75 24.1845 17.75 30.7401V520.11C17.75 526.666 23.0644 531.98 29.62 531.98H933.99C940.546 531.98 945.86 526.666 945.86 520.11V30.7401C945.86 24.1845 940.546 18.8701 933.99 18.8701Z" fill="#CCCCCC"/>
<path d="M432.95 101.22V76.0901H442.96C444.47 76.0901 445.75 76.3801 446.79 76.9701C447.83 77.5601 448.63 78.3901 449.17 79.4501C449.71 80.5201 449.98 81.8 449.98 83.28C449.98 84.76 449.71 86.0201 449.17 87.1001C448.63 88.1801 447.84 89.0101 446.79 89.6001C445.75 90.1901 444.47 90.4801 442.96 90.4801H435.98V101.21H432.96L432.95 101.22ZM435.97 87.8301H442.95C443.74 87.8301 444.42 87.69 444.98 87.42C445.54 87.14 445.98 86.7401 446.28 86.2001C446.58 85.6601 446.73 85.0101 446.73 84.2401V82.3701C446.73 81.6001 446.58 80.95 446.28 80.41C445.98 79.87 445.55 79.4601 444.98 79.1901C444.42 78.9101 443.74 78.78 442.95 78.78H435.97V87.8501V87.8301Z" fill="black"/>
<path d="M454.12 101.22V82.6401H457V86.0602H457.18C457.4 85.4602 457.73 84.9001 458.19 84.3901C458.65 83.8701 459.23 83.4501 459.95 83.1301C460.67 82.8101 461.53 82.6401 462.54 82.6401H463.66V85.5201H461.97C460.94 85.5201 460.05 85.6602 459.31 85.9302C458.57 86.2102 458 86.5702 457.6 87.0302C457.2 87.4902 457.01 88.0102 457.01 88.6102V101.21H454.13L454.12 101.22Z" fill="black"/>
<path d="M474.17 101.65C472.51 101.65 471.06 101.25 469.8 100.44C468.54 99.6399 467.56 98.5099 466.85 97.0599C466.14 95.6099 465.79 93.8999 465.79 91.9299C465.79 89.9599 466.14 88.2499 466.85 86.7999C467.56 85.3499 468.54 84.2199 469.8 83.4199C471.06 82.6199 472.52 82.21 474.17 82.21C475.82 82.21 477.28 82.6099 478.54 83.4199C479.8 84.2199 480.78 85.3499 481.49 86.7999C482.2 88.2499 482.55 89.9599 482.55 91.9299C482.55 93.8999 482.2 95.6099 481.49 97.0599C480.78 98.5099 479.8 99.6399 478.54 100.44C477.28 101.24 475.82 101.65 474.17 101.65ZM474.17 99.09C475.73 99.09 477 98.6099 477.99 97.6499C478.97 96.6899 479.47 95.2299 479.47 93.2599V90.6C479.47 88.63 478.98 87.17 477.99 86.21C477.01 85.25 475.73 84.7699 474.17 84.7699C472.61 84.7699 471.37 85.25 470.37 86.21C469.37 87.17 468.88 88.63 468.88 90.6V93.2599C468.88 95.2299 469.38 96.6899 470.37 97.6499C471.37 98.6099 472.63 99.09 474.17 99.09Z" fill="black"/>
<path d="M488.1 101.22V85.16H485.08V82.64H488.1V78.9C488.1 77.63 488.44 76.59 489.11 75.79C489.78 74.99 490.8 74.5801 492.17 74.5801H494.98V77.1001H490.98V82.64H501.38V101.22H498.5V85.16H490.98V101.22H488.1ZM499.94 78.29C499.34 78.29 498.9 78.1401 498.61 77.8401C498.32 77.5401 498.18 77.15 498.18 76.67V76.2001C498.18 75.7201 498.32 75.33 498.61 75.03C498.9 74.73 499.34 74.5801 499.94 74.5801C500.54 74.5801 501.01 74.73 501.29 75.03C501.57 75.33 501.7 75.7201 501.7 76.2001V76.67C501.7 77.15 501.56 77.5401 501.29 77.8401C501.01 78.1401 500.56 78.29 499.94 78.29Z" fill="black"/>
<path d="M510.56 101.22C509.58 101.22 508.82 100.94 508.29 100.37C507.76 99.8101 507.5 99.0901 507.5 98.2301V74.5801H510.38V98.7001H513.12V101.22H510.56Z" fill="black"/>
<path d="M524.28 101.65C522.6 101.65 521.14 101.25 519.89 100.44C518.64 99.6399 517.67 98.5099 516.97 97.0599C516.27 95.6099 515.93 93.8999 515.93 91.9299C515.93 89.9599 516.28 88.2499 516.97 86.7999C517.67 85.3499 518.64 84.2199 519.89 83.4199C521.14 82.6199 522.6 82.21 524.28 82.21C525.96 82.21 527.36 82.5999 528.56 83.3799C529.76 84.1599 530.68 85.23 531.33 86.6C531.98 87.97 532.3 89.5299 532.3 91.2799V92.6499H518.94V93.5099C518.94 95.1199 519.43 96.4599 520.4 97.5199C521.37 98.5899 522.72 99.12 524.45 99.12C525.63 99.12 526.65 98.8399 527.53 98.2899C528.41 97.7399 529.08 96.9499 529.56 95.9099L531.61 97.3899C531.01 98.6399 530.07 99.66 528.8 100.45C527.53 101.24 526.02 101.64 524.26 101.64L524.28 101.65ZM518.95 90.49H529.21V90.09C529.21 88.99 529.01 88.03 528.6 87.21C528.19 86.39 527.62 85.7599 526.87 85.2999C526.13 84.8399 525.26 84.62 524.28 84.62C523.25 84.62 522.33 84.86 521.53 85.34C520.73 85.82 520.1 86.49 519.64 87.34C519.18 88.19 518.96 89.16 518.96 90.24V90.49H518.95Z" fill="black"/>
<path d="M361.29 135.11H217.81V278.59H361.29V135.11Z" fill="#F8D99A"/>
<path d="M764.01 69.2202H199.59V531.98H764.01V69.2202Z" fill="white"/>
<path d="M438.58 120.66L443.7 106H445.95L451.07 120.66H449.22L447.75 116.33H441.83L440.36 120.66H438.57H438.58ZM442.25 114.78H447.31L444.83 107.64H444.73L442.25 114.78Z" fill="black"/>
<path d="M458.28 120.91C457.54 120.91 456.9 120.74 456.38 120.41C455.86 120.07 455.43 119.57 455.11 118.9H455.03V120.66H453.35V105.12H455.03V111.59H455.11C455.39 110.9 455.8 110.4 456.35 110.07C456.9 109.74 457.54 109.58 458.28 109.58C459.19 109.58 459.97 109.81 460.63 110.27C461.29 110.73 461.8 111.39 462.15 112.23C462.51 113.08 462.69 114.08 462.69 115.24C462.69 116.4 462.51 117.39 462.15 118.24C461.79 119.09 461.29 119.75 460.63 120.21C459.97 120.67 459.19 120.9 458.28 120.9V120.91ZM457.81 119.4C458.76 119.4 459.51 119.1 460.06 118.51C460.61 117.92 460.88 117.13 460.88 116.17V114.32C460.88 113.35 460.61 112.57 460.06 111.98C459.51 111.39 458.77 111.09 457.81 111.09C457.31 111.09 456.84 111.18 456.41 111.36C455.98 111.54 455.64 111.79 455.39 112.1C455.14 112.41 455.01 112.77 455.01 113.17V117.2C455.01 117.66 455.14 118.06 455.39 118.39C455.64 118.72 455.98 118.97 456.41 119.15C456.84 119.33 457.3 119.41 457.81 119.41V119.4Z" fill="black"/>
<path d="M469.62 120.91C468.65 120.91 467.8 120.68 467.07 120.21C466.33 119.74 465.76 119.08 465.35 118.24C464.94 117.39 464.73 116.4 464.73 115.25C464.73 114.1 464.94 113.1 465.35 112.26C465.76 111.41 466.34 110.76 467.07 110.29C467.8 109.82 468.66 109.59 469.62 109.59C470.58 109.59 471.44 109.82 472.17 110.29C472.9 110.76 473.48 111.42 473.89 112.26C474.3 113.11 474.51 114.1 474.51 115.25C474.51 116.4 474.3 117.4 473.89 118.24C473.48 119.08 472.9 119.74 472.17 120.21C471.43 120.68 470.58 120.91 469.62 120.91ZM469.62 119.42C470.53 119.42 471.27 119.14 471.85 118.58C472.42 118.02 472.71 117.17 472.71 116.02V114.47C472.71 113.32 472.42 112.47 471.85 111.91C471.28 111.35 470.53 111.07 469.62 111.07C468.71 111.07 467.99 111.35 467.4 111.91C466.82 112.47 466.53 113.32 466.53 114.47V116.02C466.53 117.17 466.82 118.02 467.4 118.58C467.98 119.14 468.72 119.42 469.62 119.42Z" fill="black"/>
<path d="M480.79 120.91C479.68 120.91 478.8 120.55 478.13 119.83C477.46 119.11 477.13 118.09 477.13 116.77V109.82H478.81V116.48C478.81 117.45 479.02 118.17 479.44 118.66C479.86 119.15 480.48 119.4 481.29 119.4C481.74 119.4 482.16 119.33 482.56 119.18C482.96 119.03 483.28 118.81 483.54 118.5C483.79 118.19 483.92 117.8 483.92 117.32V109.82H485.6V120.66H483.92V118.9H483.84C483.63 119.42 483.3 119.88 482.84 120.3C482.38 120.71 481.7 120.92 480.79 120.92V120.91Z" fill="black"/>
<path d="M491.56 120.66C490.99 120.66 490.55 120.49 490.24 120.16C489.93 119.82 489.78 119.4 489.78 118.88V111.3H488V109.83H489.01C489.37 109.83 489.62 109.76 489.76 109.61C489.9 109.46 489.96 109.21 489.96 108.84V106.82H491.47V109.82H493.84V111.29H491.47V119.19H493.68V120.66H491.58H491.56Z" fill="black"/>
<path d="M501.49 120.66V109.82H503.17V111.58H503.25C503.49 111.02 503.82 110.54 504.26 110.15C504.69 109.76 505.33 109.56 506.17 109.56C506.88 109.56 507.54 109.73 508.14 110.07C508.74 110.41 509.19 110.98 509.48 111.76H509.52C509.72 111.17 510.08 110.66 510.62 110.22C511.16 109.78 511.89 109.56 512.81 109.56C513.92 109.56 514.78 109.92 515.4 110.64C516.02 111.36 516.33 112.38 516.33 113.7V120.65H514.65V113.99C514.65 113.04 514.46 112.31 514.08 111.82C513.7 111.32 513.1 111.07 512.27 111.07C511.84 111.07 511.42 111.14 511.03 111.29C510.64 111.44 510.32 111.66 510.08 111.97C509.84 112.28 509.72 112.66 509.72 113.12V120.64H508.04V113.98C508.04 113.01 507.85 112.29 507.47 111.8C507.09 111.31 506.5 111.06 505.71 111.06C505.28 111.06 504.86 111.13 504.46 111.28C504.06 111.43 503.74 111.65 503.49 111.96C503.24 112.27 503.12 112.65 503.12 113.11V120.63H501.44L501.49 120.66Z" fill="black"/>
<path d="M523.9 120.91C522.92 120.91 522.07 120.68 521.34 120.21C520.61 119.74 520.05 119.08 519.64 118.24C519.23 117.4 519.03 116.4 519.03 115.25C519.03 114.1 519.23 113.1 519.64 112.26C520.05 111.41 520.61 110.76 521.34 110.29C522.07 109.82 522.92 109.59 523.9 109.59C524.88 109.59 525.7 109.82 526.4 110.27C527.1 110.73 527.64 111.35 528.02 112.15C528.4 112.95 528.59 113.86 528.59 114.88V115.68H520.8V116.18C520.8 117.12 521.08 117.9 521.65 118.52C522.22 119.14 523 119.45 524.01 119.45C524.7 119.45 525.29 119.29 525.81 118.97C526.32 118.65 526.72 118.19 527 117.58L528.2 118.44C527.85 119.17 527.3 119.76 526.56 120.23C525.82 120.7 524.94 120.92 523.91 120.92L523.9 120.91ZM520.79 114.4H526.78V114.17C526.78 113.53 526.66 112.97 526.42 112.49C526.18 112.01 525.85 111.64 525.41 111.38C524.98 111.11 524.47 110.98 523.9 110.98C523.3 110.98 522.76 111.12 522.29 111.4C521.82 111.68 521.45 112.07 521.19 112.57C520.92 113.07 520.79 113.63 520.79 114.26V114.41V114.4Z" fill="black"/>
<path d="M404.76 69.2202H199.59V531.98H404.76V69.2202Z" fill="#FFAB00"/>
<path d="M304.01 248.71C344.161 248.71 376.71 216.161 376.71 176.01C376.71 135.859 344.161 103.31 304.01 103.31C263.859 103.31 231.31 135.859 231.31 176.01C231.31 216.161 263.859 248.71 304.01 248.71Z" fill="white"/>
<path d="M275.59 278.85V264.19H277.63L282.98 273.14L284.74 276.39H284.8V264.19H286.52V278.85H284.48L279.13 269.9L277.37 266.64H277.31V278.84H275.59V278.85Z" fill="#FDFFFF"/>
<path d="M294.36 279.1C293.39 279.1 292.54 278.87 291.81 278.4C291.07 277.93 290.5 277.27 290.09 276.43C289.68 275.58 289.47 274.59 289.47 273.44C289.47 272.29 289.68 271.29 290.09 270.45C290.5 269.6 291.08 268.95 291.81 268.48C292.54 268.01 293.4 267.78 294.36 267.78C295.32 267.78 296.18 268.01 296.91 268.48C297.64 268.95 298.22 269.61 298.63 270.45C299.04 271.3 299.25 272.29 299.25 273.44C299.25 274.59 299.04 275.59 298.63 276.43C298.22 277.27 297.64 277.93 296.91 278.4C296.17 278.87 295.32 279.1 294.36 279.1ZM294.36 277.61C295.27 277.61 296.01 277.33 296.59 276.77C297.16 276.21 297.45 275.36 297.45 274.21V272.66C297.45 271.51 297.16 270.66 296.59 270.1C296.02 269.54 295.27 269.26 294.36 269.26C293.45 269.26 292.73 269.54 292.14 270.1C291.56 270.66 291.27 271.51 291.27 272.66V274.21C291.27 275.36 291.56 276.21 292.14 276.77C292.72 277.33 293.46 277.61 294.36 277.61Z" fill="#FDFFFF"/>
<path d="M306.12 279.1C305.15 279.1 304.3 278.87 303.57 278.4C302.83 277.93 302.26 277.27 301.85 276.43C301.44 275.58 301.23 274.59 301.23 273.44C301.23 272.29 301.44 271.29 301.85 270.45C302.26 269.6 302.84 268.95 303.57 268.48C304.3 268.01 305.16 267.78 306.12 267.78C307.08 267.78 307.94 268.01 308.67 268.48C309.4 268.95 309.98 269.61 310.39 270.45C310.8 271.3 311.01 272.29 311.01 273.44C311.01 274.59 310.8 275.59 310.39 276.43C309.98 277.27 309.4 277.93 308.67 278.4C307.93 278.87 307.08 279.1 306.12 279.1ZM306.12 277.61C307.03 277.61 307.77 277.33 308.35 276.77C308.92 276.21 309.21 275.36 309.21 274.21V272.66C309.21 271.51 308.92 270.66 308.35 270.1C307.78 269.54 307.03 269.26 306.12 269.26C305.21 269.26 304.49 269.54 303.9 270.1C303.32 270.66 303.03 271.51 303.03 272.66V274.21C303.03 275.36 303.32 276.21 303.9 276.77C304.48 277.33 305.22 277.61 306.12 277.61Z" fill="#FDFFFF"/>
<path d="M313.79 278.85V268.01H315.47V270.01H315.58C315.71 269.66 315.9 269.33 316.17 269.03C316.44 268.73 316.78 268.48 317.2 268.29C317.62 268.1 318.12 268.01 318.71 268.01H319.36V269.69H318.37C317.77 269.69 317.25 269.77 316.82 269.93C316.39 270.09 316.05 270.31 315.82 270.57C315.59 270.84 315.47 271.14 315.47 271.49V278.84H313.79V278.85Z" fill="#FDFFFF"/>
<path d="M324.18 279.1C323.03 279.1 322.14 278.81 321.5 278.22C320.86 277.63 320.54 276.83 320.54 275.83C320.54 275.14 320.71 274.57 321.04 274.1C321.37 273.63 321.88 273.27 322.56 273.03C323.24 272.79 324.1 272.66 325.15 272.66H327.29V271.59C327.29 270.82 327.08 270.23 326.66 269.83C326.24 269.42 325.6 269.22 324.73 269.22C324.09 269.22 323.54 269.37 323.09 269.66C322.64 269.95 322.27 270.35 321.98 270.84L320.97 269.9C321.26 269.33 321.73 268.83 322.38 268.41C323.02 267.99 323.84 267.78 324.82 267.78C326.12 267.78 327.14 268.1 327.88 268.75C328.61 269.39 328.98 270.29 328.98 271.44V277.4H330.22V278.87H329.27C328.67 278.87 328.23 278.72 327.95 278.41C327.67 278.1 327.49 277.71 327.42 277.23L327.4 277.1H327.29C327.07 277.76 326.68 278.26 326.12 278.6C325.57 278.94 324.91 279.11 324.16 279.11L324.18 279.1ZM324.45 277.67C325.01 277.67 325.5 277.58 325.93 277.41C326.36 277.24 326.69 277 326.94 276.7C327.19 276.4 327.31 276.07 327.31 275.7V273.91H325.08C324.13 273.91 323.43 274.05 322.98 274.33C322.53 274.61 322.31 275.02 322.31 275.55V275.99C322.31 276.52 322.51 276.93 322.9 277.23C323.29 277.52 323.81 277.67 324.45 277.67Z" fill="#FDFFFF"/>
<path d="M284.9 308.32V298.55H286.26L289.83 304.51L291.01 306.68H291.05V298.55H292.2V308.32H290.84L287.27 302.36L286.09 300.19H286.05V308.32H284.9Z" fill="#FDFFFF"/>
<path d="M296.531 308.48C295.761 308.48 295.171 308.28 294.741 307.89C294.311 307.5 294.101 306.97 294.101 306.29C294.101 305.83 294.211 305.45 294.441 305.14C294.661 304.83 295.001 304.59 295.451 304.43C295.901 304.27 296.481 304.18 297.181 304.18H298.611V303.47C298.611 302.96 298.471 302.57 298.191 302.29C297.911 302.02 297.481 301.88 296.901 301.88C296.471 301.88 296.111 301.98 295.811 302.17C295.511 302.37 295.261 302.63 295.071 302.95L294.401 302.32C294.601 301.94 294.911 301.61 295.341 301.33C295.771 301.05 296.311 300.91 296.961 300.91C297.831 300.91 298.511 301.12 299.001 301.55C299.491 301.98 299.741 302.58 299.741 303.34V307.32H300.571V308.3H299.941C299.541 308.3 299.241 308.2 299.061 307.99C298.871 307.78 298.761 307.52 298.711 307.21V307.13H298.631C298.481 307.57 298.221 307.9 297.851 308.13C297.481 308.36 297.041 308.47 296.541 308.47L296.531 308.48ZM296.711 307.53C297.081 307.53 297.411 307.47 297.701 307.36C297.991 307.25 298.211 307.08 298.371 306.88C298.531 306.68 298.621 306.46 298.621 306.21V305.02H297.141C296.511 305.02 296.041 305.11 295.741 305.3C295.441 305.49 295.291 305.76 295.291 306.11V306.4C295.291 306.75 295.421 307.03 295.681 307.23C295.941 307.43 296.291 307.52 296.721 307.52L296.711 307.53Z" fill="#FDFFFF"/>
<path d="M302.161 308.32V301.1H303.281V302.28H303.341C303.501 301.91 303.721 301.59 304.011 301.33C304.301 301.07 304.721 300.94 305.281 300.94C305.761 300.94 306.191 301.05 306.601 301.28C307.001 301.51 307.301 301.88 307.501 302.41H307.531C307.661 302.02 307.911 301.67 308.271 301.38C308.631 301.09 309.121 300.94 309.731 300.94C310.471 300.94 311.041 301.18 311.461 301.66C311.881 302.14 312.081 302.82 312.081 303.7V308.33H310.961V303.89C310.961 303.26 310.831 302.77 310.581 302.44C310.331 302.11 309.931 301.94 309.381 301.94C309.091 301.94 308.821 301.99 308.551 302.09C308.291 302.19 308.081 302.34 307.921 302.54C307.761 302.75 307.681 303 307.681 303.31V308.32H306.561V303.88C306.561 303.24 306.431 302.75 306.181 302.42C305.931 302.09 305.541 301.93 305.001 301.93C304.711 301.93 304.431 301.98 304.171 302.08C303.901 302.18 303.691 302.33 303.531 302.53C303.371 302.74 303.281 302.99 303.281 303.3V308.31H302.161V308.32Z" fill="#FDFFFF"/>
<path d="M317.101 308.48C316.451 308.48 315.881 308.32 315.391 308.01C314.901 307.7 314.531 307.26 314.261 306.69C313.991 306.13 313.851 305.46 313.851 304.7C313.851 303.94 313.981 303.27 314.261 302.7C314.531 302.14 314.911 301.7 315.391 301.38C315.871 301.07 316.441 300.91 317.101 300.91C317.761 300.91 318.301 301.06 318.771 301.37C319.241 301.68 319.601 302.09 319.851 302.62C320.101 303.15 320.231 303.76 320.231 304.44V304.97H315.041V305.31C315.041 305.94 315.231 306.46 315.611 306.87C315.991 307.29 316.511 307.49 317.191 307.49C317.651 307.49 318.051 307.38 318.391 307.17C318.731 306.96 318.991 306.65 319.181 306.25L319.981 306.82C319.751 307.31 319.381 307.7 318.891 308.01C318.401 308.32 317.811 308.47 317.131 308.47L317.101 308.48ZM315.021 304.14H319.011V303.99C319.011 303.56 318.931 303.19 318.771 302.87C318.611 302.55 318.391 302.31 318.101 302.13C317.811 301.95 317.471 301.86 317.091 301.86C316.711 301.86 316.331 301.95 316.021 302.14C315.711 302.33 315.461 302.59 315.291 302.92C315.111 303.25 315.021 303.63 315.021 304.05V304.15V304.14Z" fill="#FDFFFF"/>
<path d="M438.81 363.91H727.24" stroke="#FFBC0C"/>
<path opacity="0.2" d="M657.06 758.45L167.91 761.98L120.96 740.83L583.98 642.44L657.06 758.45Z" fill="black"/>
<path d="M638.48 722.66H120.96L171.36 642.44H588.08L638.48 722.66Z" fill="#E1E1E1"/>
<path d="M638.48 722.66H120.96V740.83H638.48V722.66Z" fill="#BBBBBB"/>
<path d="M199.01 656.6H172.86L176.69 648.38H202.01L199.01 656.6Z" fill="white"/>
<path d="M202.39 656.6L205.7 648.38H231.02L228.55 656.6H202.39Z" fill="white"/>
<path d="M231.93 656.6L234.72 648.38H260.04L258.09 656.6H231.93Z" fill="white"/>
<path d="M261.57 656.6L263.82 648.38H289.15L287.72 656.6H261.57Z" fill="white"/>
<path d="M291.14 656.6L292.87 648.38H318.19L317.29 656.6H291.14Z" fill="white"/>
<path d="M320.71 656.6L321.91 648.38H347.24L346.86 656.6H320.71Z" fill="white"/>
<path d="M350.2 656.6L350.88 648.38H376.2L376.36 656.6H350.2Z" fill="white"/>
<path d="M379.51 656.6L379.67 648.38H404.99L405.66 656.6H379.51Z" fill="white"/>
<path d="M409.01 656.6L408.63 648.38H433.96L435.16 656.6H409.01Z" fill="white"/>
<path d="M438.58 656.6L437.68 648.38H463L464.73 656.6H438.58Z" fill="white"/>
<path d="M468.15 656.6L466.72 648.38H492.05L494.3 656.6H468.15Z" fill="white"/>
<path d="M497.78 656.6L495.83 648.38H521.15L523.94 656.6H497.78Z" fill="white"/>
<path d="M527.32 656.6L524.85 648.38H550.17L553.47 656.6H527.32Z" fill="white"/>
<path d="M556.86 656.6H583.01L579.18 648.38H553.86L556.86 656.6Z" fill="white"/>
<path d="M193.58 671.97H166.47L170.44 663.45H196.69L193.58 671.97Z" fill="white"/>
<path d="M197.09 671.97L200.52 663.45H226.77L224.2 671.97H197.09Z" fill="white"/>
<path d="M227.72 671.97L230.6 663.45H256.85L254.83 671.97H227.72Z" fill="white"/>
<path d="M258.44 671.97L260.78 663.45H287.03L285.55 671.97H258.44Z" fill="white"/>
<path d="M289.1 671.97L290.89 663.45H317.14L316.21 671.97H289.1Z" fill="white"/>
<path d="M319.76 671.97L321 663.45H347.26L346.87 671.97H319.76Z" fill="white"/>
<path d="M350.33 671.97L351.04 663.45H377.29L377.45 671.97H350.33Z" fill="white"/>
<path d="M380.72 671.97L380.88 663.45H407.13L407.83 671.97H380.72Z" fill="white"/>
<path d="M411.3 671.97L410.91 663.45H437.16L438.41 671.97H411.3Z" fill="white"/>
<path d="M441.96 671.97L441.02 663.45H467.28L469.07 671.97H441.96Z" fill="white"/>
<path d="M472.61 671.97L471.14 663.45H497.39L499.73 671.97H472.61Z" fill="white"/>
<path d="M503.34 671.97L501.32 663.45H527.57L530.45 671.97H503.34Z" fill="white"/>
<path d="M533.959 671.97L531.399 663.45H557.649L561.079 671.97H533.959Z" fill="white"/>
<path d="M564.589 671.97H591.699L587.729 663.45H561.479L564.589 671.97Z" fill="white"/>
<path d="M188.71 687.07H160.78L164.88 678.29H191.92L188.71 687.07Z" fill="white"/>
<path d="M192.33 687.07L195.86 678.29H222.9L220.25 687.07H192.33Z" fill="white"/>
<path d="M223.87 687.07L226.84 678.29H253.88L251.8 687.07H223.87Z" fill="white"/>
<path d="M255.52 687.07L257.92 678.29H284.96L283.44 687.07H255.52Z" fill="white"/>
<path d="M287.09 687.07L288.94 678.29H315.98L315.02 687.07H287.09Z" fill="white"/>
<path d="M318.67 687.07L319.95 678.29H346.99L346.6 687.07H318.67Z" fill="white"/>
<path d="M350.16 687.07L350.89 678.29H377.93L378.09 687.07H350.16Z" fill="white"/>
<path d="M381.46 687.07L381.62 678.29H408.66L409.39 687.07H381.46Z" fill="white"/>
<path d="M412.96 687.07L412.56 678.29H439.6L440.88 687.07H412.96Z" fill="white"/>
<path d="M444.529 687.07L443.569 678.29H470.609L472.459 687.07H444.529Z" fill="white"/>
<path d="M476.11 687.07L474.59 678.29H501.63L504.04 687.07H476.11Z" fill="white"/>
<path d="M507.75 687.07L505.67 678.29H532.71L535.68 687.07H507.75Z" fill="white"/>
<path d="M539.3 687.07L536.65 678.29H563.69L567.22 687.07H539.3Z" fill="white"/>
<path d="M570.84 687.07H598.77L594.67 678.29H567.63L570.84 687.07Z" fill="white"/>
<path d="M181.94 702.47H153.04L157.27 693.39H185.25L181.94 702.47Z" fill="white"/>
<path d="M185.68 702.47L189.33 693.39H217.31L214.58 702.47H185.68Z" fill="white"/>
<path d="M218.32 702.47L221.39 693.39H249.37L247.22 702.47H218.32Z" fill="white"/>
<path d="M251.06 702.47L253.56 693.39H281.54L279.96 702.47H251.06Z" fill="white"/>
<path d="M283.74 702.47L285.65 693.39H313.63L312.64 702.47H283.74Z" fill="white"/>
<path d="M441.55 693.39H413.57H409.54H381.56H377.73H349.75H317.74L316.41 702.47H349H377.9H381.39H410.29H413.98H442.88L441.55 693.39Z" fill="white"/>
<path d="M446.66 702.47L445.66 693.39H473.64L475.55 702.47H446.66Z" fill="white"/>
<path d="M479.33 702.47L477.76 693.39H505.74L508.23 702.47H479.33Z" fill="white"/>
<path d="M512.08 702.47L509.92 693.39H537.9L540.98 702.47H512.08Z" fill="white"/>
<path d="M544.72 702.47L541.98 693.39H569.96L573.62 702.47H544.72Z" fill="white"/>
<path d="M577.36 702.47H606.25L602.02 693.39H574.04L577.36 702.47Z" fill="white"/>
<path opacity="0.2" d="M711.28 708.7C711.79 711.13 715.53 714.27 717.16 715.89C722.58 721.31 729.18 725.53 736.34 728.28C743.01 730.85 750.12 732.13 757.25 732.33C766.31 732.58 774.81 732.46 782.69 727.39C784.74 726.07 786.73 724.41 787.57 722.12C790.09 715.22 782.48 706.99 778.85 701.69C773 693.15 766.56 684.94 759.22 677.61C751.23 669.62 741.66 661.94 730.45 659.22C699.41 651.69 711.28 708.69 711.28 708.7Z" fill="black"/>
<path d="M779.85 713.72C779.69 714.52 779.41 715.25 779.02 715.88C779.02 715.88 779.02 715.9 779 715.9C769.23 731.72 717.07 722.68 711.26 708.7C710.76 707.48 710.25 706.36 709.78 705.32C702.54 689.77 697.94 694.1 685.24 683.56C684.69 683.1 684.18 682.63 683.76 682.14C683.71 682.08 683.65 682.03 683.6 681.96C676.44 673.81 685.24 663.42 685.24 663.42C685.78 663 686.31 662.59 686.85 662.2V662.18C691.1 659.11 695.5 657.02 699.99 655.77C702.04 655.18 704.12 654.79 706.2 654.57C743.39 650.34 783.27 697.63 779.85 713.72Z" fill="white"/>
<path d="M779.01 715.9C769.24 731.72 717.08 722.68 711.27 708.7C710.77 707.48 710.26 706.36 709.79 705.32C702.5 689.84 697.56 694.54 685.25 683.56C684.71 683.09 684.23 682.62 683.77 682.14C683.72 682.08 683.66 682.03 683.61 681.96C676.45 673.81 685.25 663.42 685.25 663.42C685.79 663 686.32 662.59 686.86 662.2C685.82 665.21 684.83 672.01 693.07 678.61C695 680.17 697.22 681.33 699.49 682.33C701.29 683.11 704.92 685.86 711.39 694.89C721.75 709.32 720.33 711.15 743.31 717.45C765.77 723.61 778.44 716.23 778.99 715.9H779.01Z" fill="#E1E1E1"/>
<path d="M722.79 667.23C709.49 656.19 700.01 655.78 700.01 655.78C702.06 655.19 704.14 654.8 706.22 654.58C716.83 658.17 722.66 666.79 722.79 667.23Z" fill="#E1E1E1"/>
<path d="M440.06 137.4V155.7" stroke="black" stroke-miterlimit="10"/>
<mask id="mask0_290_169" style="mask-type:luminance" maskUnits="userSpaceOnUse" x="231" y="103" width="146" height="146">
<path d="M304.01 248.85C344.161 248.85 376.71 216.301 376.71 176.15C376.71 135.999 344.161 103.45 304.01 103.45C263.859 103.45 231.31 135.999 231.31 176.15C231.31 216.301 263.859 248.85 304.01 248.85Z" fill="white"/>
</mask>
<g mask="url(#mask0_290_169)">
<path d="M303.81 229.15C323.55 229.15 340.36 225.07 340.36 225.07L342.45 222.7L344.92 224.6H352.7C351.18 219.76 353.27 205.62 353.27 205.62L354.98 197.74H252.75L254.36 205.62C254.36 205.62 256.45 219.76 254.93 224.6H262.71L265.18 222.7L267.27 225.07C267.27 225.07 284.07 229.15 303.82 229.15" fill="url(#paint0_linear_290_169)"/>
<path d="M256.88 206.17C265.17 206.17 271.89 199.45 271.89 191.16C271.89 182.87 265.17 176.15 256.88 176.15C248.59 176.15 241.87 182.87 241.87 191.16C241.87 199.45 248.59 206.17 256.88 206.17Z" fill="url(#paint1_linear_290_169)"/>
<path d="M352 206.17C360.29 206.17 367.01 199.45 367.01 191.16C367.01 182.87 360.29 176.15 352 176.15C343.71 176.15 336.99 182.87 336.99 191.16C336.99 199.45 343.71 206.17 352 206.17Z" fill="url(#paint2_linear_290_169)"/>
<path d="M314.86 217.34H292.66V231.94H314.86V217.34Z" fill="#FCE8E1"/>
<path d="M303.76 224.71C332.744 224.71 356.24 201.214 356.24 172.23C356.24 143.246 332.744 119.75 303.76 119.75C274.776 119.75 251.28 143.246 251.28 172.23C251.28 201.214 274.776 224.71 303.76 224.71Z" fill="url(#paint3_linear_290_169)"/>
<path d="M297.82 209.39H309.54" stroke="#191718" stroke-miterlimit="10" stroke-linecap="round"/>
<path d="M357.77 153.5C359.18 153.55 360.74 153.37 362.36 152.74C362.36 152.74 357.05 149.18 352.37 143.18C350.36 140.32 348.39 138.1 347.29 136.87C347.29 136.87 344.61 133.98 341.96 131.51C328.39 118.84 311.81 118.88 304.01 119C296.21 118.89 279.63 118.84 266.06 131.51C262.99 134.37 257.72 139.23 252.23 148.83C249.9 152.91 247.44 157.25 244.6 160.98L241 165.04L248.61 164.55C248.08 167.45 247.81 170.42 247.81 173.46C247.81 181.89 248.84 187.63 252.57 194.69H261.09C260.63 187.13 261.86 177.83 261.86 177.83C262.49 183.31 263.5 190.06 264.22 194.69L274.02 194.96L275.91 167.92C275.67 173.32 276.59 186.89 278.16 194.86H305.03L355.45 194.7C356.46 192.82 357.73 190.11 358.71 186.7C359.42 184.2 361.05 179.8 360.98 172.99C360.91 166.08 360.07 160.17 357.77 153.52V153.5Z" fill="url(#paint4_linear_290_169)"/>
<path d="M283.64 248.27C283.64 248.27 274.39 278.2 274.8 289.78L283.64 248.27Z" fill="url(#paint5_linear_290_169)"/>
<path d="M323.59 248.27C323.59 248.27 332.84 278.2 332.43 289.78L323.59 248.27Z" fill="url(#paint6_linear_290_169)"/>
<path d="M339.29 241.73L330.25 257.91L302.18 248.72L277.36 257.91L268.32 241.73C268.32 241.73 277.49 229.11 294.13 226.09L300.61 235.04L302.77 231.93H304.83L307 235.04L313.48 226.09C330.12 229.11 339.29 241.73 339.29 241.73Z" fill="#E6E6E6"/>
<path d="M314.95 223.53C314.95 223.53 312.26 230.33 304.83 231.94H302.77L310.79 241.1C310.79 241.1 321.6 234.64 324.92 228.5L314.95 223.53Z" fill="#CCCCCC"/>
<path d="M292.66 223.53C292.66 223.53 295.35 230.33 302.78 231.94H305.05L296.82 241.1C296.82 241.1 286.01 234.64 282.69 228.5L292.66 223.53Z" fill="#CCCCCC"/>
</g>
<g style="mix-blend-mode:screen" opacity="0.3">
<path d="M933.99 18.8701H29.62C23.0644 18.8701 17.75 24.1845 17.75 30.7401V520.11C17.75 526.666 23.0644 531.98 29.62 531.98H933.99C940.546 531.98 945.86 526.666 945.86 520.11V30.7401C945.86 24.1845 940.546 18.8701 933.99 18.8701Z" fill="#FFFCDB"/>
</g>
<path d="M137.46 575.57C137.42 576.41 137.37 577.26 137.3 578.1C137.25 578.88 137.19 579.66 137.12 580.44C137.12 580.53 137.12 580.61 137.1 580.7C137.04 581.52 136.96 582.34 136.88 583.15C136.8 583.99 136.72 584.83 136.62 585.67C136.33 588.35 135.99 591.03 135.62 593.7C135.48 594.71 135.34 595.71 135.19 596.71C135.04 597.71 134.89 598.71 134.74 599.71C134.66 600.22 134.59 600.72 134.51 601.22C133.77 606.05 132.98 610.89 132.25 615.73C132.19 616.12 132.13 616.52 132.08 616.92C132.01 617.34 131.95 617.76 131.89 618.18H39.79C40.12 618.18 42.13 600.34 42.36 598.61C44.73 580.49 45.6 562.44 46.35 544.19C46.47 541.13 46.6 538.06 46.72 534.99H137.71C137.71 548.52 138.16 562.06 137.46 575.57Z" fill="#F4DC67"/>
<path opacity="0.4" d="M137.46 575.57C137.42 576.41 137.37 577.26 137.3 578.1C137.25 578.88 137.19 579.66 137.12 580.44C137.12 580.53 137.12 580.61 137.1 580.7C137.04 581.52 136.96 582.34 136.88 583.15C136.8 583.99 136.72 584.83 136.62 585.67C136.33 588.35 135.99 591.03 135.62 593.7C135.48 594.71 135.34 595.71 135.19 596.71C135.04 597.71 134.89 598.71 134.74 599.71C134.66 600.22 134.59 600.72 134.51 601.22C133.77 606.05 132.98 610.89 132.25 615.73C132.19 616.12 132.13 616.52 132.08 616.92C132.01 617.34 131.95 617.76 131.89 618.18H58.8901L59.5301 534.99H137.71C137.71 548.52 138.16 562.06 137.46 575.57Z" fill="#FFF4C5"/>
<path d="M64.3098 558C64.6798 556.79 66.3198 555.62 67.5798 556.32C69.0498 557.13 68.5898 559.42 68.1298 560.67C67.5598 562.24 66.6398 563.68 65.7398 565.07C64.7698 566.56 63.7798 568.05 62.7998 569.54C62.4998 570 62.8898 570.71 63.4498 570.67C65.0198 570.55 66.5998 570.43 68.1698 570.3C69.7398 570.17 71.2697 569.95 72.7897 570.19C73.7297 570.34 74.1398 568.9 73.1898 568.74C71.6098 568.48 70.0398 568.65 68.4498 568.77C66.7798 568.9 65.1198 569.03 63.4498 569.16L64.0997 570.29C65.3697 568.35 66.6997 566.44 67.8997 564.45C68.9697 562.67 70.1198 560.58 70.0698 558.43C70.0298 556.56 68.9298 554.69 66.8898 554.64C65.0498 554.59 63.3898 555.87 62.8598 557.59C62.5698 558.51 64.0198 558.91 64.3098 557.99V558Z" fill="black"/>
<path d="M74.28 556.65C76.08 556.45 77.88 556.32 79.68 556.26C80.2 556.24 81.41 555.98 81.74 556.47C82.1 557.01 81.91 558.1 81.91 558.69C81.88 562.36 81.54 566.02 81.21 569.67C81.12 570.63 82.62 570.62 82.71 569.67C82.91 567.54 83.1 565.41 83.24 563.28C83.37 561.27 83.54 559.18 83.4 557.16C83.35 556.49 83.21 555.79 82.72 555.29C82.12 554.68 81.28 554.72 80.49 554.74C78.41 554.78 76.34 554.92 74.27 555.15C73.32 555.26 73.31 556.76 74.27 556.65H74.28Z" fill="black"/>
<path d="M79.34 562.71C82.11 562.61 84.87 562.5 87.64 562.4C88.6 562.36 88.61 560.86 87.64 560.9C84.87 561 82.11 561.11 79.34 561.21C78.38 561.25 78.37 562.75 79.34 562.71Z" fill="black"/>
<path d="M95.0497 551.68C94.3297 558.12 93.5297 564.56 92.7997 571C92.6897 571.96 94.1897 571.95 94.2997 571C95.0397 564.56 95.8297 558.12 96.5497 551.68C96.6597 550.72 95.1597 550.73 95.0497 551.68Z" fill="black"/>
<path d="M104.66 558.18C105.78 557.29 106.95 556.48 108.18 555.74L107.08 555.29C107.48 556.57 107.51 557.87 107.53 559.2C107.55 560.53 107.55 561.84 107.53 563.17C107.5 565.87 107.39 568.56 107.22 571.26C107.16 572.22 108.66 572.22 108.72 571.26C108.9 568.46 109.01 565.66 109.03 562.86C109.06 560.27 109.31 557.41 108.52 554.9C108.38 554.45 107.85 554.19 107.42 554.45C106.09 555.25 104.82 556.15 103.6 557.12C102.85 557.72 103.91 558.78 104.66 558.18Z" fill="black"/>
<path d="M114.89 557.34L116.89 556.17L117.39 555.88C117.77 555.75 117.72 555.65 117.25 555.59C117.2 555.62 117.28 556.37 117.28 556.51C117.33 558.09 117.37 559.67 117.39 561.25C117.43 564.36 117.42 567.47 117.36 570.58C117.34 571.55 118.84 571.55 118.86 570.58C118.93 566.76 118.93 562.93 118.85 559.11C118.83 558.19 118.81 557.28 118.78 556.36C118.76 555.76 118.84 554.94 118.33 554.5C117.79 554.03 117.18 554.28 116.63 554.59C115.79 555.07 114.96 555.56 114.13 556.05C113.3 556.54 114.05 557.83 114.89 557.35V557.34Z" fill="black"/>
<path d="M50.9799 590.61C51.6599 594.04 52.1299 597.51 52.3699 601C52.4399 601.95 53.8599 601.98 53.8699 601C53.8899 598.48 54.2599 595.98 54.9599 593.56C55.2699 592.49 55.6199 591.35 56.3299 590.47C56.8999 589.77 57.7899 589.18 58.6999 589.55C59.0799 589.71 59.5199 589.38 59.6199 589.03C59.7399 588.6 59.4699 588.26 59.0999 588.11C57.9699 587.64 56.7499 588.11 55.8499 588.85C54.8399 589.68 54.2599 590.92 53.8399 592.13C52.8599 594.97 52.3999 598.02 52.3699 601.01H53.8699C53.6199 597.39 53.1399 593.78 52.4299 590.22C52.2399 589.27 50.7999 589.67 50.9799 590.62V590.61Z" fill="black"/>
<path d="M62.6498 594.69C63.8998 594.85 65.3299 595.03 66.5099 594.46C67.6899 593.89 67.8398 592.52 67.9098 591.34C67.9698 590.27 67.6598 589.04 66.5998 588.54C65.4898 588.02 64.2499 588.59 63.4499 589.39C61.7899 591.05 60.7099 593.69 60.8799 596.05C61.0299 598.13 62.1798 600.17 64.1598 601C66.2898 601.89 68.8098 601 70.0998 599.15C70.6498 598.36 69.3498 597.61 68.7998 598.39C68.0698 599.44 66.6798 600 65.4198 599.81C63.9998 599.59 62.9699 598.38 62.5699 597.06C62.0899 595.47 62.4698 593.74 63.2198 592.3C63.6098 591.55 64.0998 590.73 64.7698 590.2C65.3598 589.74 66.1498 589.66 66.3498 590.51C66.4698 591 66.3899 591.54 66.3199 592.03C66.2599 592.44 66.2199 592.92 65.8099 593.13C64.9099 593.59 63.5799 593.31 62.6299 593.19C62.2199 593.14 61.8799 593.57 61.8799 593.94C61.8799 594.39 62.2299 594.64 62.6299 594.69H62.6498Z" fill="black"/>
<path d="M78.0599 589.1C76.6099 588.24 74.3899 587.51 73.2399 589.19C72.3099 590.55 72.11 592.49 73.07 593.87C73.96 595.14 75.4799 595.73 76.3999 596.95C76.7799 597.46 77.1399 598.31 76.3799 598.64C75.6199 598.97 74.6699 598.64 73.8699 598.67C72.9099 598.71 72.8999 600.21 73.8699 600.17C74.7499 600.14 75.6299 600.4 76.4999 600.17C77.1899 600 77.8499 599.57 78.1499 598.9C78.8399 597.38 77.5999 595.83 76.4799 594.93C75.4299 594.09 73.8099 593.21 73.9299 591.65C73.9699 591.09 74.2399 589.99 74.7999 589.7C75.1399 589.53 75.6 589.68 75.95 589.77C76.44 589.91 76.8799 590.11 77.3099 590.37C78.1399 590.86 78.9 589.57 78.07 589.07L78.0599 589.1Z" fill="black"/>
<path d="M82.54 590C82.55 591.66 82.68 593.32 82.9 594.96C83.11 596.47 83.28 598.22 84.05 599.57C84.43 600.24 85.1101 600.67 85.8701 600.31C86.5201 600 87.0001 599.31 87.4301 598.76C88.3501 597.59 89.1501 596.32 89.8101 594.99C90.5701 593.45 91.1801 591.84 91.6801 590.2L90.21 590C90.37 592.79 90.5201 595.59 90.6801 598.38C90.7301 599.34 92.2301 599.35 92.1801 598.38C92.0201 595.59 91.87 592.79 91.71 590C91.66 589.16 90.4901 588.97 90.2401 589.8C89.7101 591.53 89.07 593.22 88.22 594.82C87.81 595.59 87.35 596.35 86.85 597.06C86.59 597.43 86.31 597.79 86.02 598.14C85.85 598.34 85.4601 598.96 85.1901 598.94L85.5701 599.04C85.0901 598.84 84.9301 597.68 84.8301 597.21C84.6601 596.42 84.52 595.62 84.4 594.82C84.17 593.22 84.07 591.6 84.05 589.99C84.05 589.03 82.54 589.02 82.55 589.99L82.54 590Z" fill="black"/>
<path d="M96.5201 590.56C96.8801 593.89 96.9001 597.24 96.5901 600.58C96.5101 601.41 97.9301 601.61 98.0601 600.78C98.8201 596.14 100.93 591.81 103.97 588.24L102.79 588.09C103.54 589.5 103.79 591.2 104.04 592.77C104.32 594.48 104.46 596.2 104.52 597.93C104.55 598.81 105.7 598.91 105.99 598.13C106.6 596.49 107.42 594.93 108.4 593.48C108.89 592.75 109.43 592.05 110.01 591.39C110.29 591.06 110.58 590.75 110.88 590.44C111.09 590.22 111.5 589.67 111.8 589.62L111.22 589.54C111.04 589.42 111.26 589.82 111.3 589.94C111.36 590.16 111.4 590.39 111.44 590.62C111.53 591.12 111.59 591.63 111.65 592.14C111.75 593.06 111.83 593.98 111.88 594.9C111.97 596.8 111.94 598.71 111.79 600.61C111.72 601.57 113.22 601.57 113.29 600.61C113.47 598.27 113.48 595.93 113.29 593.59C113.2 592.47 113.08 591.33 112.89 590.22C112.76 589.45 112.53 588.11 111.5 588.15C110.63 588.19 109.82 589.35 109.29 589.94C108.61 590.69 107.98 591.48 107.4 592.3C106.21 593.98 105.26 595.8 104.54 597.73L106.01 597.93C105.95 596.07 105.78 594.21 105.48 592.37C105.2 590.66 104.9 588.88 104.07 587.33C103.86 586.93 103.2 586.82 102.89 587.18C99.6802 590.95 97.4001 595.49 96.5901 600.39L98.0601 600.59C98.3701 597.25 98.3401 593.9 97.9901 590.57C97.8901 589.62 96.3901 589.61 96.4901 590.57L96.5201 590.56Z" fill="black"/>
<path d="M118.31 594.69C119.57 594.85 120.99 595.03 122.18 594.46C123.26 593.95 123.55 592.82 123.75 591.74C123.95 590.66 123.94 589.26 122.85 588.62C121.76 587.98 120.48 588.54 119.62 589.28C117.84 590.8 116.59 593.29 116.37 595.61C116.18 597.68 117.09 599.99 119.05 600.92C121.14 601.91 123.8 601.07 125.2 599.3C125.45 598.98 125.51 598.55 125.2 598.24C124.94 597.98 124.39 597.92 124.14 598.24C123.28 599.33 121.88 600.03 120.48 599.82C119.08 599.61 118.17 598.33 117.92 596.99C117.6 595.29 118.31 593.51 119.21 592.11C119.66 591.42 120.19 590.68 120.87 590.2C121.16 590 121.61 589.76 121.97 589.87C122.3 589.97 122.35 590.36 122.36 590.66C122.38 591.17 122.24 591.7 122.12 592.19C122.02 592.59 121.9 592.94 121.51 593.13C120.59 593.59 119.28 593.32 118.31 593.2C117.9 593.15 117.56 593.58 117.56 593.95C117.56 594.4 117.91 594.65 118.31 594.7V594.69Z" fill="black"/>
<path d="M124.43 545.39C109.51 541.24 93.4697 539.97 78.1397 542.41C71.4297 543.48 64.6697 545.71 59.6797 550.52C55.4697 554.57 52.1297 561.13 54.0097 567.06C55.9997 573.35 63.8297 576.09 69.5097 577.8C76.6397 579.94 84.1997 580.7 91.6297 580.67C99.0597 580.64 106.97 579.59 114.34 577.46C119.67 575.92 126.32 573.73 128.62 568.12C129.9 565 129.32 561.48 127.68 558.6C125.88 555.43 122.87 553.21 119.61 551.7C115.92 550 111.9 548.94 107.93 548.15C103.65 547.3 99.2997 546.88 94.9397 546.98C93.9797 547 93.9697 548.5 94.9397 548.48C102.04 548.31 109.22 549.51 115.94 551.83C121.62 553.79 127.99 557.91 127.84 564.7C127.7 570.87 121.14 573.72 116.13 575.33C109.29 577.53 102.15 578.77 94.9697 579.08C88.0597 579.38 81.0297 578.94 74.2597 577.46C70.9697 576.74 67.7298 575.76 64.6398 574.43C61.9398 573.27 59.1397 571.89 57.1797 569.63C52.7997 564.58 55.7697 556.99 59.6997 552.66C64.0397 547.88 70.1697 545.47 76.3797 544.24C84.0397 542.72 92.0597 542.48 99.8497 542.87C108.04 543.29 116.15 544.63 124.05 546.83C124.98 547.09 125.38 545.64 124.45 545.38L124.43 545.39Z" fill="#AF1C1C"/>
<defs>
<linearGradient id="paint0_linear_290_169" x1="303.86" y1="197.73" x2="303.86" y2="229.15" gradientUnits="userSpaceOnUse">
<stop stop-color="#110F10"/>
<stop offset="1" stop-color="#453333"/>
</linearGradient>
<linearGradient id="paint1_linear_290_169" x1="243.04" y1="191.16" x2="273.06" y2="191.16" gradientUnits="userSpaceOnUse">
<stop stop-color="#FCE8E1"/>
<stop offset="0.22" stop-color="#FDD5C8"/>
<stop offset="0.46" stop-color="#FEC7B6"/>
<stop offset="0.71" stop-color="#FEBFAC"/>
<stop offset="1" stop-color="#FFBDA9"/>
</linearGradient>
<linearGradient id="paint2_linear_290_169" x1="367.01" y1="191.16" x2="336.99" y2="191.16" gradientUnits="userSpaceOnUse">
<stop stop-color="#FCE8E1"/>
<stop offset="0.22" stop-color="#FDD5C8"/>
<stop offset="0.46" stop-color="#FEC7B6"/>
<stop offset="0.71" stop-color="#FEBFAC"/>
<stop offset="1" stop-color="#FFBDA9"/>
</linearGradient>
<linearGradient id="paint3_linear_290_169" x1="303.76" y1="224.71" x2="303.76" y2="161.14" gradientUnits="userSpaceOnUse">
<stop stop-color="#FCE8E1"/>
<stop offset="0.79" stop-color="#FEC0AD"/>
<stop offset="0.85" stop-color="#FFBDA9"/>
</linearGradient>
<linearGradient id="paint4_linear_290_169" x1="301.68" y1="118.97" x2="301.68" y2="194.95" gradientUnits="userSpaceOnUse">
<stop offset="0.3" stop-color="#453333"/>
<stop offset="0.5" stop-color="#403030"/>
<stop offset="0.69" stop-color="#342728"/>
<stop offset="0.88" stop-color="#20191A"/>
<stop offset="1" stop-color="#110F10"/>
</linearGradient>
<linearGradient id="paint5_linear_290_169" x1="275.38" y1="249.939" x2="282.998" y2="288.168" gradientUnits="userSpaceOnUse">
<stop stop-color="#523874"/>
<stop offset="0.09" stop-color="#402A5F"/>
<stop offset="0.19" stop-color="#33204E"/>
<stop offset="0.32" stop-color="#291942"/>
<stop offset="0.5" stop-color="#24153B"/>
<stop offset="1" stop-color="#23143A"/>
</linearGradient>
<linearGradient id="paint6_linear_290_169" x1="331.85" y1="249.966" x2="324.232" y2="288.194" gradientUnits="userSpaceOnUse">
<stop stop-color="#523874"/>
<stop offset="0.09" stop-color="#402A5F"/>
<stop offset="0.19" stop-color="#33204E"/>
<stop offset="0.32" stop-color="#291942"/>
<stop offset="0.5" stop-color="#24153B"/>
<stop offset="1" stop-color="#23143A"/>
</linearGradient>
</defs>
</svg>
