<svg width="219" height="95" viewBox="0 0 219 95" fill="none" xmlns="http://www.w3.org/2000/svg">
<path opacity="0.2" d="M218.83 43.78L115.39 94.89L45.9702 64.0699L218.83 43.78Z" fill="black"/>
<path d="M101.29 0L0 45.6799L123 94.0599L218.83 44.45L101.29 0Z" fill="#7E758E"/>
<path d="M47.2799 46.4499C50.7899 43.8299 54.7099 41.9099 58.6899 40.1299C62.6699 38.3499 66.4899 36.5499 70.3199 34.6099C78.1799 30.6299 85.8399 26.2899 93.5299 21.9999C95.2199 21.0599 93.6999 18.47 92.0199 19.41C84.3299 23.7 76.6699 28.04 68.8099 32.02C65.0499 33.93 61.2299 35.7199 57.3799 37.4499C53.3299 39.2599 49.3299 41.1999 45.7599 43.8699C44.2299 45.0099 45.7299 47.6199 47.2699 46.4599L47.2799 46.4499Z" fill="#6B6787"/>
<path d="M100.56 18.35C102.38 17.03 104.27 15.83 106.24 14.75C106.93 14.37 107.21 13.37 106.78 12.7C106.35 12.03 105.46 11.7601 104.73 12.1601C102.76 13.2401 100.87 14.44 99.0501 15.76C98.7201 16 98.4701 16.2601 98.3601 16.6601C98.2601 17.0201 98.3101 17.5 98.5101 17.82C98.9101 18.45 99.8801 18.85 100.56 18.36V18.35Z" fill="#6B6787"/>
<path d="M117.64 19.7199C103.96 29.1199 88.92 36.3099 74.62 44.6899C70.7 46.9899 66.84 49.3699 63.09 51.9299C61.5 53.0099 63 55.61 64.6 54.52C78.31 45.17 93.35 37.9799 107.64 29.5799C111.55 27.2799 115.41 24.8799 119.16 22.3099C120.74 21.2199 119.24 18.6199 117.65 19.7199H117.64Z" fill="#6B6787"/>
</svg>
