<svg width="104" height="166" viewBox="0 0 104 166" fill="none" xmlns="http://www.w3.org/2000/svg">
<path opacity="0.2" d="M51.5901 165.955C80.0825 165.955 103.18 159.445 103.18 151.415C103.18 143.384 80.0825 136.875 51.5901 136.875C23.0977 136.875 0 143.384 0 151.415C0 159.445 23.0977 165.955 51.5901 165.955Z" fill="black"/>
<path d="M0.180054 66.1246C0.0500537 66.4946 0 66.8746 0 67.2646V66.1246H0.180054Z" fill="#0071BC"/>
<path d="M80.67 67.2747C80.67 68.8047 79.37 70.2547 77.03 71.5547C76.44 71.8747 75.7801 72.2046 75.0601 72.4946C74.0701 72.9246 72.97 73.3247 71.75 73.6947C71.13 73.8947 70.4901 74.0746 69.8201 74.2546C68.3201 74.6646 66.7001 75.0346 64.9601 75.3546C64.3801 75.4746 63.7901 75.5747 63.1801 75.6747C62.4901 75.7947 61.78 75.9146 61.05 76.0146C60.44 76.1046 59.8101 76.1947 59.1801 76.2847C58.2001 76.4047 57.2 76.5246 56.17 76.6246C55.9 76.6446 55.63 76.6846 55.35 76.7046C54.31 76.8046 53.24 76.8846 52.16 76.9646C49.86 77.1246 47.48 77.2347 45.03 77.2747C44.15 77.2947 43.26 77.2947 42.37 77.2947C42.07 77.2947 41.7701 77.2947 41.4701 77.2947C41.3101 77.2947 41.15 77.2947 40.99 77.2947C40.43 77.2947 39.8701 77.2947 39.3201 77.2747C37.2401 77.2347 35.21 77.1546 33.24 77.0146C31.82 76.9346 30.4201 76.8147 29.0701 76.6847C26.9001 76.4747 24.8101 76.2147 22.8401 75.9047C20.8501 75.5947 18.98 75.2446 17.24 74.8346C16.29 74.6246 15.38 74.3947 14.5 74.1447C12.48 73.5847 10.7001 72.9647 9.22009 72.2947C5.94009 70.8147 4.06006 69.1047 4.06006 67.2747C4.06006 66.8847 4.15006 66.5046 4.31006 66.1346H80.39C80.56 66.5046 80.64 66.8847 80.64 67.2747H80.67Z" fill="#0071BC"/>
<path d="M84.75 67.2747C84.75 70.0347 81.75 72.5847 76.66 74.6447C76.04 74.9047 75.4001 75.1446 74.7201 75.3746C73.7001 75.7446 72.6001 76.0847 71.4401 76.4047C70.8201 76.5747 70.18 76.7547 69.52 76.9047C68.03 77.2847 66.45 77.6147 64.8 77.9247C64.23 78.0247 63.64 78.1246 63.05 78.2346C62.31 78.3546 61.54 78.4646 60.77 78.5846C60.47 78.6246 60.16 78.6646 59.86 78.7046C59.86 78.7046 59.8534 78.7046 59.8401 78.7046C59.6101 78.7346 59.38 78.7547 59.15 78.7847C58.13 78.9247 57.07 79.0347 56.01 79.1547C55.8 79.1747 55.57 79.1846 55.36 79.2146C54.31 79.3146 53.25 79.3946 52.17 79.4646C49.86 79.6346 47.48 79.7447 45.04 79.7847C44.16 79.8047 43.27 79.8047 42.38 79.8047H41C40.44 79.8047 39.8801 79.7947 39.3301 79.7747C37.2501 79.7347 35.22 79.6446 33.25 79.5146C31.83 79.4246 30.4401 79.3147 29.0801 79.1747C26.9201 78.9747 24.83 78.7047 22.85 78.4047C20.94 78.1047 19.12 77.7647 17.39 77.3947C16.45 77.1947 15.54 76.9846 14.66 76.7546C12.75 76.2646 10.98 75.7247 9.39001 75.1447C3.52001 72.9847 0 70.2546 0 67.2646C0 66.8746 0.0600537 66.4846 0.180054 66.1146C0.830054 63.9846 3.28007 62.0047 7.07007 60.3147L7.23999 63.2646C5.75999 64.1646 4.76008 65.1146 4.33008 66.1146C4.17008 66.4846 4.08008 66.8746 4.08008 67.2646C4.08008 69.0946 5.95998 70.8047 9.22998 72.2847C10.72 72.9547 12.49 73.5746 14.52 74.1346C15.39 74.3846 16.3 74.6147 17.25 74.8147C18.99 75.2247 20.86 75.5846 22.85 75.8846C23.57 75.9946 24.3 76.1046 25.05 76.2046C26.35 76.3846 27.7001 76.5347 29.0801 76.6647C30.4301 76.8047 31.83 76.9146 33.25 76.9946C35.22 77.1346 37.2501 77.2146 39.3301 77.2546C39.8801 77.2746 40.44 77.2847 41 77.2847H42.38C43.27 77.2847 44.16 77.2846 45.04 77.2646C47.49 77.2246 49.87 77.1146 52.17 76.9546C53.25 76.8846 54.32 76.8046 55.36 76.7046C55.64 76.6746 55.9101 76.6446 56.1801 76.6146C57.2001 76.5146 58.2101 76.4047 59.1801 76.2747C59.8201 76.1947 60.44 76.1046 61.05 76.0146C61.78 75.9146 62.4901 75.7947 63.1801 75.6747C63.7901 75.5747 64.3901 75.4646 64.9601 75.3446C66.7001 75.0246 68.3301 74.6546 69.8301 74.2446C70.4901 74.0646 71.14 73.8847 71.75 73.6847C72.97 73.3147 74.0701 72.9146 75.0601 72.4846C75.7801 72.1846 76.44 71.8647 77.03 71.5347C79.37 70.2347 80.67 68.7846 80.67 67.2646C80.67 66.8746 80.58 66.4846 80.41 66.1146C80.03 65.2246 79.2001 64.3647 77.9701 63.5647L78.3101 60.6146C81.7501 62.2246 83.9701 64.1046 84.5701 66.1146C84.7001 66.4846 84.75 66.8746 84.75 67.2646V67.2747Z" fill="#0071BC"/>
<path d="M25.05 76.2146L22.85 78.4147C20.94 78.1147 19.12 77.7747 17.39 77.4047C16.45 77.2047 15.54 76.9946 14.66 76.7646C12.75 76.2746 10.98 75.7347 9.39001 75.1547C3.52001 72.9947 0 70.2647 0 67.2747C0 66.8847 0.0600537 66.4946 0.180054 66.1246C0.830054 63.9946 3.28007 62.0146 7.07007 60.3246L7.23999 63.2747C5.75999 64.1747 4.76008 65.1246 4.33008 66.1246C4.17008 66.4946 4.08008 66.8847 4.08008 67.2747C4.08008 69.1047 5.95998 70.8147 9.22998 72.2947C10.72 72.9647 12.49 73.5847 14.52 74.1447C15.39 74.3947 16.3 74.6246 17.25 74.8246C18.99 75.2346 20.86 75.5947 22.85 75.8947C23.57 76.0047 24.3 76.1146 25.05 76.2146Z" fill="#3A98C1"/>
<path d="M71.2501 58.9447L70.4302 59.0647L70.5502 57.8846C70.8202 57.9546 71.0802 58.0246 71.3402 58.1046C71.2902 58.5446 71.2501 58.8947 71.2401 58.9447H71.2501Z" fill="#2E3192"/>
<path d="M22.8496 56.1246V58.6547C22.7496 58.6547 22.6597 58.6747 22.5697 58.6947C22.5297 58.0047 22.4697 57.1647 22.4197 56.1947C22.5597 56.1747 22.7096 56.1546 22.8496 56.1246Z" fill="#0071BC"/>
<path d="M71.7101 58.2146L71.42 60.7346C69.79 60.2346 67.99 59.7947 66.04 59.3947L66.2101 56.8947C67.7301 57.2047 69.18 57.5347 70.55 57.8947L70.4301 59.0746L71.25 58.9546C71.25 58.9546 71.3 58.5546 71.35 58.1146C71.48 58.1446 71.6001 58.1846 71.7201 58.2246L71.7101 58.2146Z" fill="#004368"/>
<path d="M43.6 54.7346V57.2646C43.2 57.2646 42.79 57.2646 42.38 57.2646C42.08 57.2646 41.78 57.2646 41.48 57.2646V54.7346C41.78 54.7346 42.08 54.7346 42.38 54.7346C42.79 54.7346 43.2 54.7346 43.6 54.7346Z" fill="#004368"/>
<path d="M33.25 55.0247V57.5447C31.83 57.6247 30.4301 57.7446 29.0801 57.8746V55.3546C30.4401 55.2246 31.83 55.1047 33.25 55.0247Z" fill="#004368"/>
<path d="M20.16 59.1046C19.49 59.2246 18.8301 59.3646 18.1901 59.5046L18.05 56.9946C18.71 56.8546 19.3801 56.7246 20.0601 56.6046C20.1001 57.6146 20.14 58.4646 20.16 59.1046Z" fill="#004368"/>
<path d="M57.5897 55.5547L57.4197 58.0447C57.3497 58.0447 57.2697 58.0247 57.1897 58.0247V55.5046C57.3197 55.5246 57.4597 55.5247 57.5897 55.5547Z" fill="#004368"/>
<path d="M80.67 67.2747C80.67 68.8047 79.37 70.2547 77.03 71.5547C76.44 71.8747 75.7801 72.2046 75.0601 72.4946C74.0701 72.9246 72.97 73.3247 71.75 73.6947C71.13 73.8947 70.4901 74.0746 69.8201 74.2546C68.3201 74.6646 66.7001 75.0346 64.9601 75.3546C64.3801 75.4746 63.7901 75.5747 63.1801 75.6747C62.4901 75.7947 61.78 75.9146 61.05 76.0146C60.44 76.1046 59.8101 76.1947 59.1801 76.2847C58.2001 76.4047 57.2 76.5246 56.17 76.6246C55.9 76.6446 55.63 76.6846 55.35 76.7046C54.31 76.8046 53.24 76.8846 52.16 76.9646C49.86 77.1246 47.48 77.2347 45.03 77.2747C44.15 77.2947 43.26 77.2947 42.37 77.2947C42.07 77.2947 41.7701 77.2947 41.4701 77.2947C41.3101 77.2947 41.15 77.2947 40.99 77.2947C40.43 77.2947 39.8701 77.2947 39.3201 77.2747C37.2401 77.2347 35.21 77.1546 33.24 77.0146C31.82 76.9346 30.4201 76.8147 29.0701 76.6847C26.9001 76.4747 24.8101 76.2147 22.8401 75.9047C20.8501 75.5947 18.98 75.2446 17.24 74.8346C16.29 74.6246 15.38 74.3947 14.5 74.1447C12.48 73.5847 10.7001 72.9647 9.22009 72.2947C5.94009 70.8147 4.06006 69.1047 4.06006 67.2747C4.06006 66.8847 4.15006 66.5046 4.31006 66.1346C4.74006 65.1346 5.74008 64.1747 7.21008 63.2847L7.04004 60.3346C9.28004 59.3446 11.97 58.4547 15.05 57.6847C16 57.4447 16.99 57.2246 18.02 57.0046L18.16 59.5146C18.8 59.3746 19.46 59.2446 20.13 59.1146C20.11 58.4746 20.07 57.6246 20.03 56.6146C20.8 56.4646 21.59 56.3346 22.39 56.2046C22.45 57.1746 22.5 58.0246 22.54 58.7046C22.63 58.6846 22.7201 58.6747 22.8201 58.6647V56.1346C24.8001 55.8346 26.89 55.5746 29.05 55.3646V57.8846C30.41 57.7546 31.8001 57.6347 33.2201 57.5547V55.0347C35.1901 54.9047 37.23 54.8146 39.3 54.7646C39.85 54.7446 40.4101 54.7446 40.9701 54.7446C41.1301 54.7446 41.2901 54.7446 41.4501 54.7446V57.2747C41.7501 57.2747 42.05 57.2747 42.35 57.2747C42.76 57.2747 43.1701 57.2747 43.5701 57.2747V54.7446C44.0501 54.7446 44.54 54.7446 45.01 54.7646C45.26 54.7646 45.5 54.7647 45.74 54.7847C46.37 54.8047 46.99 54.8146 47.6 54.8346C49.03 54.8946 50.4401 54.9647 51.8201 55.0547C51.9301 55.0547 52.03 55.0746 52.15 55.0746C53.23 55.1446 54.2901 55.2346 55.3401 55.3346C55.9601 55.3946 56.57 55.4547 57.17 55.5247V58.0447C57.25 58.0447 57.33 58.0647 57.4 58.0647L57.5701 55.5746C58.4101 55.6646 59.24 55.7646 60.05 55.8746C60.21 55.8946 60.37 55.9247 60.53 55.9447C61.17 56.0247 61.8101 56.1246 62.4301 56.2246C63.7201 56.4346 64.9801 56.6547 66.1901 56.9047L66.02 59.4047C67.97 59.8047 69.77 60.2546 71.4 60.7446L71.6901 58.2246C72.3101 58.3946 72.9 58.5746 73.48 58.7646C74.56 59.1046 75.57 59.4646 76.52 59.8546C77.14 60.1046 77.73 60.3646 78.29 60.6346L77.9501 63.5846C79.1801 64.3846 80.01 65.2446 80.39 66.1346C80.56 66.5046 80.64 66.8847 80.64 67.2747H80.67Z" fill="#2E3192"/>
<path d="M80.67 67.2747C80.67 68.8047 79.37 70.2547 77.03 71.5547C76.44 71.8747 75.7801 72.2046 75.0601 72.4946C74.0701 72.9246 72.97 73.3247 71.75 73.6947C71.13 73.8947 70.4901 74.0746 69.8201 74.2546C68.3201 74.6646 66.7001 75.0346 64.9601 75.3546C64.3801 75.4746 63.7901 75.5747 63.1801 75.6747C62.4901 75.7947 61.78 75.9146 61.05 76.0146C60.44 76.1046 59.8101 76.1947 59.1801 76.2847C58.2001 76.4047 57.2 76.5246 56.17 76.6246C55.9 76.6446 55.63 76.6846 55.35 76.7046C54.31 76.8046 53.24 76.8846 52.16 76.9646C49.86 77.1246 47.48 77.2347 45.03 77.2747C44.15 77.2947 43.26 77.2947 42.37 77.2947C42.07 77.2947 41.7701 77.2947 41.4701 77.2947C41.3101 77.2947 41.15 77.2947 40.99 77.2947C40.43 77.2947 39.8701 77.2947 39.3201 77.2747C37.2401 77.2347 35.21 77.1546 33.24 77.0146C31.82 76.9346 30.4201 76.8147 29.0701 76.6847C26.9001 76.4747 24.8101 76.2147 22.8401 75.9047C20.8501 75.5947 18.98 75.2446 17.24 74.8346C16.29 74.6246 15.38 74.3947 14.5 74.1447C12.48 73.5847 10.7001 72.9647 9.22009 72.2947C5.94009 70.8147 4.06006 69.1047 4.06006 67.2747C4.06006 66.8847 4.15006 66.5046 4.31006 66.1346C4.74006 65.1346 5.74008 64.1747 7.21008 63.2847C9.13008 62.1347 11.8501 61.0946 15.2001 60.2146C16.1401 59.9646 17.14 59.7346 18.17 59.5146C18.81 59.3746 19.47 59.2446 20.14 59.1146C20.92 58.9646 21.73 58.8346 22.55 58.7046C22.64 58.6846 22.7301 58.6747 22.8301 58.6647C24.8001 58.3547 26.8801 58.0946 29.0601 57.8846C30.4201 57.7546 31.81 57.6347 33.23 57.5547C35.2 57.4247 37.2401 57.3347 39.3101 57.2947C39.8601 57.2747 40.42 57.2747 40.98 57.2747C41.14 57.2747 41.3001 57.2747 41.4601 57.2747C41.7601 57.2747 42.06 57.2747 42.36 57.2747C42.77 57.2747 43.1801 57.2747 43.5801 57.2747C44.0601 57.2747 44.55 57.2747 45.02 57.2947C45.27 57.2947 45.52 57.2947 45.77 57.3147C46.41 57.3347 47.0501 57.3446 47.6901 57.3746C49.0901 57.4246 50.4801 57.4946 51.8301 57.5846C51.9401 57.5846 52.04 57.6046 52.16 57.6046C53.24 57.6746 54.31 57.7646 55.35 57.8646C55.97 57.9246 56.5801 57.9847 57.1801 58.0547C57.2601 58.0547 57.34 58.0746 57.41 58.0746C58.3 58.1746 59.17 58.2847 60.02 58.3947C60.14 58.4147 60.25 58.4247 60.37 58.4447C61.08 58.5347 61.7701 58.6446 62.4501 58.7546C63.7001 58.9446 64.89 59.1647 66.03 59.4047C67.98 59.8047 69.78 60.2546 71.41 60.7446C72.04 60.9346 72.6301 61.1246 73.1901 61.3346C74.3201 61.7346 75.3201 62.1446 76.2101 62.5946C76.8601 62.9046 77.4401 63.2446 77.9501 63.5846C79.1801 64.3846 80.01 65.2446 80.39 66.1346C80.56 66.5046 80.64 66.8847 80.64 67.2747H80.67Z" fill="#0B1E23"/>
<path d="M29.0802 27.585V76.675C26.9102 76.465 24.8201 76.205 22.8501 75.895V27.585H29.0802Z" fill="#CCA66A"/>
<path d="M29.0802 27.585H22.8601V18.905C22.8601 17.255 24.2001 15.905 25.8601 15.905H26.0901C27.7401 15.905 29.0901 17.245 29.0901 18.905V27.585H29.0802Z" fill="#558E47"/>
<path d="M22.8597 30.905H29.0798V28.905H22.8597V30.905Z" fill="#558E47"/>
<path d="M73.4402 37.0145C73.4402 37.0145 69.6602 44.5445 69.6402 48.7745C69.6402 53.0145 71.5802 56.1946 71.5802 56.1946C71.5802 56.1946 71.4501 57.2945 71.3501 58.1045C71.3001 58.5445 71.2602 58.8946 71.2502 58.9446L70.4302 59.0646L70.5502 57.8845L70.7202 56.2145C70.7202 56.2145 68.6302 52.4645 68.5302 48.3445C68.4302 44.2445 72.3902 33.6445 72.3902 33.6445L73.8102 33.8245L73.4302 37.0045L73.4402 37.0145Z" fill="#A8A79B"/>
<path d="M81.7397 31.5145L81.4398 34.1045L80.7698 39.8146L78.3198 60.6245L77.9797 63.5745L77.6798 66.1245L77.0398 71.5446C76.4498 71.8646 75.7898 72.1945 75.0698 72.4845C74.0798 72.9145 72.9798 73.3146 71.7598 73.6846C71.1398 73.8846 70.4998 74.0645 69.8298 74.2445L70.7898 66.1145L71.4198 60.7245L71.7098 58.2045L73.9797 38.9146L74.6498 33.2145L74.9498 30.6245L75.9797 30.7545L76.7798 30.8545L79.8998 31.2645L80.4198 31.3345L81.7297 31.5045L81.7397 31.5145Z" fill="#FEC84D"/>
<path d="M76.79 30.875L76.49 33.465L75.8201 39.165L73.51 58.755L73.2101 61.325L72.65 66.125L71.76 73.6951C71.14 73.8951 70.5001 74.075 69.8301 74.255L70.79 66.125L71.42 60.735L71.7101 58.215L73.98 38.925L74.65 33.225L74.9501 30.635L75.98 30.765L76.78 30.865L76.79 30.875Z" fill="#E5B148"/>
<path d="M81.7402 31.5146L81.4403 34.1046L80.7703 39.8147L78.3203 60.6246L77.9802 63.5746L77.6803 66.1246L77.0403 71.5447C76.4503 71.8647 75.7903 72.1946 75.0703 72.4846L75.8203 66.1146L76.2402 62.5746L76.5603 59.8346L78.9503 39.5647L79.0503 38.7947L79.5403 34.5547L79.6302 33.8546L79.9303 31.2747L80.4503 31.3446L81.7603 31.5146H81.7402Z" fill="#E5B148"/>
<path d="M73.8901 33.1245L81.9702 34.1646L81.3002 39.8745L73.2202 38.8345L73.8901 33.1245Z" fill="#A8A79B"/>
<path d="M76.6603 25.0647L81.1002 25.6346L80.4303 31.3446L75.9902 30.7747L76.6603 25.0647Z" fill="#A8A79B"/>
<path d="M22.6901 60.6846C22.6901 60.6846 22.43 61.7445 21.35 61.6345C20.27 61.5245 20.2201 60.4045 20.2201 60.4045C20.2201 60.4045 20.2 59.9345 20.16 59.0945C20.14 58.4545 20.1001 57.6045 20.0601 56.5945C19.6801 47.8045 18.7 26.8446 18 26.3046C17.52 25.9246 16.83 25.8846 16.29 25.9346C15.85 25.9746 15.51 26.0745 15.41 26.1145C15.19 26.2045 14.73 22.9645 14.73 22.9645C14.81 22.9645 15.33 22.9445 16.03 22.9845C16.06 22.9845 16.09 22.9845 16.13 22.9845C17.51 23.0845 19.48 23.4645 20.05 24.8345C20.54 26.0345 21.8601 46.8145 22.4301 56.1745C22.4901 57.1445 22.5401 57.9945 22.5801 58.6745C22.6601 59.9345 22.7001 60.6745 22.7001 60.6745L22.6901 60.6846Z" fill="#5BB9E8"/>
<path d="M17.25 74.8246C16.3 74.6146 15.39 74.3846 14.51 74.1346C12.49 73.5746 10.71 72.9547 9.22998 72.2847L8.88 66.1146L8.82007 64.8846L8.76001 63.8246L13.92 63.5146L15.41 63.4247L16.61 63.3546L16.77 66.1246L16.9401 69.1246L17.27 74.8246H17.25Z" fill="#369AD8"/>
<path d="M17.2501 74.8246C16.3001 74.6146 15.3901 74.3846 14.5101 74.1346L14.1501 67.6747L14.0602 66.1246L13.9102 63.5247L15.4001 63.4347L16.6001 63.3646L16.7601 66.1346L16.9302 69.1346L17.2601 74.8346L17.2501 74.8246Z" fill="#2588BA"/>
<path d="M18.4 63.2545L16.6 63.3645L15.4 63.4346L13.9101 63.5245L8.75002 63.8345L7.27004 63.9246L7.23 63.2745L7.06008 60.3245L5.05007 24.7545C4.88007 21.6445 7.06002 18.9645 10 18.6245H10.02C10.08 18.6245 10.1501 18.6045 10.2101 18.6045H10.37C10.45 18.5845 10.53 18.5845 10.61 18.5845C13.2 18.5845 15.41 20.4445 16.02 22.9945C16.1 23.3145 16.1501 23.6445 16.1701 23.9845L16.2801 25.9446L18.0301 56.9945L18.1701 59.5045L18.38 63.2545H18.4Z" fill="#369AD8"/>
<path d="M18.4 63.2547L16.6 63.3647L15.4 63.4347L15.2201 60.2046L15.0801 57.6747L13.05 21.6447C12.95 19.9447 11.64 18.6547 10.04 18.6147H10.02L10.23 18.5947H10.39L12.8 18.4347C14.5 18.3247 15.95 19.6747 16.04 21.4447L16.13 22.9947L16.1901 23.9847L16.3 25.9447L18.05 56.9947L18.1901 59.5047L18.4 63.2547Z" fill="#2588BA"/>
<path d="M8.76001 63.8446L16.6 63.3546L16.9301 69.1346L8.82007 64.9047L8.76001 63.8446Z" fill="#2588BA"/>
<path d="M55.7397 16.6646H44.7498V19.2745H55.7397V16.6646Z" fill="#C977C1"/>
<path d="M56.6401 21.8445C56.8701 21.8445 61.0902 21.8946 61.8402 24.0446C62.3902 25.6346 62.4702 59.9845 62.4702 59.9845C62.4702 59.9845 62.1502 61.0245 61.0802 60.8545C60.0102 60.6845 60.0201 59.5546 60.0201 59.5546C60.0201 59.5546 60.5602 26.1145 59.7202 25.3845C58.8802 24.6545 57.3801 24.9545 57.1501 25.0345C56.9201 25.1145 56.6501 21.8445 56.6501 21.8445H56.6401Z" fill="#FFA4D0"/>
<path d="M55.3597 53.0845V76.7145C54.3197 76.8145 53.2498 76.8945 52.1698 76.9745C49.8698 77.1345 47.4898 77.2445 45.0398 77.2845V53.0945H55.3597V53.0845Z" fill="#D665A0"/>
<path d="M55.3601 53.0845V76.7145C54.3201 76.8145 53.2502 76.8945 52.1702 76.9745V53.0845H55.3601Z" fill="#A04A7B"/>
<path d="M57.1902 19.1245H43.6001V64.8146H57.1902V19.1245Z" fill="#D665A0"/>
<path d="M57.2002 19.1245H51.8501V64.8146H57.2002V19.1245Z" fill="#A04A7B"/>
<path d="M45.0398 64.8045C45.0398 64.8045 55.6898 64.6644 55.5198 64.7344C55.3598 64.8044 55.3597 70.7645 55.3597 70.7645L45.0398 66.4844V64.8145V64.8045Z" fill="#A04A7B"/>
<path d="M41 43.575V77.295C40.44 77.295 39.8801 77.295 39.3301 77.275C37.2501 77.235 35.22 77.155 33.25 77.015V43.575H41Z" fill="#CC4F2E"/>
<path d="M41.4696 43.575V77.295C41.3096 77.295 41.1495 77.295 40.9895 77.295C40.4295 77.295 39.8696 77.295 39.3196 77.275V43.585H41.4596L41.4696 43.575Z" fill="#BA3217"/>
<path d="M40.2999 2.17505H33.95C32.81 2.17505 31.8799 3.35505 31.8799 4.80505V43.585H42.3699V4.80505C42.3699 3.35505 41.4399 2.17505 40.2999 2.17505Z" fill="#202F66"/>
<path d="M40.2999 2.17505H38.96C40.1 2.17505 41.0299 3.35505 41.0299 4.80505V43.585H42.3699V4.80505C42.3699 3.35505 41.4399 2.17505 40.2999 2.17505Z" fill="#0E1938"/>
<path d="M40.0099 5.56494H39.4399V43.5748H40.0099V5.56494Z" fill="#0E1938"/>
<path d="M37.4095 5.56494H36.8396V43.5748H37.4095V5.56494Z" fill="#0E1938"/>
<path d="M34.8895 5.56494H34.3196V43.5748H34.8895V5.56494Z" fill="#0E1938"/>
<path d="M33.25 43.575V44.535L41.1 49.215L41.03 43.575H33.25Z" fill="#BA3217"/>
<path d="M65.1897 0.00458487L66.1497 0.0745312C67.0797 0.144531 67.7797 0.984546 67.7197 1.96455L67.1997 9.66462L62.8696 9.34455L63.3896 1.6446C63.4596 0.6746 64.2597 -0.0654151 65.1897 0.00458487Z" fill="#202F66"/>
<path d="M58.1096 43.5145L58.3297 40.1946C58.3297 40.1946 56.2696 36.5445 56.1196 31.4745C55.9696 26.4045 59.3197 17.0045 59.3197 17.0045L59.5697 13.2345L58.3297 13.1445C58.3297 13.1445 54.7596 26.1546 54.9996 31.0646C55.2496 35.9746 57.4796 40.3046 57.4796 40.3046L57.2897 43.7345L58.0996 43.5145H58.1096Z" fill="#369AD8"/>
<path d="M69.3696 9.81506L69.2097 12.165L69.0397 14.585V14.605L68.8696 17.205L68.8397 17.745L66.2097 56.885L66.0397 59.385L65.5897 66.115L64.9597 75.345C64.3797 75.465 63.7897 75.565 63.1797 75.665C62.4897 75.785 61.7797 75.905 61.0497 76.005C60.4397 76.095 59.8097 76.185 59.1797 76.275C58.1997 76.395 57.1997 76.515 56.1697 76.615L56.8796 66.115L56.9697 64.795L57.1897 61.495L57.4197 58.035L57.5897 55.545L59.6196 25.295L59.8197 22.355L60.1697 17.115L60.5397 11.525L60.6997 9.17505L62.8696 9.33496L63.6797 9.39502L67.2097 9.65503L69.3796 9.81506H69.3696Z" fill="#3EADFF"/>
<path d="M63.6697 9.40503L63.5096 11.755L63.1396 17.345L62.1897 31.345V31.465L60.5497 55.9451L60.3796 58.4351L60.2496 60.345L59.8596 66.135L59.1797 76.295C58.1997 76.415 57.1997 76.535 56.1697 76.635L56.8796 66.135L56.9697 64.8151L57.1897 61.515L57.4197 58.0551L57.5897 55.5651L59.6196 25.3151L59.8197 22.375L60.1697 17.135L60.5397 11.545L60.6997 9.19507L62.8696 9.35498L63.6797 9.41504L63.6697 9.40503Z" fill="#369AD8"/>
<path d="M58.9098 11.4146L70.1698 12.2345L69.7898 17.8245L58.5298 17.0045L58.9098 11.4146Z" fill="#369AD8"/>
<path d="M84.75 67.2747V152.085C84.75 156.415 77.3401 160.235 66.0801 162.495H66.04C62.17 163.265 57.86 163.855 53.23 164.225C49.77 164.485 46.13 164.635 42.38 164.635C41.15 164.635 39.9301 164.615 38.7201 164.585C38.0901 164.575 37.4601 164.555 36.8401 164.525C31.8501 164.335 27.13 163.885 22.85 163.215C9.26998 161.135 0 156.925 0 152.085V67.2747C0 70.2647 3.52001 73.0047 9.39001 75.1547C10.98 75.7347 12.75 76.2747 14.66 76.7747C15.54 76.9947 16.45 77.2147 17.39 77.4147C19.12 77.7847 20.94 78.1247 22.85 78.4247C24.83 78.7247 26.9201 78.9847 29.0801 79.1947C30.4401 79.3247 31.83 79.4447 33.25 79.5247C34.53 79.6047 35.83 79.6746 37.16 79.7246C37.87 79.7546 38.6001 79.7747 39.3301 79.7847C39.8801 79.8047 40.44 79.8147 41 79.8147C41.16 79.8147 41.3101 79.8247 41.4701 79.8147C41.7701 79.8247 42.08 79.8246 42.38 79.8246C43.27 79.8246 44.16 79.8147 45.04 79.7947C47.48 79.7547 49.86 79.6446 52.17 79.4846C53.25 79.4046 54.31 79.3246 55.36 79.2246C55.57 79.2046 55.8 79.1847 56.01 79.1647C57.07 79.0547 58.13 78.9347 59.15 78.8047C59.38 78.7747 59.6101 78.7446 59.8401 78.7246C59.8401 78.7246 59.8467 78.7213 59.86 78.7146C60.16 78.6746 60.47 78.6246 60.77 78.5846C61.54 78.4746 62.31 78.3546 63.05 78.2446C63.64 78.1346 64.23 78.0347 64.8 77.9247C66.45 77.6147 68.03 77.2847 69.52 76.9147C70.18 76.7547 70.8201 76.5847 71.4401 76.4047C72.6001 76.0847 73.7001 75.7446 74.7201 75.3846C75.4001 75.1446 76.04 74.9047 76.66 74.6547C81.75 72.5847 84.75 70.0347 84.75 67.2747Z" fill="#184677"/>
<path d="M22.85 78.4247V163.215C9.26998 161.135 0 156.925 0 152.085V67.2747C0 70.2647 3.52001 73.0047 9.39001 75.1547C10.98 75.7347 12.75 76.2747 14.66 76.7747C15.54 76.9947 16.45 77.2147 17.39 77.4147C19.12 77.7847 20.94 78.1247 22.85 78.4247Z" fill="#1F5B89"/>
</svg>
