<svg width="402" height="293" viewBox="0 0 402 293" fill="none" xmlns="http://www.w3.org/2000/svg">
<path d="M401.42 0H0V292.31H401.42V0Z" fill="#5B61DB"/>
<path d="M367.08 53.8101H312.29V233.36H367.08V53.8101Z" fill="#4951AD"/>
<path d="M152.51 75.5898C88.0798 75.5898 35.8398 127.82 35.8398 192.26H269.18C269.18 127.83 216.95 75.5898 152.51 75.5898Z" fill="#525ACC"/>
<path d="M42.0398 251.14C40.7898 251.14 39.8298 250.77 39.1598 250.04C38.4898 249.31 38.1598 248.38 38.1598 247.25V230.76H34.2798V227.56H36.4698C37.2598 227.56 37.7998 227.4 38.0898 227.08C38.3798 226.76 38.5198 226.21 38.5198 225.41V221.03H41.8098V227.56H46.9698V230.76H41.8098V247.93H46.5998V251.13H42.0298L42.0398 251.14Z" fill="#3B48BC"/>
<path d="M53.8198 251.14V217.35H57.4698V231.42H57.6498C58.2298 230.08 59.0398 229.02 60.0898 228.22C61.1398 227.43 62.5498 227.03 64.3098 227.03C66.7498 227.03 68.6698 227.81 70.0898 229.38C71.5098 230.95 72.2098 233.16 72.2098 236.02V251.14H68.5598V236.66C68.5598 234.56 68.1098 232.98 67.2098 231.91C66.3098 230.85 64.9798 230.31 63.2098 230.31C62.2398 230.31 61.3098 230.47 60.4198 230.79C59.5398 231.11 58.8198 231.6 58.2698 232.27C57.7198 232.94 57.4498 233.78 57.4498 234.78V251.13H53.7998L53.8198 251.14Z" fill="#3B48BC"/>
<path d="M89.4796 251.679C87.3496 251.679 85.4897 251.169 83.9097 250.149C82.3297 249.129 81.0897 247.699 80.2097 245.859C79.3297 244.019 78.8896 241.849 78.8896 239.349C78.8896 236.849 79.3297 234.679 80.2097 232.839C81.0897 230.999 82.3297 229.569 83.9097 228.549C85.4897 227.529 87.3496 227.02 89.4796 227.02C91.6096 227.02 93.3897 227.52 94.9097 228.5C96.4297 229.49 97.5997 230.849 98.4297 232.589C99.2497 234.329 99.6597 236.299 99.6597 238.529V240.27H82.7197V241.37C82.7197 243.41 83.3397 245.109 84.5697 246.459C85.7997 247.809 87.5197 248.49 89.7097 248.49C91.1997 248.49 92.4996 248.139 93.6096 247.439C94.7196 246.739 95.5797 245.739 96.1897 244.429L98.7897 246.299C98.0297 247.879 96.8396 249.179 95.2296 250.179C93.6196 251.179 91.6996 251.689 89.4796 251.689V251.679ZM82.7296 237.529H95.7496V237.029C95.7496 235.629 95.4897 234.41 94.9697 233.38C94.4497 232.35 93.7196 231.539 92.7796 230.959C91.8396 230.379 90.7397 230.089 89.4897 230.089C88.1797 230.089 87.0196 230.39 85.9996 231C84.9796 231.61 84.1797 232.449 83.5997 233.529C83.0197 234.609 82.7296 235.839 82.7296 237.209V237.529Z" fill="#3B48BC"/>
<path d="M123.96 251.68C121.8 251.68 119.97 251.26 118.48 250.42C116.99 249.58 115.71 248.46 114.64 247.06L117.24 244.96C118.15 246.09 119.17 246.97 120.3 247.61C121.43 248.25 122.74 248.57 124.23 248.57C125.72 248.57 126.99 248.24 127.86 247.57C128.73 246.9 129.16 245.96 129.16 244.74C129.16 243.83 128.86 243.04 128.27 242.37C127.68 241.7 126.6 241.26 125.05 241.05L123.18 240.78C121.75 240.57 120.45 240.21 119.3 239.71C118.14 239.21 117.24 238.49 116.58 237.56C115.92 236.63 115.6 235.44 115.6 233.98C115.6 231.64 116.4 229.89 118 228.75C119.6 227.61 121.6 227.04 124.01 227.04C125.29 227.04 126.42 227.19 127.41 227.5C128.4 227.8 129.29 228.24 130.08 228.8C130.87 229.36 131.59 230.04 132.23 230.83L129.81 233.02C129.29 232.29 128.53 231.63 127.53 231.03C126.53 230.44 125.26 230.14 123.74 230.14C122.22 230.14 121.11 230.47 120.31 231.12C119.52 231.77 119.12 232.67 119.12 233.79C119.12 234.91 119.51 235.75 120.28 236.28C121.06 236.81 122.18 237.2 123.64 237.44L125.47 237.71C128.09 238.11 129.95 238.86 131.04 239.97C132.14 241.08 132.68 242.53 132.68 244.33C132.68 245.85 132.33 247.16 131.63 248.26C130.93 249.36 129.92 250.2 128.62 250.79C127.31 251.38 125.76 251.68 123.96 251.68Z" fill="#3B48BC"/>
<path d="M147.25 251.68C144.84 251.68 142.92 250.9 141.47 249.33C140.02 247.76 139.3 245.55 139.3 242.69V227.57H142.95V242.05C142.95 244.15 143.41 245.73 144.32 246.8C145.23 247.87 146.57 248.4 148.34 248.4C149.31 248.4 150.24 248.24 151.1 247.92C151.97 247.6 152.68 247.11 153.22 246.44C153.77 245.77 154.04 244.92 154.04 243.88V227.58H157.69V251.14H154.04V247.3H153.86C153.4 248.43 152.68 249.44 151.69 250.34C150.7 251.24 149.22 251.69 147.24 251.69L147.25 251.68Z" fill="#3B48BC"/>
<path d="M166.39 251.14V227.58H170.04V231.42H170.22C170.8 230.08 171.61 229.02 172.66 228.22C173.71 227.43 175.12 227.03 176.88 227.03C179.32 227.03 181.24 227.81 182.66 229.38C184.08 230.95 184.78 233.16 184.78 236.02V251.14H181.13V236.66C181.13 234.56 180.68 232.98 179.78 231.91C178.88 230.85 177.55 230.31 175.78 230.31C174.81 230.31 173.88 230.47 172.99 230.79C172.11 231.11 171.39 231.6 170.84 232.27C170.29 232.94 170.02 233.78 170.02 234.78V251.13H166.37L166.39 251.14Z" fill="#3B48BC"/>
<path d="M211.05 251.68C208.89 251.68 207.06 251.26 205.57 250.42C204.08 249.58 202.8 248.46 201.73 247.06L204.33 244.96C205.24 246.09 206.26 246.97 207.39 247.61C208.52 248.25 209.83 248.57 211.32 248.57C212.81 248.57 214.08 248.24 214.95 247.57C215.82 246.9 216.25 245.96 216.25 244.74C216.25 243.83 215.95 243.04 215.36 242.37C214.77 241.7 213.69 241.26 212.14 241.05L210.27 240.78C208.84 240.57 207.54 240.21 206.39 239.71C205.23 239.21 204.33 238.49 203.67 237.56C203.01 236.63 202.69 235.44 202.69 233.98C202.69 231.64 203.49 229.89 205.09 228.75C206.69 227.61 208.69 227.04 211.1 227.04C212.38 227.04 213.51 227.19 214.5 227.5C215.49 227.8 216.38 228.24 217.17 228.8C217.96 229.36 218.68 230.04 219.32 230.83L216.9 233.02C216.38 232.29 215.62 231.63 214.62 231.03C213.62 230.44 212.35 230.14 210.83 230.14C209.31 230.14 208.2 230.47 207.4 231.12C206.61 231.77 206.21 232.67 206.21 233.79C206.21 234.91 206.6 235.75 207.37 236.28C208.15 236.81 209.27 237.2 210.73 237.44L212.56 237.71C215.18 238.11 217.04 238.86 218.13 239.97C219.23 241.08 219.77 242.53 219.77 244.33C219.77 245.85 219.42 247.16 218.72 248.26C218.02 249.36 217.01 250.2 215.71 250.79C214.4 251.38 212.85 251.68 211.05 251.68Z" fill="#3B48BC"/>
<path d="M231.56 251.14C230.31 251.14 229.35 250.77 228.68 250.04C228.01 249.31 227.68 248.38 227.68 247.25V230.76H223.8V227.56H225.99C226.78 227.56 227.32 227.4 227.61 227.08C227.9 226.76 228.04 226.21 228.04 225.41V221.03H231.33V227.56H236.49V230.76H231.33V247.93H236.12V251.13H231.55L231.56 251.14Z" fill="#3B48BC"/>
<path d="M249.37 251.68C246.87 251.68 244.93 251.04 243.55 249.76C242.16 248.48 241.47 246.75 241.47 244.55C241.47 243.06 241.84 241.8 242.57 240.78C243.3 239.76 244.4 238.98 245.88 238.45C247.36 237.92 249.24 237.65 251.52 237.65H256.18V235.32C256.18 233.65 255.72 232.37 254.81 231.48C253.9 230.6 252.5 230.16 250.61 230.16C249.21 230.16 248.02 230.48 247.05 231.12C246.08 231.76 245.27 232.61 244.63 233.68L242.44 231.62C243.08 230.37 244.1 229.29 245.5 228.38C246.9 227.47 248.67 227.01 250.8 227.01C253.63 227.01 255.85 227.71 257.44 229.11C259.04 230.51 259.84 232.46 259.84 234.96V247.93H262.53V251.13H260.47C259.16 251.13 258.2 250.8 257.59 250.13C256.98 249.46 256.6 248.61 256.45 247.57L256.4 247.3H256.17C255.68 248.73 254.84 249.82 253.64 250.57C252.44 251.32 251.01 251.69 249.37 251.69V251.68ZM249.96 248.58C251.18 248.58 252.25 248.39 253.18 248.01C254.11 247.63 254.84 247.11 255.37 246.46C255.9 245.81 256.17 245.08 256.17 244.29V240.41H251.33C249.26 240.41 247.74 240.71 246.76 241.32C245.79 241.93 245.3 242.81 245.3 243.97V244.93C245.3 246.09 245.73 246.99 246.58 247.62C247.43 248.26 248.56 248.58 249.96 248.58Z" fill="#3B48BC"/>
<path d="M268.77 251.14V227.58H272.42V231.92H272.65C272.92 231.16 273.35 230.45 273.93 229.8C274.51 229.15 275.25 228.61 276.17 228.2C277.09 227.79 278.18 227.58 279.46 227.58H280.88V231.23H278.73C277.42 231.23 276.29 231.41 275.35 231.75C274.41 232.1 273.68 232.56 273.18 233.14C272.68 233.72 272.43 234.39 272.43 235.15V251.13H268.78L268.77 251.14Z" fill="#3B48BC"/>
</svg>
