<svg width="131" height="167" viewBox="0 0 131 167" fill="none" xmlns="http://www.w3.org/2000/svg">
<path d="M130.42 0H0V166.06H130.42V0Z" fill="#5B72A5"/>
<path d="M20.05 56.1499H31.8801C33.8101 56.1499 33.8101 53.1499 31.8801 53.1499H20.05C18.12 53.1499 18.12 56.1499 20.05 56.1499Z" fill="#486793"/>
<path d="M40.1899 55.1099C60.3999 55.1099 80.5999 55.1099 100.81 55.1099C102.74 55.1099 102.74 52.1099 100.81 52.1099C80.5999 52.1099 60.3999 52.1099 40.1899 52.1099C38.2599 52.1099 38.2599 55.1099 40.1899 55.1099Z" fill="#486793"/>
<path d="M110.99 54.0701C112.92 54.0701 112.92 51.0701 110.99 51.0701C109.06 51.0701 109.06 54.0701 110.99 54.0701Z" fill="#486793"/>
<path d="M21.9199 73.85C39.7099 73.81 57.4999 73.78 75.2899 73.74L90.4299 73.71C92.3599 73.71 92.3599 70.71 90.4299 70.71C72.6399 70.75 54.8499 70.7801 37.0599 70.8201L21.9199 70.85C19.9899 70.85 19.9899 73.85 21.9199 73.85Z" fill="#486793"/>
<path d="M99.9696 73.7399C100.89 73.0399 101.77 72.6299 102.95 72.6799C104.3 72.7399 105.65 73.1199 106.99 73.2699C109.71 73.5699 112.45 73.4499 115.18 73.3199C117.1 73.2299 117.11 70.2299 115.18 70.3199C112.29 70.4499 109.35 70.62 106.47 70.2C105.07 70 103.64 69.5799 102.21 69.6899C100.78 69.7999 99.5696 70.3099 98.4596 71.1499C97.8196 71.6399 97.4796 72.44 97.9196 73.2C98.2896 73.83 99.3196 74.2299 99.9696 73.7399Z" fill="#486793"/>
<path d="M19.8496 94.2699C44.6796 94.6599 69.5196 94.4199 94.3396 93.5399C101.29 93.2899 108.24 92.9999 115.18 92.6499C117.1 92.5499 117.11 89.5499 115.18 89.6499C90.3796 90.8799 65.5496 91.48 40.7096 91.45C33.7596 91.45 26.7996 91.3799 19.8496 91.2699C17.9196 91.2399 17.9196 94.2399 19.8496 94.2699Z" fill="#486793"/>
<path d="M21.71 111.84C34.93 111.81 48.15 111.79 61.36 111.76C63.29 111.76 63.29 108.76 61.36 108.76C48.14 108.79 34.92 108.81 21.71 108.84C19.78 108.84 19.78 111.84 21.71 111.84Z" fill="#486793"/>
<path d="M72.1401 111.71C75.4301 110.96 78.7901 111.17 82.1401 111.25C85.4901 111.33 89.0701 111.15 92.5201 110.83C99.3601 110.21 106.18 109.23 113.06 109.6C114.99 109.7 114.98 106.7 113.06 106.6C106.02 106.22 99.04 107.26 92.04 107.87C88.59 108.17 85.13 108.33 81.67 108.23C78.21 108.13 74.75 108.03 71.35 108.81C69.47 109.24 70.2601 112.13 72.1501 111.7L72.1401 111.71Z" fill="#486793"/>
<path d="M22.1301 129.41C45.2601 129.08 68.3901 128.92 91.5201 128.94C98.0101 128.94 104.5 128.97 110.99 129C112.92 129 112.92 126.01 110.99 126C87.8601 125.88 64.7301 125.94 41.6001 126.17C35.1101 126.24 28.6201 126.32 22.1301 126.41C20.2001 126.44 20.2001 129.44 22.1301 129.41Z" fill="#486793"/>
<path d="M67.51 23.14C69.7689 23.14 71.6 21.3089 71.6 19.05C71.6 16.7912 69.7689 14.96 67.51 14.96C65.2512 14.96 63.4199 16.7912 63.4199 19.05C63.4199 21.3089 65.2512 23.14 67.51 23.14Z" fill="#486793"/>
</svg>
