<svg width="161" height="90" viewBox="0 0 161 90" fill="none" xmlns="http://www.w3.org/2000/svg">
<path d="M153.33 5.26001H5.81958V89.34H153.33V5.26001Z" fill="#7387D8"/>
<path d="M20.46 0L0 16.22L0.540039 19.24L4.42993 21.71L28.33 3.13L24.59 0.550049L20.46 0Z" fill="#5975CE"/>
<path d="M137.77 0.150146L160.69 14.5302L160.88 18.0402L157.78 21.5602L131.1 5.18018L134.02 1.56018L137.77 0.150146Z" fill="#5975CE"/>
<path d="M24.94 28.1502C25.77 26.9202 27.67 27.0402 28.97 27.1202C31.11 27.2502 33.24 27.5002 35.39 27.5502C40.26 27.6602 45.14 27.5502 50.01 27.5202C59.7 27.4702 69.38 27.4202 79.07 27.3802C84.53 27.3502 90 27.3302 95.46 27.3002C97.39 27.3002 97.39 24.2902 95.46 24.3002C85.28 24.3502 75.0901 24.4001 64.9101 24.4501C59.7801 24.4801 54.64 24.5002 49.51 24.5302C44.38 24.5602 39.4301 24.7102 34.4001 24.5302C30.5101 24.3902 24.98 22.7502 22.35 26.6402C21.26 28.2402 23.86 29.7502 24.94 28.1502Z" fill="#5975CE"/>
<path d="M106.34 27.3101L132.97 26.65C134.9 26.6 134.9 23.6 132.97 23.65L106.34 24.3101C104.41 24.3601 104.41 27.3601 106.34 27.3101Z" fill="#5975CE"/>
<path d="M51.8 40.1501C52.45 39.4701 53.34 39.38 54.24 39.35C55.47 39.3 56.6999 39.35 57.9299 39.35C60.5799 39.35 63.23 39.35 65.88 39.36C71.18 39.36 76.48 39.37 81.78 39.38C92.38 39.39 102.98 39.4101 113.58 39.4201C119.54 39.4201 125.5 39.4401 131.47 39.4401C133.4 39.4401 133.4 36.4401 131.47 36.4401C109.53 36.4101 87.58 36.38 65.64 36.35C62.58 36.35 59.5099 36.35 56.4499 36.34C54.0899 36.34 51.4599 36.1701 49.6899 38.0301C48.3599 39.4301 50.4799 41.5501 51.8099 40.1501H51.8Z" fill="#5975CE"/>
<path d="M23.1 54.17C22.8 55.68 23.48 56.98 24.85 57.68C26.38 58.45 28.02 57.95 29.35 57.03C29.78 56.74 30.18 56.27 30.65 56.05C31.05 55.85 31 55.88 31.51 56.02C32.35 56.25 33.1701 56.45 34.0501 56.55C36.1201 56.79 38.2301 56.6901 40.3001 56.6901C48.9701 56.6801 57.65 56.67 66.32 56.65C68.25 56.65 68.25 53.65 66.32 53.65C58.8 53.66 51.29 53.67 43.77 53.68C41.95 53.68 40.14 53.68 38.32 53.68C36.6 53.68 34.83 53.76 33.15 53.36C31.65 53 30.53 52.4999 29.14 53.4499C28.48 53.8999 27.9001 54.51 27.1701 54.86C26.9301 54.97 25.98 55.0599 26 54.9599C26.38 53.0699 23.49 52.27 23.11 54.16L23.1 54.17Z" fill="#5975CE"/>
<path d="M104.33 57.53C113.87 57.14 123.42 57.01 132.97 57.14C134.9 57.16 134.9 54.16 132.97 54.14C123.42 54.02 113.87 54.14 104.33 54.53C102.41 54.61 102.4 57.61 104.33 57.53Z" fill="#5975CE"/>
<path d="M25.79 72.96C44.43 73 63.08 73.05 81.72 73.09C83.65 73.09 83.65 70.09 81.72 70.09C63.08 70.05 44.43 70 25.79 69.96C23.86 69.96 23.86 72.96 25.79 72.96Z" fill="#5975CE"/>
<path d="M43.4299 39.79C45.3599 39.79 45.3599 36.79 43.4299 36.79C41.4999 36.79 41.4999 39.79 43.4299 39.79Z" fill="#5975CE"/>
<path d="M89.49 73.27C89.68 73.17 90.0299 73.0901 90.1999 73.0601C90.5999 73.0101 91.01 73.01 91.41 73.01C92.27 73 93.1299 72.99 93.9799 73C95.7299 73.01 97.4799 73.07 99.2299 73.16C100.04 73.2 100.73 72.44 100.73 71.66C100.73 70.81 100.04 70.2 99.2299 70.16C97.3399 70.06 95.4599 70.01 93.5699 70C91.6799 69.99 89.6699 69.81 87.9699 70.68C87.2499 71.05 87.0399 72.06 87.4299 72.73C87.8599 73.46 88.7599 73.64 89.4799 73.27H89.49Z" fill="#5975CE"/>
</svg>
