<svg width="190" height="135" viewBox="0 0 190 135" fill="none" xmlns="http://www.w3.org/2000/svg">
<path d="M178.65 11.1599H13.0298V124.36H178.65V11.1599Z" fill="#5A6EAD"/>
<path d="M143.39 7.09998L182.93 30.73L181.61 24.89L189.15 22.52L151.2 0L152.13 6.31006L143.39 7.09998Z" fill="#455887"/>
<path d="M0 110.79L39.54 134.42L38.21 128.58L45.76 126.21L7.81 103.69L8.73999 110L0 110.79Z" fill="#455887"/>
<path d="M39.94 45.6301C51.42 44.7301 62.97 45.2201 74.47 45.2201C85.97 45.2201 97.6 45.0501 109.17 44.7301C115.66 44.5501 122.15 44.3302 128.63 44.0502C130.55 43.9702 130.56 40.9702 128.63 41.0502C105.52 42.0202 82.4 42.3101 59.27 42.1501C52.82 42.1101 46.37 42.1301 39.94 42.6301C38.03 42.7801 38.01 45.7801 39.94 45.6301Z" fill="#435991"/>
<path d="M139.85 44.46H144.58C145.36 44.46 146.12 43.77 146.08 42.96C146.04 42.15 145.42 41.46 144.58 41.46H139.85C139.07 41.46 138.31 42.15 138.35 42.96C138.39 43.77 139.01 44.46 139.85 44.46Z" fill="#435991"/>
<path d="M38.24 57.9898C55.11 57.7498 71.98 57.6698 88.85 57.7398C93.65 57.7598 98.44 57.7898 103.24 57.8398C105.17 57.8598 105.17 54.8598 103.24 54.8398C86.37 54.6798 69.5 54.6798 52.63 54.8298C47.83 54.8698 43.04 54.9298 38.24 54.9898C36.31 55.0198 36.31 58.0198 38.24 57.9898Z" fill="#435991"/>
<path d="M110.95 57.3399C126.31 57.2499 141.67 56.9699 157.02 56.5099C158.95 56.4499 158.95 53.4499 157.02 53.5099C141.67 53.9699 126.31 54.2499 110.95 54.3399C109.02 54.3499 109.02 57.3499 110.95 57.3399Z" fill="#435991"/>
<path d="M152.11 44.2399L154.21 44.0799C154.42 44.0799 154.61 44.0399 154.79 43.9499C154.98 43.8899 155.14 43.7899 155.27 43.6399C155.42 43.4999 155.52 43.34 155.58 43.16C155.67 42.98 155.72 42.7899 155.71 42.5799C155.69 42.1899 155.57 41.7899 155.27 41.5199C154.97 41.2499 154.6 41.0499 154.21 41.0799L152.11 41.2399C151.9 41.2399 151.71 41.2799 151.53 41.3699C151.34 41.4299 151.18 41.53 151.05 41.68C150.9 41.82 150.8 41.98 150.74 42.16C150.65 42.34 150.6 42.5299 150.61 42.7399C150.63 43.1299 150.75 43.53 151.05 43.8C151.35 44.07 151.72 44.2699 152.11 44.2399Z" fill="#435991"/>
<path d="M39.4602 86.72C64.9102 86.61 90.3602 86.6001 115.81 86.6801C122.96 86.7001 130.12 86.74 137.27 86.77C139.2 86.78 139.2 83.78 137.27 83.77C111.82 83.63 86.3702 83.59 60.9202 83.65C53.7702 83.67 46.6102 83.69 39.4602 83.72C37.5302 83.72 37.5302 86.73 39.4602 86.72Z" fill="#435991"/>
<path d="M145.13 86.73C149.77 86.43 154.42 86.2901 159.07 86.3001C161 86.3001 161 83.3001 159.07 83.3001C154.42 83.2901 149.77 83.43 145.13 83.73C144.32 83.78 143.63 84.38 143.63 85.23C143.63 86 144.32 86.78 145.13 86.73Z" fill="#435991"/>
<path d="M39.6599 96.9001C69.9299 96.7101 100.21 96.64 130.48 96.7C138.96 96.72 147.45 96.7501 155.93 96.7801C157.86 96.7801 157.86 93.7901 155.93 93.7801C125.66 93.6501 95.3799 93.6401 65.1099 93.7601C56.6299 93.7901 48.1399 93.8401 39.6599 93.8901C37.7299 93.9001 37.7299 96.9001 39.6599 96.8901V96.9001Z" fill="#435991"/>
</svg>
