<svg width="300" height="321" viewBox="0 0 300 321" fill="none" xmlns="http://www.w3.org/2000/svg">
<path d="M299.42 0H0V320.06H299.42V0Z" fill="#675FAA"/>
<path d="M178.91 42.6304L181.71 277.93H273.8L271.74 42.1204L178.91 42.6304Z" fill="#565689"/>
<path d="M21.0798 135.72V285.84H37.0999V136.91L21.0798 135.72Z" fill="#57548C"/>
<path d="M45.9097 80.7399L40.4197 58.1799H43.2997L45.7196 69.0399L47.5896 77.4698H47.6497L49.7496 69.0399L52.5896 58.1799H55.6896L58.4396 69.0399L60.5397 77.4398H60.6396L62.5796 69.0399L65.1296 58.1799H67.9097L62.1296 80.7399H59.1196L56.1796 69.4899L54.1096 61.2198H54.0497L51.9197 69.4899L48.9097 80.7399H45.9097Z" fill="#4B4B66"/>
<path d="M78.6796 81.1299C77.1896 81.1299 75.8796 80.7699 74.7496 80.0499C73.6196 79.3299 72.7396 78.3199 72.0996 77.0099C71.4596 75.7099 71.1497 74.1699 71.1497 72.3999C71.1497 70.6299 71.4696 69.0999 72.0996 67.7999C72.7296 66.4999 73.6196 65.4799 74.7496 64.7599C75.8796 64.0399 77.1896 63.6799 78.6796 63.6799C80.1696 63.6799 81.4696 64.0399 82.6096 64.7599C83.7396 65.4799 84.6196 66.4899 85.2596 67.7999C85.8996 69.0999 86.2096 70.6399 86.2096 72.3999C86.2096 74.1599 85.8896 75.6999 85.2596 77.0099C84.6196 78.3099 83.7396 79.3299 82.6096 80.0499C81.4796 80.7699 80.1696 81.1299 78.6796 81.1299ZM78.6796 78.8298C80.0796 78.8298 81.2196 78.3999 82.1096 77.5399C82.9896 76.6799 83.4296 75.3599 83.4296 73.5999V71.2098C83.4296 69.4398 82.9896 68.1299 82.1096 67.2699C81.2296 66.4099 80.0796 65.9799 78.6796 65.9799C77.2796 65.9799 76.1597 66.4099 75.2697 67.2699C74.3797 68.1299 73.9296 69.4498 73.9296 71.2098V73.5999C73.9296 75.3699 74.3797 76.6799 75.2697 77.5399C76.1597 78.3999 77.2996 78.8298 78.6796 78.8298Z" fill="#4B4B66"/>
<path d="M90.5696 80.7399V64.0598H93.1497V67.1299H93.3096C93.4996 66.5899 93.8096 66.0899 94.2096 65.6299C94.6096 65.1699 95.1497 64.7899 95.7897 64.4999C96.4397 64.2099 97.2096 64.0598 98.1196 64.0598H99.1196V66.6499H97.5996C96.6696 66.6499 95.8796 66.7699 95.2096 67.0199C94.5396 67.2699 94.0297 67.5999 93.6697 68.0099C93.3097 68.4199 93.1396 68.8899 93.1396 69.4299V80.7399H90.5596H90.5696Z" fill="#4B4B66"/>
<path d="M108.729 81.1299C107.349 81.1299 106.15 80.7698 105.13 80.0598C104.11 79.3498 103.32 78.3399 102.77 77.0199C102.22 75.7099 101.949 74.1699 101.949 72.3999C101.949 70.6299 102.22 69.0699 102.77 67.7599C103.32 66.4599 104.11 65.4499 105.13 64.7399C106.15 64.0299 107.349 63.6699 108.729 63.6699C109.869 63.6699 110.859 63.9199 111.699 64.4299C112.539 64.9399 113.179 65.7199 113.609 66.7699H113.74V56.8198H116.329V80.7299H113.74V78.0199H113.609C113.109 79.0499 112.46 79.8299 111.65 80.3499C110.84 80.8699 109.869 81.1299 108.729 81.1299ZM109.439 78.7999C110.239 78.7999 110.959 78.6699 111.609 78.3999C112.259 78.1299 112.77 77.7399 113.16 77.2399C113.55 76.7299 113.74 76.1299 113.74 75.4099V69.1998C113.74 68.5798 113.55 68.0299 113.16 67.5499C112.77 67.0799 112.249 66.6999 111.609 66.4199C110.959 66.1399 110.239 65.9999 109.439 65.9999C107.999 65.9999 106.85 66.4599 106 67.3699C105.15 68.2899 104.719 69.4898 104.719 70.9698V73.8098C104.719 75.2998 105.14 76.4999 106 77.4099C106.85 78.3299 107.999 78.7799 109.439 78.7799V78.7999Z" fill="#4B4B66"/>
<path d="M80.5198 113.06V90.5002H83.2297V100.45H94.6398V90.5002H97.3497V113.06H94.6398V102.85H83.2297V113.06H80.5198Z" fill="#4B4B66"/>
<path d="M107.73 113.44C105.96 113.44 104.59 112.99 103.61 112.08C102.63 111.18 102.14 109.95 102.14 108.4C102.14 107.34 102.4 106.46 102.92 105.73C103.44 105.01 104.22 104.46 105.26 104.08C106.3 103.7 107.64 103.51 109.25 103.51H112.55V101.86C112.55 100.68 112.23 99.7698 111.58 99.1498C110.93 98.5298 109.94 98.2097 108.61 98.2097C107.62 98.2097 106.78 98.4398 106.09 98.8898C105.4 99.3398 104.83 99.9497 104.38 100.7L102.83 99.2498C103.28 98.3698 104 97.5997 105 96.9597C106 96.3197 107.24 95.9897 108.75 95.9897C110.75 95.9897 112.32 96.4897 113.45 97.4797C114.58 98.4697 115.15 99.8498 115.15 101.62V110.8H117.06V113.06H115.6C114.67 113.06 114 112.82 113.56 112.35C113.13 111.88 112.86 111.27 112.75 110.54L112.72 110.35H112.56C112.22 111.36 111.62 112.13 110.77 112.66C109.92 113.19 108.91 113.45 107.75 113.45L107.73 113.44ZM108.15 111.25C109.01 111.25 109.77 111.12 110.43 110.85C111.09 110.58 111.6 110.21 111.98 109.75C112.36 109.29 112.55 108.78 112.55 108.21V105.46H109.12C107.65 105.46 106.58 105.68 105.89 106.11C105.2 106.54 104.86 107.17 104.86 107.98V108.66C104.86 109.48 105.16 110.11 105.76 110.57C106.36 111.02 107.16 111.25 108.15 111.25Z" fill="#4B4B66"/>
<path d="M121.459 113.06V96.3799H124.04V99.4498H124.199C124.389 98.9098 124.699 98.4098 125.099 97.9498C125.499 97.4898 126.039 97.1098 126.679 96.8198C127.329 96.5298 128.1 96.3799 129.01 96.3799H130.01V98.9698H128.49C127.56 98.9698 126.769 99.0898 126.099 99.3398C125.429 99.5898 124.919 99.9198 124.559 100.33C124.199 100.74 124.03 101.21 124.03 101.75V113.06H121.449H121.459Z" fill="#4B4B66"/>
<path d="M139.62 113.44C138.24 113.44 137.04 113.08 136.02 112.37C135 111.66 134.21 110.65 133.66 109.33C133.11 108.02 132.84 106.48 132.84 104.71C132.84 102.94 133.11 101.38 133.66 100.07C134.21 98.7698 135 97.7599 136.02 97.0499C137.04 96.3399 138.24 95.9799 139.62 95.9799C140.76 95.9799 141.75 96.2299 142.59 96.7399C143.43 97.2499 144.07 98.0298 144.5 99.0798H144.63V89.1299H147.22V113.04H144.63V110.33H144.5C144 111.36 143.35 112.14 142.54 112.66C141.73 113.18 140.76 113.44 139.62 113.44ZM140.33 111.12C141.13 111.12 141.85 110.99 142.5 110.72C143.15 110.45 143.66 110.06 144.05 109.56C144.44 109.05 144.63 108.45 144.63 107.73V101.52C144.63 100.9 144.44 100.35 144.05 99.8699C143.66 99.3999 143.14 99.0199 142.5 98.7399C141.85 98.4599 141.13 98.3198 140.33 98.3198C138.89 98.3198 137.74 98.7798 136.89 99.6898C136.04 100.61 135.61 101.81 135.61 103.29V106.13C135.61 107.62 136.03 108.82 136.89 109.73C137.74 110.65 138.89 111.1 140.33 111.1V111.12Z" fill="#4B4B66"/>
<path d="M97.5798 180.04L102.56 261.01H211.87L219.96 174.75L97.5798 180.04Z" fill="#706DAA"/>
</svg>
