<svg width="101" height="46" viewBox="0 0 101 46" fill="none" xmlns="http://www.w3.org/2000/svg">
<path opacity="0.2" d="M23.8301 41.04L100.19 45.75L64.0901 0L23.8301 41.04Z" fill="black"/>
<path d="M23.83 41.04C23.13 40.36 0 17.2101 0 17.2101L0.47998 1.6001L25.16 26.76L23.83 41.04Z" fill="#F2CC8F"/>
<path d="M0.47998 1.61011L23.83 28.0901H88.85L64.09 0L0.47998 1.61011Z" fill="#EDBE6B"/>
<path d="M88.8501 28.0901H23.8301V41.04H88.8501V28.0901Z" fill="#D8A656"/>
<path d="M34.61 32.69C34.73 32.7 34.86 32.71 34.98 32.71C39.16 32.78 43.34 32.72 47.53 32.72C57.98 32.72 68.43 32.72 78.88 32.72C78.98 32.72 79.0899 32.72 79.1899 32.72C80.0599 32.72 80.9399 32.72 81.8099 32.71C82.0499 32.71 82.3 32.71 82.52 32.66C82.74 32.61 82.96 32.52 83.02 32.39C83.14 32.13 82.61 32.02 82.26 31.97C80.51 31.74 78.51 31.92 76.72 31.92H70.5C65.15 31.92 59.8 31.9 54.45 31.91C53.02 31.91 51.59 31.91 50.16 31.92C46.04 31.94 41.9199 31.89 37.8099 31.78C36.8099 31.75 35.8 31.7201 34.82 31.8501C34.31 31.9201 33.7 32.14 33.86 32.42C33.95 32.59 34.26 32.66 34.59 32.69H34.61Z" fill="#C48F49"/>
<path d="M30.8 35.5C30.94 35.51 31.0799 35.52 31.2199 35.52C35.8999 35.59 40.58 35.53 45.26 35.53C56.95 35.53 68.6399 35.53 80.3299 35.53C80.4499 35.53 80.56 35.53 80.68 35.53C81.66 35.53 82.6299 35.53 83.6099 35.52C83.8799 35.52 84.16 35.5201 84.41 35.4701C84.66 35.4201 84.8999 35.3301 84.9599 35.2001C85.0899 34.9401 84.4999 34.83 84.1099 34.78C82.1599 34.55 79.91 34.7301 77.92 34.7301H70.9699C64.9899 34.7301 59 34.7101 53.02 34.7201C51.42 34.7201 49.8199 34.7201 48.2199 34.7301C43.6099 34.7501 39.01 34.7001 34.4 34.5901C33.28 34.5601 32.1499 34.53 31.0599 34.66C30.4899 34.73 29.8099 34.9501 29.9799 35.2301C30.0799 35.4001 30.43 35.47 30.8 35.5Z" fill="#C48F49"/>
<path d="M34.6096 38.4901C34.7296 38.5001 34.8596 38.51 34.9796 38.51C39.1296 38.58 43.2797 38.52 47.4297 38.52C57.7997 38.52 68.1797 38.52 78.5497 38.52C78.6497 38.52 78.7596 38.52 78.8596 38.52C79.7296 38.52 80.5896 38.52 81.4596 38.51C81.6996 38.51 81.9397 38.5101 82.1697 38.4601C82.3997 38.4101 82.5997 38.3201 82.6597 38.1901C82.7797 37.9301 82.2496 37.82 81.8996 37.77C80.1696 37.54 78.1796 37.7201 76.3996 37.7201C74.3396 37.7201 72.2896 37.7201 70.2296 37.7201C64.9196 37.7201 59.6097 37.7001 54.2997 37.7201C52.8797 37.7201 51.4597 37.7201 50.0397 37.7301C45.9497 37.7501 41.8596 37.7001 37.7796 37.5901C36.7896 37.5601 35.7796 37.53 34.8196 37.66C34.3096 37.73 33.7096 37.9501 33.8596 38.2301C33.9496 38.4001 34.2596 38.47 34.5896 38.5L34.6096 38.4901Z" fill="#C48F49"/>
<path d="M3.42004 9.60007C3.42004 9.60007 3.45999 9.67005 3.48999 9.70005C3.72999 10.02 4.01003 10.33 4.28003 10.64C4.37003 10.67 4.82004 11.2501 4.92004 11.3601C5.17004 11.6401 5.42004 11.9201 5.67004 12.2101C5.74004 12.2301 6.14998 12.7501 6.22998 12.8401C6.49998 13.1401 6.77004 13.45 7.04004 13.75L8.59997 15.5C10.97 18.16 13.34 20.82 15.7 23.5C15.76 23.56 15.81 23.63 15.87 23.69C16.71 24.64 17.53 25.6 18.36 26.55C18.78 27.03 19.2 27.5001 19.63 27.9701C19.96 28.3301 20.39 28.88 20.76 29.18C20.87 29.27 21.01 29.3001 21.05 29.2201C21.1 29.1101 20.96 28.92 20.83 28.78C17.02 24.46 13.21 20.1501 9.39001 15.8401C7.53001 13.7401 5.67005 11.64 3.80005 9.54002C3.66005 9.38002 3.43997 9.19 3.34997 9.27C3.27997 9.32 3.34004 9.47008 3.42004 9.61008V9.60007Z" fill="#EDBC7A"/>
<path d="M2.86003 11.2402C2.86003 11.2402 2.90009 11.3001 2.92009 11.3301C3.13009 11.6201 3.36002 11.8801 3.60002 12.1501C3.69002 12.1701 4.07007 12.6801 4.15007 12.7701C4.37007 13.0201 4.59009 13.2601 4.80009 13.5101C4.87009 13.5201 5.22008 13.9801 5.29008 14.0601C5.52008 14.3201 5.76003 14.5901 5.99003 14.8501L7.35002 16.3702C9.41002 18.6802 11.4701 20.9901 13.5201 23.3201C13.5701 23.3801 13.6201 23.4302 13.6701 23.4902C14.4001 24.3202 15.11 25.1501 15.83 25.9801C16.19 26.3901 16.5601 26.8001 16.9301 27.2101C17.2201 27.5201 17.5801 28.01 17.9101 28.25C18.0101 28.32 18.1401 28.3501 18.1801 28.2701C18.2301 28.1701 18.11 28 18 27.88C14.69 24.13 11.38 20.38 8.05998 16.63C6.43998 14.8 4.83 12.9801 3.21 11.1501C3.09 11.0101 2.90009 10.8501 2.80009 10.9301C2.73009 10.9901 2.78002 11.1202 2.85002 11.2402H2.86003Z" fill="#EDBC7A"/>
<path d="M1.96956 13.9601C1.96956 13.9601 2.01963 14.0301 2.03963 14.0601C2.29963 14.3701 2.57958 14.6601 2.86958 14.9501C2.96958 14.9701 3.43963 15.53 3.53963 15.63C3.79963 15.9 4.06955 16.1701 4.32955 16.4301C4.39955 16.4501 4.83963 16.9501 4.91963 17.0301C5.19963 17.3201 5.48961 17.61 5.76961 17.89L7.40962 19.5601C9.89962 22.0901 12.3896 24.6201 14.8696 27.1601C14.9296 27.2201 14.9896 27.2801 15.0496 27.3401C15.9296 28.2401 16.7896 29.1601 17.6696 30.0601C18.1096 30.5101 18.5496 30.9601 18.9996 31.4001C19.3496 31.7401 19.7996 32.2701 20.1796 32.5401C20.2996 32.6201 20.4396 32.6501 20.4696 32.5701C20.5096 32.4601 20.3596 32.28 20.2296 32.14C16.2296 28.04 12.2196 23.9301 8.20955 19.8401C6.24955 17.8401 4.29956 15.8501 2.33956 13.8501C2.18956 13.7001 1.96958 13.5201 1.86958 13.6001C1.79958 13.6601 1.86955 13.8001 1.95955 13.9401L1.96956 13.9601Z" fill="#EDBC7A"/>
<path d="M1.86994 16.75C1.86994 16.75 1.90989 16.8101 1.93989 16.8401C2.17989 17.1401 2.44992 17.4201 2.71992 17.7001C2.80992 17.7201 3.25992 18.2601 3.34992 18.3501C3.59992 18.6101 3.84993 18.8701 4.09993 19.1201C4.16993 19.1301 4.57998 19.6201 4.65998 19.7001C4.92998 19.9801 5.19991 20.25 5.45991 20.53L7.00996 22.13C9.36996 24.56 11.7299 26.99 14.0699 29.43C14.1299 29.49 14.1799 29.5501 14.2399 29.6101C15.0699 30.4801 15.8899 31.3601 16.7199 32.2301C17.1399 32.6601 17.5499 33.1 17.9799 33.52C18.3099 33.85 18.7399 34.3601 19.0999 34.6201C19.2099 34.7001 19.35 34.72 19.38 34.64C19.42 34.53 19.28 34.3601 19.16 34.2301C15.37 30.2901 11.58 26.34 7.77998 22.41C5.92998 20.49 4.06992 18.57 2.21992 16.65C2.07992 16.5 1.86997 16.34 1.76997 16.42C1.69997 16.48 1.76992 16.62 1.84992 16.75H1.86994Z" fill="#EDBC7A"/>
</svg>
