<svg width="147" height="218" viewBox="0 0 147 218" fill="none" xmlns="http://www.w3.org/2000/svg">
<path d="M210.42 0H0V217.58H210.42V0Z" fill="#674EAA"/>
<path d="M198.07 183.17H119.45V201.42H198.07V183.17Z" fill="#7467BF"/>
<path d="M71.7596 27.9399H26.1396V190.62H71.7596V27.9399Z" fill="#584AA0"/>
<path d="M98.8 171.75C131.567 171.75 158.13 145.187 158.13 112.42C158.13 79.6526 131.567 53.0896 98.8 53.0896C66.033 53.0896 39.47 79.6526 39.47 112.42C39.47 145.187 66.033 171.75 98.8 171.75Z" fill="#6F5CB7"/>
<path d="M175.09 26.1196V38.0497L120.55 86.2596H114.95V90.3997H121.77L178.74 40.2396V26.1196H175.09Z" fill="#564499"/>
<path d="M119.46 85.1697H101.32V92.1597H119.46V85.1697Z" fill="#857DAD"/>
<path d="M98.8002 126.17C107.167 126.17 113.95 119.387 113.95 111.02C113.95 102.653 107.167 95.8696 98.8002 95.8696C90.4331 95.8696 83.6501 102.653 83.6501 111.02C83.6501 119.387 90.4331 126.17 98.8002 126.17Z" fill="#7467BF"/>
</svg>
