<svg width="279" height="56" viewBox="0 0 279 56" fill="none" xmlns="http://www.w3.org/2000/svg">
<path d="M115.34 12.4033C109.74 8.7733 95.6999 2.24331 86.7799 3.28331V3.4033C83.0199 4.1333 80.2699 6.97327 80.4199 10.2433C80.5699 13.5133 83.5799 16.0834 87.3899 16.4634V16.5834C87.3899 16.5834 92.9199 18.0133 99.7899 17.8633C104.35 17.7633 109.69 17.2533 114.46 16.3233C117.78 15.6833 116.84 13.3833 115.33 12.4033H115.34Z" fill="white"/>
<path d="M166.389 13.7032C172.369 14.7632 186.469 15.2631 193.579 11.2331L193.529 11.1331C196.429 9.18313 197.729 5.82313 196.449 3.13313C195.159 0.443127 191.729 -0.646873 188.389 0.383127L188.339 0.283152C188.339 0.283152 183.199 1.0431 177.489 3.6031C173.699 5.3031 169.399 7.62309 165.719 10.0931C163.159 11.8131 164.759 13.4032 166.379 13.6932L166.389 13.7032Z" fill="white"/>
<path d="M225.5 17.3532C233.65 12.9532 242.1 9.11321 250.85 6.01321C259.51 2.73321 269.4 -0.0568024 278.47 3.2532L278.41 3.65322C273.77 4.10322 269.45 5.09318 265.06 6.11318C258.49 7.63318 251.68 8.80317 245.21 10.9732C238.61 12.9632 232.11 15.2333 225.67 17.7033L225.5 17.3432V17.3532Z" fill="#F8D99A"/>
<path d="M228.43 33.6233C236.49 34.5933 244.53 35.7734 252.52 37.2134C259.09 38.1734 265.67 39.4333 271.65 42.4933C273 43.1933 274.49 44.0333 275.65 45.0133L275.48 45.3733C271.39 44.8333 267.45 44.3033 263.49 43.5233C259.52 42.7933 255.71 41.4034 251.82 40.3334L228.35 34.0133L228.43 33.6233Z" fill="#F8D99A"/>
<path d="M52.81 27.3632C44.24 24.0732 35.53 21.1432 26.68 18.7232C22.27 17.5332 17.76 16.8732 13.41 15.7732C9.02 14.7532 4.71 13.7533 0.0599976 13.3133L0 12.9132C9.08 9.60323 18.96 12.3932 27.62 15.6732C36.37 18.7732 44.82 22.6032 52.97 27.0132L52.8 27.3732L52.81 27.3632Z" fill="#F8D99A"/>
<path d="M50.1301 43.6632L26.6601 49.9832C22.7701 51.0532 18.9601 52.4332 14.9901 53.1732C11.0301 53.9532 7.08008 54.4832 3.00008 55.0232L2.83008 54.6632C9.48008 49.6532 17.9301 48.0732 25.9701 46.8632C33.9601 45.4132 42.0001 44.2432 50.0601 43.2732L50.1401 43.6632H50.1301Z" fill="#F8D99A"/>
</svg>
