<svg width="752" height="163" viewBox="0 0 752 163" fill="none" xmlns="http://www.w3.org/2000/svg">
<path style="mix-blend-mode:screen" opacity="0.3" d="M563.965 4.11425C515.925 -8.58575 460.585 8.8743 427.785 46.0343C421.665 52.9743 415.985 60.7643 407.735 64.9543C402.165 67.7843 395.825 68.7243 389.585 69.1243C365.905 70.6343 341.855 64.5843 321.575 52.3143C309.695 45.1243 305.155 40.2143 290.595 39.5243C276.955 38.8743 263.355 40.6443 250.575 45.5743C231.965 52.7543 216.095 65.3843 199.535 76.5043C174.635 93.2243 147.015 106.974 117.305 111.074C100.155 113.434 82.7248 112.534 65.4548 113.644C48.1748 114.754 30.4448 118.134 16.1948 127.974C10.6748 131.794 5.76478 136.534 1.96478 142.074C0.844779 143.714 -0.235204 145.594 0.0447959 147.564C0.544796 151.154 4.87477 152.604 8.45477 153.224C35.6348 157.914 63.3148 158.864 90.8848 159.794C188.625 163.104 290.375 162.544 388.215 161.414C482.125 160.334 571.245 162.114 665.095 162.034C692.135 162.014 719.365 161.974 745.935 156.914C747.475 156.624 749.115 156.254 750.165 155.084C751.205 153.924 751.395 152.254 751.425 150.704C751.875 130.834 734.275 114.524 715.395 108.314C696.505 102.114 676.135 103.244 656.315 101.624C653.945 101.434 651.545 101.184 649.365 100.234C642.865 97.3843 640.595 89.5043 638.775 82.6443C634.585 66.8243 628.685 51.1644 618.675 38.2144C605.255 20.8643 585.355 9.77426 563.965 4.12426V4.11425Z" fill="url(#paint0_linear_262_4203)"/>
<defs>
<linearGradient id="paint0_linear_262_4203" x1="751.435" y1="81.1343" x2="0.00483718" y2="81.1343" gradientUnits="userSpaceOnUse">
<stop stop-color="white"/>
<stop offset="0.02" stop-color="#F5F5F5"/>
<stop offset="0.18" stop-color="#B5B5B5"/>
<stop offset="0.34" stop-color="#7D7D7D"/>
<stop offset="0.49" stop-color="#505050"/>
<stop offset="0.64" stop-color="#2D2D2D"/>
<stop offset="0.78" stop-color="#141414"/>
<stop offset="0.9" stop-color="#050505"/>
<stop offset="1"/>
</linearGradient>
</defs>
</svg>
