<svg width="833" height="196" viewBox="0 0 833 196" fill="none" xmlns="http://www.w3.org/2000/svg">
<path style="mix-blend-mode:screen" opacity="0.3" d="M200.113 25.9044C228.893 2.01444 276.193 -6.6055 312.723 5.3445C352.903 18.4845 379.563 54.5245 424.433 63.7345C458.163 70.6545 466.783 60.4245 501.123 63.7345C558.163 69.2345 580.673 102.374 626.993 128.514C726.073 184.424 832.063 156.084 832.373 163.794C832.613 170.024 763.223 182.105 633.813 189.575C498.623 197.385 391.803 194.735 200.113 189.575C81.3733 186.375 8.29332 207.144 0.663317 184.144C-5.09668 166.774 27.5733 132.655 63.0733 120.375C99.0133 107.945 113.573 126.304 140.413 112.924C176.043 95.1645 163.603 56.2044 200.113 25.9044Z" fill="url(#paint0_linear_262_4202)"/>
<defs>
<linearGradient id="paint0_linear_262_4202" x1="0.00331688" y1="97.5645" x2="832.373" y2="97.5645" gradientUnits="userSpaceOnUse">
<stop stop-color="white"/>
<stop offset="0.18" stop-color="#C3C3C3"/>
<stop offset="0.4" stop-color="#7E7E7E"/>
<stop offset="0.6" stop-color="#484848"/>
<stop offset="0.78" stop-color="#202020"/>
<stop offset="0.92" stop-color="#080808"/>
<stop offset="1"/>
</linearGradient>
</defs>
</svg>
