<svg width="307" height="177" viewBox="0 0 307 177" fill="none" xmlns="http://www.w3.org/2000/svg">
<path d="M181.56 22.54L194.84 19.4C197.87 18.68 200.24 16.32 200.96 13.28L204.1 0L207.24 13.28C207.96 16.31 210.32 18.68 213.36 19.4L226.64 22.54L213.36 25.6799C210.33 26.3999 207.96 28.76 207.24 31.8L204.1 45.08L200.96 31.8C200.24 28.77 197.88 26.3999 194.84 25.6799L181.56 22.54Z" fill="#0D5875"/>
<path d="M0 90.7999L13.1 86.9498C16.09 86.0698 18.33 83.5799 18.88 80.5199L21.31 67.0898L25.16 80.1898C26.04 83.1798 28.53 85.4198 31.59 85.9698L45.02 88.3999L31.92 92.2499C28.93 93.1299 26.69 95.6198 26.14 98.6798L23.71 112.11L19.86 99.0099C18.98 96.0199 16.49 93.7799 13.43 93.2299L0 90.7999Z" fill="#0D5875"/>
<path style="mix-blend-mode:screen" opacity="0.5" d="M23.3802 92.4302L22.4502 86.2102L199.35 20.2302L200.29 26.4502L23.3802 92.4302Z" fill="url(#paint0_linear_262_4394)"/>
<path style="mix-blend-mode:screen" opacity="0.5" d="M200.29 10.2002L206.32 8.43018L295.86 174.66L289.82 176.43L200.29 10.2002Z" fill="url(#paint1_linear_262_4394)"/>
<path d="M261.8 151.75L275.08 148.61C278.11 147.89 280.48 145.53 281.2 142.49L284.34 129.21L287.48 142.49C288.2 145.52 290.56 147.89 293.6 148.61L306.88 151.75L293.6 154.89C290.57 155.61 288.2 157.97 287.48 161.01L284.34 174.29L281.2 161.01C280.48 157.98 278.12 155.61 275.08 154.89L261.8 151.75Z" fill="#0D5875"/>
<defs>
<linearGradient id="paint0_linear_262_4394" x1="337.175" y1="-734.579" x2="292.948" y2="-550.218" gradientUnits="userSpaceOnUse">
<stop/>
<stop offset="0.08" stop-color="#01080B"/>
<stop offset="0.22" stop-color="#041F29"/>
<stop offset="0.41" stop-color="#094359"/>
<stop offset="0.5" stop-color="#0D5875"/>
<stop offset="0.63" stop-color="#083A4D"/>
<stop offset="0.83" stop-color="#021015"/>
<stop offset="0.92"/>
</linearGradient>
<linearGradient id="paint1_linear_262_4394" x1="1594.26" y1="288.449" x2="1405.58" y2="269.816" gradientUnits="userSpaceOnUse">
<stop/>
<stop offset="0.08" stop-color="#01080B"/>
<stop offset="0.22" stop-color="#041F29"/>
<stop offset="0.41" stop-color="#094359"/>
<stop offset="0.5" stop-color="#0D5875"/>
<stop offset="0.63" stop-color="#083A4D"/>
<stop offset="0.83" stop-color="#021015"/>
<stop offset="0.92"/>
</linearGradient>
</defs>
</svg>
