<svg width="1656" height="309" viewBox="0 0 1656 309" fill="none" xmlns="http://www.w3.org/2000/svg">
<path d="M1418.49 85.9599C1421.02 85.9599 1423.07 83.9094 1423.07 81.3799C1423.07 78.8505 1421.02 76.7999 1418.49 76.7999C1415.96 76.7999 1413.91 78.8505 1413.91 81.3799C1413.91 83.9094 1415.96 85.9599 1418.49 85.9599Z" fill="#F8D99A"/>
<path d="M184.109 9.16C186.639 9.16 188.689 7.10946 188.689 4.58C188.689 2.05053 186.639 0 184.109 0C181.58 0 179.529 2.05053 179.529 4.58C179.529 7.10946 181.58 9.16 184.109 9.16Z" fill="white"/>
<path d="M4.58 214.6C7.10947 214.6 9.16 212.549 9.16 210.02C9.16 207.49 7.10947 205.44 4.58 205.44C2.05054 205.44 0 207.49 0 210.02C0 212.549 2.05054 214.6 4.58 214.6Z" fill="#F8D99A"/>
<path d="M1650.91 308.03C1653.44 308.03 1655.49 305.979 1655.49 303.45C1655.49 300.92 1653.44 298.87 1650.91 298.87C1648.38 298.87 1646.33 300.92 1646.33 303.45C1646.33 305.979 1648.38 308.03 1650.91 308.03Z" fill="#0D5875"/>
<path d="M680.39 104.58C682.919 104.58 684.97 102.529 684.97 100C684.97 97.4705 682.919 95.42 680.39 95.42C677.86 95.42 675.81 97.4705 675.81 100C675.81 102.529 677.86 104.58 680.39 104.58Z" fill="#0D5875"/>
</svg>
