<svg width="1791" height="807" viewBox="0 0 1791 807" fill="none" xmlns="http://www.w3.org/2000/svg">
<g opacity="0.3">
<g clip-path="url(#clip0_262_4784)">
<path d="M48.4597 204.01C49.6968 204.01 50.6997 203.007 50.6997 201.77C50.6997 200.533 49.6968 199.53 48.4597 199.53C47.2226 199.53 46.2197 200.533 46.2197 201.77C46.2197 203.007 47.2226 204.01 48.4597 204.01Z" fill="white"/>
</g>
<g clip-path="url(#clip1_262_4784)">
<path d="M2.24 300.63C3.47712 300.63 4.48 299.627 4.48 298.39C4.48 297.153 3.47712 296.15 2.24 296.15C1.00288 296.15 0 297.153 0 298.39C0 299.627 1.00288 300.63 2.24 300.63Z" fill="white"/>
</g>
<g clip-path="url(#clip2_262_4784)">
<path d="M180.999 183.95C182.236 183.95 183.239 182.947 183.239 181.71C183.239 180.473 182.236 179.47 180.999 179.47C179.762 179.47 178.759 180.473 178.759 181.71C178.759 182.947 179.762 183.95 180.999 183.95Z" fill="white"/>
</g>
<g clip-path="url(#clip3_262_4784)">
<path d="M208.999 338.64C210.236 338.64 211.239 337.637 211.239 336.4C211.239 335.163 210.236 334.16 208.999 334.16C207.762 334.16 206.759 335.163 206.759 336.4C206.759 337.637 207.762 338.64 208.999 338.64Z" fill="white"/>
</g>
<g clip-path="url(#clip4_262_4784)">
<path d="M88.5593 501.17C89.7965 501.17 90.7993 500.167 90.7993 498.93C90.7993 497.693 89.7965 496.69 88.5593 496.69C87.3222 496.69 86.3193 497.693 86.3193 498.93C86.3193 500.167 87.3222 501.17 88.5593 501.17Z" fill="white"/>
</g>
<g clip-path="url(#clip5_262_4784)">
<path d="M18.4993 703.68C19.7364 703.68 20.7393 702.677 20.7393 701.44C20.7393 700.203 19.7364 699.2 18.4993 699.2C17.2622 699.2 16.2593 700.203 16.2593 701.44C16.2593 702.677 17.2622 703.68 18.4993 703.68Z" fill="white"/>
</g>
<g clip-path="url(#clip6_262_4784)">
<path d="M275.1 681.77C276.337 681.77 277.34 680.767 277.34 679.53C277.34 678.293 276.337 677.29 275.1 677.29C273.863 677.29 272.86 678.293 272.86 679.53C272.86 680.767 273.863 681.77 275.1 681.77Z" fill="white"/>
</g>
<g clip-path="url(#clip7_262_4784)">
<path d="M499.64 765.95C500.877 765.95 501.88 764.947 501.88 763.71C501.88 762.473 500.877 761.47 499.64 761.47C498.403 761.47 497.4 762.473 497.4 763.71C497.4 764.947 498.403 765.95 499.64 765.95Z" fill="white"/>
</g>
<g clip-path="url(#clip8_262_4784)">
<path d="M954.41 787.9C955.647 787.9 956.65 786.897 956.65 785.66C956.65 784.423 955.647 783.42 954.41 783.42C953.173 783.42 952.17 784.423 952.17 785.66C952.17 786.897 953.173 787.9 954.41 787.9Z" fill="white"/>
</g>
<g clip-path="url(#clip9_262_4784)">
<path d="M836.16 703.51C837.397 703.51 838.4 702.507 838.4 701.27C838.4 700.033 837.397 699.03 836.16 699.03C834.923 699.03 833.92 700.033 833.92 701.27C833.92 702.507 834.923 703.51 836.16 703.51Z" fill="white"/>
</g>
<g clip-path="url(#clip10_262_4784)">
<path d="M1166.51 667.37C1167.75 667.37 1168.75 666.367 1168.75 665.13C1168.75 663.893 1167.75 662.89 1166.51 662.89C1165.27 662.89 1164.27 663.893 1164.27 665.13C1164.27 666.367 1165.27 667.37 1166.51 667.37Z" fill="white"/>
</g>
<g clip-path="url(#clip11_262_4784)">
<path d="M1515.67 474.88C1516.91 474.88 1517.91 473.877 1517.91 472.64C1517.91 471.403 1516.91 470.4 1515.67 470.4C1514.43 470.4 1513.43 471.403 1513.43 472.64C1513.43 473.877 1514.43 474.88 1515.67 474.88Z" fill="white"/>
</g>
<g clip-path="url(#clip12_262_4784)">
<path d="M1423.31 583.61C1424.55 583.61 1425.55 582.607 1425.55 581.37C1425.55 580.133 1424.55 579.13 1423.31 579.13C1422.07 579.13 1421.07 580.133 1421.07 581.37C1421.07 582.607 1422.07 583.61 1423.31 583.61Z" fill="white"/>
</g>
<g clip-path="url(#clip13_262_4784)">
<path d="M1240.89 751.97C1242.13 751.97 1243.13 750.967 1243.13 749.73C1243.13 748.493 1242.13 747.49 1240.89 747.49C1239.65 747.49 1238.65 748.493 1238.65 749.73C1238.65 750.967 1239.65 751.97 1240.89 751.97Z" fill="white"/>
</g>
<g clip-path="url(#clip14_262_4784)">
<path d="M1736.41 494.94C1737.65 494.94 1738.65 493.937 1738.65 492.7C1738.65 491.463 1737.65 490.46 1736.41 490.46C1735.17 490.46 1734.17 491.463 1734.17 492.7C1734.17 493.937 1735.17 494.94 1736.41 494.94Z" fill="white"/>
</g>
<g clip-path="url(#clip15_262_4784)">
<path d="M1788.55 755.57C1789.79 755.57 1790.79 754.567 1790.79 753.33C1790.79 752.093 1789.79 751.09 1788.55 751.09C1787.31 751.09 1786.31 752.093 1786.31 753.33C1786.31 754.567 1787.31 755.57 1788.55 755.57Z" fill="white"/>
</g>
<g clip-path="url(#clip16_262_4784)">
<path d="M1737.99 806.17C1739.23 806.17 1740.23 805.167 1740.23 803.93C1740.23 802.693 1739.23 801.69 1737.99 801.69C1736.75 801.69 1735.75 802.693 1735.75 803.93C1735.75 805.167 1736.75 806.17 1737.99 806.17Z" fill="white"/>
</g>
<g clip-path="url(#clip17_262_4784)">
<path d="M1629.93 619.39C1631.17 619.39 1632.17 618.387 1632.17 617.15C1632.17 615.913 1631.17 614.91 1629.93 614.91C1628.69 614.91 1627.69 615.913 1627.69 617.15C1627.69 618.387 1628.69 619.39 1629.93 619.39Z" fill="white"/>
</g>
<g clip-path="url(#clip18_262_4784)">
<path d="M1569.52 762.01C1570.76 762.01 1571.76 761.007 1571.76 759.77C1571.76 758.533 1570.76 757.53 1569.52 757.53C1568.28 757.53 1567.28 758.533 1567.28 759.77C1567.28 761.007 1568.28 762.01 1569.52 762.01Z" fill="white"/>
</g>
<g clip-path="url(#clip19_262_4784)">
<path d="M1720.35 346.37C1721.59 346.37 1722.59 345.367 1722.59 344.13C1722.59 342.893 1721.59 341.89 1720.35 341.89C1719.11 341.89 1718.11 342.893 1718.11 344.13C1718.11 345.367 1719.11 346.37 1720.35 346.37Z" fill="white"/>
</g>
<g clip-path="url(#clip20_262_4784)">
<path d="M1488.11 253.87C1489.35 253.87 1490.35 252.867 1490.35 251.63C1490.35 250.393 1489.35 249.39 1488.11 249.39C1486.87 249.39 1485.87 250.393 1485.87 251.63C1485.87 252.867 1486.87 253.87 1488.11 253.87Z" fill="white"/>
</g>
<g clip-path="url(#clip21_262_4784)">
<path d="M1393.48 401.2C1394.72 401.2 1395.72 400.197 1395.72 398.96C1395.72 397.723 1394.72 396.72 1393.48 396.72C1392.24 396.72 1391.24 397.723 1391.24 398.96C1391.24 400.197 1392.24 401.2 1393.48 401.2Z" fill="white"/>
</g>
<g clip-path="url(#clip22_262_4784)">
<path d="M1373.33 536C1374.57 536 1375.57 534.997 1375.57 533.76C1375.57 532.523 1374.57 531.52 1373.33 531.52C1372.09 531.52 1371.09 532.523 1371.09 533.76C1371.09 534.997 1372.09 536 1373.33 536Z" fill="white"/>
</g>
<g clip-path="url(#clip23_262_4784)">
<path d="M1543.52 250.16C1544.76 250.16 1545.76 249.157 1545.76 247.92C1545.76 246.683 1544.76 245.68 1543.52 245.68C1542.28 245.68 1541.28 246.683 1541.28 247.92C1541.28 249.157 1542.28 250.16 1543.52 250.16Z" fill="white"/>
</g>
<g clip-path="url(#clip24_262_4784)">
<path d="M1435.35 82.4499C1436.59 82.4499 1437.59 81.447 1437.59 80.2099C1437.59 78.9728 1436.59 77.9699 1435.35 77.9699C1434.11 77.9699 1433.11 78.9728 1433.11 80.2099C1433.11 81.447 1434.11 82.4499 1435.35 82.4499Z" fill="white"/>
</g>
<g clip-path="url(#clip25_262_4784)">
<path d="M1338.77 184.64C1340.01 184.64 1341.01 183.637 1341.01 182.4C1341.01 181.163 1340.01 180.16 1338.77 180.16C1337.53 180.16 1336.53 181.163 1336.53 182.4C1336.53 183.637 1337.53 184.64 1338.77 184.64Z" fill="white"/>
</g>
<g clip-path="url(#clip26_262_4784)">
<path d="M1512.37 97.08C1513.61 97.08 1514.61 96.0771 1514.61 94.84C1514.61 93.6029 1513.61 92.6 1512.37 92.6C1511.13 92.6 1510.13 93.6029 1510.13 94.84C1510.13 96.0771 1511.13 97.08 1512.37 97.08Z" fill="white"/>
</g>
<g clip-path="url(#clip27_262_4784)">
<path d="M459.539 77.3399C460.776 77.3399 461.779 76.337 461.779 75.0999C461.779 73.8628 460.776 72.8599 459.539 72.8599C458.302 72.8599 457.299 73.8628 457.299 75.0999C457.299 76.337 458.302 77.3399 459.539 77.3399Z" fill="white"/>
</g>
<g clip-path="url(#clip28_262_4784)">
<path d="M483.11 381.25C484.347 381.25 485.35 380.247 485.35 379.01C485.35 377.773 484.347 376.77 483.11 376.77C481.873 376.77 480.87 377.773 480.87 379.01C480.87 380.247 481.873 381.25 483.11 381.25Z" fill="white"/>
</g>
<g clip-path="url(#clip29_262_4784)">
<path d="M512.12 501.57C513.357 501.57 514.36 500.567 514.36 499.33C514.36 498.093 513.357 497.09 512.12 497.09C510.883 497.09 509.88 498.093 509.88 499.33C509.88 500.567 510.883 501.57 512.12 501.57Z" fill="white"/>
</g>
<g clip-path="url(#clip30_262_4784)">
<path d="M315.51 514.36C316.747 514.36 317.75 513.357 317.75 512.12C317.75 510.883 316.747 509.88 315.51 509.88C314.272 509.88 313.27 510.883 313.27 512.12C313.27 513.357 314.272 514.36 315.51 514.36Z" fill="white"/>
</g>
<g clip-path="url(#clip31_262_4784)">
<path d="M624.928 585.27C626.166 585.27 627.168 584.267 627.168 583.03C627.168 581.793 626.166 580.79 624.928 580.79C623.691 580.79 622.688 581.793 622.688 583.03C622.688 584.267 623.691 585.27 624.928 585.27Z" fill="white"/>
</g>
<g clip-path="url(#clip32_262_4784)">
<path d="M410.28 261.11C411.517 261.11 412.52 260.107 412.52 258.87C412.52 257.633 411.517 256.63 410.28 256.63C409.043 256.63 408.04 257.633 408.04 258.87C408.04 260.107 409.043 261.11 410.28 261.11Z" fill="white"/>
</g>
<g clip-path="url(#clip33_262_4784)">
<path d="M337.4 4.48C338.637 4.48 339.64 3.47712 339.64 2.24C339.64 1.00288 338.637 0 337.4 0C336.163 0 335.16 1.00288 335.16 2.24C335.16 3.47712 336.163 4.48 337.4 4.48Z" fill="white"/>
</g>
</g>
<defs>
<clipPath id="clip0_262_4784">
<rect width="4.47" height="4.47" fill="white" transform="translate(46.2197 199.53)"/>
</clipPath>
<clipPath id="clip1_262_4784">
<rect width="4.47" height="4.47" fill="white" transform="translate(0 296.15)"/>
</clipPath>
<clipPath id="clip2_262_4784">
<rect width="4.47" height="4.47" fill="white" transform="translate(178.759 179.47)"/>
</clipPath>
<clipPath id="clip3_262_4784">
<rect width="4.47" height="4.47" fill="white" transform="translate(206.759 334.16)"/>
</clipPath>
<clipPath id="clip4_262_4784">
<rect width="4.47" height="4.47" fill="white" transform="translate(86.3193 496.69)"/>
</clipPath>
<clipPath id="clip5_262_4784">
<rect width="4.47" height="4.47" fill="white" transform="translate(16.2593 699.2)"/>
</clipPath>
<clipPath id="clip6_262_4784">
<rect width="4.47" height="4.47" fill="white" transform="translate(272.86 677.29)"/>
</clipPath>
<clipPath id="clip7_262_4784">
<rect width="4.47" height="4.47" fill="white" transform="translate(497.4 761.47)"/>
</clipPath>
<clipPath id="clip8_262_4784">
<rect width="4.47" height="4.47" fill="white" transform="translate(952.17 783.42)"/>
</clipPath>
<clipPath id="clip9_262_4784">
<rect width="4.47" height="4.47" fill="white" transform="translate(833.92 699.03)"/>
</clipPath>
<clipPath id="clip10_262_4784">
<rect width="4.47" height="4.47" fill="white" transform="translate(1164.27 662.89)"/>
</clipPath>
<clipPath id="clip11_262_4784">
<rect width="4.47" height="4.47" fill="white" transform="translate(1513.43 470.4)"/>
</clipPath>
<clipPath id="clip12_262_4784">
<rect width="4.47" height="4.47" fill="white" transform="translate(1421.07 579.13)"/>
</clipPath>
<clipPath id="clip13_262_4784">
<rect width="4.47" height="4.47" fill="white" transform="translate(1238.65 747.49)"/>
</clipPath>
<clipPath id="clip14_262_4784">
<rect width="4.47" height="4.47" fill="white" transform="translate(1734.17 490.46)"/>
</clipPath>
<clipPath id="clip15_262_4784">
<rect width="4.47" height="4.47" fill="white" transform="translate(1786.31 751.09)"/>
</clipPath>
<clipPath id="clip16_262_4784">
<rect width="4.47" height="4.47" fill="white" transform="translate(1735.75 801.69)"/>
</clipPath>
<clipPath id="clip17_262_4784">
<rect width="4.47" height="4.47" fill="white" transform="translate(1627.69 614.91)"/>
</clipPath>
<clipPath id="clip18_262_4784">
<rect width="4.47" height="4.47" fill="white" transform="translate(1567.28 757.53)"/>
</clipPath>
<clipPath id="clip19_262_4784">
<rect width="4.47" height="4.47" fill="white" transform="translate(1718.11 341.89)"/>
</clipPath>
<clipPath id="clip20_262_4784">
<rect width="4.47" height="4.47" fill="white" transform="translate(1485.87 249.39)"/>
</clipPath>
<clipPath id="clip21_262_4784">
<rect width="4.47" height="4.47" fill="white" transform="translate(1391.24 396.72)"/>
</clipPath>
<clipPath id="clip22_262_4784">
<rect width="4.47" height="4.47" fill="white" transform="translate(1371.09 531.52)"/>
</clipPath>
<clipPath id="clip23_262_4784">
<rect width="4.47" height="4.47" fill="white" transform="translate(1541.28 245.68)"/>
</clipPath>
<clipPath id="clip24_262_4784">
<rect width="4.47" height="4.47" fill="white" transform="translate(1433.11 77.9699)"/>
</clipPath>
<clipPath id="clip25_262_4784">
<rect width="4.47" height="4.47" fill="white" transform="translate(1336.53 180.16)"/>
</clipPath>
<clipPath id="clip26_262_4784">
<rect width="4.47" height="4.47" fill="white" transform="translate(1510.13 92.6)"/>
</clipPath>
<clipPath id="clip27_262_4784">
<rect width="4.47" height="4.47" fill="white" transform="translate(457.299 72.8599)"/>
</clipPath>
<clipPath id="clip28_262_4784">
<rect width="4.47" height="4.47" fill="white" transform="translate(480.87 376.77)"/>
</clipPath>
<clipPath id="clip29_262_4784">
<rect width="4.47" height="4.47" fill="white" transform="translate(509.88 497.09)"/>
</clipPath>
<clipPath id="clip30_262_4784">
<rect width="4.47" height="4.47" fill="white" transform="translate(313.27 509.88)"/>
</clipPath>
<clipPath id="clip31_262_4784">
<rect width="4.47" height="4.47" fill="white" transform="translate(622.688 580.79)"/>
</clipPath>
<clipPath id="clip32_262_4784">
<rect width="4.47" height="4.47" fill="white" transform="translate(408.04 256.63)"/>
</clipPath>
<clipPath id="clip33_262_4784">
<rect width="4.47" height="4.47" fill="white" transform="translate(335.16)"/>
</clipPath>
</defs>
</svg>
