<svg width="1691" height="901" viewBox="0 0 1691 901" fill="none" xmlns="http://www.w3.org/2000/svg">
<path d="M1685.61 465.25C1688.14 465.25 1690.19 463.199 1690.19 460.67C1690.19 458.14 1688.14 456.09 1685.61 456.09C1683.08 456.09 1681.03 458.14 1681.03 460.67C1681.03 463.199 1683.08 465.25 1685.61 465.25Z" fill="white"/>
<path d="M689.98 658.15C692.51 658.15 694.56 656.099 694.56 653.57C694.56 651.04 692.51 648.99 689.98 648.99C687.451 648.99 685.4 651.04 685.4 653.57C685.4 656.099 687.451 658.15 689.98 658.15Z" fill="white"/>
<path d="M478.77 900.89C481.3 900.89 483.35 898.839 483.35 896.31C483.35 893.78 481.3 891.73 478.77 891.73C476.241 891.73 474.19 893.78 474.19 896.31C474.19 898.839 476.241 900.89 478.77 900.89Z" fill="#0D5875"/>
<path d="M480.94 236.3C483.47 236.3 485.52 234.249 485.52 231.72C485.52 229.191 483.47 227.14 480.94 227.14C478.411 227.14 476.36 229.191 476.36 231.72C476.36 234.249 478.411 236.3 480.94 236.3Z" fill="white"/>
<path d="M4.58 102.42C7.10947 102.42 9.16 100.369 9.16 97.8398C9.16 95.3104 7.10947 93.2599 4.58 93.2599C2.05054 93.2599 0 95.3104 0 97.8398C0 100.369 2.05054 102.42 4.58 102.42Z" fill="#0D5875"/>
<path d="M27.8202 867C30.3497 867 32.4002 864.95 32.4002 862.42C32.4002 859.891 30.3497 857.84 27.8202 857.84C25.2908 857.84 23.2402 859.891 23.2402 862.42C23.2402 864.95 25.2908 867 27.8202 867Z" fill="#F8D99A"/>
<path d="M506.49 9.15991C509.02 9.15991 511.07 7.10942 511.07 4.57996C511.07 2.05049 509.02 0 506.49 0C503.961 0 501.91 2.05049 501.91 4.57996C501.91 7.10942 503.961 9.15991 506.49 9.15991Z" fill="#F8D99A"/>
</svg>
