<svg width="1806" height="170" viewBox="0 0 1806 170" fill="none" xmlns="http://www.w3.org/2000/svg">
<g opacity="0.3">
<g clip-path="url(#clip0_262_4853)">
<path d="M446.889 15.3597C448.127 15.3597 449.129 14.3568 449.129 13.1197C449.129 11.8826 448.127 10.8797 446.889 10.8797C445.652 10.8797 444.649 11.8826 444.649 13.1197C444.649 14.3568 445.652 15.3597 446.889 15.3597Z" fill="white"/>
</g>
<g clip-path="url(#clip1_262_4853)">
<path d="M693.33 28.6297C694.567 28.6297 695.57 27.6268 695.57 26.3897C695.57 25.1526 694.567 24.1497 693.33 24.1497C692.093 24.1497 691.09 25.1526 691.09 26.3897C691.09 27.6268 692.093 28.6297 693.33 28.6297Z" fill="white"/>
</g>
<g clip-path="url(#clip2_262_4853)">
<path d="M891.42 79.3696C892.657 79.3696 893.66 78.3668 893.66 77.1296C893.66 75.8925 892.657 74.8896 891.42 74.8896C890.183 74.8896 889.18 75.8925 889.18 77.1296C889.18 78.3668 890.183 79.3696 891.42 79.3696Z" fill="white"/>
</g>
<g clip-path="url(#clip3_262_4853)">
<path d="M1404.29 17.5097C1405.53 17.5097 1406.53 16.5068 1406.53 15.2697C1406.53 14.0326 1405.53 13.0297 1404.29 13.0297C1403.05 13.0297 1402.05 14.0326 1402.05 15.2697C1402.05 16.5068 1403.05 17.5097 1404.29 17.5097Z" fill="white"/>
</g>
<g clip-path="url(#clip4_262_4853)">
<path d="M1803.04 86.0697C1804.28 86.0697 1805.28 85.0668 1805.28 83.8297C1805.28 82.5926 1804.28 81.5897 1803.04 81.5897C1801.8 81.5897 1800.8 82.5926 1800.8 83.8297C1800.8 85.0668 1801.8 86.0697 1803.04 86.0697Z" fill="white"/>
</g>
<g clip-path="url(#clip5_262_4853)">
<path d="M1791.96 2.02968C1793.2 2.02968 1794.2 1.0268 1794.2 -0.210317C1794.2 -1.44744 1793.2 -2.45032 1791.96 -2.45032C1790.72 -2.45032 1789.72 -1.44744 1789.72 -0.210317C1789.72 1.0268 1790.72 2.02968 1791.96 2.02968Z" fill="white"/>
</g>
<g clip-path="url(#clip6_262_4853)">
<path d="M114.461 39.0297C115.698 39.0297 116.701 38.0268 116.701 36.7897C116.701 35.5526 115.698 34.5497 114.461 34.5497C113.224 34.5497 112.221 35.5526 112.221 36.7897C112.221 38.0268 113.224 39.0297 114.461 39.0297Z" fill="white"/>
</g>
<g clip-path="url(#clip7_262_4853)">
<path d="M2.24 136.07C3.47712 136.07 4.48 135.067 4.48 133.83C4.48 132.593 3.47712 131.59 2.24 131.59C1.00288 131.59 0 132.593 0 133.83C0 135.067 1.00288 136.07 2.24 136.07Z" fill="white"/>
</g>
<g clip-path="url(#clip8_262_4853)">
<path d="M270.92 116.09C272.157 116.09 273.16 115.087 273.16 113.85C273.16 112.613 272.157 111.61 270.92 111.61C269.683 111.61 268.68 112.613 268.68 113.85C268.68 115.087 269.683 116.09 270.92 116.09Z" fill="white"/>
</g>
<g clip-path="url(#clip9_262_4853)">
<path d="M262.04 169.71C263.277 169.71 264.28 168.707 264.28 167.47C264.28 166.233 263.277 165.23 262.04 165.23C260.803 165.23 259.8 166.233 259.8 167.47C259.8 168.707 260.803 169.71 262.04 169.71Z" fill="white"/>
</g>
<g clip-path="url(#clip10_262_4853)">
<path d="M1602.46 23.7997C1603.7 23.7997 1604.7 22.7968 1604.7 21.5597C1604.7 20.3226 1603.7 19.3197 1602.46 19.3197C1601.22 19.3197 1600.22 20.3226 1600.22 21.5597C1600.22 22.7968 1601.22 23.7997 1602.46 23.7997Z" fill="white"/>
</g>
<g clip-path="url(#clip11_262_4853)">
<path d="M1674.16 151.01C1675.4 151.01 1676.4 150.007 1676.4 148.77C1676.4 147.533 1675.4 146.53 1674.16 146.53C1672.92 146.53 1671.92 147.533 1671.92 148.77C1671.92 150.007 1672.92 151.01 1674.16 151.01Z" fill="white"/>
</g>
<g clip-path="url(#clip12_262_4853)">
<path d="M1245.85 17.1497C1247.09 17.1497 1248.09 16.1468 1248.09 14.9097C1248.09 13.6726 1247.09 12.6697 1245.85 12.6697C1244.61 12.6697 1243.61 13.6726 1243.61 14.9097C1243.61 16.1468 1244.61 17.1497 1245.85 17.1497Z" fill="white"/>
</g>
<g clip-path="url(#clip13_262_4853)">
<path d="M1025.09 113.41C1026.33 113.41 1027.33 112.407 1027.33 111.17C1027.33 109.933 1026.33 108.93 1025.09 108.93C1023.85 108.93 1022.85 109.933 1022.85 111.17C1022.85 112.407 1023.85 113.41 1025.09 113.41Z" fill="white"/>
</g>
<g clip-path="url(#clip14_262_4853)">
<path d="M1300.76 115.48C1302 115.48 1303 114.477 1303 113.24C1303 112.003 1302 111 1300.76 111C1299.52 111 1298.52 112.003 1298.52 113.24C1298.52 114.477 1299.52 115.48 1300.76 115.48Z" fill="white"/>
</g>
</g>
<defs>
<clipPath id="clip0_262_4853">
<rect width="4.47" height="4.47" fill="white" transform="translate(444.649 10.8797)"/>
</clipPath>
<clipPath id="clip1_262_4853">
<rect width="4.47" height="4.47" fill="white" transform="translate(691.09 24.1497)"/>
</clipPath>
<clipPath id="clip2_262_4853">
<rect width="4.47" height="4.47" fill="white" transform="translate(889.18 74.8896)"/>
</clipPath>
<clipPath id="clip3_262_4853">
<rect width="4.47" height="4.47" fill="white" transform="translate(1402.05 13.0297)"/>
</clipPath>
<clipPath id="clip4_262_4853">
<rect width="4.47" height="4.47" fill="white" transform="translate(1800.8 81.5897)"/>
</clipPath>
<clipPath id="clip5_262_4853">
<rect width="4.47" height="4.47" fill="white" transform="translate(1789.72 -2.45032)"/>
</clipPath>
<clipPath id="clip6_262_4853">
<rect width="4.47" height="4.47" fill="white" transform="translate(112.221 34.5497)"/>
</clipPath>
<clipPath id="clip7_262_4853">
<rect width="4.47" height="4.47" fill="white" transform="translate(0 131.59)"/>
</clipPath>
<clipPath id="clip8_262_4853">
<rect width="4.47" height="4.47" fill="white" transform="translate(268.68 111.61)"/>
</clipPath>
<clipPath id="clip9_262_4853">
<rect width="4.47" height="4.47" fill="white" transform="translate(259.8 165.23)"/>
</clipPath>
<clipPath id="clip10_262_4853">
<rect width="4.47" height="4.47" fill="white" transform="translate(1600.22 19.3197)"/>
</clipPath>
<clipPath id="clip11_262_4853">
<rect width="4.47" height="4.47" fill="white" transform="translate(1671.92 146.53)"/>
</clipPath>
<clipPath id="clip12_262_4853">
<rect width="4.47" height="4.47" fill="white" transform="translate(1243.61 12.6697)"/>
</clipPath>
<clipPath id="clip13_262_4853">
<rect width="4.47" height="4.47" fill="white" transform="translate(1022.85 108.93)"/>
</clipPath>
<clipPath id="clip14_262_4853">
<rect width="4.47" height="4.47" fill="white" transform="translate(1298.52 111)"/>
</clipPath>
</defs>
</svg>
