<svg width="1614" height="936" viewBox="0 0 1614 936" fill="none" xmlns="http://www.w3.org/2000/svg">
<g opacity="0.5">
<g clip-path="url(#clip0_262_4419)">
<path d="M753.739 569.14C754.976 569.14 755.979 568.137 755.979 566.9C755.979 565.663 754.976 564.66 753.739 564.66C752.502 564.66 751.499 565.663 751.499 566.9C751.499 568.137 752.502 569.14 753.739 569.14Z" fill="white"/>
</g>
<g clip-path="url(#clip1_262_4419)">
<path d="M831.229 698.69C832.466 698.69 833.469 697.687 833.469 696.45C833.469 695.213 832.466 694.21 831.229 694.21C829.992 694.21 828.989 695.213 828.989 696.45C828.989 697.687 829.992 698.69 831.229 698.69Z" fill="white"/>
</g>
<g clip-path="url(#clip2_262_4419)">
<path d="M883.229 877.09C884.466 877.09 885.469 876.087 885.469 874.85C885.469 873.613 884.466 872.61 883.229 872.61C881.992 872.61 880.989 873.613 880.989 874.85C880.989 876.087 881.992 877.09 883.229 877.09Z" fill="white"/>
</g>
<g clip-path="url(#clip3_262_4419)">
<path d="M412.7 926.24C413.937 926.24 414.94 925.237 414.94 924C414.94 922.763 413.937 921.76 412.7 921.76C411.463 921.76 410.46 922.763 410.46 924C410.46 925.237 411.463 926.24 412.7 926.24Z" fill="white"/>
</g>
<g clip-path="url(#clip4_262_4419)">
<path d="M44.6502 867.36C45.8873 867.36 46.8902 866.357 46.8902 865.12C46.8902 863.883 45.8873 862.88 44.6502 862.88C43.413 862.88 42.4102 863.883 42.4102 865.12C42.4102 866.357 43.413 867.36 44.6502 867.36Z" fill="white"/>
</g>
<g clip-path="url(#clip5_262_4419)">
<path d="M190.02 897.62C191.257 897.62 192.26 896.617 192.26 895.38C192.26 894.143 191.257 893.14 190.02 893.14C188.783 893.14 187.78 894.143 187.78 895.38C187.78 896.617 188.783 897.62 190.02 897.62Z" fill="white"/>
</g>
<g clip-path="url(#clip6_262_4419)">
<path d="M584.761 837.49C585.998 837.49 587.001 836.487 587.001 835.25C587.001 834.013 585.998 833.01 584.761 833.01C583.523 833.01 582.521 834.013 582.521 835.25C582.521 836.487 583.523 837.49 584.761 837.49Z" fill="white"/>
</g>
<g clip-path="url(#clip7_262_4419)">
<path d="M208.95 792.98C210.187 792.98 211.19 791.977 211.19 790.74C211.19 789.503 210.187 788.5 208.95 788.5C207.713 788.5 206.71 789.503 206.71 790.74C206.71 791.977 207.713 792.98 208.95 792.98Z" fill="white"/>
</g>
<g clip-path="url(#clip8_262_4419)">
<path d="M58.9597 550.05C60.1968 550.05 61.1997 549.047 61.1997 547.81C61.1997 546.573 60.1968 545.57 58.9597 545.57C57.7226 545.57 56.7197 546.573 56.7197 547.81C56.7197 549.047 57.7226 550.05 58.9597 550.05Z" fill="white"/>
</g>
<g clip-path="url(#clip9_262_4419)">
<path d="M11.6101 341.7C12.8472 341.7 13.8501 340.697 13.8501 339.46C13.8501 338.223 12.8472 337.22 11.6101 337.22C10.373 337.22 9.37012 338.223 9.37012 339.46C9.37012 340.697 10.373 341.7 11.6101 341.7Z" fill="white"/>
</g>
<g clip-path="url(#clip10_262_4419)">
<path d="M160.05 196.43C161.287 196.43 162.29 195.427 162.29 194.19C162.29 192.953 161.287 191.95 160.05 191.95C158.812 191.95 157.81 192.953 157.81 194.19C157.81 195.427 158.812 196.43 160.05 196.43Z" fill="white"/>
</g>
<g clip-path="url(#clip11_262_4419)">
<path d="M382.45 548.48C383.687 548.48 384.69 547.477 384.69 546.24C384.69 545.003 383.687 544 382.45 544C381.213 544 380.21 545.003 380.21 546.24C380.21 547.477 381.213 548.48 382.45 548.48Z" fill="white"/>
</g>
<g clip-path="url(#clip12_262_4419)">
<path d="M641.54 270.33C642.777 270.33 643.78 269.327 643.78 268.09C643.78 266.853 642.777 265.85 641.54 265.85C640.303 265.85 639.3 266.853 639.3 268.09C639.3 269.327 640.303 270.33 641.54 270.33Z" fill="white"/>
</g>
<g clip-path="url(#clip13_262_4419)">
<path d="M641.45 467.84C642.687 467.84 643.69 466.837 643.69 465.6C643.69 464.363 642.687 463.36 641.45 463.36C640.213 463.36 639.21 464.363 639.21 465.6C639.21 466.837 640.213 467.84 641.45 467.84Z" fill="white"/>
</g>
<g clip-path="url(#clip14_262_4419)">
<path d="M2.24 54.33C3.47712 54.33 4.48 53.3271 4.48 52.09C4.48 50.8529 3.47712 49.85 2.24 49.85C1.00288 49.85 0 50.8529 0 52.09C0 53.3271 1.00288 54.33 2.24 54.33Z" fill="white"/>
</g>
<g clip-path="url(#clip15_262_4419)">
<path d="M370.1 110.87C371.337 110.87 372.34 109.867 372.34 108.63C372.34 107.393 371.337 106.39 370.1 106.39C368.863 106.39 367.86 107.393 367.86 108.63C367.86 109.867 368.863 110.87 370.1 110.87Z" fill="white"/>
</g>
<g clip-path="url(#clip16_262_4419)">
<path d="M407.87 237.35C409.107 237.35 410.11 236.347 410.11 235.11C410.11 233.873 409.107 232.87 407.87 232.87C406.633 232.87 405.63 233.873 405.63 235.11C405.63 236.347 406.633 237.35 407.87 237.35Z" fill="white"/>
</g>
<g clip-path="url(#clip17_262_4419)">
<path d="M747.219 112.25C748.457 112.25 749.459 111.247 749.459 110.01C749.459 108.773 748.457 107.77 747.219 107.77C745.982 107.77 744.979 108.773 744.979 110.01C744.979 111.247 745.982 112.25 747.219 112.25Z" fill="white"/>
</g>
<g clip-path="url(#clip18_262_4419)">
<path d="M802.88 171.06C804.117 171.06 805.12 170.057 805.12 168.82C805.12 167.583 804.117 166.58 802.88 166.58C801.643 166.58 800.64 167.583 800.64 168.82C800.64 170.057 801.643 171.06 802.88 171.06Z" fill="white"/>
</g>
<g clip-path="url(#clip19_262_4419)">
<path d="M783.899 404.48C785.136 404.48 786.139 403.477 786.139 402.24C786.139 401.003 785.136 400 783.899 400C782.662 400 781.659 401.003 781.659 402.24C781.659 403.477 782.662 404.48 783.899 404.48Z" fill="white"/>
</g>
<g clip-path="url(#clip20_262_4419)">
<path d="M620.88 616.54C622.117 616.54 623.12 615.537 623.12 614.3C623.12 613.063 622.117 612.06 620.88 612.06C619.643 612.06 618.64 613.063 618.64 614.3C618.64 615.537 619.643 616.54 620.88 616.54Z" fill="white"/>
</g>
<g clip-path="url(#clip21_262_4419)">
<path d="M839.36 508.91C840.597 508.91 841.6 507.907 841.6 506.67C841.6 505.433 840.597 504.43 839.36 504.43C838.123 504.43 837.12 505.433 837.12 506.67C837.12 507.907 838.123 508.91 839.36 508.91Z" fill="white"/>
</g>
<g clip-path="url(#clip22_262_4419)">
<path d="M483.53 387.35C484.767 387.35 485.77 386.347 485.77 385.11C485.77 383.873 484.767 382.87 483.53 382.87C482.293 382.87 481.29 383.873 481.29 385.11C481.29 386.347 482.293 387.35 483.53 387.35Z" fill="white"/>
</g>
<g clip-path="url(#clip23_262_4419)">
<path d="M396.82 845.18C398.057 845.18 399.06 844.177 399.06 842.94C399.06 841.703 398.057 840.7 396.82 840.7C395.583 840.7 394.58 841.703 394.58 842.94C394.58 844.177 395.583 845.18 396.82 845.18Z" fill="white"/>
</g>
<g clip-path="url(#clip24_262_4419)">
<path d="M659.091 935.63C660.328 935.63 661.331 934.627 661.331 933.39C661.331 932.153 660.328 931.15 659.091 931.15C657.853 931.15 656.851 932.153 656.851 933.39C656.851 934.627 657.853 935.63 659.091 935.63Z" fill="white"/>
</g>
<g clip-path="url(#clip25_262_4419)">
<path d="M977.571 44.6698C978.808 44.6698 979.811 43.6669 979.811 42.4298C979.811 41.1927 978.808 40.1898 977.571 40.1898C976.334 40.1898 975.331 41.1927 975.331 42.4298C975.331 43.6669 976.334 44.6698 977.571 44.6698Z" fill="white"/>
</g>
<g clip-path="url(#clip26_262_4419)">
<path d="M1134.25 67.77C1135.49 67.77 1136.49 66.7672 1136.49 65.53C1136.49 64.2929 1135.49 63.29 1134.25 63.29C1133.01 63.29 1132.01 64.2929 1132.01 65.53C1132.01 66.7672 1133.01 67.77 1134.25 67.77Z" fill="white"/>
</g>
<g clip-path="url(#clip27_262_4419)">
<path d="M1603.45 67.99C1604.69 67.99 1605.69 66.9871 1605.69 65.75C1605.69 64.5129 1604.69 63.51 1603.45 63.51C1602.21 63.51 1601.21 64.5129 1601.21 65.75C1601.21 66.9871 1602.21 67.99 1603.45 67.99Z" fill="white"/>
</g>
<g clip-path="url(#clip28_262_4419)">
<path d="M221.23 4.48C222.467 4.48 223.47 3.47712 223.47 2.24C223.47 1.00288 222.467 0 221.23 0C219.993 0 218.99 1.00288 218.99 2.24C218.99 3.47712 219.993 4.48 221.23 4.48Z" fill="white"/>
</g>
<g clip-path="url(#clip29_262_4419)">
<path d="M1103.7 873.9C1104.94 873.9 1105.94 872.897 1105.94 871.66C1105.94 870.423 1104.94 869.42 1103.7 869.42C1102.46 869.42 1101.46 870.423 1101.46 871.66C1101.46 872.897 1102.46 873.9 1103.7 873.9Z" fill="white"/>
</g>
<g clip-path="url(#clip30_262_4419)">
<path d="M1611.1 888.87C1612.34 888.87 1613.34 887.867 1613.34 886.63C1613.34 885.393 1612.34 884.39 1611.1 884.39C1609.86 884.39 1608.86 885.393 1608.86 886.63C1608.86 887.867 1609.86 888.87 1611.1 888.87Z" fill="white"/>
</g>
<g clip-path="url(#clip31_262_4419)">
<path d="M1018.01 585.36C1019.25 585.36 1020.25 584.357 1020.25 583.12C1020.25 581.883 1019.25 580.88 1018.01 580.88C1016.77 580.88 1015.77 581.883 1015.77 583.12C1015.77 584.357 1016.77 585.36 1018.01 585.36Z" fill="white"/>
</g>
<g clip-path="url(#clip32_262_4419)">
<path d="M1309.84 598.69C1311.08 598.69 1312.08 597.687 1312.08 596.45C1312.08 595.213 1311.08 594.21 1309.84 594.21C1308.6 594.21 1307.6 595.213 1307.6 596.45C1307.6 597.687 1308.6 598.69 1309.84 598.69Z" fill="white"/>
</g>
</g>
<defs>
<clipPath id="clip0_262_4419">
<rect width="4.47" height="4.47" fill="white" transform="translate(751.499 564.66)"/>
</clipPath>
<clipPath id="clip1_262_4419">
<rect width="4.47" height="4.47" fill="white" transform="translate(828.989 694.21)"/>
</clipPath>
<clipPath id="clip2_262_4419">
<rect width="4.47" height="4.47" fill="white" transform="translate(880.989 872.61)"/>
</clipPath>
<clipPath id="clip3_262_4419">
<rect width="4.47" height="4.47" fill="white" transform="translate(410.46 921.76)"/>
</clipPath>
<clipPath id="clip4_262_4419">
<rect width="4.47" height="4.47" fill="white" transform="translate(42.4102 862.88)"/>
</clipPath>
<clipPath id="clip5_262_4419">
<rect width="4.47" height="4.47" fill="white" transform="translate(187.78 893.14)"/>
</clipPath>
<clipPath id="clip6_262_4419">
<rect width="4.47" height="4.47" fill="white" transform="translate(582.521 833.01)"/>
</clipPath>
<clipPath id="clip7_262_4419">
<rect width="4.47" height="4.47" fill="white" transform="translate(206.71 788.5)"/>
</clipPath>
<clipPath id="clip8_262_4419">
<rect width="4.47" height="4.47" fill="white" transform="translate(56.7197 545.57)"/>
</clipPath>
<clipPath id="clip9_262_4419">
<rect width="4.47" height="4.47" fill="white" transform="translate(9.37012 337.22)"/>
</clipPath>
<clipPath id="clip10_262_4419">
<rect width="4.47" height="4.47" fill="white" transform="translate(157.81 191.95)"/>
</clipPath>
<clipPath id="clip11_262_4419">
<rect width="4.47" height="4.47" fill="white" transform="translate(380.21 544)"/>
</clipPath>
<clipPath id="clip12_262_4419">
<rect width="4.47" height="4.47" fill="white" transform="translate(639.3 265.85)"/>
</clipPath>
<clipPath id="clip13_262_4419">
<rect width="4.47" height="4.47" fill="white" transform="translate(639.21 463.36)"/>
</clipPath>
<clipPath id="clip14_262_4419">
<rect width="4.47" height="4.47" fill="white" transform="translate(0 49.85)"/>
</clipPath>
<clipPath id="clip15_262_4419">
<rect width="4.47" height="4.47" fill="white" transform="translate(367.86 106.39)"/>
</clipPath>
<clipPath id="clip16_262_4419">
<rect width="4.47" height="4.47" fill="white" transform="translate(405.63 232.87)"/>
</clipPath>
<clipPath id="clip17_262_4419">
<rect width="4.47" height="4.47" fill="white" transform="translate(744.979 107.77)"/>
</clipPath>
<clipPath id="clip18_262_4419">
<rect width="4.47" height="4.47" fill="white" transform="translate(800.64 166.58)"/>
</clipPath>
<clipPath id="clip19_262_4419">
<rect width="4.47" height="4.47" fill="white" transform="translate(781.659 400)"/>
</clipPath>
<clipPath id="clip20_262_4419">
<rect width="4.47" height="4.47" fill="white" transform="translate(618.64 612.06)"/>
</clipPath>
<clipPath id="clip21_262_4419">
<rect width="4.47" height="4.47" fill="white" transform="translate(837.12 504.43)"/>
</clipPath>
<clipPath id="clip22_262_4419">
<rect width="4.47" height="4.47" fill="white" transform="translate(481.29 382.87)"/>
</clipPath>
<clipPath id="clip23_262_4419">
<rect width="4.47" height="4.47" fill="white" transform="translate(394.58 840.7)"/>
</clipPath>
<clipPath id="clip24_262_4419">
<rect width="4.47" height="4.47" fill="white" transform="translate(656.851 931.15)"/>
</clipPath>
<clipPath id="clip25_262_4419">
<rect width="4.47" height="4.47" fill="white" transform="translate(975.331 40.1898)"/>
</clipPath>
<clipPath id="clip26_262_4419">
<rect width="4.47" height="4.47" fill="white" transform="translate(1132.01 63.29)"/>
</clipPath>
<clipPath id="clip27_262_4419">
<rect width="4.47" height="4.47" fill="white" transform="translate(1601.21 63.51)"/>
</clipPath>
<clipPath id="clip28_262_4419">
<rect width="4.47" height="4.47" fill="white" transform="translate(218.99)"/>
</clipPath>
<clipPath id="clip29_262_4419">
<rect width="4.47" height="4.47" fill="white" transform="translate(1101.46 869.42)"/>
</clipPath>
<clipPath id="clip30_262_4419">
<rect width="4.47" height="4.47" fill="white" transform="translate(1608.86 884.39)"/>
</clipPath>
<clipPath id="clip31_262_4419">
<rect width="4.47" height="4.47" fill="white" transform="translate(1015.77 580.88)"/>
</clipPath>
<clipPath id="clip32_262_4419">
<rect width="4.47" height="4.47" fill="white" transform="translate(1307.6 594.21)"/>
</clipPath>
</defs>
</svg>
