<svg width="924" height="816" viewBox="0 0 924 816" fill="none" xmlns="http://www.w3.org/2000/svg">
<path style="mix-blend-mode:screen" d="M879.299 815.35C903.815 815.35 923.689 795.476 923.689 770.96C923.689 746.444 903.815 726.57 879.299 726.57C854.783 726.57 834.909 746.444 834.909 770.96C834.909 795.476 854.783 815.35 879.299 815.35Z" fill="url(#paint0_radial_262_4408)"/>
<path d="M855.22 770.96L871.29 767.16C874.32 766.44 876.69 764.08 877.41 761.04L881.21 744.97L885.01 761.04C885.73 764.07 888.09 766.44 891.13 767.16L907.2 770.96L891.13 774.76C888.1 775.48 885.73 777.84 885.01 780.88L881.21 796.95L877.41 780.88C876.69 777.85 874.33 775.48 871.29 774.76L855.22 770.96Z" fill="#0D5875"/>
<path style="mix-blend-mode:screen" d="M49.47 473.07C76.7915 473.07 98.94 450.921 98.94 423.6C98.94 396.278 76.7915 374.13 49.47 374.13C22.1484 374.13 0 396.278 0 423.6C0 450.921 22.1484 473.07 49.47 473.07Z" fill="url(#paint1_radial_262_4408)"/>
<path d="M22.6396 423.6L41.1196 419.23C44.1496 418.51 46.5196 416.15 47.2396 413.11L51.6096 394.63L55.9796 413.11C56.6996 416.14 59.0596 418.51 62.0996 419.23L80.5796 423.6L62.0996 427.97C59.0696 428.69 56.6996 431.05 55.9796 434.09L51.6096 452.57L47.2396 434.09C46.5196 431.06 44.1596 428.69 41.1196 427.97L22.6396 423.6Z" fill="#F8D99A"/>
<g opacity="0.5">
<path d="M643.67 25.99L659.74 22.1901C662.77 21.4701 665.14 19.1101 665.86 16.0701L669.66 0L673.46 16.0701C674.18 19.1001 676.54 21.4701 679.58 22.1901L695.65 25.99L679.58 29.79C676.55 30.51 674.18 32.87 673.46 35.91L669.66 51.98L665.86 35.91C665.14 32.88 662.78 30.51 659.74 29.79L643.67 25.99Z" fill="#06282D"/>
</g>
<g opacity="0.5">
<path d="M839.2 135.51L857.68 131.14C860.71 130.42 863.08 128.06 863.8 125.02L868.17 106.54L872.54 125.02C873.26 128.05 875.62 130.42 878.66 131.14L897.14 135.51L878.66 139.88C875.63 140.6 873.26 142.96 872.54 146L868.17 164.48L863.8 146C863.08 142.97 860.72 140.6 857.68 139.88L839.2 135.51Z" fill="#F8D99A"/>
</g>
<defs>
<radialGradient id="paint0_radial_262_4408" cx="0" cy="0" r="1" gradientUnits="userSpaceOnUse" gradientTransform="translate(879.289 770.96) rotate(-90) scale(44.39 44.39)">
<stop stop-color="#0D5875"/>
<stop offset="0.02" stop-color="#0C526D"/>
<stop offset="0.14" stop-color="#08394C"/>
<stop offset="0.27" stop-color="#052430"/>
<stop offset="0.41" stop-color="#02141A"/>
<stop offset="0.56" stop-color="#01080B"/>
<stop offset="0.74" stop-color="#000202"/>
<stop offset="1"/>
</radialGradient>
<radialGradient id="paint1_radial_262_4408" cx="0" cy="0" r="1" gradientUnits="userSpaceOnUse" gradientTransform="translate(49.46 423.59) rotate(-90) scale(49.47 49.47)">
<stop stop-color="#F8D99A"/>
<stop offset="0.08" stop-color="#C4AB7A"/>
<stop offset="0.16" stop-color="#96835D"/>
<stop offset="0.25" stop-color="#6E6044"/>
<stop offset="0.34" stop-color="#4C422F"/>
<stop offset="0.44" stop-color="#302A1E"/>
<stop offset="0.55" stop-color="#1A1710"/>
<stop offset="0.66" stop-color="#0B0A07"/>
<stop offset="0.8" stop-color="#020201"/>
<stop offset="1"/>
</radialGradient>
</defs>
</svg>
