<svg width="268" height="140" viewBox="0 0 268 140" fill="none" xmlns="http://www.w3.org/2000/svg">
<path d="M43.26 97.9499C35.86 100.17 28.51 102.68 21.35 105.53C17.78 106.96 14.42 108.82 10.9 110.19C7.37002 111.6 3.91001 112.96 0.26001 114.58L0 114.28C4.74 107.67 12.68 104.49 20.3 102.52C27.79 100.27 35.4601 98.65 43.1901 97.57L43.27 97.9599L43.26 97.9499Z" fill="#F8D99A"/>
<path d="M47.3601 110.63C42.0701 115.77 36.7302 120.84 31.3002 125.82C26.0802 131.1 20.4502 135.93 13.6602 139.11L13.3901 138.81C17.3101 132.37 23.1501 127.62 29.2401 123.36C35.1001 118.88 41.0601 114.54 47.1001 110.31L47.3501 110.62L47.3601 110.63Z" fill="#F8D99A"/>
<path d="M207.91 35.26C213.9 27.72 220.41 20.59 227.5 14.04C234.44 7.36998 242.71 0.65 252.72 0L252.82 0.389954C248.55 2.68995 244.82 5.39998 241.04 8.16998C235.38 12.32 229.37 16.27 224.08 21.01C218.61 25.64 213.33 30.49 208.21 35.52L207.91 35.26Z" fill="#F8D99A"/>
<path d="M217.4 49.6C225.51 47.23 233.67 45.07 241.9 43.18C248.57 41.41 255.37 39.92 262.34 40.34C263.91 40.45 265.68 40.62 267.2 41.06L267.18 41.46C263.05 42.58 259.05 43.68 254.95 44.55C250.85 45.47 246.64 45.73 242.49 46.32L217.48 49.99L217.39 49.6H217.4Z" fill="#F8D99A"/>
<path d="M102.75 75.3C96.44 73.44 81.3301 71.21 73.2001 74.69L73.24 74.8C69.89 76.55 68.08 80 69.14 83.05C70.2 86.1 73.77 87.69 77.48 86.98L77.52 87.09C77.52 87.09 83.14 86.89 89.6 84.82C93.89 83.45 98.78 81.46 103.04 79.25C106 77.71 104.47 75.81 102.76 75.3H102.75Z" fill="white"/>
<path d="M147.77 60.8399C154.18 59.3699 168.44 53.9199 173.83 46.8999L173.74 46.82C175.8 43.66 175.69 39.7599 173.27 37.6199C170.85 35.4799 166.97 35.8399 164.08 38.2799L163.99 38.1999C163.99 38.1999 159.19 41.1299 154.57 46.0899C151.51 49.3899 148.21 53.5199 145.58 57.5299C143.76 60.3199 146.02 61.2299 147.76 60.8299L147.77 60.8399Z" fill="white"/>
</svg>
