<svg width="832" height="143" viewBox="0 0 832 143" fill="none" xmlns="http://www.w3.org/2000/svg">
<path style="mix-blend-mode:screen" opacity="0.3" d="M268.98 0.0483935C272.66 0.128394 276.34 0.298396 280 0.488396C292.49 1.1584 305.08 2.0784 317.22 4.7384C331.45 7.8584 337.08 12.4784 346.74 21.1584C357.59 30.9084 368.66 40.8084 382.49 47.4184C401.89 56.6984 418.91 54.9184 438.65 48.3684C457.43 42.1384 477.45 38.5284 497.63 37.6684C537.58 35.9684 578.1 45.2084 610.48 65.0584C621.8 71.9984 632.24 80.1384 644.85 85.2984C662.61 92.5684 683 93.2984 702.69 94.8284C721.5 96.2884 835 104.868 831.27 127.478C830.77 130.488 826.44 131.698 822.86 132.208C795.68 136.138 768 136.928 740.43 137.708C642.69 140.478 540.94 140.008 443.1 139.068C305.86 137.738 166.86 145.398 29.1997 141.538C27.7897 141.498 26.3897 141.458 24.9797 141.408C17.8597 141.178 10.7097 140.588 3.94972 138.188C1.03972 137.148 -1.33031 136.528 0.849688 133.388C2.18969 131.458 4.38973 130.138 6.38973 129.008C21.4697 120.498 38.6797 116.628 54.1497 109.128C62.8197 104.928 72.8097 102.378 81.9197 99.2584C90.9897 96.1484 100.09 93.1384 109.22 90.2184C133.07 82.5784 156.85 74.1384 171.68 55.7984C179.96 45.5584 186.44 34.1384 196.82 25.3384C203.2 19.9284 210.84 15.6984 218.61 11.7684C226.1 7.97843 233.85 4.39839 242.26 2.35839C250.91 0.258391 259.95 -0.141555 268.99 0.0384448L268.98 0.0483935Z" fill="url(#paint0_linear_262_3645)"/>
<defs>
<linearGradient id="paint0_linear_262_3645" x1="-0.0103053" y1="71.3284" x2="831.34" y2="71.3284" gradientUnits="userSpaceOnUse">
<stop stop-color="white"/>
<stop offset="0.02" stop-color="#F5F5F5"/>
<stop offset="0.18" stop-color="#B5B5B5"/>
<stop offset="0.34" stop-color="#7D7D7D"/>
<stop offset="0.49" stop-color="#505050"/>
<stop offset="0.64" stop-color="#2D2D2D"/>
<stop offset="0.78" stop-color="#141414"/>
<stop offset="0.9" stop-color="#050505"/>
<stop offset="1"/>
</linearGradient>
</defs>
</svg>
