<svg width="1768" height="915" viewBox="0 0 1768 915" fill="none" xmlns="http://www.w3.org/2000/svg">
<g opacity="0.3">
<g clip-path="url(#clip0_262_3954)">
<path d="M1658.74 760.76C1659.98 760.76 1660.98 759.757 1660.98 758.52C1660.98 757.283 1659.98 756.28 1658.74 756.28C1657.5 756.28 1656.5 757.283 1656.5 758.52C1656.5 759.757 1657.5 760.76 1658.74 760.76Z" fill="white"/>
</g>
<g clip-path="url(#clip1_262_3954)">
<path d="M1723.56 649.26C1724.8 649.26 1725.8 648.257 1725.8 647.02C1725.8 645.783 1724.8 644.78 1723.56 644.78C1722.32 644.78 1721.32 645.783 1721.32 647.02C1721.32 648.257 1722.32 649.26 1723.56 649.26Z" fill="white"/>
</g>
<g clip-path="url(#clip2_262_3954)">
<path d="M1733.12 368.88C1734.36 368.88 1735.36 367.877 1735.36 366.64C1735.36 365.403 1734.36 364.4 1733.12 364.4C1731.88 364.4 1730.88 365.403 1730.88 366.64C1730.88 367.877 1731.88 368.88 1733.12 368.88Z" fill="white"/>
</g>
<g clip-path="url(#clip3_262_3954)">
<path d="M938.97 761.8C940.207 761.8 941.21 760.797 941.21 759.56C941.21 758.323 940.207 757.32 938.97 757.32C937.733 757.32 936.73 758.323 936.73 759.56C936.73 760.797 937.733 761.8 938.97 761.8Z" fill="white"/>
</g>
<g clip-path="url(#clip4_262_3954)">
<path d="M921.99 587.09C923.227 587.09 924.23 586.087 924.23 584.85C924.23 583.613 923.227 582.61 921.99 582.61C920.753 582.61 919.75 583.613 919.75 584.85C919.75 586.087 920.753 587.09 921.99 587.09Z" fill="white"/>
</g>
<g clip-path="url(#clip5_262_3954)">
<path d="M977.39 616.27C978.627 616.27 979.63 615.267 979.63 614.03C979.63 612.793 978.627 611.79 977.39 611.79C976.153 611.79 975.15 612.793 975.15 614.03C975.15 615.267 976.153 616.27 977.39 616.27Z" fill="white"/>
</g>
<g clip-path="url(#clip6_262_3954)">
<path d="M1450.58 797.32C1451.82 797.32 1452.82 796.317 1452.82 795.08C1452.82 793.843 1451.82 792.84 1450.58 792.84C1449.34 792.84 1448.34 793.843 1448.34 795.08C1448.34 796.317 1449.34 797.32 1450.58 797.32Z" fill="white"/>
</g>
<g clip-path="url(#clip7_262_3954)">
<path d="M768.82 769.66C770.057 769.66 771.06 768.657 771.06 767.42C771.06 766.183 770.057 765.18 768.82 765.18C767.583 765.18 766.58 766.183 766.58 767.42C766.58 768.657 767.583 769.66 768.82 769.66Z" fill="white"/>
</g>
<g clip-path="url(#clip8_262_3954)">
<path d="M812.66 689.91C813.897 689.91 814.9 688.907 814.9 687.67C814.9 686.433 813.897 685.43 812.66 685.43C811.423 685.43 810.42 686.433 810.42 687.67C810.42 688.907 811.423 689.91 812.66 689.91Z" fill="white"/>
</g>
<g clip-path="url(#clip9_262_3954)">
<path d="M1737.53 779.86C1738.77 779.86 1739.77 778.857 1739.77 777.62C1739.77 776.383 1738.77 775.38 1737.53 775.38C1736.29 775.38 1735.29 776.383 1735.29 777.62C1735.29 778.857 1736.29 779.86 1737.53 779.86Z" fill="white"/>
</g>
<g clip-path="url(#clip10_262_3954)">
<path d="M1647.61 699.83C1648.85 699.83 1649.85 698.827 1649.85 697.59C1649.85 696.353 1648.85 695.35 1647.61 695.35C1646.37 695.35 1645.37 696.353 1645.37 697.59C1645.37 698.827 1646.37 699.83 1647.61 699.83Z" fill="white"/>
</g>
<g clip-path="url(#clip11_262_3954)">
<path d="M1362.85 372.7C1364.09 372.7 1365.09 371.697 1365.09 370.46C1365.09 369.223 1364.09 368.22 1362.85 368.22C1361.61 368.22 1360.61 369.223 1360.61 370.46C1360.61 371.697 1361.61 372.7 1362.85 372.7Z" fill="white"/>
</g>
<g clip-path="url(#clip12_262_3954)">
<path d="M1295.83 797.21C1297.07 797.21 1298.07 796.207 1298.07 794.97C1298.07 793.733 1297.07 792.73 1295.83 792.73C1294.59 792.73 1293.59 793.733 1293.59 794.97C1293.59 796.207 1294.59 797.21 1295.83 797.21Z" fill="white"/>
</g>
<g clip-path="url(#clip13_262_3954)">
<path d="M1703.8 301.14C1705.04 301.14 1706.04 300.137 1706.04 298.9C1706.04 297.663 1705.04 296.66 1703.8 296.66C1702.56 296.66 1701.56 297.663 1701.56 298.9C1701.56 300.137 1702.56 301.14 1703.8 301.14Z" fill="white"/>
</g>
<g clip-path="url(#clip14_262_3954)">
<path d="M1765.58 514.04C1766.82 514.04 1767.82 513.037 1767.82 511.8C1767.82 510.563 1766.82 509.56 1765.58 509.56C1764.34 509.56 1763.34 510.563 1763.34 511.8C1763.34 513.037 1764.34 514.04 1765.58 514.04Z" fill="white"/>
</g>
<g clip-path="url(#clip15_262_3954)">
<path d="M1202.11 422.44C1203.35 422.44 1204.35 421.437 1204.35 420.2C1204.35 418.963 1203.35 417.96 1202.11 417.96C1200.87 417.96 1199.87 418.963 1199.87 420.2C1199.87 421.437 1200.87 422.44 1202.11 422.44Z" fill="white"/>
</g>
<g clip-path="url(#clip16_262_3954)">
<path d="M1360.41 159.61C1361.65 159.61 1362.65 158.607 1362.65 157.37C1362.65 156.133 1361.65 155.13 1360.41 155.13C1359.17 155.13 1358.17 156.133 1358.17 157.37C1358.17 158.607 1359.17 159.61 1360.41 159.61Z" fill="white"/>
</g>
<g clip-path="url(#clip17_262_3954)">
<path d="M1634.36 370.55C1635.6 370.55 1636.6 369.547 1636.6 368.31C1636.6 367.073 1635.6 366.07 1634.36 366.07C1633.12 366.07 1632.12 367.073 1632.12 368.31C1632.12 369.547 1633.12 370.55 1634.36 370.55Z" fill="white"/>
</g>
<g clip-path="url(#clip18_262_3954)">
<path d="M691.3 786.07C692.537 786.07 693.54 785.067 693.54 783.83C693.54 782.593 692.537 781.59 691.3 781.59C690.063 781.59 689.06 782.593 689.06 783.83C689.06 785.067 690.063 786.07 691.3 786.07Z" fill="white"/>
</g>
<g clip-path="url(#clip19_262_3954)">
<path d="M794.44 827.69C795.677 827.69 796.68 826.687 796.68 825.45C796.68 824.213 795.677 823.21 794.44 823.21C793.203 823.21 792.2 824.213 792.2 825.45C792.2 826.687 793.203 827.69 794.44 827.69Z" fill="white"/>
</g>
<g clip-path="url(#clip20_262_3954)">
<path d="M290.24 704.01C291.477 704.01 292.48 703.007 292.48 701.77C292.48 700.533 291.477 699.53 290.24 699.53C289.003 699.53 288 700.533 288 701.77C288 703.007 289.003 704.01 290.24 704.01Z" fill="white"/>
</g>
<g clip-path="url(#clip21_262_3954)">
<path d="M475.06 744.23C476.297 744.23 477.3 743.227 477.3 741.99C477.3 740.753 476.297 739.75 475.06 739.75C473.823 739.75 472.82 740.753 472.82 741.99C472.82 743.227 473.823 744.23 475.06 744.23Z" fill="white"/>
</g>
<g clip-path="url(#clip22_262_3954)">
<path d="M1602.01 105.17C1603.25 105.17 1604.25 104.167 1604.25 102.93C1604.25 101.693 1603.25 100.69 1602.01 100.69C1600.77 100.69 1599.77 101.693 1599.77 102.93C1599.77 104.167 1600.77 105.17 1602.01 105.17Z" fill="white"/>
</g>
<g clip-path="url(#clip23_262_3954)">
<path d="M1670.88 4.48C1672.12 4.48 1673.12 3.47712 1673.12 2.24C1673.12 1.00288 1672.12 0 1670.88 0C1669.64 0 1668.64 1.00288 1668.64 2.24C1668.64 3.47712 1669.64 4.48 1670.88 4.48Z" fill="white"/>
</g>
<g clip-path="url(#clip24_262_3954)">
<path d="M1715.82 122.78C1717.06 122.78 1718.06 121.777 1718.06 120.54C1718.06 119.303 1717.06 118.3 1715.82 118.3C1714.58 118.3 1713.58 119.303 1713.58 120.54C1713.58 121.777 1714.58 122.78 1715.82 122.78Z" fill="white"/>
</g>
<g clip-path="url(#clip25_262_3954)">
<path d="M499.82 815.55C501.057 815.55 502.06 814.547 502.06 813.31C502.06 812.073 501.057 811.07 499.82 811.07C498.583 811.07 497.58 812.073 497.58 813.31C497.58 814.547 498.583 815.55 499.82 815.55Z" fill="white"/>
</g>
<g clip-path="url(#clip26_262_3954)">
<path d="M1695.17 917.03C1696.41 917.03 1697.41 916.027 1697.41 914.79C1697.41 913.553 1696.41 912.55 1695.17 912.55C1693.93 912.55 1692.93 913.553 1692.93 914.79C1692.93 916.027 1693.93 917.03 1695.17 917.03Z" fill="white"/>
</g>
<g clip-path="url(#clip27_262_3954)">
<path d="M2.24 742.47C3.47712 742.47 4.48 741.467 4.48 740.23C4.48 738.993 3.47712 737.99 2.24 737.99C1.00288 737.99 0 738.993 0 740.23C0 741.467 1.00288 742.47 2.24 742.47Z" fill="white"/>
</g>
<g clip-path="url(#clip28_262_3954)">
<path d="M265.88 736.12C267.117 736.12 268.12 735.117 268.12 733.88C268.12 732.643 267.117 731.64 265.88 731.64C264.643 731.64 263.64 732.643 263.64 733.88C263.64 735.117 264.643 736.12 265.88 736.12Z" fill="white"/>
</g>
<g clip-path="url(#clip29_262_3954)">
<path d="M341.19 828.62C342.427 828.62 343.43 827.617 343.43 826.38C343.43 825.143 342.427 824.14 341.19 824.14C339.953 824.14 338.95 825.143 338.95 826.38C338.95 827.617 339.953 828.62 341.19 828.62Z" fill="white"/>
</g>
</g>
<defs>
<clipPath id="clip0_262_3954">
<rect width="4.47" height="4.47" fill="white" transform="translate(1656.5 756.28)"/>
</clipPath>
<clipPath id="clip1_262_3954">
<rect width="4.47" height="4.47" fill="white" transform="translate(1721.32 644.78)"/>
</clipPath>
<clipPath id="clip2_262_3954">
<rect width="4.47" height="4.47" fill="white" transform="translate(1730.88 364.4)"/>
</clipPath>
<clipPath id="clip3_262_3954">
<rect width="4.47" height="4.47" fill="white" transform="translate(936.73 757.32)"/>
</clipPath>
<clipPath id="clip4_262_3954">
<rect width="4.47" height="4.47" fill="white" transform="translate(919.75 582.61)"/>
</clipPath>
<clipPath id="clip5_262_3954">
<rect width="4.47" height="4.47" fill="white" transform="translate(975.15 611.79)"/>
</clipPath>
<clipPath id="clip6_262_3954">
<rect width="4.47" height="4.47" fill="white" transform="translate(1448.34 792.84)"/>
</clipPath>
<clipPath id="clip7_262_3954">
<rect width="4.47" height="4.47" fill="white" transform="translate(766.58 765.18)"/>
</clipPath>
<clipPath id="clip8_262_3954">
<rect width="4.47" height="4.47" fill="white" transform="translate(810.42 685.43)"/>
</clipPath>
<clipPath id="clip9_262_3954">
<rect width="4.47" height="4.47" fill="white" transform="translate(1735.29 775.38)"/>
</clipPath>
<clipPath id="clip10_262_3954">
<rect width="4.47" height="4.47" fill="white" transform="translate(1645.37 695.35)"/>
</clipPath>
<clipPath id="clip11_262_3954">
<rect width="4.47" height="4.47" fill="white" transform="translate(1360.61 368.22)"/>
</clipPath>
<clipPath id="clip12_262_3954">
<rect width="4.47" height="4.47" fill="white" transform="translate(1293.59 792.73)"/>
</clipPath>
<clipPath id="clip13_262_3954">
<rect width="4.47" height="4.47" fill="white" transform="translate(1701.56 296.66)"/>
</clipPath>
<clipPath id="clip14_262_3954">
<rect width="4.47" height="4.47" fill="white" transform="translate(1763.34 509.56)"/>
</clipPath>
<clipPath id="clip15_262_3954">
<rect width="4.47" height="4.47" fill="white" transform="translate(1199.87 417.96)"/>
</clipPath>
<clipPath id="clip16_262_3954">
<rect width="4.47" height="4.47" fill="white" transform="translate(1358.17 155.13)"/>
</clipPath>
<clipPath id="clip17_262_3954">
<rect width="4.47" height="4.47" fill="white" transform="translate(1632.12 366.07)"/>
</clipPath>
<clipPath id="clip18_262_3954">
<rect width="4.47" height="4.47" fill="white" transform="translate(689.06 781.59)"/>
</clipPath>
<clipPath id="clip19_262_3954">
<rect width="4.47" height="4.47" fill="white" transform="translate(792.2 823.21)"/>
</clipPath>
<clipPath id="clip20_262_3954">
<rect width="4.47" height="4.47" fill="white" transform="translate(288 699.53)"/>
</clipPath>
<clipPath id="clip21_262_3954">
<rect width="4.47" height="4.47" fill="white" transform="translate(472.82 739.75)"/>
</clipPath>
<clipPath id="clip22_262_3954">
<rect width="4.47" height="4.47" fill="white" transform="translate(1599.77 100.69)"/>
</clipPath>
<clipPath id="clip23_262_3954">
<rect width="4.47" height="4.47" fill="white" transform="translate(1668.64)"/>
</clipPath>
<clipPath id="clip24_262_3954">
<rect width="4.47" height="4.47" fill="white" transform="translate(1713.58 118.3)"/>
</clipPath>
<clipPath id="clip25_262_3954">
<rect width="4.47" height="4.47" fill="white" transform="translate(497.58 811.07)"/>
</clipPath>
<clipPath id="clip26_262_3954">
<rect width="4.47" height="4.47" fill="white" transform="translate(1692.93 912.55)"/>
</clipPath>
<clipPath id="clip27_262_3954">
<rect width="4.47" height="4.47" fill="white" transform="translate(0 737.99)"/>
</clipPath>
<clipPath id="clip28_262_3954">
<rect width="4.47" height="4.47" fill="white" transform="translate(263.64 731.64)"/>
</clipPath>
<clipPath id="clip29_262_3954">
<rect width="4.47" height="4.47" fill="white" transform="translate(338.95 824.14)"/>
</clipPath>
</defs>
</svg>
