<svg width="434" height="587" viewBox="0 0 434 587" fill="none" xmlns="http://www.w3.org/2000/svg">
<path style="mix-blend-mode:screen" d="M44.3899 88.78C68.9058 88.78 88.7799 68.9059 88.7799 44.39C88.7799 19.8741 68.9058 0 44.3899 0C19.874 0 0 19.8741 0 44.39C0 68.9059 19.874 88.78 44.3899 88.78Z" fill="url(#paint0_radial_262_3943)"/>
<path d="M20.3198 44.39L36.3898 40.59C39.4198 39.87 41.7898 37.51 42.5098 34.47L46.3098 18.4L50.1099 34.47C50.8299 37.5 53.1899 39.87 56.2299 40.59L72.2998 44.39L56.2299 48.19C53.1999 48.91 50.8299 51.27 50.1099 54.31L46.3098 70.38L42.5098 54.31C41.7898 51.28 39.4298 48.91 36.3898 48.19L20.3198 44.39Z" fill="#0D5875"/>
<path style="mix-blend-mode:screen" d="M383.9 586.19C411.221 586.19 433.37 564.042 433.37 536.72C433.37 509.399 411.221 487.25 383.9 487.25C356.578 487.25 334.43 509.399 334.43 536.72C334.43 564.042 356.578 586.19 383.9 586.19Z" fill="url(#paint1_radial_262_3943)"/>
<path d="M357.08 536.72L375.56 532.35C378.59 531.63 380.96 529.27 381.68 526.23L386.05 507.75L390.42 526.23C391.14 529.26 393.5 531.63 396.54 532.35L415.02 536.72L396.54 541.09C393.51 541.81 391.14 544.17 390.42 547.21L386.05 565.69L381.68 547.21C380.96 544.18 378.6 541.81 375.56 541.09L357.08 536.72Z" fill="#F8D99A"/>
<defs>
<radialGradient id="paint0_radial_262_3943" cx="0" cy="0" r="1" gradientUnits="userSpaceOnUse" gradientTransform="translate(44.39 44.39) rotate(-90) scale(44.39 44.39)">
<stop stop-color="#0D5875"/>
<stop offset="0.02" stop-color="#0C526D"/>
<stop offset="0.14" stop-color="#08394C"/>
<stop offset="0.27" stop-color="#052430"/>
<stop offset="0.41" stop-color="#02141A"/>
<stop offset="0.56" stop-color="#01080B"/>
<stop offset="0.74" stop-color="#000202"/>
<stop offset="1"/>
</radialGradient>
<radialGradient id="paint1_radial_262_3943" cx="0" cy="0" r="1" gradientUnits="userSpaceOnUse" gradientTransform="translate(383.91 536.72) rotate(-90) scale(49.47 49.47)">
<stop stop-color="#F8D99A"/>
<stop offset="0.08" stop-color="#C4AB7A"/>
<stop offset="0.16" stop-color="#96835D"/>
<stop offset="0.25" stop-color="#6E6044"/>
<stop offset="0.34" stop-color="#4C422F"/>
<stop offset="0.44" stop-color="#302A1E"/>
<stop offset="0.55" stop-color="#1A1710"/>
<stop offset="0.66" stop-color="#0B0A07"/>
<stop offset="0.8" stop-color="#020201"/>
<stop offset="1"/>
</radialGradient>
</defs>
</svg>
