<svg width="1701" height="318" viewBox="0 0 1701 318" fill="none" xmlns="http://www.w3.org/2000/svg">
<path d="M931.94 318C934.469 318 936.52 315.949 936.52 313.42C936.52 310.891 934.469 308.84 931.94 308.84C929.41 308.84 927.36 310.891 927.36 313.42C927.36 315.949 929.41 318 931.94 318Z" fill="#0D5875"/>
<path d="M1695.81 9.15997C1698.34 9.15997 1700.39 7.10948 1700.39 4.58002C1700.39 2.05055 1698.34 0 1695.81 0C1693.28 0 1691.23 2.05055 1691.23 4.58002C1691.23 7.10948 1693.28 9.15997 1695.81 9.15997Z" fill="white"/>
<path d="M4.58 274.5C7.10947 274.5 9.16 272.449 9.16 269.92C9.16 267.391 7.10947 265.34 4.58 265.34C2.05054 265.34 0 267.391 0 269.92C0 272.449 2.05054 274.5 4.58 274.5Z" fill="#F8D99A"/>
</svg>
