<?xml version="1.0" encoding="UTF-8"?>
<svg id="Layer_2" data-name="Layer 2" xmlns="http://www.w3.org/2000/svg" viewBox="0 0 870.17 227.17">
  <defs>
    <style>
      .cls-1 {
        fill: #fff;
      }
    </style>
  </defs>
  <g id="black">
    <g>
      <path class="cls-1" d="M158.61,131.09s-.06-.05-.08-.07c-.46-.44-.15-1.99-.16-2.57-.09-8.85-.14-17.72.26-26.57,2.24,2.16,4.55,4.36,7.4,5.62,22.29,9.84,50.64,4.09,67.13-13.92,10-10.92,15.39-25.25,17.93-39.65,2.49-14.04,3.24-30.01-5-42.41-.41-.62-.84-1.22-1.29-1.8-.67-.85-1.44-1.64-2.29-2.32s-1.84-1.16-2.23-2.23c-.35-.95-.23-2.01.25-2.9.67-1.23,1.99-2,3.45-2h55.95c2.5-.01,6.17-.23,8.21,1.41,1.6,1.29,1.57,3.64.61,5.33-1.08,1.91-4.06,2.27-6,2.93-5,1.7-10.41,3.08-14.52,6.44-4.35,3.57-4.53,8.06-5.52,12.82-1.79,8.55-3.87,17.08-6.56,25.47-10.8,33.68-37.72,66.97-80.73,74.61-10.41,1.85-21.16,2.4-31.77,1.77-1.29-.08-4,.81-5.05.03Z"/>
      <path class="cls-1" d="M193.44,217.13c-4.43-1.7-9.22-3.09-12.86-6.47-1.8-1.67-3.22-3.8-3.82-6.3-2.14-8.99-2.29-18.72-2.7-27.93-.13-2.83-.21-5.65-.3-8.48V59.06c.09-2.83.18-5.66.3-8.48.41-9.21.57-18.94,2.7-27.93.59-2.5,2.02-4.63,3.82-6.3,3.64-3.38,8.43-4.76,12.86-6.47,1.71-.66,4.35-1.03,5.31-2.94.85-1.7.76-3.92-.54-5.35-1.7-1.87-4.99-1.43-7.2-1.43h-62.99c-2.22,0-5.55-.44-7.25,1.43-1.3,1.43-1.39,3.65-.54,5.35.96,1.92,3.6,2.28,5.31,2.94,4.43,1.7,9.22,3.09,12.86,6.47,1.8,1.67,3.22,3.8,3.82,6.3,2.14,8.99,2.29,18.72,2.7,27.93.13,2.83.21,5.65.3,8.48v108.89c-.09,2.83-.18,5.66-.3,8.48-.41,9.21-.57,18.94-2.7,27.93-.59,2.5-2.02,4.63-3.82,6.3-3.64,3.38-8.43,4.76-12.86,6.47-1.71.66-4.35,1.03-5.31,2.94-.85,1.7-.76,3.92.54,5.35,1.7,1.87,5.05,1.6,7.27,1.6,4.83,0,4.74.17,9.57.09,7.3,0,14.59.12,21.89.02,7.3.1,14.59-.02,21.89-.02,4.83.07,4.74-.09,9.57-.09,2.22,0,5.56.27,7.27-1.6,1.3-1.43,1.39-3.65.54-5.35-.96-1.92-3.6-2.28-5.31-2.94Z"/>
      <path class="cls-1" d="M345.56,159.48c-2.68-.93-5.59-1.68-7.8-3.51-1.09-.91-1.95-2.07-2.32-3.42-1.3-4.88-1.39-10.17-1.64-15.17-.08-1.54-.13-3.07-.18-4.61v-59.14c.06-1.54.11-3.07.18-4.61.25-5,.34-10.29,1.64-15.17.36-1.36,1.23-2.52,2.32-3.42,2.21-1.84,5.11-2.59,7.8-3.51,1.04-.36,2.64-.56,3.22-1.6.52-.92.46-2.13-.33-2.91-1.03-1.02-3.02-.78-4.37-.78h-38.2c-1.34,0-3.36-.24-4.4.78-.79.78-.84,1.98-.33,2.91.58,1.04,2.18,1.24,3.22,1.6,2.68.93,5.59,1.68,7.8,3.51,1.09.91,1.95,2.07,2.32,3.42,1.3,4.88,1.39,10.17,1.64,15.17.08,1.54.13,3.07.18,4.61v59.14c-.06,1.54-.11,3.07-.18,4.61-.25,5-.34,10.29-1.64,15.17-.36,1.36-1.23,2.52-2.32,3.42-2.21,1.84-5.11,2.59-7.8,3.51-1.04.36-2.64.56-3.22,1.6-.52.92-.46,2.13.33,2.91,1.03,1.02,3.06.87,4.41.87,2.93,0,2.87.09,5.8.05,4.43,0,8.85.07,13.27.01,4.42.06,8.85-.01,13.28-.01,2.93.04,2.87-.05,5.8-.05,1.34,0,3.37.15,4.41-.87.79-.78.84-1.98.33-2.91-.58-1.04-2.18-1.24-3.22-1.6Z"/>
      <path class="cls-1" d="M155.42,119.61c3.51,5.87,4.71,5.21,8.4,8.7,59.66,56.34,138.8,89.94,221.82,97.36,51.3,4.59,112.81-.69,152.78-36.87,5.49-4.97,10.42-10.58,14.54-16.74,10.25-15.34,15.44-34.27,13.04-52.57-2.4-18.29-12.71-35.68-28.38-45.42-14.51-9.02-32.81-11.09-49.4-7.02-13.87,3.4-27.06,11.33-34.53,23.51,2.4.65,4.86-.6,7.09-1.7,10.4-5.11,22.16-7.66,33.69-6.48,11.52,1.18,22.76,6.21,30.73,14.61,6.99,7.36,11.29,17.04,12.93,27.06,3.97,24.19-7.73,46.49-26.32,61.33-14.97,11.95-33.33,19.71-51.62,24.94-44.71,12.78-92.13,5.76-135.28-9.58-43.34-15.41-83.67-41.21-117.72-71.98-.35-.32-.7-.63-1.05-.95-6.01-5.47-12.41-12.44-20.95-14.41-9.58-2.21-19.44,2.98-28.23,5.75-.29.09-1.24.56-1.55.47Z"/>
      <g>
        <path class="cls-1" d="M493.06,14.48c.68-2.23,1.84-5.77-1.19-6.65-1.88-.55-3.93.13-5.82.24-3.83.23-7.69.3-11.44-.63-4.79-1.18-9.26-3.41-13.99-4.8-4.16-1.22-8.18-1.82-12.49-2.2-2.94-.26-5.9-.36-8.85-.33-10.61.1-21.2,2.3-30.9,6.88-.43.2-.86.42-1.3.62-.26.12-.53.23-.79.36-8.06,3.85-15.57,9.18-22.03,15.79-15.43,15.8-21.59,40.21-22.76,62.82-.12,2.35-.18,4.7-.18,7.05,0,17.88,4.23,35.71,14.64,49.65,11.71,15.68,29.6,26.55,48.74,30.39,12.19,2.45,25.02,1.95,36.83-2.03,19.59-6.59,33.42-27.66,33.27-48.08,0-.89-.04-1.78.14-2.65.41-1.99,3.71,1.74,4.31,2.4,2.71,2.96,4.53,6.64,5.65,10.47,4.12,14.01-.86,28.78-11.44,38.47-2.85,2.61-6.02,4.86-9.38,6.77-3.4,1.94-7.01,3.6-10.71,4.86-.86.29-2.17.43-2.87,1.04-1.15,1,.19,2.71,1.39,2.76.47.02.94-.1,1.4-.22,3.57-.93,7.16-1.76,10.62-3.06,1.08-.4,2.15-.84,3.2-1.31s2.09-.97,3.12-1.5,2.02-1.09,3.01-1.68c3.94-2.36,7.72-5.19,11.09-8.45,3.06-2.96,5.79-6.27,8.01-9.93,7.86-12.9,8.47-28.57.02-41.36-.8-1.2-1.66-2.36-2.58-3.46-1.2-1.43-2.5-2.76-3.89-3.97-5.39-4.7-12-7.55-18.81-8.45-3.06-.4-5.64,2.35-5.18,5.56,3.39,23.76-11.37,48.04-36.03,50.73-11.47,1.25-23.53-.91-33.37-7.09-20.61-12.95-25.64-39.99-25-62.09.71-24.3,4.56-54.06,25.68-70.03,3.24-2.45,6.81-4.45,10.55-6.02,4.68-1.97,9.64-3.26,14.67-3.94,5.08-.69,10.25-.76,15.34-.23,4.7.49,9.58,1.67,13.75,4.1,4.74,2.76,7.94,7.13,10.8,11.71,1.1,1.76,2.14,3.57,3.06,5.44.5,1.02.96,2.24,1.86,2.98.42.35.91.52,1.45.4,1.05-.24,1.21-1.72,1.49-2.56,1.07-3.17,2.3-6.29,3.46-9.43,1.14-3.1,2.29-6.21,3.43-9.31,0-.02.01-.03.02-.05Z"/>
        <path class="cls-1" d="M470.95,1.27h0s.02.01.03.01c0,0-.02-.01-.02-.01Z"/>
      </g>
      <g>
        <path class="cls-1" d="M27.57,226.88c.74.16,1.61.25,2.62.25l4.98-.07c-.87-.02-1.92-.04-3.47-.04-1.2,0-2.71.07-4.14-.14Z"/>
        <path class="cls-1" d="M104.26,220.56c-.06-.17-.13-.33-.21-.49-.98-1.92-3.68-2.28-5.43-2.94-4.53-1.7-9.43-3.09-13.15-6.47-1.09-.99-2.03-2.15-2.75-3.45-.17-.31-.34-.62-.49-.95-.24-.69-.49-1.36-.67-2.09-1.08-4.34-3.92-17.23-3.92-39.42s-.3-42.47-.3-60.19.12-35.44.92-53.13c.42-9.22.58-18.95,2.77-27.95.33-1.37.93-2.61,1.7-3.74.63-.94,1.37-1.81,2.21-2.56,3.72-3.38,8.62-4.77,13.15-6.47,1.75-.66,4.45-1.03,5.43-2.94.87-1.7.78-3.92-.56-5.35-1.74-1.87-5.19-2.04-7.46-2.04-4.94,0-4.85-.17-9.78-.09h-3s-29.75-.01-29.75-.01h-28.79c-.94-.04-1.88-.08-2.83-.11-.24,0-.47-.04-.7-.04C14.42.11,8.48,3.04,4.57,7.89.47,12.96-1.18,19.42.89,25.73c.96,2.91,2.71,5.58,5.12,7.46,1.13.88,2.51,1.37,3.92,1.53,1.73.2,2.37-.14,1.43-1.68-1.42-2.34-1.88-5.22-1.49-7.91.76-5.25,4.77-11.07,9.87-12.87,4.07-1.43,8.86-1.2,12.93.08,5.64,1.78,10.11,6.09,12.4,11.54,3.04,7.22,3.88,15.16,3.93,22.93.11,14.06-.01,28.12.28,42.17,0,.04,0,.08,0,.12.23,18.41.07,36.24.07,54.65v.05c0,10.56-.07,19.85-.22,27.95-.05,1.54-.1,3.09-.17,4.63-.42,9.22-.58,18.95-2.77,27.95-.61,2.5-2.07,4.64-3.91,6.31-3.72,3.38-8.62,4.77-13.15,6.47-1.75.66-4.45,1.03-5.43,2.94-.87,1.7-.78,3.92.56,5.35.82.88,2.02,1.28,3.29,1.46,1.42.2,2.94.14,4.14.14,1.55,0,2.6.02,3.47.04,1.91.04,2.92.11,6.32.06,3.82,0,7.64.03,11.47.05,3.66.02,7.31.02,10.96-.03,6.27.09,12.52.02,18.79,0,1.19,0,2.38-.02,3.57-.02,4.94.07,4.84-.09,9.78-.09,1.14,0,2.57.07,3.93-.1,1.35-.17,2.64-.57,3.5-1.5,1.21-1.3,1.39-3.24.76-4.86Z"/>
      </g>
      <path class="cls-1" d="M641.02,11.67c-2.28,6-4.56,12-6.84,17.99-2.97,7.81-5.94,15.63-8.91,23.44-3.36,8.83-6.72,17.67-10.08,26.5-3.44,9.06-6.89,18.12-10.33,27.18-3.23,8.49-6.46,16.98-9.69,25.48l-14.16,37.57c-7.06,16.17-12.69,29.72-25.09,39.95-4.83,3.98-10.23,6.02-16.12,8.06-1.75.61-4.43.94-5.41,2.73-.86,1.57-.77,3.62.57,4.94.81.83,2.01,1.2,3.26,1.37,1.42.19,2.94.12,4.12.12,1.53,0,2.57.02,3.43.03.81.02,1.46.05,2.18.05.53.02,1.1.02,1.8.02.12.02.24,0,.34,0,.57,0,1.2,0,1.96-.02h17.85c1.15-.02,2.28-.02,3.43-.02h3.21c.96,0,1.92,0,2.88-.02h6.2c2.68,0,3.33-1.34,4.29-3.78,1.29-3.3,2.47-6.63,3.57-10,.91-2.7,1.77-5.39,2.61-8.13,3.19-10.33,6.27-20.7,9.73-30.97,5.77-17.08,19.84-30.55,35.84-38.1,6.56-3.1,13.55-5.51,20.79-6.26,6.13-.63,13.25-.69,17.13,4.93,2.02,2.93,3.08,6.4,4.13,9.77.31.99.61,1.98.94,2.96,5.48,15.53,11.54,38.32,13.08,51.79.22,1.94.14,3.93-.48,5.78-2.88,8.77-13.29,10.05-21.05,13.3-1.42.61-2.63,1.79-2.9,3.32-.7,3.76,4.53,5.48,8.26,5.5,20.15.07,40.2-.08,60.36,0,1.42,0,3.12-.15,4.22-1.16,2.56-2.43-.08-6.54-2.39-7.72-1.24-.63-2.34-1.52-3.3-2.51-2.19-2.26-3.75-5.11-5.02-7.86-1.3-2.85-2.39-5.77-3.3-8.75l-4-13.07-.52-1.68-1.47-4.78c-.77-2.49-1.53-4.98-2.3-7.47-1-3.25-2-6.5-3-9.76-1.19-3.88-2.39-7.76-3.58-11.64-1.35-4.37-2.69-8.75-4.04-13.12-1.46-4.73-2.91-9.47-4.37-14.2-1.53-4.96-3.05-9.92-4.58-14.88-1.55-5.05-3.11-10.1-4.66-15.15-1.54-5.01-3.08-10.01-4.62-15.02-1.49-4.83-2.97-9.66-4.46-14.49-1.39-4.52-2.78-9.04-4.17-13.55-1.25-4.07-2.5-8.14-3.76-12.21-1.07-3.49-2.15-6.98-3.22-10.47-.85-2.78-1.71-5.55-2.56-8.33-.59-1.93-1.18-3.85-1.78-5.78l-.44-1.44c-.06-.18-.1-.37-.17-.55-1.07-2.89,2.47-4.89,4.48-6.17.98-.62,1.94-1.27,2.87-1.94.59-.42,1.15-.91,1.52-1.54.16-.27.39-.74.39-1.13,0-.25-.1-.46-.38-.56-.17-.06-.35-.07-.53-.07h-37.29l-4.52,11.54ZM617.22,130.84l36.69-103.31,25.84,95.08c-35.43-7.22-62.52,8.23-62.52,8.23Z"/>
      <path class="cls-1" d="M15.15,102.52l.72,3.89c.57,3.1,3,5.53,6.1,6.1l3.89.72c.47.09.47.76,0,.84l-3.89.72c-3.1.57-5.53,3-6.1,6.1l-.72,3.89c-.09.47-.76.47-.84,0l-.72-3.89c-.57-3.1-3-5.53-6.1-6.1l-3.89-.72c-.47-.09-.47-.76,0-.84l3.89-.72c3.1-.57,5.53-3,6.1-6.1l.72-3.89c.09-.47.76-.47.84,0Z"/>
      <path class="cls-1" d="M440.65,88.73l1.24,7.85c.87,5.53,5.05,9.94,10.52,11.12l6.14,1.32c.8.17.8,1.32,0,1.49l-6.14,1.32c-5.47,1.17-9.65,5.59-10.52,11.12l-1.24,7.85c-.14.86-1.37.86-1.51,0l-1.24-7.85c-.87-5.53-5.05-9.94-10.52-11.12l-6.14-1.32c-.8-.17-.8-1.32,0-1.49l6.14-1.32c5.47-1.17,9.65-5.59,10.52-11.12l1.24-7.85c.14-.86,1.37-.86,1.51,0Z"/>
      <g>
        <path class="cls-1" d="M842.35.25c-.74-.16-1.61-.25-2.62-.25l-4.98.08c.87.02,1.92.03,3.47.03,1.2,0,2.71-.07,4.14.13Z"/>
        <path class="cls-1" d="M765.67,6.67c.06.17.13.33.21.49.98,1.92,3.68,2.28,5.44,2.94,4.53,1.7,9.44,3.08,13.16,6.46,1.09.99,2.03,2.15,2.76,3.45.17.31.35.62.49.95.24.69.49,1.36.67,2.09,1.09,4.34,3.94,17.23,3.97,39.44.03,22.35.35,42.49.37,60.22.02,17.72-.07,35.45-.86,53.16-.41,9.22-.56,18.97-2.73,27.97-.33,1.37-.93,2.61-1.69,3.75-.63.94-1.37,1.81-2.2,2.57-3.72,3.39-8.62,4.78-13.15,6.49-1.75.66-4.45,1.03-5.43,2.95-.87,1.7-.77,3.92.56,5.35,1.74,1.87,5.19,2.03,7.46,2.03,4.94,0,4.85.16,9.78.08h3s29.75-.03,29.75-.03l28.79-.02c.94.03,1.88.07,2.83.1.24,0,.47.04.7.04,6.22,0,12.16-2.95,16.07-7.8,4.09-5.08,5.73-11.55,3.65-17.86-.96-2.91-2.72-5.58-5.13-7.45-1.13-.88-2.51-1.37-3.92-1.53-1.73-.2-2.37.14-1.43,1.69,1.42,2.34,1.89,5.22,1.5,7.92-.76,5.26-4.76,11.08-9.85,12.88-4.07,1.44-8.85,1.21-12.93-.07-5.64-1.77-10.11-6.09-12.41-11.53-3.05-7.22-3.89-15.16-3.96-22.94-.12-14.06-.02-28.13-.33-42.19,0-.04,0-.08,0-.12-.25-18.42-.11-36.26-.13-54.68v-.05c-.01-10.57.05-19.86.18-27.97.05-1.54.09-3.09.16-4.63.41-9.22.56-18.97,2.73-27.97.6-2.5,2.06-4.64,3.9-6.31,3.72-3.39,8.62-4.78,13.15-6.49,1.75-.66,4.45-1.03,5.43-2.95.87-1.7.77-3.92-.56-5.35-.82-.88-2.02-1.28-3.3-1.46-1.42-.2-2.94-.13-4.14-.13-1.55,0-2.6-.01-3.47-.03-1.91-.04-2.92-.1-6.32-.05-3.82,0-7.64-.02-11.47-.03-3.66-.01-7.31-.01-10.96.04-6.27-.08-12.52,0-18.79.03-1.19,0-2.38.02-3.57.02-4.94-.07-4.84.1-9.78.1-1.14,0-2.57-.06-3.93.11-1.35.17-2.64.57-3.5,1.5-1.21,1.3-1.38,3.24-.76,4.87Z"/>
      </g>
      <path class="cls-1" d="M857.48,124.7l-.72-3.89c-.57-3.1-3-5.52-6.1-6.09l-3.9-.71c-.47-.09-.47-.76,0-.84l3.89-.72c3.1-.57,5.52-3,6.09-6.1l.71-3.9c.09-.47.76-.47.84,0l.72,3.89c.57,3.1,3,5.52,6.1,6.09l3.9.71c.47.09.47.76,0,.84l-3.89.72c-3.1.57-5.52,3-6.09,6.1l-.71,3.9c-.09.47-.76.47-.84,0Z"/>
      <polygon class="cls-1" points="562.85 .69 567.92 22.91 590.05 27.99 567.92 33.08 562.85 55.29 557.79 33.08 535.65 27.99 557.79 22.91 562.85 .69"/>
      <path class="cls-1" d="M589.67,77.01l-.67-3.64c-.54-2.9-2.81-5.16-5.71-5.69l-3.64-.67c-.44-.08-.44-.71,0-.79l3.64-.67c2.9-.54,5.16-2.81,5.69-5.71l.67-3.64c.08-.44.71-.44.79,0l.67,3.64c.54,2.9,2.81,5.16,5.71,5.69l3.64.67c.44.08.44.71,0,.79l-3.64.67c-2.9.54-5.16,2.81-5.69,5.71l-.67,3.64c-.08.44-.71.44-.79,0Z"/>
    </g>
  </g>
</svg>