<?xml version="1.0" encoding="UTF-8"?><svg id="Layer_2" xmlns="http://www.w3.org/2000/svg" width="796.59" height="796.59" xmlns:xlink="http://www.w3.org/1999/xlink" viewBox="0 0 796.59 796.59"><defs><radialGradient id="radial-gradient" cx="398.29" cy="398.29" fx="398.29" fy="398.29" r="398.29" gradientUnits="userSpaceOnUse"><stop offset="0" stop-color="#ee5b12"/><stop offset=".03" stop-color="#ee6717"/><stop offset=".11" stop-color="#f08323"/><stop offset=".2" stop-color="#f1992d"/><stop offset=".3" stop-color="#f2ab34"/><stop offset=".43" stop-color="#f3b73a"/><stop offset=".6" stop-color="#f3be3d"/><stop offset="1" stop-color="#f4c13e"/></radialGradient><linearGradient id="linear-gradient" x1="398.29" y1="198.09" x2="487.26" y2="198.09" gradientUnits="userSpaceOnUse"><stop offset="0" stop-color="#ee9012"/><stop offset="1" stop-color="#f4c13e"/></linearGradient><linearGradient id="linear-gradient-2" x1="484.58" y1="333.72" x2="573.54" y2="333.72" gradientTransform="translate(928.33 -86.28) rotate(90)" gradientUnits="userSpaceOnUse"><stop offset="0" stop-color="#ee9012"/><stop offset=".13" stop-color="#ef9d1e"/><stop offset=".36" stop-color="#f2b12f"/><stop offset=".61" stop-color="#f3bd3a"/><stop offset=".85" stop-color="#f4c13e"/></linearGradient><linearGradient id="linear-gradient-3" x1="650.22" y1="292.71" x2="739.19" y2="292.71" gradientTransform="translate(1048.51 891.23) rotate(-180)" xlink:href="#linear-gradient-2"/><linearGradient id="linear-gradient-4" x1="679.02" y1="259.4" x2="767.99" y2="259.4" gradientTransform="translate(-61.32 1077.31) rotate(-90)" xlink:href="#linear-gradient-2"/><radialGradient id="radial-gradient-2" cx="398.29" cy="398.29" fx="398.29" fy="398.29" r="196.32" gradientUnits="userSpaceOnUse"><stop offset="0" stop-color="#f9f7f5"/><stop offset=".69" stop-color="#f4c13e"/><stop offset=".98" stop-color="#eaaf2d"/></radialGradient><linearGradient id="linear-gradient-5" x1="54.19" y1="257.34" x2="160.5" y2="257.34" gradientUnits="userSpaceOnUse"><stop offset="0" stop-color="#fff597"/><stop offset=".14" stop-color="#fce780"/><stop offset=".36" stop-color="#f8d763"/><stop offset=".58" stop-color="#f6ca4e"/><stop offset=".79" stop-color="#f4c342"/><stop offset="1" stop-color="#f4c13e"/></linearGradient><linearGradient id="linear-gradient-6" x1="489.42" y1="667.47" x2="561.43" y2="667.47" xlink:href="#linear-gradient-5"/><linearGradient id="linear-gradient-7" x1="463.91" y1="505.12" x2="463.91" y2="642.09" gradientTransform="translate(-587.09 55.5) rotate(-44.32) scale(1 1.19)" gradientUnits="userSpaceOnUse"><stop offset="0" stop-color="#ffca5f"/><stop offset="1" stop-color="#dda300"/></linearGradient><linearGradient id="linear-gradient-8" x1="307.13" y1="640.25" x2="307.13" y2="777.22" gradientTransform="translate(-587.09 967.64) rotate(44.32) scale(1 -1.19)" xlink:href="#linear-gradient-7"/><linearGradient id="linear-gradient-9" x1="617.89" y1="183.13" x2="530.37" y2="270.65" gradientTransform="matrix(1,0,0,1,0,0)" xlink:href="#linear-gradient-7"/><linearGradient id="linear-gradient-10" x1="823.67" y1="1064.87" x2="823.67" y2="1201.84" gradientTransform="translate(2113.24 967.64) rotate(135.68) scale(1 1.19)" xlink:href="#linear-gradient-7"/></defs><g id="mix"><path d="M398.29,0l84.36,309.33c.61,2.24,2.36,4,4.61,4.61l309.33,84.36-309.33,84.36c-2.24.61-4,2.36-4.61,4.61l-84.36,309.33-84.36-309.33c-.61-2.24-2.36-4-4.61-4.61L0,398.29l309.33-84.36c2.24-.61,4-2.36,4.61-4.61L398.29,0Z" fill="url(#radial-gradient)"/><path d="M487.26,313.96c-2.24-.61-4-2.36-4.61-4.61L398.29.03v396.13l88.97-82.19Z" fill="url(#linear-gradient)"/><path d="M478.74,487.26c.61-2.24,2.36-4,4.61-4.61l309.33-84.36h-396.13l82.19,88.97Z" fill="url(#linear-gradient-2)"/><path d="M309.33,482.65c2.24.61,4,2.36,4.61,4.61l84.36,309.33v-396.13s-88.97,82.19-88.97,82.19Z" fill="url(#linear-gradient-3)"/><path d="M313.94,309.33c-.61,2.24-2.36,4-4.61,4.61L0,398.29h396.13s-82.19-88.97-82.19-88.97Z" fill="url(#linear-gradient-4)"/><polygon points="398.29 201.97 440.36 356.23 594.61 398.29 440.36 440.36 398.29 594.61 356.23 440.36 201.97 398.29 356.23 356.23 398.29 201.97" fill="url(#radial-gradient-2)"/><polygon points="107.34 204.18 118.73 245.95 160.5 257.34 118.73 268.73 107.34 310.49 95.95 268.73 54.19 257.34 95.95 245.95 107.34 204.18" fill="url(#linear-gradient-5)"/><polygon points="525.42 631.46 533.14 659.75 561.43 667.47 533.14 675.18 525.42 703.47 517.71 675.18 489.42 667.47 517.71 659.75 525.42 631.46" fill="url(#linear-gradient-6)"/><path d="M191.89,164.08c-1.02-1.76-2.29-3.45-3.81-5-8.38-8.58-21.04-9.82-28.27-2.77s-6.29,19.74,2.1,28.32c1.51,1.55,3.17,2.86,4.9,3.92l111.92,89.52-86.85-114Z" fill="url(#linear-gradient-7)"/><path d="M191.89,634.68c-1.02,1.76-2.29,3.45-3.81,5-8.38,8.58-21.04,9.82-28.27,2.77s-6.29-19.74,2.1-28.32c1.51-1.55,3.17-2.86,4.9-3.92l111.92-89.52-86.85,114Z" fill="url(#linear-gradient-8)"/><path d="M612.27,164.08c1.02-1.76,2.29-3.45,3.81-5,8.38-8.58,21.04-9.82,28.27-2.77,7.23,7.06,6.29,19.74-2.1,28.32-1.51,1.55-3.17,2.86-4.9,3.92l-111.92,89.52,86.85-114Z" fill="url(#linear-gradient-9)"/><path d="M612.27,634.68c1.02,1.76,2.29,3.45,3.81,5,8.38,8.58,21.04,9.82,28.27,2.77s6.29-19.74-2.1-28.32c-1.51-1.55-3.17-2.86-4.9-3.92l-111.92-89.52,86.85,114Z" fill="url(#linear-gradient-10)"/></g></svg>