<?xml version="1.0" encoding="UTF-8"?><svg id="music" xmlns="http://www.w3.org/2000/svg" width="1024" height="1024" xmlns:xlink="http://www.w3.org/1999/xlink" viewBox="0 0 1024 1024"><defs><linearGradient id="linear-gradient" x1="512" y1="812.78" x2="512" y2="183.79" gradientUnits="userSpaceOnUse"><stop offset="0" stop-color="#fe725b"/><stop offset=".33" stop-color="#b17282"/><stop offset=".65" stop-color="#6d72a5"/><stop offset=".88" stop-color="#4372ba"/><stop offset="1" stop-color="#3473c3"/></linearGradient></defs><path d="M382.03,252.94c-8.62,2.11-14.69,9.84-14.69,18.71v458.52c-17.05-5.2-37-6.36-57.58-2.37-51.76,10.05-87.78,48.83-80.44,86.61,7.34,37.78,55.25,60.26,107.01,50.21,43.43-8.43,75.77-37.09,80.72-68.41h.67v-374.69c0-8.88,6.06-16.6,14.69-18.71l288.98-70.74c12.14-2.97,23.85,6.22,23.85,18.71v257.14c-17.05-5.2-37-6.36-57.58-2.37-51.76,10.05-87.78,48.83-80.44,86.61,7.34,37.78,55.25,60.26,107.01,50.21,43.43-8.43,75.77-37.09,80.72-68.41h.67V176.25c0-12.5-11.71-21.69-23.85-18.71l-389.74,95.4Z" fill="url(#linear-gradient)"/></svg>