<?xml version="1.0" encoding="UTF-8"?><svg id="privacy" xmlns="http://www.w3.org/2000/svg" width="1024" height="1024" xmlns:xlink="http://www.w3.org/1999/xlink" viewBox="0 0 1024 1024"><defs><linearGradient id="linear-gradient" x1="512" y1="862.65" x2="512" y2="146.83" gradientUnits="userSpaceOnUse"><stop offset="0" stop-color="#fe725b"/><stop offset=".33" stop-color="#b17282"/><stop offset=".65" stop-color="#6d72a5"/><stop offset=".88" stop-color="#4372ba"/><stop offset="1" stop-color="#3473c3"/></linearGradient><linearGradient id="linear-gradient-2" x1="512" y1="570.24" x2="512" y2="73.75" gradientUnits="userSpaceOnUse"><stop offset="0" stop-color="#fe725b"/><stop offset="0" stop-color="#fd725b"/><stop offset=".1" stop-color="#ce7273"/><stop offset=".19" stop-color="#a57288"/><stop offset=".3" stop-color="#82729a"/><stop offset=".41" stop-color="#6572a9"/><stop offset=".52" stop-color="#4f72b4"/><stop offset=".65" stop-color="#4072bc"/><stop offset=".8" stop-color="#3672c1"/><stop offset="1" stop-color="#3473c3"/></linearGradient></defs><rect x="240.77" y="463.66" width="542.47" height="380.58" rx="18.92" ry="18.92" fill="url(#linear-gradient)"/><path d="M376.25,425.02v-58.08c0-74.21,60.16-143.55,134.37-143.55h2.76c74.21,0,134.37,69.33,134.37,143.55v58.08h42.75v-66.76c0-49.28-19.99-93.91-52.28-126.23-32.31-32.31-76.92-52.28-126.23-52.28-98.59,0-178.5,79.92-178.5,178.5v66.76h42.75Z" fill="url(#linear-gradient-2)"/><path d="M582.46,741.2l-35.63-84.77c12.26-10.58,20.01-26.23,20.01-43.69,0-31.86-25.83-57.69-57.69-57.69s-57.69,25.83-57.69,57.69c0,18.34,8.55,34.67,21.89,45.24l-31.91,83.48c-2.1,5.5,1.96,11.4,7.85,11.4h125.43c6,0,10.07-6.12,7.74-11.65Z" fill="#fcf7f1"/></svg>