<?xml version="1.0" encoding="UTF-8"?>
<svg id="Layer_2" data-name="Layer 2" xmlns="http://www.w3.org/2000/svg" viewBox="0 0 44.03 44.03">
  <defs>
    <style>
      .cls-1 {
        fill: #fff;
      }
    </style>
  </defs>
  <g id="s-5-1">
    <g id="Cat">
      <path class="cls-1" d="M22.48.39l2.98,16.5c.16.86.83,1.53,1.69,1.69l16.5,2.98c.51.09.51.83,0,.92l-16.5,2.98c-.86.16-1.53.83-1.69,1.69l-2.98,16.5c-.09.51-.83.51-.92,0l-2.98-16.5c-.16-.86-.83-1.53-1.69-1.69L.39,22.48c-.51-.09-.51-.83,0-.92l16.5-2.98c.86-.16,1.53-.83,1.69-1.69L21.55.39c.09-.51.83-.51.92,0Z"/>
    </g>
  </g>
</svg>