<?xml version="1.0" encoding="UTF-8"?>
<svg id="Layer_2" data-name="Layer 2" xmlns="http://www.w3.org/2000/svg" xmlns:xlink="http://www.w3.org/1999/xlink" viewBox="0 0 1922.61 1079.43">
  <defs>
    <style>
      .cls-1 {
        fill: none;
      }

      .cls-2 {
        fill: url(#linear-gradient);
      }

      .cls-3 {
        clip-path: url(#clippath);
      }
    </style>
    <clipPath id="clippath">
      <rect id="bg" class="cls-1" width="1922.61" height="1078.36"/>
    </clipPath>
    <linearGradient id="linear-gradient" x1="408.33" y1="509.23" x2="408.33" y2="1056.4" gradientUnits="userSpaceOnUse">
      <stop offset="0" stop-color="#0b1e23"/>
      <stop offset=".41" stop-color="#19213f"/>
      <stop offset=".84" stop-color="#2a2562"/>
    </linearGradient>
  </defs>
  <g id="heropage">
    <g class="cls-3">
      <path id="hill3" class="cls-2" d="M816.4,1078.27c-129.38-50.85-92.21-73.67-180.08-94.02-21.27-4.93-34.69-18.55-53.59-26.16-8.74-3.51-17.48-2.1-25.99-4.88-10.71-3.5-18.32-12.74-26.16-18.57-17.28-12.85-40.11-21.42-59.59-32.68-9.35-5.4-17.92-11.42-26.23-17.57-29.23-21.64-52.03-45.62-77.62-69.12-20.84-19.14-48.75-27.06-78.26-38.4-16.83-6.47-19.43-17.04-27.92-27.98-7.59-9.78-17.77-17.26-28.81-25.15-8.45-6.04-12.14-16.15-14.65-24.15-8.57-27.23-23.65-40.89-32.22-68.13-1.55-4.91-3.52-10.27-9.82-13.3-13.5-6.49-28.15-10.97-42.89-16.26-7.86-2.82-11.13-8.81-13.78-14.28-15.83-32.7-9.44-37.98-25.27-70.68-3.76-7.77-8.09-16.07-18.35-20.96-8.39-4-19.31-4.99-29.72-5.87-37.13-3.11-8-6.21-45.13-9.32h-.07c.04,184.56.09,359.37.14,598.62l816.01-.39v-.77Z"/>
    </g>
  </g>
</svg>