<?xml version="1.0" encoding="UTF-8"?>
<svg id="Layer_2" data-name="Layer 2" xmlns="http://www.w3.org/2000/svg" xmlns:xlink="http://www.w3.org/1999/xlink" viewBox="0 0 1922.61 1078.36">
  <defs>
    <style>
      .cls-1 {
        fill: none;
      }

      .cls-2 {
        fill: url(#linear-gradient);
      }

      .cls-3 {
        clip-path: url(#clippath);
      }
    </style>
    <clipPath id="clippath">
      <rect id="bg" class="cls-1" width="1922.61" height="1078.36"/>
    </clipPath>
    <linearGradient id="linear-gradient" x1="1489.24" y1="479.73" x2="1489.24" y2="1078.36" gradientUnits="userSpaceOnUse">
      <stop offset="0" stop-color="#0b1e23"/>
      <stop offset=".47" stop-color="#1a2142"/>
      <stop offset=".99" stop-color="#2a2562"/>
    </linearGradient>
  </defs>
  <g id="heropage">
    <g class="cls-3">
      <path id="hill4" class="cls-2" d="M1920.25,479.73c-7.82,5.75-15.64,11.5-23.47,17.26-10.89,8.01-22.29,13.92-31.86,27.1-10.7,14.74-21.15,30.37-31.67,45.6-22.12,32.04-43.86,65.24-63.59,102.54-14.41,27.26-26.11,67-48.16,69.77-25.4,3.19-50.79,6.38-76.19,9.57-8.8,1.11-17.85,2.94-24.77,14.27-6.26,10.24-10.18,24.45-15.08,36.84-7.05,17.84-13.78,37.94-22.04,53.85-7.96,15.35-19.35,21.65-29.66,29.26-13.35,9.85-26.69,19.77-40.04,29.65-31.78,23.54-63.55,47.07-95.28,70.86-4.64,3.48-9.32,6.98-14.25,8.37-6.48,1.83-211.3,44.67-211.3,42.84,0,0-134.67,40.86-134.67,40.86h862.03s0-598.63,0-598.63Z"/>
    </g>
  </g>
</svg>