<?xml version="1.0" encoding="UTF-8"?>
<svg id="Layer_2" data-name="Layer 2" xmlns="http://www.w3.org/2000/svg" xmlns:xlink="http://www.w3.org/1999/xlink" viewBox="0 0 1922.61 1078.36">
  <defs>
    <style>
      .cls-1 {
        fill: none;
      }

      .cls-2 {
        fill: url(#linear-gradient);
      }

      .cls-3 {
        clip-path: url(#clippath);
      }
    </style>
    <clipPath id="clippath">
      <rect id="bg" class="cls-1" width="1922.61" height="1078.36"/>
    </clipPath>
    <linearGradient id="linear-gradient" x1="974.04" y1="678.02" x2="974.04" y2="1078.36" gradientUnits="userSpaceOnUse">
      <stop offset="0" stop-color="#0b1e23"/>
      <stop offset=".15" stop-color="#1a2142"/>
      <stop offset=".32" stop-color="#2a2562"/>
      <stop offset=".47" stop-color="#333a71"/>
      <stop offset=".78" stop-color="#4a7298"/>
      <stop offset="1" stop-color="#5c9db6"/>
    </linearGradient>
  </defs>
  <g id="heropage">
    <g class="cls-3">
      <path id="hill2" class="cls-2" d="M391.04,950.45c42.23-15.43,84.57-30.62,126.87-45.9,30.57-11.04,62.04-20.36,84.89-42.56,24.29-23.6,40.09-52.91,60.34-79.13,2.55-3.3,5.31-6.67,9.29-8.52,24.64-11.45,51.14,4.11,74.49,10.28,77.31,20.43,162.34-17.47,234.91-37.8,12.41-3.48,24.97-7.01,36.01-13.16,22.74-12.67,32.8-40.22,55.91-52.56,23.49-12.54,41.77,16.16,58.89,30.11,22.31,18.17,51.09,26.29,79.73,32.82,18.49,4.22,38.08,4.22,56.22,9.79,19.94,6.12,26.55,18.73,38.58,33.58,26.03,32.12,53.9,63.04,83.46,92.62,8.73,8.74,17.76,17.47,28.84,23.74,16.76,9.48,39.86,12.77,58.46,18.2,21.53,6.29,70.09,15.11,77.16,33.95,4.4,11.74,0,31.67,0,44v78.42H391.04s0-127.9,0-127.9Z"/>
    </g>
  </g>
</svg>