<?xml version="1.0" encoding="UTF-8"?>
<svg id="Layer_2" data-name="Layer 2" xmlns="http://www.w3.org/2000/svg" xmlns:xlink="http://www.w3.org/1999/xlink" viewBox="0 0 1922.61 1078.36">
  <defs>
    <style>
      .cls-1 {
        fill: none;
      }

      .cls-2 {
        fill: url(#linear-gradient);
      }

      .cls-3 {
        clip-path: url(#clippath);
      }
    </style>
    <clipPath id="clippath">
      <rect id="bg" class="cls-1" width="1922.61" height="1078.36"/>
    </clipPath>
    <linearGradient id="linear-gradient" x1="914.28" y1="437.39" x2="914.28" y2="1068.3" gradientUnits="userSpaceOnUse">
      <stop offset=".15" stop-color="#0b1e23"/>
      <stop offset=".15" stop-color="#0b1e23"/>
      <stop offset=".27" stop-color="#18213e"/>
      <stop offset=".39" stop-color="#222352"/>
      <stop offset=".51" stop-color="#28245e"/>
      <stop offset=".64" stop-color="#2a2562"/>
      <stop offset=".69" stop-color="#2c2b66"/>
      <stop offset=".77" stop-color="#333c72"/>
      <stop offset=".85" stop-color="#3f5885"/>
      <stop offset=".94" stop-color="#4f7fa1"/>
      <stop offset="1" stop-color="#5c9db6"/>
    </linearGradient>
  </defs>
  <g id="heropage">
    <g class="cls-3">
      <path id="hill3" class="cls-2" d="M149.18,615.46c.07-5.06,82.6-17.79,89.69-19.2,32.03-6.38,64.14-13.25,94.67-24.59,26.07-9.68,52.6-33.28,80.67-35.15,16.27-1.09,31.64,6.41,45.91,13.85,34.33,17.91,68.2,36.84,104.4,51.13,79.36,31.33,166.07,46.2,252.06,43.88,42.78-1.15,84.31-7.44,125.95-16.35,27.37-5.86,47.39-16.74,76.2-8.03,30.15,9.11,59.35,26.94,88.12,39.84,32.65,15.36,65.63,30.1,98.61,44.81,21.35,9.53,62.47,38.49,86.53,35.01,7.21-1.04,13.79-4.34,20.21-7.58,30-15.15,60.03-30.25,90.12-45.25,34.63-17.26,64.43,7.55,96.31,19.78,27.16,10.41,54.32,20.83,81.48,31.24,7.85,3.01,99.27,31.7,99.27,38.06v301.46l-1530.2-.72s0-462.02,0-462.18Z"/>
    </g>
  </g>
</svg>