<svg width="572" height="367" viewBox="0 0 572 367" fill="none" xmlns="http://www.w3.org/2000/svg">
<path d="M495.54 0V145.07H447.73L422.97 207.84H382.84V100.56V94.66L338.23 49.5L290.88 94.66V114.11V235.32H221.48V69.66H131.12V236.41H79.5698V38.64H0V366.89H571.79V0H495.54Z" fill="#2F1254"/>
<path d="M30.22 60.85H15.73V87.36H30.22V60.85Z" fill="#4942B6"/>
<path d="M63.6099 60.85H49.1199V87.36H63.6099V60.85Z" fill="#4942B6"/>
<path d="M30.22 111.51H15.73V138.02H30.22V111.51Z" fill="#4942B6"/>
<path d="M63.6099 156.54H49.1199V183.05H63.6099V156.54Z" fill="#4942B6"/>
<path d="M30.22 198.17H15.73V224.68H30.22V198.17Z" fill="#4942B6"/>
<path d="M542.199 48.42H557.939V21.49L542.199 21.49V48.42Z" fill="#4942B6"/>
<path d="M509.13 48.41H524.87V21.48L509.13 21.48V48.41Z" fill="#4942B6"/>
<path d="M542.199 99.77H557.939V72.84H542.199V99.77Z" fill="#4942B6"/>
<path d="M509.13 148.2H524.87V121.27H509.13V148.2Z" fill="#4942B6"/>
<path d="M348.32 131.27H362.59V104.34H348.32V131.27Z" fill="#4942B6"/>
<path d="M315.449 131.13H329.719V104.2H315.449V131.13Z" fill="#4942B6"/>
<path d="M348.32 182.55H362.59V155.62H348.32V182.55Z" fill="#4942B6"/>
<path d="M315.449 224.89H329.719V197.96H315.449V224.89Z" fill="#4942B6"/>
<path d="M185.41 117.19H199.9V90.2599H185.41V117.19Z" fill="#4942B6"/>
<path d="M149.58 117.66H164.07V90.73H149.58V117.66Z" fill="#4942B6"/>
<path d="M185.41 169.42H199.9V142.49H185.41V169.42Z" fill="#473EB3"/>
<path d="M149.58 169.75H164.07V142.82H149.58V169.75Z" fill="#4942B6"/>
<path d="M185.41 224.2H199.9V197.27H185.41V224.2Z" fill="#4942B6"/>
<path d="M63.6099 198.17H49.1199V224.68H63.6099V198.17Z" fill="#4942B6"/>
<path d="M509.13 199.5H524.87V172.57H509.13V199.5Z" fill="#4942B6"/>
<path d="M544.99 199.5H560.729V172.57H544.99V199.5Z" fill="#4942B6"/>
</svg>
