<svg width="551" height="269" viewBox="0 0 551 269" fill="none" xmlns="http://www.w3.org/2000/svg">
<path opacity="0.5" d="M457.71 4.78C459.03 4.78 460.1 3.70996 460.1 2.39C460.1 1.07004 459.03 0 457.71 0C456.39 0 455.32 1.07004 455.32 2.39C455.32 3.70996 456.39 4.78 457.71 4.78Z" fill="white"/>
<path opacity="0.5" d="M382.38 75.87C383.7 75.87 384.77 74.7999 384.77 73.48C384.77 72.16 383.7 71.09 382.38 71.09C381.06 71.09 379.99 72.16 379.99 73.48C379.99 74.7999 381.06 75.87 382.38 75.87Z" fill="white"/>
<path opacity="0.5" d="M548.26 58.19C549.58 58.19 550.65 57.12 550.65 55.8C550.65 54.4801 549.58 53.41 548.26 53.41C546.94 53.41 545.87 54.4801 545.87 55.8C545.87 57.12 546.94 58.19 548.26 58.19Z" fill="white"/>
<path opacity="0.5" d="M248.59 7.16C249.91 7.16 250.98 6.08996 250.98 4.77C250.98 3.45004 249.91 2.38 248.59 2.38C247.27 2.38 246.2 3.45004 246.2 4.77C246.2 6.08996 247.27 7.16 248.59 7.16Z" fill="white"/>
<path opacity="0.5" d="M57.98 191.35C59.2999 191.35 60.3701 190.28 60.3701 188.96C60.3701 187.64 59.2999 186.57 57.98 186.57C56.66 186.57 55.5901 187.64 55.5901 188.96C55.5901 190.28 56.66 191.35 57.98 191.35Z" fill="white"/>
<path opacity="0.5" d="M432.28 268.66C433.6 268.66 434.67 267.59 434.67 266.27C434.67 264.95 433.6 263.88 432.28 263.88C430.96 263.88 429.89 264.95 429.89 266.27C429.89 267.59 430.96 268.66 432.28 268.66Z" fill="white"/>
<path opacity="0.5" d="M2.39014 25.94C3.7101 25.94 4.78003 24.87 4.78003 23.55C4.78003 22.2301 3.7101 21.16 2.39014 21.16C1.07018 21.16 0 22.2301 0 23.55C0 24.87 1.07018 25.94 2.39014 25.94Z" fill="white"/>
<path opacity="0.5" d="M189.91 90.43C191.23 90.43 192.3 89.36 192.3 88.04C192.3 86.72 191.23 85.65 189.91 85.65C188.59 85.65 187.52 86.72 187.52 88.04C187.52 89.36 188.59 90.43 189.91 90.43Z" fill="white"/>
</svg>
