<svg width="188" height="940" viewBox="0 0 188 940" fill="none" xmlns="http://www.w3.org/2000/svg">
<path d="M180.55 0.780029V927.54L145.43 939.03L105.85 929.23L73.8899 927.54C73.8899 927.54 94.7298 659.13 133.28 599.56C84.1598 503.82 57.5199 491.03 32.6599 386.03C17.1399 320.5 14.0098 255.48 10.3398 188.66C9.62984 175.83 1.6 0.780029 0 0.780029H180.56H180.55Z" fill="#33529E"/>
<path d="M124.486 611.439L187.077 608.706L186.184 588.265L123.594 590.998L124.486 611.439Z" fill="#183384"/>
<path d="M145.36 939.04V788.92L135.86 936.68L145.36 939.04Z" fill="#2A4891"/>
<path d="M105.78 929.24L115.84 746.79L98.0798 928.84L105.78 929.24Z" fill="#2A4891"/>
<path d="M162.27 589.05C162.27 589.05 117.3 500.44 100.48 329.63C100.48 329.63 100.77 509.74 162.27 589.05Z" fill="#2A4891"/>
<path d="M152.79 589.35C152.79 589.35 103.21 531.53 59.6599 407.4C59.6599 407.4 92.5898 541.46 152.79 589.35Z" fill="#2A4891"/>
<path d="M172.66 588.89C172.66 588.89 146.34 514.79 152.29 379.66C152.29 379.66 131.85 520.22 172.66 588.89Z" fill="#2A4891"/>
<path d="M92.3898 0C92.3898 0 87.4098 211.08 92.3898 263.83C92.3898 263.83 70.3998 100.31 92.3898 0Z" fill="#2A4891"/>
<path d="M28.1098 0C28.1098 0 35.4099 216.36 44.9099 256.38C44.9099 256.38 18.6098 134.59 28.1098 0Z" fill="#2A4891"/>
</svg>
