<svg width="167" height="167" viewBox="0 0 167 167" fill="none" xmlns="http://www.w3.org/2000/svg">
<path opacity="0.1" d="M83.27 166.54C129.259 166.54 166.54 129.259 166.54 83.27C166.54 37.2813 129.259 0 83.27 0C37.2813 0 0 37.2813 0 83.27C0 129.259 37.2813 166.54 83.27 166.54Z" fill="#FDBF3F"/>
<path opacity="0.1" d="M123.579 123.58C145.842 101.316 145.842 65.2197 123.579 42.9559C101.315 20.6921 65.218 20.6921 42.9543 42.9559C20.6905 65.2197 20.6905 101.316 42.9543 123.58C65.218 145.844 101.315 145.844 123.579 123.58Z" fill="#FDBF3F"/>
<path d="M108.45 113.38C110.55 112.87 112.56 112.19 114.46 111.34C109.3 116.72 102.58 120.74 94.79 122.62C73.06 127.87 51.1899 114.5 45.9499 92.7801C40.6999 71.0501 54.07 49.1801 75.79 43.9401C83.58 42.0601 91.3899 42.5701 98.4399 45.0001C96.3599 45.1101 94.2601 45.42 92.1601 45.93C73.5301 50.43 62.08 69.1801 66.58 87.8101C71.08 106.44 89.8199 117.9 108.45 113.4V113.38Z" fill="#FDBF3F"/>
</svg>
