<svg width="320" height="80" viewBox="0 0 320 80" fill="none" xmlns="http://www.w3.org/2000/svg">
<path opacity="0.5" d="M315 70.76L315.73 74.43L319.39 75.16L315.73 75.89L315 79.55L314.27 75.89L310.6 75.16L314.27 74.43L315 70.76Z" fill="white"/>
<path opacity="0.5" d="M4.39014 21.08L5.12012 24.74L8.78003 25.47L5.12012 26.2L4.39014 29.87L3.66016 26.2L0 25.47L3.66016 24.74L4.39014 21.08Z" fill="white"/>
<path opacity="0.5" d="M231.23 0L231.96 3.66L235.62 4.38998L231.96 5.12L231.23 8.79001L230.5 5.12L226.84 4.38998L230.5 3.66L231.23 0Z" fill="white"/>
<path opacity="0.5" d="M124.34 61.98L125.07 65.64L128.74 66.37L125.07 67.1L124.34 70.76L123.61 67.1L119.95 66.37L123.61 65.64L124.34 61.98Z" fill="white"/>
</svg>
