<svg width="1079" height="861" viewBox="0 0 1079 861" fill="none" xmlns="http://www.w3.org/2000/svg">
<path d="M42.1201 0.0100021H52.1501C53.3301 0.320002 54.5002 0.66 55.6902 0.93C72.7702 4.79 84.8802 14.74 91.6802 30.85C93.0902 34.19 94.8201 35.27 98.3501 35.27C392.48 35.2 686.6 35.2 980.73 35.27C984.26 35.27 986.01 34.2 987.4 30.85C993.26 16.68 1003.6 7.11 1018.24 2.33C1021.09 1.4 1024.03 0.780002 1026.93 0.0100021H1036.96C1041.89 1.37 1046.92 2.31 1051.59 4.55C1077.15 16.82 1086.46 49.07 1071.67 74.25C1052.8 106.38 1009.99 107.16 990.04 75.68C988.6 73.41 986.86 72.95 984.48 72.94C970 72.87 955.52 72.72 941.04 72.6C858.39 71.93 775.73 72.33 693.07 71.97C579.78 71.48 466.48 71.37 353.19 72.2C267.3 72.84 181.41 71.98 95.53 72.87C91.94 72.91 90.0501 74.22 88.0901 77.12C78.0301 92.03 63.8901 99.82 45.8501 98.61C23.9601 97.14 6.09004 80.82 1.54004 59.32C0.990039 56.71 0.51 54.09 0 51.48V46.13C0.25 44.83 0.61 43.54 0.75 42.23C2.97 21.83 18.4201 4.95 38.5901 0.900002C39.7801 0.660002 40.9401 0.3 42.1201 0V0.0100021Z" fill="#144A78"/>
<path d="M856.93 777.59C856.8 763.28 856.66 747.33 856.5 730.09C855.69 640.6 854.56 516.03 853.52 401.59C852.13 248.21 850.91 113.05 850.86 104.97C850.82 100.43 850.08 99.58 845.46 99.55C830.54 99.46 215.51 99.51 213.17 99.58C210.2 99.67 208.76 101.03 208.83 104.23C208.98 111.5 208.62 118.78 208.45 126.06C208.13 140.02 206.64 282.27 205.2 437.76C204.97 461.5 204.75 485.54 204.54 509.48C203.58 615.98 202.73 720.48 202.36 786.97C202.17 819.6 202.11 843.08 202.2 853.15C202.25 858.83 202.94 859.6 208.72 860C209.34 860.04 209.96 860.04 210.58 860.04C277.72 859.57 785.45 860.01 849.52 860.02C850.74 860.02 851.97 859.79 853.19 859.67C856.5 859.37 857.62 857.65 857.6 854.27C857.58 851.12 857.33 822.28 856.93 777.59ZM511.95 816.51L243.98 818.25V141.28H511.95V816.51ZM815.77 818.25L547.8 816.51V141.28H815.77V818.25Z" fill="#144A78"/>
<g opacity="0.2">
<path d="M815.77 333.94V429.74L547.8 638.53V550.07L815.77 333.94Z" fill="#589EC6"/>
<path d="M815.77 506.64V548.16L547.8 770.7V720.06L815.77 506.64Z" fill="#589EC6"/>
</g>
<g opacity="0.2">
<path d="M512.32 197.41V294.89L244.35 502V413.54L512.32 197.41Z" fill="#589EC6"/>
<path d="M511.2 370.05V410.69L243.98 634.41V583.77L511.2 370.05Z" fill="#589EC6"/>
</g>
</svg>
